<?xml version="1.0" encoding="utf-8" standalone="no"?>
<!DOCTYPE svg PUBLIC "-//W3C//DTD SVG 1.1//EN"
  "http://www.w3.org/Graphics/SVG/1.1/DTD/svg11.dtd">
<svg xmlns:xlink="http://www.w3.org/1999/xlink" width="460.8pt" height="345.6pt" viewBox="0 0 460.8 345.6" xmlns="http://www.w3.org/2000/svg" version="1.1">
 <metadata>
  <rdf:RDF xmlns:dc="http://purl.org/dc/elements/1.1/" xmlns:cc="http://creativecommons.org/ns#" xmlns:rdf="http://www.w3.org/1999/02/22-rdf-syntax-ns#">
   <cc:Work>
    <dc:type rdf:resource="http://purl.org/dc/dcmitype/StillImage"/>
    <dc:date>2024-04-07T20:43:26.467018</dc:date>
    <dc:format>image/svg+xml</dc:format>
    <dc:creator>
     <cc:Agent>
      <dc:title>Matplotlib v3.5.2, https://matplotlib.org/</dc:title>
     </cc:Agent>
    </dc:creator>
   </cc:Work>
  </rdf:RDF>
 </metadata>
 <defs>
  <style type="text/css">*{stroke-linejoin: round; stroke-linecap: butt}</style>
 </defs>
 <g id="figure_1">
  <g id="patch_1">
   <path d="M 0 345.6 
L 460.8 345.6 
L 460.8 0 
L 0 0 
z
" style="fill: #ffffff"/>
  </g>
  <g id="axes_1">
   <g id="patch_2">
    <path d="M 41.15 300.76 
L 300.4852 300.76 
L 300.4852 26.88 
L 41.15 26.88 
z
" style="fill: #ffffff"/>
   </g>
   <g id="PathCollection_1">
    <defs>
     <path id="m32e0bb754c" d="M 0 2.236068 
C 0.593012 2.236068 1.161816 2.000462 1.581139 1.581139 
C 2.000462 1.161816 2.236068 0.593012 2.236068 0 
C 2.236068 -0.593012 2.000462 -1.161816 1.581139 -1.581139 
C 1.161816 -2.000462 0.593012 -2.236068 0 -2.236068 
C -0.593012 -2.236068 -1.161816 -2.000462 -1.581139 -1.581139 
C -2.000462 -1.161816 -2.236068 -0.593012 -2.236068 0 
C -2.236068 0.593012 -2.000462 1.161816 -1.581139 1.581139 
C -1.161816 2.000462 -0.593012 2.236068 0 2.236068 
z
" style="stroke: #0000ff"/>
    </defs>
    <g clip-path="url(#pa055a531af)">
     <use xlink:href="#m32e0bb754c" x="279.294661" y="172.736656" style="fill: #0000ff; stroke: #0000ff"/>
     <use xlink:href="#m32e0bb754c" x="149.662602" y="151.25169" style="fill: #0000ff; stroke: #0000ff"/>
     <use xlink:href="#m32e0bb754c" x="218.442748" y="140.986928" style="fill: #0000ff; stroke: #0000ff"/>
     <use xlink:href="#m32e0bb754c" x="210.042756" y="161.37438" style="fill: #0000ff; stroke: #0000ff"/>
     <use xlink:href="#m32e0bb754c" x="172.653562" y="147.192681" style="fill: #0000ff; stroke: #0000ff"/>
     <use xlink:href="#m32e0bb754c" x="265.583565" y="164.507323" style="fill: #0000ff; stroke: #0000ff"/>
     <use xlink:href="#m32e0bb754c" x="288.697236" y="172.736656" style="fill: #0000ff; stroke: #0000ff"/>
     <use xlink:href="#m32e0bb754c" x="287.757946" y="173.602926" style="fill: #0000ff; stroke: #0000ff"/>
     <use xlink:href="#m32e0bb754c" x="250.763586" y="217.433194" style="fill: #0000ff; stroke: #0000ff"/>
     <use xlink:href="#m32e0bb754c" x="258.644783" y="177.326855" style="fill: #0000ff; stroke: #0000ff"/>
     <use xlink:href="#m32e0bb754c" x="278.756144" y="159.633563" style="fill: #0000ff; stroke: #0000ff"/>
     <use xlink:href="#m32e0bb754c" x="267.674181" y="163.855406" style="fill: #0000ff; stroke: #0000ff"/>
     <use xlink:href="#m32e0bb754c" x="257.960451" y="170.271757" style="fill: #0000ff; stroke: #0000ff"/>
     <use xlink:href="#m32e0bb754c" x="52.937964" y="163.855406" style="fill: #0000ff; stroke: #0000ff"/>
     <use xlink:href="#m32e0bb754c" x="85.806062" y="161.37438" style="fill: #0000ff; stroke: #0000ff"/>
     <use xlink:href="#m32e0bb754c" x="253.18993" y="142.592189" style="fill: #0000ff; stroke: #0000ff"/>
     <use xlink:href="#m32e0bb754c" x="213.224591" y="162.590563" style="fill: #0000ff; stroke: #0000ff"/>
     <use xlink:href="#m32e0bb754c" x="282.434997" y="161.976624" style="fill: #0000ff; stroke: #0000ff"/>
     <use xlink:href="#m32e0bb754c" x="148.948513" y="153.963367" style="fill: #0000ff; stroke: #0000ff"/>
     <use xlink:href="#m32e0bb754c" x="242.561668" y="192.186892" style="fill: #0000ff; stroke: #0000ff"/>
     <use xlink:href="#m32e0bb754c" x="201.237742" y="177.326855" style="fill: #0000ff; stroke: #0000ff"/>
     <use xlink:href="#m32e0bb754c" x="185.676355" y="179.36736" style="fill: #0000ff; stroke: #0000ff"/>
     <use xlink:href="#m32e0bb754c" x="283.472717" y="189.173484" style="fill: #0000ff; stroke: #0000ff"/>
     <use xlink:href="#m32e0bb754c" x="273.002369" y="170.271757" style="fill: #0000ff; stroke: #0000ff"/>
     <use xlink:href="#m32e0bb754c" x="204.10067" y="154.921527" style="fill: #0000ff; stroke: #0000ff"/>
     <use xlink:href="#m32e0bb754c" x="168.568468" y="143.93779" style="fill: #0000ff; stroke: #0000ff"/>
     <use xlink:href="#m32e0bb754c" x="223.177391" y="147.192681" style="fill: #0000ff; stroke: #0000ff"/>
     <use xlink:href="#m32e0bb754c" x="259.958927" y="201.282494" style="fill: #0000ff; stroke: #0000ff"/>
     <use xlink:href="#m32e0bb754c" x="271.144136" y="164.507323" style="fill: #0000ff; stroke: #0000ff"/>
     <use xlink:href="#m32e0bb754c" x="249.164573" y="135.274709" style="fill: #0000ff; stroke: #0000ff"/>
    </g>
   </g>
   <g id="PathCollection_2">
    <defs>
     <path id="m4a4ce45a05" d="M -0 2.236068 
L 2.236068 -2.236068 
L -2.236068 -2.236068 
z
" style="stroke: #000000"/>
    </defs>
    <g clip-path="url(#pa055a531af)">
     <use xlink:href="#m4a4ce45a05" x="279.294661" y="225.378966" style="stroke: #000000"/>
     <use xlink:href="#m4a4ce45a05" x="149.662602" y="205.806893" style="stroke: #000000"/>
     <use xlink:href="#m4a4ce45a05" x="218.442748" y="166.547828" style="stroke: #000000"/>
     <use xlink:href="#m4a4ce45a05" x="210.042756" y="201.282494" style="stroke: #000000"/>
     <use xlink:href="#m4a4ce45a05" x="172.653562" y="182.698528" style="stroke: #000000"/>
     <use xlink:href="#m4a4ce45a05" x="265.583565" y="225.378966" style="stroke: #000000"/>
     <use xlink:href="#m4a4ce45a05" x="288.697236" y="243.072258" style="stroke: #000000"/>
     <use xlink:href="#m4a4ce45a05" x="287.757946" y="264.987392" style="stroke: #000000"/>
     <use xlink:href="#m4a4ce45a05" x="250.763586" y="236.01716" style="stroke: #000000"/>
     <use xlink:href="#m4a4ce45a05" x="258.644783" y="243.072258" style="stroke: #000000"/>
     <use xlink:href="#m4a4ce45a05" x="278.756144" y="217.433194" style="stroke: #000000"/>
     <use xlink:href="#m4a4ce45a05" x="267.674181" y="197.325229" style="stroke: #000000"/>
     <use xlink:href="#m4a4ce45a05" x="257.960451" y="225.378966" style="stroke: #000000"/>
     <use xlink:href="#m4a4ce45a05" x="52.937964" y="199.241989" style="stroke: #000000"/>
     <use xlink:href="#m4a4ce45a05" x="85.806062" y="201.282494" style="stroke: #000000"/>
     <use xlink:href="#m4a4ce45a05" x="253.18993" y="165.852924" style="stroke: #000000"/>
     <use xlink:href="#m4a4ce45a05" x="213.224591" y="214.102026" style="stroke: #000000"/>
     <use xlink:href="#m4a4ce45a05" x="282.434997" y="221.157123" style="stroke: #000000"/>
     <use xlink:href="#m4a4ce45a05" x="148.948513" y="201.282494" style="stroke: #000000"/>
     <use xlink:href="#m4a4ce45a05" x="201.237742" y="286.902526" style="stroke: #000000"/>
     <use xlink:href="#m4a4ce45a05" x="185.676355" y="243.072258" style="stroke: #000000"/>
     <use xlink:href="#m4a4ce45a05" x="283.472717" y="252.16786" style="stroke: #000000"/>
     <use xlink:href="#m4a4ce45a05" x="273.002369" y="236.01716" style="stroke: #000000"/>
     <use xlink:href="#m4a4ce45a05" x="204.10067" y="214.102026" style="stroke: #000000"/>
     <use xlink:href="#m4a4ce45a05" x="168.568468" y="179.36736" style="stroke: #000000"/>
     <use xlink:href="#m4a4ce45a05" x="223.177391" y="171.89349" style="stroke: #000000"/>
     <use xlink:href="#m4a4ce45a05" x="271.144136" y="230.252726" style="stroke: #000000"/>
     <use xlink:href="#m4a4ce45a05" x="249.164573" y="163.21666" style="stroke: #000000"/>
    </g>
   </g>
   <g id="PathCollection_3">
    <defs>
     <path id="me600ae3747" d="M -0.855706 -2.065857 
L -2.065857 -0.855706 
L -2.065857 0.855706 
L -0.855706 2.065857 
L 0.855706 2.065857 
L 2.065857 0.855706 
L 2.065857 -0.855706 
L 0.855706 -2.065857 
z
" style="stroke: #ff0000"/>
    </defs>
    <g clip-path="url(#pa055a531af)">
     <use xlink:href="#me600ae3747" x="279.294661" y="120.025138" style="fill: #ff0000; stroke: #ff0000"/>
     <use xlink:href="#me600ae3747" x="149.662602" y="113.359575" style="fill: #ff0000; stroke: #ff0000"/>
     <use xlink:href="#me600ae3747" x="218.442748" y="109.203124" style="fill: #ff0000; stroke: #ff0000"/>
     <use xlink:href="#me600ae3747" x="210.042756" y="169.491055" style="fill: #ff0000; stroke: #ff0000"/>
     <use xlink:href="#me600ae3747" x="172.653562" y="111.091259" style="fill: #ff0000; stroke: #ff0000"/>
     <use xlink:href="#me600ae3747" x="265.583565" y="115.382665" style="fill: #ff0000; stroke: #ff0000"/>
     <use xlink:href="#me600ae3747" x="288.697236" y="122.893699" style="fill: #ff0000; stroke: #ff0000"/>
     <use xlink:href="#me600ae3747" x="287.757946" y="128.906388" style="fill: #ff0000; stroke: #ff0000"/>
     <use xlink:href="#me600ae3747" x="250.763586" y="134.50038" style="fill: #ff0000; stroke: #ff0000"/>
     <use xlink:href="#me600ae3747" x="258.644783" y="145.704554" style="fill: #ff0000; stroke: #ff0000"/>
     <use xlink:href="#me600ae3747" x="278.756144" y="110.36993" style="fill: #ff0000; stroke: #ff0000"/>
     <use xlink:href="#me600ae3747" x="267.674181" y="106.778345" style="fill: #ff0000; stroke: #ff0000"/>
     <use xlink:href="#me600ae3747" x="257.960451" y="130.663332" style="fill: #ff0000; stroke: #ff0000"/>
     <use xlink:href="#me600ae3747" x="52.937964" y="109.088777" style="fill: #ff0000; stroke: #ff0000"/>
     <use xlink:href="#me600ae3747" x="85.806062" y="120.186861" style="fill: #ff0000; stroke: #ff0000"/>
     <use xlink:href="#me600ae3747" x="253.18993" y="121.174968" style="fill: #ff0000; stroke: #ff0000"/>
     <use xlink:href="#me600ae3747" x="213.224591" y="122.893699" style="fill: #ff0000; stroke: #ff0000"/>
     <use xlink:href="#me600ae3747" x="282.434997" y="106.88462" style="fill: #ff0000; stroke: #ff0000"/>
     <use xlink:href="#me600ae3747" x="148.948513" y="113.359575" style="fill: #ff0000; stroke: #ff0000"/>
     <use xlink:href="#me600ae3747" x="242.561668" y="159.633563" style="fill: #ff0000; stroke: #ff0000"/>
     <use xlink:href="#me600ae3747" x="201.237742" y="127.039933" style="fill: #ff0000; stroke: #ff0000"/>
     <use xlink:href="#me600ae3747" x="185.676355" y="115.522254" style="fill: #ff0000; stroke: #ff0000"/>
     <use xlink:href="#me600ae3747" x="283.472717" y="138.576858" style="fill: #ff0000; stroke: #ff0000"/>
     <use xlink:href="#me600ae3747" x="273.002369" y="124.339292" style="fill: #ff0000; stroke: #ff0000"/>
     <use xlink:href="#me600ae3747" x="204.10067" y="111.335405" style="fill: #ff0000; stroke: #ff0000"/>
     <use xlink:href="#me600ae3747" x="168.568468" y="119.864237" style="fill: #ff0000; stroke: #ff0000"/>
     <use xlink:href="#me600ae3747" x="223.177391" y="111.829429" style="fill: #ff0000; stroke: #ff0000"/>
     <use xlink:href="#me600ae3747" x="259.958927" y="154.921527" style="fill: #ff0000; stroke: #ff0000"/>
     <use xlink:href="#me600ae3747" x="271.144136" y="104.231328" style="fill: #ff0000; stroke: #ff0000"/>
     <use xlink:href="#me600ae3747" x="249.164573" y="107.421421" style="fill: #ff0000; stroke: #ff0000"/>
    </g>
   </g>
   <g id="PathCollection_4">
    <defs>
     <path id="md8b7866c9f" d="M -2.236068 2.236068 
L 2.236068 2.236068 
L 2.236068 -2.236068 
L -2.236068 -2.236068 
z
" style="stroke: #00bfbf"/>
    </defs>
    <g clip-path="url(#pa055a531af)">
     <use xlink:href="#md8b7866c9f" x="279.294661" y="67.443923" style="fill: #00bfbf; stroke: #00bfbf"/>
     <use xlink:href="#md8b7866c9f" x="149.662602" y="59.106481" style="fill: #00bfbf; stroke: #00bfbf"/>
     <use xlink:href="#md8b7866c9f" x="218.442748" y="60.968968" style="fill: #00bfbf; stroke: #00bfbf"/>
     <use xlink:href="#md8b7866c9f" x="210.042756" y="69.46405" style="fill: #00bfbf; stroke: #00bfbf"/>
     <use xlink:href="#md8b7866c9f" x="172.653562" y="60.844639" style="fill: #00bfbf; stroke: #00bfbf"/>
     <use xlink:href="#md8b7866c9f" x="265.583565" y="64.889712" style="fill: #00bfbf; stroke: #00bfbf"/>
     <use xlink:href="#md8b7866c9f" x="288.697236" y="72.327877" style="fill: #00bfbf; stroke: #00bfbf"/>
     <use xlink:href="#md8b7866c9f" x="287.757946" y="65.116154" style="fill: #00bfbf; stroke: #00bfbf"/>
     <use xlink:href="#md8b7866c9f" x="250.763586" y="62.50035" style="fill: #00bfbf; stroke: #00bfbf"/>
     <use xlink:href="#md8b7866c9f" x="258.644783" y="77.808113" style="fill: #00bfbf; stroke: #00bfbf"/>
     <use xlink:href="#md8b7866c9f" x="278.756144" y="63.402234" style="fill: #00bfbf; stroke: #00bfbf"/>
     <use xlink:href="#md8b7866c9f" x="267.674181" y="61.853236" style="fill: #00bfbf; stroke: #00bfbf"/>
     <use xlink:href="#md8b7866c9f" x="257.960451" y="76.033969" style="fill: #00bfbf; stroke: #00bfbf"/>
     <use xlink:href="#md8b7866c9f" x="52.937964" y="63.456096" style="fill: #00bfbf; stroke: #00bfbf"/>
     <use xlink:href="#md8b7866c9f" x="85.806062" y="67.968057" style="fill: #00bfbf; stroke: #00bfbf"/>
     <use xlink:href="#md8b7866c9f" x="253.18993" y="56.884454" style="fill: #00bfbf; stroke: #00bfbf"/>
     <use xlink:href="#md8b7866c9f" x="213.224591" y="65.144574" style="fill: #00bfbf; stroke: #00bfbf"/>
     <use xlink:href="#md8b7866c9f" x="282.434997" y="62.188082" style="fill: #00bfbf; stroke: #00bfbf"/>
     <use xlink:href="#md8b7866c9f" x="148.948513" y="61.572649" style="fill: #00bfbf; stroke: #00bfbf"/>
     <use xlink:href="#md8b7866c9f" x="242.561668" y="83.41169" style="fill: #00bfbf; stroke: #00bfbf"/>
     <use xlink:href="#md8b7866c9f" x="201.237742" y="68.91474" style="fill: #00bfbf; stroke: #00bfbf"/>
     <use xlink:href="#md8b7866c9f" x="185.676355" y="67.048897" style="fill: #00bfbf; stroke: #00bfbf"/>
     <use xlink:href="#md8b7866c9f" x="283.472717" y="68.532658" style="fill: #00bfbf; stroke: #00bfbf"/>
     <use xlink:href="#md8b7866c9f" x="273.002369" y="72.650684" style="fill: #00bfbf; stroke: #00bfbf"/>
     <use xlink:href="#md8b7866c9f" x="204.10067" y="63.945026" style="fill: #00bfbf; stroke: #00bfbf"/>
     <use xlink:href="#md8b7866c9f" x="168.568468" y="63.348464" style="fill: #00bfbf; stroke: #00bfbf"/>
     <use xlink:href="#md8b7866c9f" x="223.177391" y="58.501578" style="fill: #00bfbf; stroke: #00bfbf"/>
     <use xlink:href="#md8b7866c9f" x="259.958927" y="82.859197" style="fill: #00bfbf; stroke: #00bfbf"/>
     <use xlink:href="#md8b7866c9f" x="271.144136" y="60.844639" style="fill: #00bfbf; stroke: #00bfbf"/>
     <use xlink:href="#md8b7866c9f" x="249.164573" y="59.771124" style="fill: #00bfbf; stroke: #00bfbf"/>
    </g>
   </g>
   <g id="PathCollection_5">
    <defs>
     <path id="md37376a7f8" d="M 0 -2.236068 
L -2.126627 -0.690983 
L -1.314328 1.809017 
L 1.314328 1.809017 
L 2.126627 -0.690983 
z
" style="stroke: #bf00bf"/>
    </defs>
    <g clip-path="url(#pa055a531af)">
     <use xlink:href="#md37376a7f8" x="279.294661" y="186.422457" style="fill: #bf00bf; stroke: #bf00bf"/>
     <use xlink:href="#md37376a7f8" x="149.662602" y="172.736656" style="fill: #bf00bf; stroke: #bf00bf"/>
     <use xlink:href="#md37376a7f8" x="218.442748" y="154.921527" style="fill: #bf00bf; stroke: #bf00bf"/>
     <use xlink:href="#md37376a7f8" x="210.042756" y="179.36736" style="fill: #bf00bf; stroke: #bf00bf"/>
     <use xlink:href="#md37376a7f8" x="172.653562" y="159.073958" style="fill: #bf00bf; stroke: #bf00bf"/>
     <use xlink:href="#md37376a7f8" x="265.583565" y="189.173484" style="fill: #bf00bf; stroke: #bf00bf"/>
     <use xlink:href="#md37376a7f8" x="288.697236" y="201.282494" style="fill: #bf00bf; stroke: #bf00bf"/>
     <use xlink:href="#md37376a7f8" x="287.757946" y="201.282494" style="fill: #bf00bf; stroke: #bf00bf"/>
     <use xlink:href="#md37376a7f8" x="250.763586" y="201.282494" style="fill: #bf00bf; stroke: #bf00bf"/>
     <use xlink:href="#md37376a7f8" x="258.644783" y="180.43922" style="fill: #bf00bf; stroke: #bf00bf"/>
     <use xlink:href="#md37376a7f8" x="278.756144" y="167.985206" style="fill: #bf00bf; stroke: #bf00bf"/>
     <use xlink:href="#md37376a7f8" x="267.674181" y="190.6443" style="fill: #bf00bf; stroke: #bf00bf"/>
     <use xlink:href="#md37376a7f8" x="257.960451" y="199.241989" style="fill: #bf00bf; stroke: #bf00bf"/>
     <use xlink:href="#md37376a7f8" x="52.937964" y="190.6443" style="fill: #bf00bf; stroke: #bf00bf"/>
     <use xlink:href="#md37376a7f8" x="85.806062" y="186.422457" style="fill: #bf00bf; stroke: #bf00bf"/>
     <use xlink:href="#md37376a7f8" x="253.18993" y="157.983614" style="fill: #bf00bf; stroke: #bf00bf"/>
     <use xlink:href="#md37376a7f8" x="213.224591" y="193.808624" style="fill: #bf00bf; stroke: #bf00bf"/>
     <use xlink:href="#md37376a7f8" x="282.434997" y="185.131794" style="fill: #bf00bf; stroke: #bf00bf"/>
     <use xlink:href="#md37376a7f8" x="148.948513" y="179.36736" style="fill: #bf00bf; stroke: #bf00bf"/>
     <use xlink:href="#md37376a7f8" x="242.561668" y="192.186892" style="fill: #bf00bf; stroke: #bf00bf"/>
     <use xlink:href="#md37376a7f8" x="201.237742" y="171.89349" style="fill: #bf00bf; stroke: #bf00bf"/>
     <use xlink:href="#md37376a7f8" x="185.676355" y="186.422457" style="fill: #bf00bf; stroke: #bf00bf"/>
     <use xlink:href="#md37376a7f8" x="283.472717" y="199.241989" style="fill: #bf00bf; stroke: #bf00bf"/>
     <use xlink:href="#md37376a7f8" x="273.002369" y="203.463832" style="fill: #bf00bf; stroke: #bf00bf"/>
     <use xlink:href="#md37376a7f8" x="204.10067" y="158.524086" style="fill: #bf00bf; stroke: #bf00bf"/>
     <use xlink:href="#md37376a7f8" x="168.568468" y="161.37438" style="fill: #bf00bf; stroke: #bf00bf"/>
     <use xlink:href="#md37376a7f8" x="223.177391" y="168.729166" style="fill: #bf00bf; stroke: #bf00bf"/>
     <use xlink:href="#md37376a7f8" x="259.958927" y="214.102026" style="fill: #bf00bf; stroke: #bf00bf"/>
     <use xlink:href="#md37376a7f8" x="271.144136" y="179.36736" style="fill: #bf00bf; stroke: #bf00bf"/>
     <use xlink:href="#md37376a7f8" x="249.164573" y="149.157093" style="fill: #bf00bf; stroke: #bf00bf"/>
    </g>
   </g>
   <g id="PathCollection_6">
    <defs>
     <path id="m7c2698d8c9" d="M 0 -2.236068 
L -0.502029 -0.690983 
L -2.126627 -0.690983 
L -0.812299 0.263932 
L -1.314328 1.809017 
L -0 0.854102 
L 1.314328 1.809017 
L 0.812299 0.263932 
L 2.126627 -0.690983 
L 0.502029 -0.690983 
z
" style="stroke: #008000"/>
    </defs>
    <g clip-path="url(#pa055a531af)">
     <use xlink:href="#m7c2698d8c9" x="279.294661" y="225.378966" style="fill: #008000; stroke: #008000"/>
     <use xlink:href="#m7c2698d8c9" x="149.662602" y="230.252726" style="fill: #008000; stroke: #008000"/>
     <use xlink:href="#m7c2698d8c9" x="218.442748" y="225.378966" style="fill: #008000; stroke: #008000"/>
     <use xlink:href="#m7c2698d8c9" x="210.042756" y="230.252726" style="fill: #008000; stroke: #008000"/>
     <use xlink:href="#m7c2698d8c9" x="172.653562" y="236.01716" style="fill: #008000; stroke: #008000"/>
     <use xlink:href="#m7c2698d8c9" x="265.583565" y="243.072258" style="fill: #008000; stroke: #008000"/>
     <use xlink:href="#m7c2698d8c9" x="288.697236" y="230.252726" style="fill: #008000; stroke: #008000"/>
     <use xlink:href="#m7c2698d8c9" x="287.757946" y="243.072258" style="fill: #008000; stroke: #008000"/>
     <use xlink:href="#m7c2698d8c9" x="250.763586" y="236.01716" style="fill: #008000; stroke: #008000"/>
     <use xlink:href="#m7c2698d8c9" x="258.644783" y="211.088618" style="fill: #008000; stroke: #008000"/>
     <use xlink:href="#m7c2698d8c9" x="278.756144" y="211.088618" style="fill: #008000; stroke: #008000"/>
     <use xlink:href="#m7c2698d8c9" x="267.674181" y="230.252726" style="fill: #008000; stroke: #008000"/>
     <use xlink:href="#m7c2698d8c9" x="257.960451" y="264.987392" style="fill: #008000; stroke: #008000"/>
     <use xlink:href="#m7c2698d8c9" x="52.937964" y="236.01716" style="fill: #008000; stroke: #008000"/>
     <use xlink:href="#m7c2698d8c9" x="85.806062" y="221.157123" style="fill: #008000; stroke: #008000"/>
     <use xlink:href="#m7c2698d8c9" x="253.18993" y="211.088618" style="fill: #008000; stroke: #008000"/>
     <use xlink:href="#m7c2698d8c9" x="213.224591" y="264.987392" style="fill: #008000; stroke: #008000"/>
     <use xlink:href="#m7c2698d8c9" x="282.434997" y="264.987392" style="fill: #008000; stroke: #008000"/>
     <use xlink:href="#m7c2698d8c9" x="148.948513" y="225.378966" style="fill: #008000; stroke: #008000"/>
     <use xlink:href="#m7c2698d8c9" x="242.561668" y="243.072258" style="fill: #008000; stroke: #008000"/>
     <use xlink:href="#m7c2698d8c9" x="201.237742" y="208.337592" style="fill: #008000; stroke: #008000"/>
     <use xlink:href="#m7c2698d8c9" x="185.676355" y="243.072258" style="fill: #008000; stroke: #008000"/>
     <use xlink:href="#m7c2698d8c9" x="283.472717" y="252.16786" style="fill: #008000; stroke: #008000"/>
     <use xlink:href="#m7c2698d8c9" x="273.002369" y="264.987392" style="fill: #008000; stroke: #008000"/>
     <use xlink:href="#m7c2698d8c9" x="204.10067" y="208.337592" style="fill: #008000; stroke: #008000"/>
     <use xlink:href="#m7c2698d8c9" x="168.568468" y="214.102026" style="fill: #008000; stroke: #008000"/>
     <use xlink:href="#m7c2698d8c9" x="223.177391" y="236.01716" style="fill: #008000; stroke: #008000"/>
     <use xlink:href="#m7c2698d8c9" x="259.958927" y="286.902526" style="fill: #008000; stroke: #008000"/>
     <use xlink:href="#m7c2698d8c9" x="271.144136" y="230.252726" style="fill: #008000; stroke: #008000"/>
     <use xlink:href="#m7c2698d8c9" x="249.164573" y="236.01716" style="fill: #008000; stroke: #008000"/>
    </g>
   </g>
   <g id="PathCollection_7">
    <defs>
     <path id="mb9e83d8347" d="M 0 -2.236068 
L -1.936492 -1.118034 
L -1.936492 1.118034 
L -0 2.236068 
L 1.936492 1.118034 
L 1.936492 -1.118034 
z
" style="stroke: #bfbf00"/>
    </defs>
    <g clip-path="url(#pa055a531af)">
     <use xlink:href="#mb9e83d8347" x="279.294661" y="123.608234" style="fill: #bfbf00; stroke: #bfbf00"/>
     <use xlink:href="#mb9e83d8347" x="149.662602" y="114.830392" style="fill: #bfbf00; stroke: #bfbf00"/>
     <use xlink:href="#mb9e83d8347" x="218.442748" y="104.924056" style="fill: #bfbf00; stroke: #bfbf00"/>
     <use xlink:href="#mb9e83d8347" x="210.042756" y="117.395326" style="fill: #bfbf00; stroke: #bfbf00"/>
     <use xlink:href="#mb9e83d8347" x="172.653562" y="106.778345" style="fill: #bfbf00; stroke: #bfbf00"/>
     <use xlink:href="#mb9e83d8347" x="265.583565" y="127.039933" style="fill: #bfbf00; stroke: #bfbf00"/>
     <use xlink:href="#mb9e83d8347" x="288.697236" y="135.537091" style="fill: #bfbf00; stroke: #bfbf00"/>
     <use xlink:href="#mb9e83d8347" x="287.757946" y="132.285064" style="fill: #bfbf00; stroke: #bfbf00"/>
     <use xlink:href="#mb9e83d8347" x="250.763586" y="147.57592" style="fill: #bfbf00; stroke: #bfbf00"/>
     <use xlink:href="#mb9e83d8347" x="258.644783" y="137.158824" style="fill: #bfbf00; stroke: #bfbf00"/>
     <use xlink:href="#mb9e83d8347" x="278.756144" y="116.661724" style="fill: #bfbf00; stroke: #bfbf00"/>
     <use xlink:href="#mb9e83d8347" x="267.674181" y="129.336556" style="fill: #bfbf00; stroke: #bfbf00"/>
     <use xlink:href="#mb9e83d8347" x="257.960451" y="130.889977" style="fill: #bfbf00; stroke: #bfbf00"/>
     <use xlink:href="#mb9e83d8347" x="52.937964" y="129.992985" style="fill: #bfbf00; stroke: #bfbf00"/>
     <use xlink:href="#mb9e83d8347" x="85.806062" y="121.680849" style="fill: #bfbf00; stroke: #bfbf00"/>
     <use xlink:href="#mb9e83d8347" x="253.18993" y="104.924056" style="fill: #bfbf00; stroke: #bfbf00"/>
     <use xlink:href="#mb9e83d8347" x="213.224591" y="126.048728" style="fill: #bfbf00; stroke: #bfbf00"/>
     <use xlink:href="#mb9e83d8347" x="282.434997" y="123.070824" style="fill: #bfbf00; stroke: #bfbf00"/>
     <use xlink:href="#mb9e83d8347" x="148.948513" y="117.544112" style="fill: #bfbf00; stroke: #bfbf00"/>
     <use xlink:href="#mb9e83d8347" x="242.561668" y="151.687791" style="fill: #bfbf00; stroke: #bfbf00"/>
     <use xlink:href="#mb9e83d8347" x="201.237742" y="131.579826" style="fill: #bfbf00; stroke: #bfbf00"/>
     <use xlink:href="#mb9e83d8347" x="185.676355" y="129.12074" style="fill: #bfbf00; stroke: #bfbf00"/>
     <use xlink:href="#mb9e83d8347" x="283.472717" y="137.437389" style="fill: #bfbf00; stroke: #bfbf00"/>
     <use xlink:href="#mb9e83d8347" x="273.002369" y="136.608952" style="fill: #bfbf00; stroke: #bfbf00"/>
     <use xlink:href="#mb9e83d8347" x="204.10067" y="113.229196" style="fill: #bfbf00; stroke: #bfbf00"/>
     <use xlink:href="#mb9e83d8347" x="168.568468" y="108.974843" style="fill: #bfbf00; stroke: #bfbf00"/>
     <use xlink:href="#mb9e83d8347" x="223.177391" y="107.421421" style="fill: #bfbf00; stroke: #bfbf00"/>
     <use xlink:href="#mb9e83d8347" x="259.958927" y="156.929621" style="fill: #bfbf00; stroke: #bfbf00"/>
     <use xlink:href="#mb9e83d8347" x="271.144136" y="123.97165" style="fill: #bfbf00; stroke: #bfbf00"/>
     <use xlink:href="#mb9e83d8347" x="249.164573" y="96.307315" style="fill: #bfbf00; stroke: #bfbf00"/>
    </g>
   </g>
   <g id="PathCollection_8">
    <defs>
     <path id="mcbb14bd99b" d="M -2.236068 0 
L 2.236068 0 
M 0 2.236068 
L 0 -2.236068 
" style="stroke: #9467bd; stroke-width: 1.5"/>
    </defs>
    <g clip-path="url(#pa055a531af)">
     <use xlink:href="#mcbb14bd99b" x="279.294661" y="111.829429" style="fill: #9467bd; stroke: #9467bd; stroke-width: 1.5"/>
     <use xlink:href="#mcbb14bd99b" x="149.662602" y="101.244627" style="fill: #9467bd; stroke: #9467bd; stroke-width: 1.5"/>
     <use xlink:href="#mcbb14bd99b" x="218.442748" y="99.85082" style="fill: #9467bd; stroke: #9467bd; stroke-width: 1.5"/>
     <use xlink:href="#mcbb14bd99b" x="210.042756" y="165.172966" style="fill: #9467bd; stroke: #9467bd; stroke-width: 1.5"/>
     <use xlink:href="#mcbb14bd99b" x="172.653562" y="100.714723" style="fill: #9467bd; stroke: #9467bd; stroke-width: 1.5"/>
     <use xlink:href="#mcbb14bd99b" x="265.583565" y="105.024268" style="fill: #9467bd; stroke: #9467bd; stroke-width: 1.5"/>
     <use xlink:href="#mcbb14bd99b" x="288.697236" y="112.331294" style="fill: #9467bd; stroke: #9467bd; stroke-width: 1.5"/>
     <use xlink:href="#mcbb14bd99b" x="287.757946" y="106.461646" style="fill: #9467bd; stroke: #9467bd; stroke-width: 1.5"/>
     <use xlink:href="#mcbb14bd99b" x="250.763586" y="117.247238" style="fill: #9467bd; stroke: #9467bd; stroke-width: 1.5"/>
     <use xlink:href="#mcbb14bd99b" x="258.644783" y="125.087655" style="fill: #9467bd; stroke: #9467bd; stroke-width: 1.5"/>
     <use xlink:href="#mcbb14bd99b" x="278.756144" y="104.625312" style="fill: #9467bd; stroke: #9467bd; stroke-width: 1.5"/>
     <use xlink:href="#mcbb14bd99b" x="267.674181" y="97.949103" style="fill: #9467bd; stroke: #9467bd; stroke-width: 1.5"/>
     <use xlink:href="#mcbb14bd99b" x="257.960451" y="116.372983" style="fill: #9467bd; stroke: #9467bd; stroke-width: 1.5"/>
     <use xlink:href="#mcbb14bd99b" x="52.937964" y="101.423253" style="fill: #9467bd; stroke: #9467bd; stroke-width: 1.5"/>
     <use xlink:href="#mcbb14bd99b" x="85.806062" y="112.458015" style="fill: #9467bd; stroke: #9467bd; stroke-width: 1.5"/>
     <use xlink:href="#mcbb14bd99b" x="253.18993" y="105.326824" style="fill: #9467bd; stroke: #9467bd; stroke-width: 1.5"/>
     <use xlink:href="#mcbb14bd99b" x="213.224591" y="109.203124" style="fill: #9467bd; stroke: #9467bd; stroke-width: 1.5"/>
     <use xlink:href="#mcbb14bd99b" x="282.434997" y="102.331846" style="fill: #9467bd; stroke: #9467bd; stroke-width: 1.5"/>
     <use xlink:href="#mcbb14bd99b" x="148.948513" y="102.148027" style="fill: #9467bd; stroke: #9467bd; stroke-width: 1.5"/>
     <use xlink:href="#mcbb14bd99b" x="242.561668" y="125.277547" style="fill: #9467bd; stroke: #9467bd; stroke-width: 1.5"/>
     <use xlink:href="#mcbb14bd99b" x="201.237742" y="111.581452" style="fill: #9467bd; stroke: #9467bd; stroke-width: 1.5"/>
     <use xlink:href="#mcbb14bd99b" x="185.676355" y="105.632303" style="fill: #9467bd; stroke: #9467bd; stroke-width: 1.5"/>
     <use xlink:href="#mcbb14bd99b" x="283.472717" y="115.522254" style="fill: #9467bd; stroke: #9467bd; stroke-width: 1.5"/>
     <use xlink:href="#mcbb14bd99b" x="273.002369" y="109.664692" style="fill: #9467bd; stroke: #9467bd; stroke-width: 1.5"/>
     <use xlink:href="#mcbb14bd99b" x="204.10067" y="100.279821" style="fill: #9467bd; stroke: #9467bd; stroke-width: 1.5"/>
     <use xlink:href="#mcbb14bd99b" x="168.568468" y="105.326824" style="fill: #9467bd; stroke: #9467bd; stroke-width: 1.5"/>
     <use xlink:href="#mcbb14bd99b" x="223.177391" y="107.421421" style="fill: #9467bd; stroke: #9467bd; stroke-width: 1.5"/>
     <use xlink:href="#mcbb14bd99b" x="259.958927" y="125.854162" style="fill: #9467bd; stroke: #9467bd; stroke-width: 1.5"/>
     <use xlink:href="#mcbb14bd99b" x="271.144136" y="102.424158" style="fill: #9467bd; stroke: #9467bd; stroke-width: 1.5"/>
     <use xlink:href="#mcbb14bd99b" x="249.164573" y="114.967558" style="fill: #9467bd; stroke: #9467bd; stroke-width: 1.5"/>
    </g>
   </g>
   <g id="PathCollection_9">
    <defs>
     <path id="m79d1f03e0f" d="M -2.236068 2.236068 
L 2.236068 -2.236068 
M -2.236068 -2.236068 
L 2.236068 2.236068 
" style="stroke: #8c564b; stroke-width: 1.5"/>
    </defs>
    <g clip-path="url(#pa055a531af)">
     <use xlink:href="#m79d1f03e0f" x="279.294661" y="203.463832" style="fill: #8c564b; stroke: #8c564b; stroke-width: 1.5"/>
     <use xlink:href="#m79d1f03e0f" x="149.662602" y="201.282494" style="fill: #8c564b; stroke: #8c564b; stroke-width: 1.5"/>
     <use xlink:href="#m79d1f03e0f" x="218.442748" y="199.241989" style="fill: #8c564b; stroke: #8c564b; stroke-width: 1.5"/>
     <use xlink:href="#m79d1f03e0f" x="210.042756" y="243.072258" style="fill: #8c564b; stroke: #8c564b; stroke-width: 1.5"/>
     <use xlink:href="#m79d1f03e0f" x="172.653562" y="217.433194" style="fill: #8c564b; stroke: #8c564b; stroke-width: 1.5"/>
     <use xlink:href="#m79d1f03e0f" x="265.583565" y="221.157123" style="fill: #8c564b; stroke: #8c564b; stroke-width: 1.5"/>
     <use xlink:href="#m79d1f03e0f" x="288.697236" y="264.987392" style="fill: #8c564b; stroke: #8c564b; stroke-width: 1.5"/>
     <use xlink:href="#m79d1f03e0f" x="287.757946" y="208.337592" style="fill: #8c564b; stroke: #8c564b; stroke-width: 1.5"/>
     <use xlink:href="#m79d1f03e0f" x="250.763586" y="208.337592" style="fill: #8c564b; stroke: #8c564b; stroke-width: 1.5"/>
     <use xlink:href="#m79d1f03e0f" x="258.644783" y="286.902526" style="fill: #8c564b; stroke: #8c564b; stroke-width: 1.5"/>
     <use xlink:href="#m79d1f03e0f" x="278.756144" y="192.186892" style="fill: #8c564b; stroke: #8c564b; stroke-width: 1.5"/>
     <use xlink:href="#m79d1f03e0f" x="267.674181" y="203.463832" style="fill: #8c564b; stroke: #8c564b; stroke-width: 1.5"/>
     <use xlink:href="#m79d1f03e0f" x="257.960451" y="236.01716" style="fill: #8c564b; stroke: #8c564b; stroke-width: 1.5"/>
     <use xlink:href="#m79d1f03e0f" x="52.937964" y="217.433194" style="fill: #8c564b; stroke: #8c564b; stroke-width: 1.5"/>
     <use xlink:href="#m79d1f03e0f" x="85.806062" y="230.252726" style="fill: #8c564b; stroke: #8c564b; stroke-width: 1.5"/>
     <use xlink:href="#m79d1f03e0f" x="253.18993" y="230.252726" style="fill: #8c564b; stroke: #8c564b; stroke-width: 1.5"/>
     <use xlink:href="#m79d1f03e0f" x="213.224591" y="230.252726" style="fill: #8c564b; stroke: #8c564b; stroke-width: 1.5"/>
     <use xlink:href="#m79d1f03e0f" x="282.434997" y="214.102026" style="fill: #8c564b; stroke: #8c564b; stroke-width: 1.5"/>
     <use xlink:href="#m79d1f03e0f" x="148.948513" y="217.433194" style="fill: #8c564b; stroke: #8c564b; stroke-width: 1.5"/>
     <use xlink:href="#m79d1f03e0f" x="242.561668" y="286.902526" style="fill: #8c564b; stroke: #8c564b; stroke-width: 1.5"/>
     <use xlink:href="#m79d1f03e0f" x="201.237742" y="214.102026" style="fill: #8c564b; stroke: #8c564b; stroke-width: 1.5"/>
     <use xlink:href="#m79d1f03e0f" x="185.676355" y="214.102026" style="fill: #8c564b; stroke: #8c564b; stroke-width: 1.5"/>
     <use xlink:href="#m79d1f03e0f" x="283.472717" y="214.102026" style="fill: #8c564b; stroke: #8c564b; stroke-width: 1.5"/>
     <use xlink:href="#m79d1f03e0f" x="273.002369" y="236.01716" style="fill: #8c564b; stroke: #8c564b; stroke-width: 1.5"/>
     <use xlink:href="#m79d1f03e0f" x="204.10067" y="211.088618" style="fill: #8c564b; stroke: #8c564b; stroke-width: 1.5"/>
     <use xlink:href="#m79d1f03e0f" x="168.568468" y="230.252726" style="fill: #8c564b; stroke: #8c564b; stroke-width: 1.5"/>
     <use xlink:href="#m79d1f03e0f" x="223.177391" y="230.252726" style="fill: #8c564b; stroke: #8c564b; stroke-width: 1.5"/>
     <use xlink:href="#m79d1f03e0f" x="259.958927" y="286.902526" style="fill: #8c564b; stroke: #8c564b; stroke-width: 1.5"/>
     <use xlink:href="#m79d1f03e0f" x="271.144136" y="205.806893" style="fill: #8c564b; stroke: #8c564b; stroke-width: 1.5"/>
     <use xlink:href="#m79d1f03e0f" x="249.164573" y="225.378966" style="fill: #8c564b; stroke: #8c564b; stroke-width: 1.5"/>
    </g>
   </g>
   <g id="PathCollection_10">
    <defs>
     <path id="m8f7ceb5f93" d="M 0 -2.236068 
L -2.236068 2.236068 
L 2.236068 2.236068 
z
" style="stroke: #ff7f0e"/>
    </defs>
    <g clip-path="url(#pa055a531af)">
     <use xlink:href="#m8f7ceb5f93" x="279.294661" y="50.843888" style="fill: #ff7f0e; stroke: #ff7f0e"/>
     <use xlink:href="#m8f7ceb5f93" x="149.662602" y="41.920585" style="fill: #ff7f0e; stroke: #ff7f0e"/>
     <use xlink:href="#m8f7ceb5f93" x="218.442748" y="39.963734" style="fill: #ff7f0e; stroke: #ff7f0e"/>
     <use xlink:href="#m8f7ceb5f93" x="210.042756" y="58.340677" style="fill: #ff7f0e; stroke: #ff7f0e"/>
     <use xlink:href="#m8f7ceb5f93" x="172.653562" y="41.165842" style="fill: #ff7f0e; stroke: #ff7f0e"/>
     <use xlink:href="#m8f7ceb5f93" x="265.583565" y="48.058214" style="fill: #ff7f0e; stroke: #ff7f0e"/>
     <use xlink:href="#m8f7ceb5f93" x="288.697236" y="55.702579" style="fill: #ff7f0e; stroke: #ff7f0e"/>
     <use xlink:href="#m8f7ceb5f93" x="287.757946" y="50.555806" style="fill: #ff7f0e; stroke: #ff7f0e"/>
     <use xlink:href="#m8f7ceb5f93" x="250.763586" y="52.192635" style="fill: #ff7f0e; stroke: #ff7f0e"/>
     <use xlink:href="#m8f7ceb5f93" x="258.644783" y="63.001169" style="fill: #ff7f0e; stroke: #ff7f0e"/>
     <use xlink:href="#m8f7ceb5f93" x="278.756144" y="44.788384" style="fill: #ff7f0e; stroke: #ff7f0e"/>
     <use xlink:href="#m8f7ceb5f93" x="267.674181" y="43.87573" style="fill: #ff7f0e; stroke: #ff7f0e"/>
     <use xlink:href="#m8f7ceb5f93" x="257.960451" y="58.849146" style="fill: #ff7f0e; stroke: #ff7f0e"/>
     <use xlink:href="#m8f7ceb5f93" x="52.937964" y="45.86694" style="fill: #ff7f0e; stroke: #ff7f0e"/>
     <use xlink:href="#m8f7ceb5f93" x="85.806062" y="50.75358" style="fill: #ff7f0e; stroke: #ff7f0e"/>
     <use xlink:href="#m8f7ceb5f93" x="253.18993" y="39.797497" style="fill: #ff7f0e; stroke: #ff7f0e"/>
     <use xlink:href="#m8f7ceb5f93" x="213.224591" y="49.619857" style="fill: #ff7f0e; stroke: #ff7f0e"/>
     <use xlink:href="#m8f7ceb5f93" x="282.434997" y="44.50589" style="fill: #ff7f0e; stroke: #ff7f0e"/>
     <use xlink:href="#m8f7ceb5f93" x="148.948513" y="43.977462" style="fill: #ff7f0e; stroke: #ff7f0e"/>
     <use xlink:href="#m8f7ceb5f93" x="242.561668" y="69.69304" style="fill: #ff7f0e; stroke: #ff7f0e"/>
     <use xlink:href="#m8f7ceb5f93" x="201.237742" y="53.073065" style="fill: #ff7f0e; stroke: #ff7f0e"/>
     <use xlink:href="#m8f7ceb5f93" x="185.676355" y="49.8995" style="fill: #ff7f0e; stroke: #ff7f0e"/>
     <use xlink:href="#m8f7ceb5f93" x="283.472717" y="55.660423" style="fill: #ff7f0e; stroke: #ff7f0e"/>
     <use xlink:href="#m8f7ceb5f93" x="273.002369" y="55.639366" style="fill: #ff7f0e; stroke: #ff7f0e"/>
     <use xlink:href="#m8f7ceb5f93" x="204.10067" y="43.890243" style="fill: #ff7f0e; stroke: #ff7f0e"/>
     <use xlink:href="#m8f7ceb5f93" x="168.568468" y="44.225897" style="fill: #ff7f0e; stroke: #ff7f0e"/>
     <use xlink:href="#m8f7ceb5f93" x="223.177391" y="41.032942" style="fill: #ff7f0e; stroke: #ff7f0e"/>
     <use xlink:href="#m8f7ceb5f93" x="259.958927" y="70.089495" style="fill: #ff7f0e; stroke: #ff7f0e"/>
     <use xlink:href="#m8f7ceb5f93" x="271.144136" y="43.357645" style="fill: #ff7f0e; stroke: #ff7f0e"/>
     <use xlink:href="#m8f7ceb5f93" x="249.164573" y="39.329091" style="fill: #ff7f0e; stroke: #ff7f0e"/>
    </g>
   </g>
   <g id="matplotlib.axis_1">
    <g id="xtick_1">
     <g id="line2d_1">
      <defs>
       <path id="mea1807c06e" d="M 0 0 
L 0 3.5 
" style="stroke: #000000; stroke-width: 0.8"/>
      </defs>
      <g>
       <use xlink:href="#mea1807c06e" x="62.07888" y="300.76" style="stroke: #000000; stroke-width: 0.8"/>
      </g>
     </g>
     <g id="text_1">
      <!-- 0 -->
      <g transform="translate(58.89763 315.358437)scale(0.1 -0.1)">
       <defs>
        <path id="DejaVuSans-30" d="M 2034 4250 
Q 1547 4250 1301 3770 
Q 1056 3291 1056 2328 
Q 1056 1369 1301 889 
Q 1547 409 2034 409 
Q 2525 409 2770 889 
Q 3016 1369 3016 2328 
Q 3016 3291 2770 3770 
Q 2525 4250 2034 4250 
z
M 2034 4750 
Q 2819 4750 3233 4129 
Q 3647 3509 3647 2328 
Q 3647 1150 3233 529 
Q 2819 -91 2034 -91 
Q 1250 -91 836 529 
Q 422 1150 422 2328 
Q 422 3509 836 4129 
Q 1250 4750 2034 4750 
z
" transform="scale(0.015625)"/>
       </defs>
       <use xlink:href="#DejaVuSans-30"/>
      </g>
     </g>
    </g>
    <g id="xtick_2">
     <g id="line2d_2">
      <g>
       <use xlink:href="#mea1807c06e" x="118.801589" y="300.76" style="stroke: #000000; stroke-width: 0.8"/>
      </g>
     </g>
     <g id="text_2">
      <!-- 1 -->
      <g transform="translate(115.620339 315.358437)scale(0.1 -0.1)">
       <defs>
        <path id="DejaVuSans-31" d="M 794 531 
L 1825 531 
L 1825 4091 
L 703 3866 
L 703 4441 
L 1819 4666 
L 2450 4666 
L 2450 531 
L 3481 531 
L 3481 0 
L 794 0 
L 794 531 
z
" transform="scale(0.015625)"/>
       </defs>
       <use xlink:href="#DejaVuSans-31"/>
      </g>
     </g>
    </g>
    <g id="xtick_3">
     <g id="line2d_3">
      <g>
       <use xlink:href="#mea1807c06e" x="175.524298" y="300.76" style="stroke: #000000; stroke-width: 0.8"/>
      </g>
     </g>
     <g id="text_3">
      <!-- 2 -->
      <g transform="translate(172.343048 315.358437)scale(0.1 -0.1)">
       <defs>
        <path id="DejaVuSans-32" d="M 1228 531 
L 3431 531 
L 3431 0 
L 469 0 
L 469 531 
Q 828 903 1448 1529 
Q 2069 2156 2228 2338 
Q 2531 2678 2651 2914 
Q 2772 3150 2772 3378 
Q 2772 3750 2511 3984 
Q 2250 4219 1831 4219 
Q 1534 4219 1204 4116 
Q 875 4013 500 3803 
L 500 4441 
Q 881 4594 1212 4672 
Q 1544 4750 1819 4750 
Q 2544 4750 2975 4387 
Q 3406 4025 3406 3419 
Q 3406 3131 3298 2873 
Q 3191 2616 2906 2266 
Q 2828 2175 2409 1742 
Q 1991 1309 1228 531 
z
" transform="scale(0.015625)"/>
       </defs>
       <use xlink:href="#DejaVuSans-32"/>
      </g>
     </g>
    </g>
    <g id="xtick_4">
     <g id="line2d_4">
      <g>
       <use xlink:href="#mea1807c06e" x="232.247007" y="300.76" style="stroke: #000000; stroke-width: 0.8"/>
      </g>
     </g>
     <g id="text_4">
      <!-- 3 -->
      <g transform="translate(229.065757 315.358437)scale(0.1 -0.1)">
       <defs>
        <path id="DejaVuSans-33" d="M 2597 2516 
Q 3050 2419 3304 2112 
Q 3559 1806 3559 1356 
Q 3559 666 3084 287 
Q 2609 -91 1734 -91 
Q 1441 -91 1130 -33 
Q 819 25 488 141 
L 488 750 
Q 750 597 1062 519 
Q 1375 441 1716 441 
Q 2309 441 2620 675 
Q 2931 909 2931 1356 
Q 2931 1769 2642 2001 
Q 2353 2234 1838 2234 
L 1294 2234 
L 1294 2753 
L 1863 2753 
Q 2328 2753 2575 2939 
Q 2822 3125 2822 3475 
Q 2822 3834 2567 4026 
Q 2313 4219 1838 4219 
Q 1578 4219 1281 4162 
Q 984 4106 628 3988 
L 628 4550 
Q 988 4650 1302 4700 
Q 1616 4750 1894 4750 
Q 2613 4750 3031 4423 
Q 3450 4097 3450 3541 
Q 3450 3153 3228 2886 
Q 3006 2619 2597 2516 
z
" transform="scale(0.015625)"/>
       </defs>
       <use xlink:href="#DejaVuSans-33"/>
      </g>
     </g>
    </g>
    <g id="xtick_5">
     <g id="line2d_5">
      <g>
       <use xlink:href="#mea1807c06e" x="288.969716" y="300.76" style="stroke: #000000; stroke-width: 0.8"/>
      </g>
     </g>
     <g id="text_5">
      <!-- 4 -->
      <g transform="translate(285.788466 315.358437)scale(0.1 -0.1)">
       <defs>
        <path id="DejaVuSans-34" d="M 2419 4116 
L 825 1625 
L 2419 1625 
L 2419 4116 
z
M 2253 4666 
L 3047 4666 
L 3047 1625 
L 3713 1625 
L 3713 1100 
L 3047 1100 
L 3047 0 
L 2419 0 
L 2419 1100 
L 313 1100 
L 313 1709 
L 2253 4666 
z
" transform="scale(0.015625)"/>
       </defs>
       <use xlink:href="#DejaVuSans-34"/>
      </g>
     </g>
    </g>
    <g id="text_6">
     <!-- Min basin elevation (in log10) -->
     <g transform="translate(69.810412 330.55625)scale(0.12 -0.12)">
      <defs>
       <path id="DejaVuSans-Bold-4d" d="M 588 4666 
L 2119 4666 
L 3181 2169 
L 4250 4666 
L 5778 4666 
L 5778 0 
L 4641 0 
L 4641 3413 
L 3566 897 
L 2803 897 
L 1728 3413 
L 1728 0 
L 588 0 
L 588 4666 
z
" transform="scale(0.015625)"/>
       <path id="DejaVuSans-Bold-69" d="M 538 3500 
L 1656 3500 
L 1656 0 
L 538 0 
L 538 3500 
z
M 538 4863 
L 1656 4863 
L 1656 3950 
L 538 3950 
L 538 4863 
z
" transform="scale(0.015625)"/>
       <path id="DejaVuSans-Bold-6e" d="M 4056 2131 
L 4056 0 
L 2931 0 
L 2931 347 
L 2931 1631 
Q 2931 2084 2911 2256 
Q 2891 2428 2841 2509 
Q 2775 2619 2662 2680 
Q 2550 2741 2406 2741 
Q 2056 2741 1856 2470 
Q 1656 2200 1656 1722 
L 1656 0 
L 538 0 
L 538 3500 
L 1656 3500 
L 1656 2988 
Q 1909 3294 2193 3439 
Q 2478 3584 2822 3584 
Q 3428 3584 3742 3212 
Q 4056 2841 4056 2131 
z
" transform="scale(0.015625)"/>
       <path id="DejaVuSans-Bold-20" transform="scale(0.015625)"/>
       <path id="DejaVuSans-Bold-62" d="M 2400 722 
Q 2759 722 2948 984 
Q 3138 1247 3138 1747 
Q 3138 2247 2948 2509 
Q 2759 2772 2400 2772 
Q 2041 2772 1848 2508 
Q 1656 2244 1656 1747 
Q 1656 1250 1848 986 
Q 2041 722 2400 722 
z
M 1656 2988 
Q 1888 3294 2169 3439 
Q 2450 3584 2816 3584 
Q 3463 3584 3878 3070 
Q 4294 2556 4294 1747 
Q 4294 938 3878 423 
Q 3463 -91 2816 -91 
Q 2450 -91 2169 54 
Q 1888 200 1656 506 
L 1656 0 
L 538 0 
L 538 4863 
L 1656 4863 
L 1656 2988 
z
" transform="scale(0.015625)"/>
       <path id="DejaVuSans-Bold-61" d="M 2106 1575 
Q 1756 1575 1579 1456 
Q 1403 1338 1403 1106 
Q 1403 894 1545 773 
Q 1688 653 1941 653 
Q 2256 653 2472 879 
Q 2688 1106 2688 1447 
L 2688 1575 
L 2106 1575 
z
M 3816 1997 
L 3816 0 
L 2688 0 
L 2688 519 
Q 2463 200 2181 54 
Q 1900 -91 1497 -91 
Q 953 -91 614 226 
Q 275 544 275 1050 
Q 275 1666 698 1953 
Q 1122 2241 2028 2241 
L 2688 2241 
L 2688 2328 
Q 2688 2594 2478 2717 
Q 2269 2841 1825 2841 
Q 1466 2841 1156 2769 
Q 847 2697 581 2553 
L 581 3406 
Q 941 3494 1303 3539 
Q 1666 3584 2028 3584 
Q 2975 3584 3395 3211 
Q 3816 2838 3816 1997 
z
" transform="scale(0.015625)"/>
       <path id="DejaVuSans-Bold-73" d="M 3272 3391 
L 3272 2541 
Q 2913 2691 2578 2766 
Q 2244 2841 1947 2841 
Q 1628 2841 1473 2761 
Q 1319 2681 1319 2516 
Q 1319 2381 1436 2309 
Q 1553 2238 1856 2203 
L 2053 2175 
Q 2913 2066 3209 1816 
Q 3506 1566 3506 1031 
Q 3506 472 3093 190 
Q 2681 -91 1863 -91 
Q 1516 -91 1145 -36 
Q 775 19 384 128 
L 384 978 
Q 719 816 1070 734 
Q 1422 653 1784 653 
Q 2113 653 2278 743 
Q 2444 834 2444 1013 
Q 2444 1163 2330 1236 
Q 2216 1309 1875 1350 
L 1678 1375 
Q 931 1469 631 1722 
Q 331 1975 331 2491 
Q 331 3047 712 3315 
Q 1094 3584 1881 3584 
Q 2191 3584 2531 3537 
Q 2872 3491 3272 3391 
z
" transform="scale(0.015625)"/>
       <path id="DejaVuSans-Bold-65" d="M 4031 1759 
L 4031 1441 
L 1416 1441 
Q 1456 1047 1700 850 
Q 1944 653 2381 653 
Q 2734 653 3104 758 
Q 3475 863 3866 1075 
L 3866 213 
Q 3469 63 3072 -14 
Q 2675 -91 2278 -91 
Q 1328 -91 801 392 
Q 275 875 275 1747 
Q 275 2603 792 3093 
Q 1309 3584 2216 3584 
Q 3041 3584 3536 3087 
Q 4031 2591 4031 1759 
z
M 2881 2131 
Q 2881 2450 2695 2645 
Q 2509 2841 2209 2841 
Q 1884 2841 1681 2658 
Q 1478 2475 1428 2131 
L 2881 2131 
z
" transform="scale(0.015625)"/>
       <path id="DejaVuSans-Bold-6c" d="M 538 4863 
L 1656 4863 
L 1656 0 
L 538 0 
L 538 4863 
z
" transform="scale(0.015625)"/>
       <path id="DejaVuSans-Bold-76" d="M 97 3500 
L 1216 3500 
L 2088 1081 
L 2956 3500 
L 4078 3500 
L 2700 0 
L 1472 0 
L 97 3500 
z
" transform="scale(0.015625)"/>
       <path id="DejaVuSans-Bold-74" d="M 1759 4494 
L 1759 3500 
L 2913 3500 
L 2913 2700 
L 1759 2700 
L 1759 1216 
Q 1759 972 1856 886 
Q 1953 800 2241 800 
L 2816 800 
L 2816 0 
L 1856 0 
Q 1194 0 917 276 
Q 641 553 641 1216 
L 641 2700 
L 84 2700 
L 84 3500 
L 641 3500 
L 641 4494 
L 1759 4494 
z
" transform="scale(0.015625)"/>
       <path id="DejaVuSans-Bold-6f" d="M 2203 2784 
Q 1831 2784 1636 2517 
Q 1441 2250 1441 1747 
Q 1441 1244 1636 976 
Q 1831 709 2203 709 
Q 2569 709 2762 976 
Q 2956 1244 2956 1747 
Q 2956 2250 2762 2517 
Q 2569 2784 2203 2784 
z
M 2203 3584 
Q 3106 3584 3614 3096 
Q 4122 2609 4122 1747 
Q 4122 884 3614 396 
Q 3106 -91 2203 -91 
Q 1297 -91 786 396 
Q 275 884 275 1747 
Q 275 2609 786 3096 
Q 1297 3584 2203 3584 
z
" transform="scale(0.015625)"/>
       <path id="DejaVuSans-Bold-28" d="M 2413 -844 
L 1484 -844 
Q 1006 -72 778 623 
Q 550 1319 550 2003 
Q 550 2688 779 3389 
Q 1009 4091 1484 4856 
L 2413 4856 
Q 2013 4116 1813 3408 
Q 1613 2700 1613 2009 
Q 1613 1319 1811 609 
Q 2009 -100 2413 -844 
z
" transform="scale(0.015625)"/>
       <path id="DejaVuSans-Bold-67" d="M 2919 594 
Q 2688 288 2409 144 
Q 2131 0 1766 0 
Q 1125 0 706 504 
Q 288 1009 288 1791 
Q 288 2575 706 3076 
Q 1125 3578 1766 3578 
Q 2131 3578 2409 3434 
Q 2688 3291 2919 2981 
L 2919 3500 
L 4044 3500 
L 4044 353 
Q 4044 -491 3511 -936 
Q 2978 -1381 1966 -1381 
Q 1638 -1381 1331 -1331 
Q 1025 -1281 716 -1178 
L 716 -306 
Q 1009 -475 1290 -558 
Q 1572 -641 1856 -641 
Q 2406 -641 2662 -400 
Q 2919 -159 2919 353 
L 2919 594 
z
M 2181 2772 
Q 1834 2772 1640 2515 
Q 1447 2259 1447 1791 
Q 1447 1309 1634 1061 
Q 1822 813 2181 813 
Q 2531 813 2725 1069 
Q 2919 1325 2919 1791 
Q 2919 2259 2725 2515 
Q 2531 2772 2181 2772 
z
" transform="scale(0.015625)"/>
       <path id="DejaVuSans-Bold-31" d="M 750 831 
L 1813 831 
L 1813 3847 
L 722 3622 
L 722 4441 
L 1806 4666 
L 2950 4666 
L 2950 831 
L 4013 831 
L 4013 0 
L 750 0 
L 750 831 
z
" transform="scale(0.015625)"/>
       <path id="DejaVuSans-Bold-30" d="M 2944 2338 
Q 2944 3213 2780 3570 
Q 2616 3928 2228 3928 
Q 1841 3928 1675 3570 
Q 1509 3213 1509 2338 
Q 1509 1453 1675 1090 
Q 1841 728 2228 728 
Q 2613 728 2778 1090 
Q 2944 1453 2944 2338 
z
M 4147 2328 
Q 4147 1169 3647 539 
Q 3147 -91 2228 -91 
Q 1306 -91 806 539 
Q 306 1169 306 2328 
Q 306 3491 806 4120 
Q 1306 4750 2228 4750 
Q 3147 4750 3647 4120 
Q 4147 3491 4147 2328 
z
" transform="scale(0.015625)"/>
       <path id="DejaVuSans-Bold-29" d="M 513 -844 
Q 913 -100 1113 609 
Q 1313 1319 1313 2009 
Q 1313 2700 1113 3408 
Q 913 4116 513 4856 
L 1441 4856 
Q 1916 4091 2145 3389 
Q 2375 2688 2375 2003 
Q 2375 1319 2147 623 
Q 1919 -72 1441 -844 
L 513 -844 
z
" transform="scale(0.015625)"/>
      </defs>
      <use xlink:href="#DejaVuSans-Bold-4d"/>
      <use xlink:href="#DejaVuSans-Bold-69" x="99.511719"/>
      <use xlink:href="#DejaVuSans-Bold-6e" x="133.789062"/>
      <use xlink:href="#DejaVuSans-Bold-20" x="204.980469"/>
      <use xlink:href="#DejaVuSans-Bold-62" x="239.794922"/>
      <use xlink:href="#DejaVuSans-Bold-61" x="311.376953"/>
      <use xlink:href="#DejaVuSans-Bold-73" x="378.857422"/>
      <use xlink:href="#DejaVuSans-Bold-69" x="438.378906"/>
      <use xlink:href="#DejaVuSans-Bold-6e" x="472.65625"/>
      <use xlink:href="#DejaVuSans-Bold-20" x="543.847656"/>
      <use xlink:href="#DejaVuSans-Bold-65" x="578.662109"/>
      <use xlink:href="#DejaVuSans-Bold-6c" x="646.484375"/>
      <use xlink:href="#DejaVuSans-Bold-65" x="680.761719"/>
      <use xlink:href="#DejaVuSans-Bold-76" x="748.583984"/>
      <use xlink:href="#DejaVuSans-Bold-61" x="813.769531"/>
      <use xlink:href="#DejaVuSans-Bold-74" x="881.25"/>
      <use xlink:href="#DejaVuSans-Bold-69" x="929.052734"/>
      <use xlink:href="#DejaVuSans-Bold-6f" x="963.330078"/>
      <use xlink:href="#DejaVuSans-Bold-6e" x="1032.03125"/>
      <use xlink:href="#DejaVuSans-Bold-20" x="1103.222656"/>
      <use xlink:href="#DejaVuSans-Bold-28" x="1138.037109"/>
      <use xlink:href="#DejaVuSans-Bold-69" x="1183.740234"/>
      <use xlink:href="#DejaVuSans-Bold-6e" x="1218.017578"/>
      <use xlink:href="#DejaVuSans-Bold-20" x="1289.208984"/>
      <use xlink:href="#DejaVuSans-Bold-6c" x="1324.023438"/>
      <use xlink:href="#DejaVuSans-Bold-6f" x="1358.300781"/>
      <use xlink:href="#DejaVuSans-Bold-67" x="1427.001953"/>
      <use xlink:href="#DejaVuSans-Bold-31" x="1498.583984"/>
      <use xlink:href="#DejaVuSans-Bold-30" x="1568.164062"/>
      <use xlink:href="#DejaVuSans-Bold-29" x="1637.744141"/>
     </g>
    </g>
   </g>
   <g id="matplotlib.axis_2">
    <g id="ytick_1">
     <g id="line2d_6">
      <defs>
       <path id="mafeca9bad1" d="M 0 0 
L -3.5 0 
" style="stroke: #000000; stroke-width: 0.8"/>
      </defs>
      <g>
       <use xlink:href="#mafeca9bad1" x="41.15" y="286.902526" style="stroke: #000000; stroke-width: 0.8"/>
      </g>
     </g>
     <g id="text_7">
      <!-- 0 -->
      <g transform="translate(27.7875 290.701745)scale(0.1 -0.1)">
       <use xlink:href="#DejaVuSans-30"/>
      </g>
     </g>
    </g>
    <g id="ytick_2">
     <g id="line2d_7">
      <g>
       <use xlink:href="#mafeca9bad1" x="41.15" y="255.285671" style="stroke: #000000; stroke-width: 0.8"/>
      </g>
     </g>
     <g id="text_8">
      <!-- 1 -->
      <g transform="translate(27.7875 259.084889)scale(0.1 -0.1)">
       <use xlink:href="#DejaVuSans-31"/>
      </g>
     </g>
    </g>
    <g id="ytick_3">
     <g id="line2d_8">
      <g>
       <use xlink:href="#mafeca9bad1" x="41.15" y="223.668815" style="stroke: #000000; stroke-width: 0.8"/>
      </g>
     </g>
     <g id="text_9">
      <!-- 2 -->
      <g transform="translate(27.7875 227.468034)scale(0.1 -0.1)">
       <use xlink:href="#DejaVuSans-32"/>
      </g>
     </g>
    </g>
    <g id="ytick_4">
     <g id="line2d_9">
      <g>
       <use xlink:href="#mafeca9bad1" x="41.15" y="192.05196" style="stroke: #000000; stroke-width: 0.8"/>
      </g>
     </g>
     <g id="text_10">
      <!-- 3 -->
      <g transform="translate(27.7875 195.851178)scale(0.1 -0.1)">
       <use xlink:href="#DejaVuSans-33"/>
      </g>
     </g>
    </g>
    <g id="ytick_5">
     <g id="line2d_10">
      <g>
       <use xlink:href="#mafeca9bad1" x="41.15" y="160.435104" style="stroke: #000000; stroke-width: 0.8"/>
      </g>
     </g>
     <g id="text_11">
      <!-- 4 -->
      <g transform="translate(27.7875 164.234323)scale(0.1 -0.1)">
       <use xlink:href="#DejaVuSans-34"/>
      </g>
     </g>
    </g>
    <g id="ytick_6">
     <g id="line2d_11">
      <g>
       <use xlink:href="#mafeca9bad1" x="41.15" y="128.818249" style="stroke: #000000; stroke-width: 0.8"/>
      </g>
     </g>
     <g id="text_12">
      <!-- 5 -->
      <g transform="translate(27.7875 132.617467)scale(0.1 -0.1)">
       <defs>
        <path id="DejaVuSans-35" d="M 691 4666 
L 3169 4666 
L 3169 4134 
L 1269 4134 
L 1269 2991 
Q 1406 3038 1543 3061 
Q 1681 3084 1819 3084 
Q 2600 3084 3056 2656 
Q 3513 2228 3513 1497 
Q 3513 744 3044 326 
Q 2575 -91 1722 -91 
Q 1428 -91 1123 -41 
Q 819 9 494 109 
L 494 744 
Q 775 591 1075 516 
Q 1375 441 1709 441 
Q 2250 441 2565 725 
Q 2881 1009 2881 1497 
Q 2881 1984 2565 2268 
Q 2250 2553 1709 2553 
Q 1456 2553 1204 2497 
Q 953 2441 691 2322 
L 691 4666 
z
" transform="scale(0.015625)"/>
       </defs>
       <use xlink:href="#DejaVuSans-35"/>
      </g>
     </g>
    </g>
    <g id="ytick_7">
     <g id="line2d_12">
      <g>
       <use xlink:href="#mafeca9bad1" x="41.15" y="97.201393" style="stroke: #000000; stroke-width: 0.8"/>
      </g>
     </g>
     <g id="text_13">
      <!-- 6 -->
      <g transform="translate(27.7875 101.000612)scale(0.1 -0.1)">
       <defs>
        <path id="DejaVuSans-36" d="M 2113 2584 
Q 1688 2584 1439 2293 
Q 1191 2003 1191 1497 
Q 1191 994 1439 701 
Q 1688 409 2113 409 
Q 2538 409 2786 701 
Q 3034 994 3034 1497 
Q 3034 2003 2786 2293 
Q 2538 2584 2113 2584 
z
M 3366 4563 
L 3366 3988 
Q 3128 4100 2886 4159 
Q 2644 4219 2406 4219 
Q 1781 4219 1451 3797 
Q 1122 3375 1075 2522 
Q 1259 2794 1537 2939 
Q 1816 3084 2150 3084 
Q 2853 3084 3261 2657 
Q 3669 2231 3669 1497 
Q 3669 778 3244 343 
Q 2819 -91 2113 -91 
Q 1303 -91 875 529 
Q 447 1150 447 2328 
Q 447 3434 972 4092 
Q 1497 4750 2381 4750 
Q 2619 4750 2861 4703 
Q 3103 4656 3366 4563 
z
" transform="scale(0.015625)"/>
       </defs>
       <use xlink:href="#DejaVuSans-36"/>
      </g>
     </g>
    </g>
    <g id="ytick_8">
     <g id="line2d_13">
      <g>
       <use xlink:href="#mafeca9bad1" x="41.15" y="65.584538" style="stroke: #000000; stroke-width: 0.8"/>
      </g>
     </g>
     <g id="text_14">
      <!-- 7 -->
      <g transform="translate(27.7875 69.383756)scale(0.1 -0.1)">
       <defs>
        <path id="DejaVuSans-37" d="M 525 4666 
L 3525 4666 
L 3525 4397 
L 1831 0 
L 1172 0 
L 2766 4134 
L 525 4134 
L 525 4666 
z
" transform="scale(0.015625)"/>
       </defs>
       <use xlink:href="#DejaVuSans-37"/>
      </g>
     </g>
    </g>
    <g id="ytick_9">
     <g id="line2d_14">
      <g>
       <use xlink:href="#mafeca9bad1" x="41.15" y="33.967682" style="stroke: #000000; stroke-width: 0.8"/>
      </g>
     </g>
     <g id="text_15">
      <!-- 8 -->
      <g transform="translate(27.7875 37.766901)scale(0.1 -0.1)">
       <defs>
        <path id="DejaVuSans-38" d="M 2034 2216 
Q 1584 2216 1326 1975 
Q 1069 1734 1069 1313 
Q 1069 891 1326 650 
Q 1584 409 2034 409 
Q 2484 409 2743 651 
Q 3003 894 3003 1313 
Q 3003 1734 2745 1975 
Q 2488 2216 2034 2216 
z
M 1403 2484 
Q 997 2584 770 2862 
Q 544 3141 544 3541 
Q 544 4100 942 4425 
Q 1341 4750 2034 4750 
Q 2731 4750 3128 4425 
Q 3525 4100 3525 3541 
Q 3525 3141 3298 2862 
Q 3072 2584 2669 2484 
Q 3125 2378 3379 2068 
Q 3634 1759 3634 1313 
Q 3634 634 3220 271 
Q 2806 -91 2034 -91 
Q 1263 -91 848 271 
Q 434 634 434 1313 
Q 434 1759 690 2068 
Q 947 2378 1403 2484 
z
M 1172 3481 
Q 1172 3119 1398 2916 
Q 1625 2713 2034 2713 
Q 2441 2713 2670 2916 
Q 2900 3119 2900 3481 
Q 2900 3844 2670 4047 
Q 2441 4250 2034 4250 
Q 1625 4250 1398 4047 
Q 1172 3844 1172 3481 
z
" transform="scale(0.015625)"/>
       </defs>
       <use xlink:href="#DejaVuSans-38"/>
      </g>
     </g>
    </g>
    <g id="text_16">
     <!-- Species richness (in log10) -->
     <g transform="translate(21.198125 254.988125)rotate(-90)scale(0.12 -0.12)">
      <defs>
       <path id="DejaVuSans-Bold-53" d="M 3834 4519 
L 3834 3531 
Q 3450 3703 3084 3790 
Q 2719 3878 2394 3878 
Q 1963 3878 1756 3759 
Q 1550 3641 1550 3391 
Q 1550 3203 1689 3098 
Q 1828 2994 2194 2919 
L 2706 2816 
Q 3484 2659 3812 2340 
Q 4141 2022 4141 1434 
Q 4141 663 3683 286 
Q 3225 -91 2284 -91 
Q 1841 -91 1394 -6 
Q 947 78 500 244 
L 500 1259 
Q 947 1022 1364 901 
Q 1781 781 2169 781 
Q 2563 781 2772 912 
Q 2981 1044 2981 1288 
Q 2981 1506 2839 1625 
Q 2697 1744 2272 1838 
L 1806 1941 
Q 1106 2091 782 2419 
Q 459 2747 459 3303 
Q 459 4000 909 4375 
Q 1359 4750 2203 4750 
Q 2588 4750 2994 4692 
Q 3400 4634 3834 4519 
z
" transform="scale(0.015625)"/>
       <path id="DejaVuSans-Bold-70" d="M 1656 506 
L 1656 -1331 
L 538 -1331 
L 538 3500 
L 1656 3500 
L 1656 2988 
Q 1888 3294 2169 3439 
Q 2450 3584 2816 3584 
Q 3463 3584 3878 3070 
Q 4294 2556 4294 1747 
Q 4294 938 3878 423 
Q 3463 -91 2816 -91 
Q 2450 -91 2169 54 
Q 1888 200 1656 506 
z
M 2400 2772 
Q 2041 2772 1848 2508 
Q 1656 2244 1656 1747 
Q 1656 1250 1848 986 
Q 2041 722 2400 722 
Q 2759 722 2948 984 
Q 3138 1247 3138 1747 
Q 3138 2247 2948 2509 
Q 2759 2772 2400 2772 
z
" transform="scale(0.015625)"/>
       <path id="DejaVuSans-Bold-63" d="M 3366 3391 
L 3366 2478 
Q 3138 2634 2908 2709 
Q 2678 2784 2431 2784 
Q 1963 2784 1702 2511 
Q 1441 2238 1441 1747 
Q 1441 1256 1702 982 
Q 1963 709 2431 709 
Q 2694 709 2930 787 
Q 3166 866 3366 1019 
L 3366 103 
Q 3103 6 2833 -42 
Q 2563 -91 2291 -91 
Q 1344 -91 809 395 
Q 275 881 275 1747 
Q 275 2613 809 3098 
Q 1344 3584 2291 3584 
Q 2566 3584 2833 3536 
Q 3100 3488 3366 3391 
z
" transform="scale(0.015625)"/>
       <path id="DejaVuSans-Bold-72" d="M 3138 2547 
Q 2991 2616 2845 2648 
Q 2700 2681 2553 2681 
Q 2122 2681 1889 2404 
Q 1656 2128 1656 1613 
L 1656 0 
L 538 0 
L 538 3500 
L 1656 3500 
L 1656 2925 
Q 1872 3269 2151 3426 
Q 2431 3584 2822 3584 
Q 2878 3584 2943 3579 
Q 3009 3575 3134 3559 
L 3138 2547 
z
" transform="scale(0.015625)"/>
       <path id="DejaVuSans-Bold-68" d="M 4056 2131 
L 4056 0 
L 2931 0 
L 2931 347 
L 2931 1625 
Q 2931 2084 2911 2256 
Q 2891 2428 2841 2509 
Q 2775 2619 2662 2680 
Q 2550 2741 2406 2741 
Q 2056 2741 1856 2470 
Q 1656 2200 1656 1722 
L 1656 0 
L 538 0 
L 538 4863 
L 1656 4863 
L 1656 2988 
Q 1909 3294 2193 3439 
Q 2478 3584 2822 3584 
Q 3428 3584 3742 3212 
Q 4056 2841 4056 2131 
z
" transform="scale(0.015625)"/>
      </defs>
      <use xlink:href="#DejaVuSans-Bold-53"/>
      <use xlink:href="#DejaVuSans-Bold-70" x="72.021484"/>
      <use xlink:href="#DejaVuSans-Bold-65" x="143.603516"/>
      <use xlink:href="#DejaVuSans-Bold-63" x="211.425781"/>
      <use xlink:href="#DejaVuSans-Bold-69" x="270.703125"/>
      <use xlink:href="#DejaVuSans-Bold-65" x="304.980469"/>
      <use xlink:href="#DejaVuSans-Bold-73" x="372.802734"/>
      <use xlink:href="#DejaVuSans-Bold-20" x="432.324219"/>
      <use xlink:href="#DejaVuSans-Bold-72" x="467.138672"/>
      <use xlink:href="#DejaVuSans-Bold-69" x="516.455078"/>
      <use xlink:href="#DejaVuSans-Bold-63" x="550.732422"/>
      <use xlink:href="#DejaVuSans-Bold-68" x="610.009766"/>
      <use xlink:href="#DejaVuSans-Bold-6e" x="681.201172"/>
      <use xlink:href="#DejaVuSans-Bold-65" x="752.392578"/>
      <use xlink:href="#DejaVuSans-Bold-73" x="820.214844"/>
      <use xlink:href="#DejaVuSans-Bold-73" x="879.736328"/>
      <use xlink:href="#DejaVuSans-Bold-20" x="939.257812"/>
      <use xlink:href="#DejaVuSans-Bold-28" x="974.072266"/>
      <use xlink:href="#DejaVuSans-Bold-69" x="1019.775391"/>
      <use xlink:href="#DejaVuSans-Bold-6e" x="1054.052734"/>
      <use xlink:href="#DejaVuSans-Bold-20" x="1125.244141"/>
      <use xlink:href="#DejaVuSans-Bold-6c" x="1160.058594"/>
      <use xlink:href="#DejaVuSans-Bold-6f" x="1194.335938"/>
      <use xlink:href="#DejaVuSans-Bold-67" x="1263.037109"/>
      <use xlink:href="#DejaVuSans-Bold-31" x="1334.619141"/>
      <use xlink:href="#DejaVuSans-Bold-30" x="1404.199219"/>
      <use xlink:href="#DejaVuSans-Bold-29" x="1473.779297"/>
     </g>
    </g>
   </g>
   <g id="line2d_15">
    <path d="M 279.294661 170.543683 
L 149.662602 159.029806 
L 218.442748 165.138836 
L 210.042756 164.392752 
L 172.653562 161.071855 
L 265.583565 169.325868 
L 288.697236 171.378817 
L 287.757946 171.295389 
L 250.763586 168.009562 
L 258.644783 168.709568 
L 278.756144 170.495852 
L 267.674181 169.511556 
L 257.960451 168.648786 
L 52.937964 150.438755 
L 85.806062 153.358089 
L 253.18993 168.22507 
L 213.224591 164.675361 
L 282.434997 170.822607 
L 148.948513 158.966381 
L 242.561668 167.281071 
L 201.237742 163.610693 
L 185.676355 162.228536 
L 283.472717 170.914777 
L 273.002369 169.984804 
L 204.10067 163.864977 
L 168.568468 160.709019 
L 223.177391 165.559366 
L 259.958927 168.82629 
L 271.144136 169.819756 
L 249.164573 167.867539 
" clip-path="url(#pa055a531af)" style="fill: none; stroke: #0000ff; stroke-width: 1.5; stroke-linecap: square"/>
   </g>
   <g id="line2d_16">
    <path d="M 279.294661 283.818907 
L 149.662602 221.888266 
L 218.442748 254.74741 
L 210.042756 250.734384 
L 172.653562 232.872006 
L 265.583565 277.268544 
L 288.697236 288.310909 
L 287.757946 287.862171 
L 250.763586 270.188422 
L 258.644783 273.953599 
L 278.756144 283.561634 
L 267.674181 278.267319 
L 257.960451 273.626665 
L 52.937964 175.678872 
L 85.806062 191.381334 
L 253.18993 271.347588 
L 213.224591 252.254479 
L 282.434997 285.319176 
L 148.948513 221.547116 
L 242.561668 266.270024 
L 201.237742 246.527861 
L 185.676355 239.093538 
L 283.472717 285.814938 
L 273.002369 280.812816 
L 204.10067 247.895601 
L 168.568468 230.920387 
L 223.177391 257.009347 
L 259.958927 274.58142 
L 271.144136 279.925061 
L 249.164573 269.424507 
" clip-path="url(#pa055a531af)" style="fill: none; stroke: #000000; stroke-width: 1.5; stroke-linecap: square"/>
   </g>
   <g id="line2d_17">
    <path d="M 279.294661 125.587709 
L 149.662602 119.005026 
L 218.442748 122.497664 
L 210.042756 122.071115 
L 172.653562 120.172501 
L 265.583565 124.891463 
L 288.697236 126.065169 
L 287.757946 126.017472 
L 250.763586 124.138908 
L 258.644783 124.539113 
L 278.756144 125.560363 
L 267.674181 124.997624 
L 257.960451 124.504363 
L 52.937964 114.093373 
L 85.806062 115.762407 
L 253.18993 124.262117 
L 213.224591 122.232688 
L 282.434997 125.747174 
L 148.948513 118.968765 
L 242.561668 123.722417 
L 201.237742 121.623998 
L 185.676355 120.833795 
L 283.472717 125.79987 
L 273.002369 125.268188 
L 204.10067 121.769377 
L 168.568468 119.965061 
L 223.177391 122.738088 
L 259.958927 124.605845 
L 271.144136 125.173827 
L 249.164573 124.057711 
" clip-path="url(#pa055a531af)" style="fill: none; stroke: #ff0000; stroke-width: 1.5; stroke-linecap: square"/>
   </g>
   <g id="line2d_18">
    <path d="M 279.294661 67.611087 
L 149.662602 64.396888 
L 218.442748 66.102277 
L 210.042756 65.894001 
L 172.653562 64.966944 
L 265.583565 67.271123 
L 288.697236 67.844221 
L 287.757946 67.820932 
L 250.763586 66.903665 
L 258.644783 67.099077 
L 278.756144 67.597734 
L 267.674181 67.322959 
L 257.960451 67.08211 
L 52.937964 61.998622 
L 85.806062 62.813579 
L 253.18993 66.963826 
L 213.224591 65.972894 
L 282.434997 67.688951 
L 148.948513 64.379182 
L 242.561668 66.7003 
L 201.237742 65.675682 
L 185.676355 65.289841 
L 283.472717 67.714681 
L 273.002369 67.455071 
L 204.10067 65.746668 
L 168.568468 64.865655 
L 223.177391 66.219671 
L 259.958927 67.131661 
L 271.144136 67.408996 
L 249.164573 66.864018 
" clip-path="url(#pa055a531af)" style="fill: none; stroke: #00bfbf; stroke-width: 1.5; stroke-linecap: square"/>
   </g>
   <g id="line2d_19">
    <path d="M 279.294661 185.824368 
L 149.662602 176.631772 
L 218.442748 181.509177 
L 210.042756 180.913508 
L 172.653562 178.262129 
L 265.583565 184.852073 
L 288.697236 186.491132 
L 287.757946 186.424524 
L 250.763586 183.801144 
L 258.644783 184.360023 
L 278.756144 185.78618 
L 267.674181 185.000325 
L 257.960451 184.311495 
L 52.937964 169.772739 
L 85.806062 172.103514 
L 253.18993 183.973203 
L 213.224591 181.139142 
L 282.434997 186.047058 
L 148.948513 176.581133 
L 242.561668 183.219521 
L 201.237742 180.289119 
L 185.676355 179.185614 
L 283.472717 186.120646 
L 273.002369 185.378162 
L 204.10067 180.492137 
L 168.568468 177.972443 
L 223.177391 181.844925 
L 259.958927 184.453213 
L 271.144136 185.24639 
L 249.164573 183.687753 
" clip-path="url(#pa055a531af)" style="fill: none; stroke: #bf00bf; stroke-width: 1.5; stroke-linecap: square"/>
   </g>
   <g id="line2d_20">
    <path d="M 279.294661 239.875298 
L 149.662602 229.120987 
L 218.442748 234.827007 
L 210.042756 234.130141 
L 172.653562 231.028324 
L 265.583565 238.737821 
L 288.697236 240.655338 
L 287.757946 240.577414 
L 250.763586 237.508352 
L 258.644783 238.162178 
L 278.756144 239.830622 
L 267.674181 238.91126 
L 257.960451 238.105406 
L 52.937964 221.096685 
L 85.806062 223.823432 
L 253.18993 237.709642 
L 213.224591 234.394107 
L 282.434997 240.135821 
L 148.948513 229.061746 
L 242.561668 236.827919 
L 201.237742 233.399675 
L 185.676355 232.108698 
L 283.472717 240.22191 
L 273.002369 239.353287 
L 204.10067 233.637184 
L 168.568468 230.689423 
L 223.177391 235.219794 
L 259.958927 238.2712 
L 271.144136 239.199128 
L 249.164573 237.375697 
" clip-path="url(#pa055a531af)" style="fill: none; stroke: #008000; stroke-width: 1.5; stroke-linecap: square"/>
   </g>
   <g id="line2d_21">
    <path d="M 279.294661 128.025314 
L 149.662602 119.877451 
L 218.442748 124.200542 
L 210.042756 123.672571 
L 172.653562 121.322519 
L 265.583565 127.16352 
L 288.697236 128.616301 
L 287.757946 128.557263 
L 250.763586 126.232028 
L 258.644783 126.727391 
L 278.756144 127.991466 
L 267.674181 127.294923 
L 257.960451 126.684378 
L 52.937964 113.797943 
L 85.806062 115.863827 
L 253.18993 126.384533 
L 213.224591 123.872561 
L 282.434997 128.222696 
L 148.948513 119.832567 
L 242.561668 125.716507 
L 201.237742 123.119142 
L 185.676355 122.141051 
L 283.472717 128.28792 
L 273.002369 127.629819 
L 204.10067 123.299088 
L 168.568468 121.065755 
L 223.177391 124.498132 
L 259.958927 126.80999 
L 271.144136 127.513022 
L 249.164573 126.131524 
" clip-path="url(#pa055a531af)" style="fill: none; stroke: #bfbf00; stroke-width: 1.5; stroke-linecap: square"/>
   </g>
   <g id="line2d_22">
    <path d="M 279.294661 112.212155 
L 149.662602 108.503673 
L 218.442748 110.471318 
L 210.042756 110.231014 
L 172.653562 109.161393 
L 265.583565 111.819911 
L 288.697236 112.481141 
L 287.757946 112.45427 
L 250.763586 111.395945 
L 258.644783 111.621408 
L 278.756144 112.196749 
L 267.674181 111.879719 
L 257.960451 111.601831 
L 52.937964 105.736599 
L 85.806062 106.676881 
L 253.18993 111.465357 
L 213.224591 110.322039 
L 282.434997 112.301993 
L 148.948513 108.483245 
L 242.561668 111.161306 
L 201.237742 109.979122 
L 185.676355 109.533946 
L 283.472717 112.331679 
L 273.002369 112.032146 
L 204.10067 110.061024 
L 168.568468 109.044528 
L 223.177391 110.606766 
L 259.958927 111.659003 
L 271.144136 111.978986 
L 249.164573 111.350201 
" clip-path="url(#pa055a531af)" style="fill: none; stroke: #9467bd; stroke-width: 1.5; stroke-linecap: square"/>
   </g>
   <g id="line2d_23">
    <path d="M 279.294661 228.635918 
L 149.662602 222.248315 
L 218.442748 225.637448 
L 210.042756 225.223539 
L 172.653562 223.381192 
L 265.583565 227.960305 
L 288.697236 229.099229 
L 287.757946 229.052945 
L 250.763586 227.230053 
L 258.644783 227.618398 
L 278.756144 228.609382 
L 267.674181 228.06332 
L 257.960451 227.584677 
L 52.937964 217.482221 
L 85.806062 219.101792 
L 253.18993 227.349611 
L 213.224591 225.380324 
L 282.434997 228.790657 
L 148.948513 222.213128 
L 242.561668 226.825904 
L 201.237742 224.789673 
L 185.676355 224.022888 
L 283.472717 228.841791 
L 273.002369 228.325866 
L 204.10067 224.930744 
L 168.568468 223.179899 
L 223.177391 225.870747 
L 259.958927 227.683152 
L 271.144136 228.234302 
L 249.164573 227.151262 
" clip-path="url(#pa055a531af)" style="fill: none; stroke: #8c564b; stroke-width: 1.5; stroke-linecap: square"/>
   </g>
   <g id="line2d_24">
    <path d="M 279.294661 51.496057 
L 149.662602 47.006831 
L 218.442748 49.388724 
L 210.042756 49.097828 
L 172.653562 47.80302 
L 265.583565 51.021235 
L 288.697236 51.821673 
L 287.757946 51.789145 
L 250.763586 50.508011 
L 258.644783 50.780941 
L 278.756144 51.477408 
L 267.674181 51.093634 
L 257.960451 50.757242 
L 52.937964 43.657207 
L 85.806062 44.795446 
L 253.18993 50.592037 
L 213.224591 49.208016 
L 282.434997 51.604809 
L 148.948513 46.982102 
L 242.561668 50.223974 
L 201.237742 48.792905 
L 185.676355 48.254006 
L 283.472717 51.640745 
L 273.002369 51.278152 
L 204.10067 48.89205 
L 168.568468 47.661551 
L 223.177391 49.552687 
L 259.958927 50.826451 
L 271.144136 51.2138 
L 249.164573 50.452636 
" clip-path="url(#pa055a531af)" style="fill: none; stroke: #ff7f0e; stroke-width: 1.5; stroke-linecap: square"/>
   </g>
   <g id="patch_3">
    <path d="M 41.15 300.76 
L 41.15 26.88 
" style="fill: none; stroke: #000000; stroke-width: 0.8; stroke-linejoin: miter; stroke-linecap: square"/>
   </g>
   <g id="patch_4">
    <path d="M 300.4852 300.76 
L 300.4852 26.88 
" style="fill: none; stroke: #000000; stroke-width: 0.8; stroke-linejoin: miter; stroke-linecap: square"/>
   </g>
   <g id="patch_5">
    <path d="M 41.15 300.76 
L 300.4852 300.76 
" style="fill: none; stroke: #000000; stroke-width: 0.8; stroke-linejoin: miter; stroke-linecap: square"/>
   </g>
   <g id="patch_6">
    <path d="M 41.15 26.88 
L 300.4852 26.88 
" style="fill: none; stroke: #000000; stroke-width: 0.8; stroke-linejoin: miter; stroke-linecap: square"/>
   </g>
   <g id="text_17">
    <!-- log(SR) vs. log(Min basin elevation) -->
    <g transform="translate(64.47135 20.88)scale(0.12 -0.12)">
     <defs>
      <path id="DejaVuSans-6c" d="M 603 4863 
L 1178 4863 
L 1178 0 
L 603 0 
L 603 4863 
z
" transform="scale(0.015625)"/>
      <path id="DejaVuSans-6f" d="M 1959 3097 
Q 1497 3097 1228 2736 
Q 959 2375 959 1747 
Q 959 1119 1226 758 
Q 1494 397 1959 397 
Q 2419 397 2687 759 
Q 2956 1122 2956 1747 
Q 2956 2369 2687 2733 
Q 2419 3097 1959 3097 
z
M 1959 3584 
Q 2709 3584 3137 3096 
Q 3566 2609 3566 1747 
Q 3566 888 3137 398 
Q 2709 -91 1959 -91 
Q 1206 -91 779 398 
Q 353 888 353 1747 
Q 353 2609 779 3096 
Q 1206 3584 1959 3584 
z
" transform="scale(0.015625)"/>
      <path id="DejaVuSans-67" d="M 2906 1791 
Q 2906 2416 2648 2759 
Q 2391 3103 1925 3103 
Q 1463 3103 1205 2759 
Q 947 2416 947 1791 
Q 947 1169 1205 825 
Q 1463 481 1925 481 
Q 2391 481 2648 825 
Q 2906 1169 2906 1791 
z
M 3481 434 
Q 3481 -459 3084 -895 
Q 2688 -1331 1869 -1331 
Q 1566 -1331 1297 -1286 
Q 1028 -1241 775 -1147 
L 775 -588 
Q 1028 -725 1275 -790 
Q 1522 -856 1778 -856 
Q 2344 -856 2625 -561 
Q 2906 -266 2906 331 
L 2906 616 
Q 2728 306 2450 153 
Q 2172 0 1784 0 
Q 1141 0 747 490 
Q 353 981 353 1791 
Q 353 2603 747 3093 
Q 1141 3584 1784 3584 
Q 2172 3584 2450 3431 
Q 2728 3278 2906 2969 
L 2906 3500 
L 3481 3500 
L 3481 434 
z
" transform="scale(0.015625)"/>
      <path id="DejaVuSans-28" d="M 1984 4856 
Q 1566 4138 1362 3434 
Q 1159 2731 1159 2009 
Q 1159 1288 1364 580 
Q 1569 -128 1984 -844 
L 1484 -844 
Q 1016 -109 783 600 
Q 550 1309 550 2009 
Q 550 2706 781 3412 
Q 1013 4119 1484 4856 
L 1984 4856 
z
" transform="scale(0.015625)"/>
      <path id="DejaVuSans-53" d="M 3425 4513 
L 3425 3897 
Q 3066 4069 2747 4153 
Q 2428 4238 2131 4238 
Q 1616 4238 1336 4038 
Q 1056 3838 1056 3469 
Q 1056 3159 1242 3001 
Q 1428 2844 1947 2747 
L 2328 2669 
Q 3034 2534 3370 2195 
Q 3706 1856 3706 1288 
Q 3706 609 3251 259 
Q 2797 -91 1919 -91 
Q 1588 -91 1214 -16 
Q 841 59 441 206 
L 441 856 
Q 825 641 1194 531 
Q 1563 422 1919 422 
Q 2459 422 2753 634 
Q 3047 847 3047 1241 
Q 3047 1584 2836 1778 
Q 2625 1972 2144 2069 
L 1759 2144 
Q 1053 2284 737 2584 
Q 422 2884 422 3419 
Q 422 4038 858 4394 
Q 1294 4750 2059 4750 
Q 2388 4750 2728 4690 
Q 3069 4631 3425 4513 
z
" transform="scale(0.015625)"/>
      <path id="DejaVuSans-52" d="M 2841 2188 
Q 3044 2119 3236 1894 
Q 3428 1669 3622 1275 
L 4263 0 
L 3584 0 
L 2988 1197 
Q 2756 1666 2539 1819 
Q 2322 1972 1947 1972 
L 1259 1972 
L 1259 0 
L 628 0 
L 628 4666 
L 2053 4666 
Q 2853 4666 3247 4331 
Q 3641 3997 3641 3322 
Q 3641 2881 3436 2590 
Q 3231 2300 2841 2188 
z
M 1259 4147 
L 1259 2491 
L 2053 2491 
Q 2509 2491 2742 2702 
Q 2975 2913 2975 3322 
Q 2975 3731 2742 3939 
Q 2509 4147 2053 4147 
L 1259 4147 
z
" transform="scale(0.015625)"/>
      <path id="DejaVuSans-29" d="M 513 4856 
L 1013 4856 
Q 1481 4119 1714 3412 
Q 1947 2706 1947 2009 
Q 1947 1309 1714 600 
Q 1481 -109 1013 -844 
L 513 -844 
Q 928 -128 1133 580 
Q 1338 1288 1338 2009 
Q 1338 2731 1133 3434 
Q 928 4138 513 4856 
z
" transform="scale(0.015625)"/>
      <path id="DejaVuSans-20" transform="scale(0.015625)"/>
      <path id="DejaVuSans-76" d="M 191 3500 
L 800 3500 
L 1894 563 
L 2988 3500 
L 3597 3500 
L 2284 0 
L 1503 0 
L 191 3500 
z
" transform="scale(0.015625)"/>
      <path id="DejaVuSans-73" d="M 2834 3397 
L 2834 2853 
Q 2591 2978 2328 3040 
Q 2066 3103 1784 3103 
Q 1356 3103 1142 2972 
Q 928 2841 928 2578 
Q 928 2378 1081 2264 
Q 1234 2150 1697 2047 
L 1894 2003 
Q 2506 1872 2764 1633 
Q 3022 1394 3022 966 
Q 3022 478 2636 193 
Q 2250 -91 1575 -91 
Q 1294 -91 989 -36 
Q 684 19 347 128 
L 347 722 
Q 666 556 975 473 
Q 1284 391 1588 391 
Q 1994 391 2212 530 
Q 2431 669 2431 922 
Q 2431 1156 2273 1281 
Q 2116 1406 1581 1522 
L 1381 1569 
Q 847 1681 609 1914 
Q 372 2147 372 2553 
Q 372 3047 722 3315 
Q 1072 3584 1716 3584 
Q 2034 3584 2315 3537 
Q 2597 3491 2834 3397 
z
" transform="scale(0.015625)"/>
      <path id="DejaVuSans-2e" d="M 684 794 
L 1344 794 
L 1344 0 
L 684 0 
L 684 794 
z
" transform="scale(0.015625)"/>
      <path id="DejaVuSans-4d" d="M 628 4666 
L 1569 4666 
L 2759 1491 
L 3956 4666 
L 4897 4666 
L 4897 0 
L 4281 0 
L 4281 4097 
L 3078 897 
L 2444 897 
L 1241 4097 
L 1241 0 
L 628 0 
L 628 4666 
z
" transform="scale(0.015625)"/>
      <path id="DejaVuSans-69" d="M 603 3500 
L 1178 3500 
L 1178 0 
L 603 0 
L 603 3500 
z
M 603 4863 
L 1178 4863 
L 1178 4134 
L 603 4134 
L 603 4863 
z
" transform="scale(0.015625)"/>
      <path id="DejaVuSans-6e" d="M 3513 2113 
L 3513 0 
L 2938 0 
L 2938 2094 
Q 2938 2591 2744 2837 
Q 2550 3084 2163 3084 
Q 1697 3084 1428 2787 
Q 1159 2491 1159 1978 
L 1159 0 
L 581 0 
L 581 3500 
L 1159 3500 
L 1159 2956 
Q 1366 3272 1645 3428 
Q 1925 3584 2291 3584 
Q 2894 3584 3203 3211 
Q 3513 2838 3513 2113 
z
" transform="scale(0.015625)"/>
      <path id="DejaVuSans-62" d="M 3116 1747 
Q 3116 2381 2855 2742 
Q 2594 3103 2138 3103 
Q 1681 3103 1420 2742 
Q 1159 2381 1159 1747 
Q 1159 1113 1420 752 
Q 1681 391 2138 391 
Q 2594 391 2855 752 
Q 3116 1113 3116 1747 
z
M 1159 2969 
Q 1341 3281 1617 3432 
Q 1894 3584 2278 3584 
Q 2916 3584 3314 3078 
Q 3713 2572 3713 1747 
Q 3713 922 3314 415 
Q 2916 -91 2278 -91 
Q 1894 -91 1617 61 
Q 1341 213 1159 525 
L 1159 0 
L 581 0 
L 581 4863 
L 1159 4863 
L 1159 2969 
z
" transform="scale(0.015625)"/>
      <path id="DejaVuSans-61" d="M 2194 1759 
Q 1497 1759 1228 1600 
Q 959 1441 959 1056 
Q 959 750 1161 570 
Q 1363 391 1709 391 
Q 2188 391 2477 730 
Q 2766 1069 2766 1631 
L 2766 1759 
L 2194 1759 
z
M 3341 1997 
L 3341 0 
L 2766 0 
L 2766 531 
Q 2569 213 2275 61 
Q 1981 -91 1556 -91 
Q 1019 -91 701 211 
Q 384 513 384 1019 
Q 384 1609 779 1909 
Q 1175 2209 1959 2209 
L 2766 2209 
L 2766 2266 
Q 2766 2663 2505 2880 
Q 2244 3097 1772 3097 
Q 1472 3097 1187 3025 
Q 903 2953 641 2809 
L 641 3341 
Q 956 3463 1253 3523 
Q 1550 3584 1831 3584 
Q 2591 3584 2966 3190 
Q 3341 2797 3341 1997 
z
" transform="scale(0.015625)"/>
      <path id="DejaVuSans-65" d="M 3597 1894 
L 3597 1613 
L 953 1613 
Q 991 1019 1311 708 
Q 1631 397 2203 397 
Q 2534 397 2845 478 
Q 3156 559 3463 722 
L 3463 178 
Q 3153 47 2828 -22 
Q 2503 -91 2169 -91 
Q 1331 -91 842 396 
Q 353 884 353 1716 
Q 353 2575 817 3079 
Q 1281 3584 2069 3584 
Q 2775 3584 3186 3129 
Q 3597 2675 3597 1894 
z
M 3022 2063 
Q 3016 2534 2758 2815 
Q 2500 3097 2075 3097 
Q 1594 3097 1305 2825 
Q 1016 2553 972 2059 
L 3022 2063 
z
" transform="scale(0.015625)"/>
      <path id="DejaVuSans-74" d="M 1172 4494 
L 1172 3500 
L 2356 3500 
L 2356 3053 
L 1172 3053 
L 1172 1153 
Q 1172 725 1289 603 
Q 1406 481 1766 481 
L 2356 481 
L 2356 0 
L 1766 0 
Q 1100 0 847 248 
Q 594 497 594 1153 
L 594 3053 
L 172 3053 
L 172 3500 
L 594 3500 
L 594 4494 
L 1172 4494 
z
" transform="scale(0.015625)"/>
     </defs>
     <use xlink:href="#DejaVuSans-6c"/>
     <use xlink:href="#DejaVuSans-6f" x="27.783203"/>
     <use xlink:href="#DejaVuSans-67" x="88.964844"/>
     <use xlink:href="#DejaVuSans-28" x="152.441406"/>
     <use xlink:href="#DejaVuSans-53" x="191.455078"/>
     <use xlink:href="#DejaVuSans-52" x="254.931641"/>
     <use xlink:href="#DejaVuSans-29" x="324.414062"/>
     <use xlink:href="#DejaVuSans-20" x="363.427734"/>
     <use xlink:href="#DejaVuSans-76" x="395.214844"/>
     <use xlink:href="#DejaVuSans-73" x="454.394531"/>
     <use xlink:href="#DejaVuSans-2e" x="506.494141"/>
     <use xlink:href="#DejaVuSans-20" x="538.28125"/>
     <use xlink:href="#DejaVuSans-6c" x="570.068359"/>
     <use xlink:href="#DejaVuSans-6f" x="597.851562"/>
     <use xlink:href="#DejaVuSans-67" x="659.033203"/>
     <use xlink:href="#DejaVuSans-28" x="722.509766"/>
     <use xlink:href="#DejaVuSans-4d" x="761.523438"/>
     <use xlink:href="#DejaVuSans-69" x="847.802734"/>
     <use xlink:href="#DejaVuSans-6e" x="875.585938"/>
     <use xlink:href="#DejaVuSans-20" x="938.964844"/>
     <use xlink:href="#DejaVuSans-62" x="970.751953"/>
     <use xlink:href="#DejaVuSans-61" x="1034.228516"/>
     <use xlink:href="#DejaVuSans-73" x="1095.507812"/>
     <use xlink:href="#DejaVuSans-69" x="1147.607422"/>
     <use xlink:href="#DejaVuSans-6e" x="1175.390625"/>
     <use xlink:href="#DejaVuSans-20" x="1238.769531"/>
     <use xlink:href="#DejaVuSans-65" x="1270.556641"/>
     <use xlink:href="#DejaVuSans-6c" x="1332.080078"/>
     <use xlink:href="#DejaVuSans-65" x="1359.863281"/>
     <use xlink:href="#DejaVuSans-76" x="1421.386719"/>
     <use xlink:href="#DejaVuSans-61" x="1480.566406"/>
     <use xlink:href="#DejaVuSans-74" x="1541.845703"/>
     <use xlink:href="#DejaVuSans-69" x="1581.054688"/>
     <use xlink:href="#DejaVuSans-6f" x="1608.837891"/>
     <use xlink:href="#DejaVuSans-6e" x="1670.019531"/>
     <use xlink:href="#DejaVuSans-29" x="1733.398438"/>
    </g>
   </g>
   <g id="legend_1">
    <g id="patch_7">
     <path d="M 317.858608 181.66125 
L 444.224233 181.66125 
Q 446.224233 181.66125 446.224233 179.66125 
L 446.224233 33.88 
Q 446.224233 31.88 444.224233 31.88 
L 317.858608 31.88 
Q 315.858608 31.88 315.858608 33.88 
L 315.858608 179.66125 
Q 315.858608 181.66125 317.858608 181.66125 
z
" style="fill: #ffffff; opacity: 0.8; stroke: #cccccc; stroke-linejoin: miter"/>
    </g>
    <g id="line2d_25">
     <path d="M 319.858608 39.978437 
L 329.858608 39.978437 
L 339.858608 39.978437 
" style="fill: none; stroke: #0000ff; stroke-width: 1.5; stroke-linecap: square"/>
    </g>
    <g id="text_18">
     <!-- AminoSugar -->
     <g transform="translate(347.858608 43.478437)scale(0.1 -0.1)">
      <defs>
       <path id="DejaVuSans-41" d="M 2188 4044 
L 1331 1722 
L 3047 1722 
L 2188 4044 
z
M 1831 4666 
L 2547 4666 
L 4325 0 
L 3669 0 
L 3244 1197 
L 1141 1197 
L 716 0 
L 50 0 
L 1831 4666 
z
" transform="scale(0.015625)"/>
       <path id="DejaVuSans-6d" d="M 3328 2828 
Q 3544 3216 3844 3400 
Q 4144 3584 4550 3584 
Q 5097 3584 5394 3201 
Q 5691 2819 5691 2113 
L 5691 0 
L 5113 0 
L 5113 2094 
Q 5113 2597 4934 2840 
Q 4756 3084 4391 3084 
Q 3944 3084 3684 2787 
Q 3425 2491 3425 1978 
L 3425 0 
L 2847 0 
L 2847 2094 
Q 2847 2600 2669 2842 
Q 2491 3084 2119 3084 
Q 1678 3084 1418 2786 
Q 1159 2488 1159 1978 
L 1159 0 
L 581 0 
L 581 3500 
L 1159 3500 
L 1159 2956 
Q 1356 3278 1631 3431 
Q 1906 3584 2284 3584 
Q 2666 3584 2933 3390 
Q 3200 3197 3328 2828 
z
" transform="scale(0.015625)"/>
       <path id="DejaVuSans-75" d="M 544 1381 
L 544 3500 
L 1119 3500 
L 1119 1403 
Q 1119 906 1312 657 
Q 1506 409 1894 409 
Q 2359 409 2629 706 
Q 2900 1003 2900 1516 
L 2900 3500 
L 3475 3500 
L 3475 0 
L 2900 0 
L 2900 538 
Q 2691 219 2414 64 
Q 2138 -91 1772 -91 
Q 1169 -91 856 284 
Q 544 659 544 1381 
z
M 1991 3584 
L 1991 3584 
z
" transform="scale(0.015625)"/>
       <path id="DejaVuSans-72" d="M 2631 2963 
Q 2534 3019 2420 3045 
Q 2306 3072 2169 3072 
Q 1681 3072 1420 2755 
Q 1159 2438 1159 1844 
L 1159 0 
L 581 0 
L 581 3500 
L 1159 3500 
L 1159 2956 
Q 1341 3275 1631 3429 
Q 1922 3584 2338 3584 
Q 2397 3584 2469 3576 
Q 2541 3569 2628 3553 
L 2631 2963 
z
" transform="scale(0.015625)"/>
      </defs>
      <use xlink:href="#DejaVuSans-41"/>
      <use xlink:href="#DejaVuSans-6d" x="68.408203"/>
      <use xlink:href="#DejaVuSans-69" x="165.820312"/>
      <use xlink:href="#DejaVuSans-6e" x="193.603516"/>
      <use xlink:href="#DejaVuSans-6f" x="256.982422"/>
      <use xlink:href="#DejaVuSans-53" x="318.164062"/>
      <use xlink:href="#DejaVuSans-75" x="381.640625"/>
      <use xlink:href="#DejaVuSans-67" x="445.019531"/>
      <use xlink:href="#DejaVuSans-61" x="508.496094"/>
      <use xlink:href="#DejaVuSans-72" x="569.775391"/>
     </g>
    </g>
    <g id="line2d_26">
     <path d="M 319.858608 54.656563 
L 329.858608 54.656563 
L 339.858608 54.656563 
" style="fill: none; stroke: #000000; stroke-width: 1.5; stroke-linecap: square"/>
    </g>
    <g id="text_19">
     <!-- Carb -->
     <g transform="translate(347.858608 58.156563)scale(0.1 -0.1)">
      <defs>
       <path id="DejaVuSans-43" d="M 4122 4306 
L 4122 3641 
Q 3803 3938 3442 4084 
Q 3081 4231 2675 4231 
Q 1875 4231 1450 3742 
Q 1025 3253 1025 2328 
Q 1025 1406 1450 917 
Q 1875 428 2675 428 
Q 3081 428 3442 575 
Q 3803 722 4122 1019 
L 4122 359 
Q 3791 134 3420 21 
Q 3050 -91 2638 -91 
Q 1578 -91 968 557 
Q 359 1206 359 2328 
Q 359 3453 968 4101 
Q 1578 4750 2638 4750 
Q 3056 4750 3426 4639 
Q 3797 4528 4122 4306 
z
" transform="scale(0.015625)"/>
      </defs>
      <use xlink:href="#DejaVuSans-43"/>
      <use xlink:href="#DejaVuSans-61" x="69.824219"/>
      <use xlink:href="#DejaVuSans-72" x="131.103516"/>
      <use xlink:href="#DejaVuSans-62" x="172.216797"/>
     </g>
    </g>
    <g id="line2d_27">
     <path d="M 319.858608 69.334688 
L 329.858608 69.334688 
L 339.858608 69.334688 
" style="fill: none; stroke: #ff0000; stroke-width: 1.5; stroke-linecap: square"/>
    </g>
    <g id="text_20">
     <!-- ConcHC -->
     <g transform="translate(347.858608 72.834688)scale(0.1 -0.1)">
      <defs>
       <path id="DejaVuSans-63" d="M 3122 3366 
L 3122 2828 
Q 2878 2963 2633 3030 
Q 2388 3097 2138 3097 
Q 1578 3097 1268 2742 
Q 959 2388 959 1747 
Q 959 1106 1268 751 
Q 1578 397 2138 397 
Q 2388 397 2633 464 
Q 2878 531 3122 666 
L 3122 134 
Q 2881 22 2623 -34 
Q 2366 -91 2075 -91 
Q 1284 -91 818 406 
Q 353 903 353 1747 
Q 353 2603 823 3093 
Q 1294 3584 2113 3584 
Q 2378 3584 2631 3529 
Q 2884 3475 3122 3366 
z
" transform="scale(0.015625)"/>
       <path id="DejaVuSans-48" d="M 628 4666 
L 1259 4666 
L 1259 2753 
L 3553 2753 
L 3553 4666 
L 4184 4666 
L 4184 0 
L 3553 0 
L 3553 2222 
L 1259 2222 
L 1259 0 
L 628 0 
L 628 4666 
z
" transform="scale(0.015625)"/>
      </defs>
      <use xlink:href="#DejaVuSans-43"/>
      <use xlink:href="#DejaVuSans-6f" x="69.824219"/>
      <use xlink:href="#DejaVuSans-6e" x="131.005859"/>
      <use xlink:href="#DejaVuSans-63" x="194.384766"/>
      <use xlink:href="#DejaVuSans-48" x="249.365234"/>
      <use xlink:href="#DejaVuSans-43" x="324.560547"/>
     </g>
    </g>
    <g id="line2d_28">
     <path d="M 319.858608 84.012812 
L 329.858608 84.012812 
L 339.858608 84.012812 
" style="fill: none; stroke: #00bfbf; stroke-width: 1.5; stroke-linecap: square"/>
    </g>
    <g id="text_21">
     <!-- Lignin -->
     <g transform="translate(347.858608 87.512812)scale(0.1 -0.1)">
      <defs>
       <path id="DejaVuSans-4c" d="M 628 4666 
L 1259 4666 
L 1259 531 
L 3531 531 
L 3531 0 
L 628 0 
L 628 4666 
z
" transform="scale(0.015625)"/>
      </defs>
      <use xlink:href="#DejaVuSans-4c"/>
      <use xlink:href="#DejaVuSans-69" x="55.712891"/>
      <use xlink:href="#DejaVuSans-67" x="83.496094"/>
      <use xlink:href="#DejaVuSans-6e" x="146.972656"/>
      <use xlink:href="#DejaVuSans-69" x="210.351562"/>
      <use xlink:href="#DejaVuSans-6e" x="238.134766"/>
     </g>
    </g>
    <g id="line2d_29">
     <path d="M 319.858608 98.690938 
L 329.858608 98.690938 
L 339.858608 98.690938 
" style="fill: none; stroke: #bf00bf; stroke-width: 1.5; stroke-linecap: square"/>
    </g>
    <g id="text_22">
     <!-- Lipid -->
     <g transform="translate(347.858608 102.190938)scale(0.1 -0.1)">
      <defs>
       <path id="DejaVuSans-70" d="M 1159 525 
L 1159 -1331 
L 581 -1331 
L 581 3500 
L 1159 3500 
L 1159 2969 
Q 1341 3281 1617 3432 
Q 1894 3584 2278 3584 
Q 2916 3584 3314 3078 
Q 3713 2572 3713 1747 
Q 3713 922 3314 415 
Q 2916 -91 2278 -91 
Q 1894 -91 1617 61 
Q 1341 213 1159 525 
z
M 3116 1747 
Q 3116 2381 2855 2742 
Q 2594 3103 2138 3103 
Q 1681 3103 1420 2742 
Q 1159 2381 1159 1747 
Q 1159 1113 1420 752 
Q 1681 391 2138 391 
Q 2594 391 2855 752 
Q 3116 1113 3116 1747 
z
" transform="scale(0.015625)"/>
       <path id="DejaVuSans-64" d="M 2906 2969 
L 2906 4863 
L 3481 4863 
L 3481 0 
L 2906 0 
L 2906 525 
Q 2725 213 2448 61 
Q 2172 -91 1784 -91 
Q 1150 -91 751 415 
Q 353 922 353 1747 
Q 353 2572 751 3078 
Q 1150 3584 1784 3584 
Q 2172 3584 2448 3432 
Q 2725 3281 2906 2969 
z
M 947 1747 
Q 947 1113 1208 752 
Q 1469 391 1925 391 
Q 2381 391 2643 752 
Q 2906 1113 2906 1747 
Q 2906 2381 2643 2742 
Q 2381 3103 1925 3103 
Q 1469 3103 1208 2742 
Q 947 2381 947 1747 
z
" transform="scale(0.015625)"/>
      </defs>
      <use xlink:href="#DejaVuSans-4c"/>
      <use xlink:href="#DejaVuSans-69" x="55.712891"/>
      <use xlink:href="#DejaVuSans-70" x="83.496094"/>
      <use xlink:href="#DejaVuSans-69" x="146.972656"/>
      <use xlink:href="#DejaVuSans-64" x="174.755859"/>
     </g>
    </g>
    <g id="line2d_30">
     <path d="M 319.858608 113.369062 
L 329.858608 113.369062 
L 339.858608 113.369062 
" style="fill: none; stroke: #008000; stroke-width: 1.5; stroke-linecap: square"/>
    </g>
    <g id="text_23">
     <!-- Other -->
     <g transform="translate(347.858608 116.869062)scale(0.1 -0.1)">
      <defs>
       <path id="DejaVuSans-4f" d="M 2522 4238 
Q 1834 4238 1429 3725 
Q 1025 3213 1025 2328 
Q 1025 1447 1429 934 
Q 1834 422 2522 422 
Q 3209 422 3611 934 
Q 4013 1447 4013 2328 
Q 4013 3213 3611 3725 
Q 3209 4238 2522 4238 
z
M 2522 4750 
Q 3503 4750 4090 4092 
Q 4678 3434 4678 2328 
Q 4678 1225 4090 567 
Q 3503 -91 2522 -91 
Q 1538 -91 948 565 
Q 359 1222 359 2328 
Q 359 3434 948 4092 
Q 1538 4750 2522 4750 
z
" transform="scale(0.015625)"/>
       <path id="DejaVuSans-68" d="M 3513 2113 
L 3513 0 
L 2938 0 
L 2938 2094 
Q 2938 2591 2744 2837 
Q 2550 3084 2163 3084 
Q 1697 3084 1428 2787 
Q 1159 2491 1159 1978 
L 1159 0 
L 581 0 
L 581 4863 
L 1159 4863 
L 1159 2956 
Q 1366 3272 1645 3428 
Q 1925 3584 2291 3584 
Q 2894 3584 3203 3211 
Q 3513 2838 3513 2113 
z
" transform="scale(0.015625)"/>
      </defs>
      <use xlink:href="#DejaVuSans-4f"/>
      <use xlink:href="#DejaVuSans-74" x="78.710938"/>
      <use xlink:href="#DejaVuSans-68" x="117.919922"/>
      <use xlink:href="#DejaVuSans-65" x="181.298828"/>
      <use xlink:href="#DejaVuSans-72" x="242.822266"/>
     </g>
    </g>
    <g id="line2d_31">
     <path d="M 319.858608 128.047188 
L 329.858608 128.047188 
L 339.858608 128.047188 
" style="fill: none; stroke: #bfbf00; stroke-width: 1.5; stroke-linecap: square"/>
    </g>
    <g id="text_24">
     <!-- Protein -->
     <g transform="translate(347.858608 131.547188)scale(0.1 -0.1)">
      <defs>
       <path id="DejaVuSans-50" d="M 1259 4147 
L 1259 2394 
L 2053 2394 
Q 2494 2394 2734 2622 
Q 2975 2850 2975 3272 
Q 2975 3691 2734 3919 
Q 2494 4147 2053 4147 
L 1259 4147 
z
M 628 4666 
L 2053 4666 
Q 2838 4666 3239 4311 
Q 3641 3956 3641 3272 
Q 3641 2581 3239 2228 
Q 2838 1875 2053 1875 
L 1259 1875 
L 1259 0 
L 628 0 
L 628 4666 
z
" transform="scale(0.015625)"/>
      </defs>
      <use xlink:href="#DejaVuSans-50"/>
      <use xlink:href="#DejaVuSans-72" x="58.552734"/>
      <use xlink:href="#DejaVuSans-6f" x="97.416016"/>
      <use xlink:href="#DejaVuSans-74" x="158.597656"/>
      <use xlink:href="#DejaVuSans-65" x="197.806641"/>
      <use xlink:href="#DejaVuSans-69" x="259.330078"/>
      <use xlink:href="#DejaVuSans-6e" x="287.113281"/>
     </g>
    </g>
    <g id="line2d_32">
     <path d="M 319.858608 142.725312 
L 329.858608 142.725312 
L 339.858608 142.725312 
" style="fill: none; stroke: #9467bd; stroke-width: 1.5; stroke-linecap: square"/>
    </g>
    <g id="text_25">
     <!-- Tannin -->
     <g transform="translate(347.858608 146.225312)scale(0.1 -0.1)">
      <defs>
       <path id="DejaVuSans-54" d="M -19 4666 
L 3928 4666 
L 3928 4134 
L 2272 4134 
L 2272 0 
L 1638 0 
L 1638 4134 
L -19 4134 
L -19 4666 
z
" transform="scale(0.015625)"/>
      </defs>
      <use xlink:href="#DejaVuSans-54"/>
      <use xlink:href="#DejaVuSans-61" x="44.583984"/>
      <use xlink:href="#DejaVuSans-6e" x="105.863281"/>
      <use xlink:href="#DejaVuSans-6e" x="169.242188"/>
      <use xlink:href="#DejaVuSans-69" x="232.621094"/>
      <use xlink:href="#DejaVuSans-6e" x="260.404297"/>
     </g>
    </g>
    <g id="line2d_33">
     <path d="M 319.858608 157.403437 
L 329.858608 157.403437 
L 339.858608 157.403437 
" style="fill: none; stroke: #8c564b; stroke-width: 1.5; stroke-linecap: square"/>
    </g>
    <g id="text_26">
     <!-- UnsatHC -->
     <g transform="translate(347.858608 160.903437)scale(0.1 -0.1)">
      <defs>
       <path id="DejaVuSans-55" d="M 556 4666 
L 1191 4666 
L 1191 1831 
Q 1191 1081 1462 751 
Q 1734 422 2344 422 
Q 2950 422 3222 751 
Q 3494 1081 3494 1831 
L 3494 4666 
L 4128 4666 
L 4128 1753 
Q 4128 841 3676 375 
Q 3225 -91 2344 -91 
Q 1459 -91 1007 375 
Q 556 841 556 1753 
L 556 4666 
z
" transform="scale(0.015625)"/>
      </defs>
      <use xlink:href="#DejaVuSans-55"/>
      <use xlink:href="#DejaVuSans-6e" x="73.193359"/>
      <use xlink:href="#DejaVuSans-73" x="136.572266"/>
      <use xlink:href="#DejaVuSans-61" x="188.671875"/>
      <use xlink:href="#DejaVuSans-74" x="249.951172"/>
      <use xlink:href="#DejaVuSans-48" x="289.160156"/>
      <use xlink:href="#DejaVuSans-43" x="364.355469"/>
     </g>
    </g>
    <g id="line2d_34">
     <path d="M 319.858608 172.081562 
L 329.858608 172.081562 
L 339.858608 172.081562 
" style="fill: none; stroke: #ff7f0e; stroke-width: 1.5; stroke-linecap: square"/>
    </g>
    <g id="text_27">
     <!-- SumAllCompounds -->
     <g transform="translate(347.858608 175.581562)scale(0.1 -0.1)">
      <use xlink:href="#DejaVuSans-53"/>
      <use xlink:href="#DejaVuSans-75" x="63.476562"/>
      <use xlink:href="#DejaVuSans-6d" x="126.855469"/>
      <use xlink:href="#DejaVuSans-41" x="224.267578"/>
      <use xlink:href="#DejaVuSans-6c" x="292.675781"/>
      <use xlink:href="#DejaVuSans-6c" x="320.458984"/>
      <use xlink:href="#DejaVuSans-43" x="348.242188"/>
      <use xlink:href="#DejaVuSans-6f" x="418.066406"/>
      <use xlink:href="#DejaVuSans-6d" x="479.248047"/>
      <use xlink:href="#DejaVuSans-70" x="576.660156"/>
      <use xlink:href="#DejaVuSans-6f" x="640.136719"/>
      <use xlink:href="#DejaVuSans-75" x="701.318359"/>
      <use xlink:href="#DejaVuSans-6e" x="764.697266"/>
      <use xlink:href="#DejaVuSans-64" x="828.076172"/>
      <use xlink:href="#DejaVuSans-73" x="891.552734"/>
     </g>
    </g>
   </g>
  </g>
 </g>
 <defs>
  <clipPath id="pa055a531af">
   <rect x="41.15" y="26.88" width="259.3352" height="273.88"/>
  </clipPath>
 </defs>
</svg>
