<?xml version="1.0" encoding="utf-8" standalone="no"?>
<!DOCTYPE svg PUBLIC "-//W3C//DTD SVG 1.1//EN"
  "http://www.w3.org/Graphics/SVG/1.1/DTD/svg11.dtd">
<svg xmlns:xlink="http://www.w3.org/1999/xlink" width="460.8pt" height="345.6pt" viewBox="0 0 460.8 345.6" xmlns="http://www.w3.org/2000/svg" version="1.1">
 <metadata>
  <rdf:RDF xmlns:dc="http://purl.org/dc/elements/1.1/" xmlns:cc="http://creativecommons.org/ns#" xmlns:rdf="http://www.w3.org/1999/02/22-rdf-syntax-ns#">
   <cc:Work>
    <dc:type rdf:resource="http://purl.org/dc/dcmitype/StillImage"/>
    <dc:date>2024-04-07T20:43:26.653852</dc:date>
    <dc:format>image/svg+xml</dc:format>
    <dc:creator>
     <cc:Agent>
      <dc:title>Matplotlib v3.5.2, https://matplotlib.org/</dc:title>
     </cc:Agent>
    </dc:creator>
   </cc:Work>
  </rdf:RDF>
 </metadata>
 <defs>
  <style type="text/css">*{stroke-linejoin: round; stroke-linecap: butt}</style>
 </defs>
 <g id="figure_1">
  <g id="patch_1">
   <path d="M 0 345.6 
L 460.8 345.6 
L 460.8 0 
L 0 0 
z
" style="fill: #ffffff"/>
  </g>
  <g id="axes_1">
   <g id="patch_2">
    <path d="M 41.15 300.76 
L 300.4852 300.76 
L 300.4852 26.88 
L 41.15 26.88 
z
" style="fill: #ffffff"/>
   </g>
   <g id="PathCollection_1">
    <defs>
     <path id="m5adb3be084" d="M 0 2.236068 
C 0.593012 2.236068 1.161816 2.000462 1.581139 1.581139 
C 2.000462 1.161816 2.236068 0.593012 2.236068 0 
C 2.236068 -0.593012 2.000462 -1.161816 1.581139 -1.581139 
C 1.161816 -2.000462 0.593012 -2.236068 0 -2.236068 
C -0.593012 -2.236068 -1.161816 -2.000462 -1.581139 -1.581139 
C -2.000462 -1.161816 -2.236068 -0.593012 -2.236068 0 
C -2.236068 0.593012 -2.000462 1.161816 -1.581139 1.581139 
C -1.161816 2.000462 -0.593012 2.236068 0 2.236068 
z
" style="stroke: #0000ff"/>
    </defs>
    <g clip-path="url(#pb600fcd541)">
     <use xlink:href="#m5adb3be084" x="102.129562" y="146.80367" style="fill: #0000ff; stroke: #0000ff"/>
     <use xlink:href="#m5adb3be084" x="264.549824" y="159.73662" style="fill: #0000ff; stroke: #0000ff"/>
     <use xlink:href="#m5adb3be084" x="277.532415" y="153.472661" style="fill: #0000ff; stroke: #0000ff"/>
     <use xlink:href="#m5adb3be084" x="285.338851" y="163.913543" style="fill: #0000ff; stroke: #0000ff"/>
     <use xlink:href="#m5adb3be084" x="260.248988" y="147.813256" style="fill: #0000ff; stroke: #0000ff"/>
     <use xlink:href="#m5adb3be084" x="224.494246" y="169.88738" style="fill: #0000ff; stroke: #0000ff"/>
     <use xlink:href="#m5adb3be084" x="203.903408" y="157.493647" style="fill: #0000ff; stroke: #0000ff"/>
     <use xlink:href="#m5adb3be084" x="52.937964" y="153.472661" style="fill: #0000ff; stroke: #0000ff"/>
     <use xlink:href="#m5adb3be084" x="279.712447" y="152.24821" style="fill: #0000ff; stroke: #0000ff"/>
     <use xlink:href="#m5adb3be084" x="227.572234" y="141.807328" style="fill: #0000ff; stroke: #0000ff"/>
     <use xlink:href="#m5adb3be084" x="271.454492" y="149.39734" style="fill: #0000ff; stroke: #0000ff"/>
     <use xlink:href="#m5adb3be084" x="213.245167" y="142.653573" style="fill: #0000ff; stroke: #0000ff"/>
     <use xlink:href="#m5adb3be084" x="288.697236" y="177.435665" style="fill: #0000ff; stroke: #0000ff"/>
     <use xlink:href="#m5adb3be084" x="274.663171" y="163.913543" style="fill: #0000ff; stroke: #0000ff"/>
     <use xlink:href="#m5adb3be084" x="277.64149" y="165.770332" style="fill: #0000ff; stroke: #0000ff"/>
     <use xlink:href="#m5adb3be084" x="143.241199" y="150.504024" style="fill: #0000ff; stroke: #0000ff"/>
     <use xlink:href="#m5adb3be084" x="273.132698" y="138.651263" style="fill: #0000ff; stroke: #0000ff"/>
     <use xlink:href="#m5adb3be084" x="286.916912" y="143.525465" style="fill: #0000ff; stroke: #0000ff"/>
     <use xlink:href="#m5adb3be084" x="278.650135" y="133.530643" style="fill: #0000ff; stroke: #0000ff"/>
     <use xlink:href="#m5adb3be084" x="212.608537" y="138.651263" style="fill: #0000ff; stroke: #0000ff"/>
     <use xlink:href="#m5adb3be084" x="184.615709" y="135.138337" style="fill: #0000ff; stroke: #0000ff"/>
     <use xlink:href="#m5adb3be084" x="263.732117" y="185.712351" style="fill: #0000ff; stroke: #0000ff"/>
     <use xlink:href="#m5adb3be084" x="233.498722" y="152.24821" style="fill: #0000ff; stroke: #0000ff"/>
     <use xlink:href="#m5adb3be084" x="222.792504" y="148.331653" style="fill: #0000ff; stroke: #0000ff"/>
     <use xlink:href="#m5adb3be084" x="237.442266" y="150.504024" style="fill: #0000ff; stroke: #0000ff"/>
     <use xlink:href="#m5adb3be084" x="158.241601" y="132.306192" style="fill: #0000ff; stroke: #0000ff"/>
    </g>
   </g>
   <g id="PathCollection_2">
    <defs>
     <path id="mfa5b8c09ba" d="M -0 2.236068 
L 2.236068 -2.236068 
L -2.236068 -2.236068 
z
" style="stroke: #000000"/>
    </defs>
    <g clip-path="url(#pb600fcd541)">
     <use xlink:href="#mfa5b8c09ba" x="102.129562" y="189.829398" style="stroke: #000000"/>
     <use xlink:href="#mfa5b8c09ba" x="264.549824" y="207.639311" style="stroke: #000000"/>
     <use xlink:href="#mfa5b8c09ba" x="277.532415" y="194.635586" style="stroke: #000000"/>
     <use xlink:href="#mfa5b8c09ba" x="285.338851" y="223.739598" style="stroke: #000000"/>
     <use xlink:href="#mfa5b8c09ba" x="260.248988" y="200.408932" style="stroke: #000000"/>
     <use xlink:href="#mfa5b8c09ba" x="224.494246" y="243.681616" style="stroke: #000000"/>
     <use xlink:href="#mfa5b8c09ba" x="203.903408" y="207.639311" style="stroke: #000000"/>
     <use xlink:href="#mfa5b8c09ba" x="52.937964" y="177.435665" style="stroke: #000000"/>
     <use xlink:href="#mfa5b8c09ba" x="279.712447" y="223.739598" style="stroke: #000000"/>
     <use xlink:href="#mfa5b8c09ba" x="227.572234" y="178.911386" style="stroke: #000000"/>
     <use xlink:href="#mfa5b8c09ba" x="271.454492" y="200.408932" style="stroke: #000000"/>
     <use xlink:href="#mfa5b8c09ba" x="213.245167" y="185.712351" style="stroke: #000000"/>
     <use xlink:href="#mfa5b8c09ba" x="274.663171" y="263.623634" style="stroke: #000000"/>
     <use xlink:href="#mfa5b8c09ba" x="277.64149" y="223.739598" style="stroke: #000000"/>
     <use xlink:href="#mfa5b8c09ba" x="143.241199" y="207.639311" style="stroke: #000000"/>
     <use xlink:href="#mfa5b8c09ba" x="273.132698" y="173.414679" style="stroke: #000000"/>
     <use xlink:href="#mfa5b8c09ba" x="286.916912" y="197.377683" style="stroke: #000000"/>
     <use xlink:href="#mfa5b8c09ba" x="278.650135" y="165.770332" style="stroke: #000000"/>
     <use xlink:href="#mfa5b8c09ba" x="212.608537" y="176.03196" style="stroke: #000000"/>
     <use xlink:href="#mfa5b8c09ba" x="184.615709" y="176.03196" style="stroke: #000000"/>
     <use xlink:href="#mfa5b8c09ba" x="233.498722" y="212.074265" style="stroke: #000000"/>
     <use xlink:href="#mfa5b8c09ba" x="222.792504" y="217.319702" style="stroke: #000000"/>
     <use xlink:href="#mfa5b8c09ba" x="237.442266" y="212.074265" style="stroke: #000000"/>
     <use xlink:href="#mfa5b8c09ba" x="158.241601" y="161.335379" style="stroke: #000000"/>
    </g>
   </g>
   <g id="PathCollection_3">
    <defs>
     <path id="mad7a5e9c7d" d="M -0.855706 -2.065857 
L -2.065857 -0.855706 
L -2.065857 0.855706 
L -0.855706 2.065857 
L 0.855706 2.065857 
L 2.065857 0.855706 
L 2.065857 -0.855706 
L 0.855706 -2.065857 
z
" style="stroke: #ff0000"/>
    </defs>
    <g clip-path="url(#pb600fcd541)">
     <use xlink:href="#mad7a5e9c7d" x="102.129562" y="120.841349" style="fill: #ff0000; stroke: #ff0000"/>
     <use xlink:href="#mad7a5e9c7d" x="264.549824" y="111.770952" style="fill: #ff0000; stroke: #ff0000"/>
     <use xlink:href="#mad7a5e9c7d" x="277.532415" y="102.237724" style="fill: #ff0000; stroke: #ff0000"/>
     <use xlink:href="#mad7a5e9c7d" x="285.338851" y="135.138337" style="fill: #ff0000; stroke: #ff0000"/>
     <use xlink:href="#mad7a5e9c7d" x="260.248988" y="102.985045" style="fill: #ff0000; stroke: #ff0000"/>
     <use xlink:href="#mad7a5e9c7d" x="224.494246" y="150.504024" style="fill: #ff0000; stroke: #ff0000"/>
     <use xlink:href="#mad7a5e9c7d" x="203.903408" y="121.451342" style="fill: #ff0000; stroke: #ff0000"/>
     <use xlink:href="#mad7a5e9c7d" x="52.937964" y="139.02735" style="fill: #ff0000; stroke: #ff0000"/>
     <use xlink:href="#mad7a5e9c7d" x="279.712447" y="112.969885" style="fill: #ff0000; stroke: #ff0000"/>
     <use xlink:href="#mad7a5e9c7d" x="227.572234" y="103.975323" style="fill: #ff0000; stroke: #ff0000"/>
     <use xlink:href="#mad7a5e9c7d" x="271.454492" y="114.542422" style="fill: #ff0000; stroke: #ff0000"/>
     <use xlink:href="#mad7a5e9c7d" x="213.245167" y="105.705519" style="fill: #ff0000; stroke: #ff0000"/>
     <use xlink:href="#mad7a5e9c7d" x="288.697236" y="147.813256" style="fill: #ff0000; stroke: #ff0000"/>
     <use xlink:href="#mad7a5e9c7d" x="274.663171" y="118.154174" style="fill: #ff0000; stroke: #ff0000"/>
     <use xlink:href="#mad7a5e9c7d" x="277.64149" y="107.673483" style="fill: #ff0000; stroke: #ff0000"/>
     <use xlink:href="#mad7a5e9c7d" x="143.241199" y="116.724302" style="fill: #ff0000; stroke: #ff0000"/>
     <use xlink:href="#mad7a5e9c7d" x="273.132698" y="96.178388" style="fill: #ff0000; stroke: #ff0000"/>
     <use xlink:href="#mad7a5e9c7d" x="286.916912" y="103.863594" style="fill: #ff0000; stroke: #ff0000"/>
     <use xlink:href="#mad7a5e9c7d" x="278.650135" y="111.624538" style="fill: #ff0000; stroke: #ff0000"/>
     <use xlink:href="#mad7a5e9c7d" x="212.608537" y="110.3393" style="fill: #ff0000; stroke: #ff0000"/>
     <use xlink:href="#mad7a5e9c7d" x="184.615709" y="108.187251" style="fill: #ff0000; stroke: #ff0000"/>
     <use xlink:href="#mad7a5e9c7d" x="263.732117" y="143.525465" style="fill: #ff0000; stroke: #ff0000"/>
     <use xlink:href="#mad7a5e9c7d" x="233.498722" y="97.399128" style="fill: #ff0000; stroke: #ff0000"/>
     <use xlink:href="#mad7a5e9c7d" x="222.792504" y="123.805612" style="fill: #ff0000; stroke: #ff0000"/>
     <use xlink:href="#mad7a5e9c7d" x="237.442266" y="143.525465" style="fill: #ff0000; stroke: #ff0000"/>
     <use xlink:href="#mad7a5e9c7d" x="158.241601" y="127.110747" style="fill: #ff0000; stroke: #ff0000"/>
    </g>
   </g>
   <g id="PathCollection_4">
    <defs>
     <path id="m1a196b09e7" d="M -2.236068 2.236068 
L 2.236068 2.236068 
L 2.236068 -2.236068 
L -2.236068 -2.236068 
z
" style="stroke: #00bfbf"/>
    </defs>
    <g clip-path="url(#pb600fcd541)">
     <use xlink:href="#m1a196b09e7" x="102.129562" y="61.625288" style="fill: #00bfbf; stroke: #00bfbf"/>
     <use xlink:href="#m1a196b09e7" x="264.549824" y="63.923855" style="fill: #00bfbf; stroke: #00bfbf"/>
     <use xlink:href="#m1a196b09e7" x="277.532415" y="61.116066" style="fill: #00bfbf; stroke: #00bfbf"/>
     <use xlink:href="#m1a196b09e7" x="285.338851" y="73.354911" style="fill: #00bfbf; stroke: #00bfbf"/>
     <use xlink:href="#m1a196b09e7" x="260.248988" y="60.246057" style="fill: #00bfbf; stroke: #00bfbf"/>
     <use xlink:href="#m1a196b09e7" x="224.494246" y="77.680656" style="fill: #00bfbf; stroke: #00bfbf"/>
     <use xlink:href="#m1a196b09e7" x="203.903408" y="71.740501" style="fill: #00bfbf; stroke: #00bfbf"/>
     <use xlink:href="#m1a196b09e7" x="52.937964" y="56.166579" style="fill: #00bfbf; stroke: #00bfbf"/>
     <use xlink:href="#m1a196b09e7" x="279.712447" y="62.698245" style="fill: #00bfbf; stroke: #00bfbf"/>
     <use xlink:href="#m1a196b09e7" x="227.572234" y="59.929496" style="fill: #00bfbf; stroke: #00bfbf"/>
     <use xlink:href="#m1a196b09e7" x="271.454492" y="62.274756" style="fill: #00bfbf; stroke: #00bfbf"/>
     <use xlink:href="#m1a196b09e7" x="213.245167" y="58.581198" style="fill: #00bfbf; stroke: #00bfbf"/>
     <use xlink:href="#m1a196b09e7" x="288.697236" y="78.453974" style="fill: #00bfbf; stroke: #00bfbf"/>
     <use xlink:href="#m1a196b09e7" x="274.663171" y="65.262248" style="fill: #00bfbf; stroke: #00bfbf"/>
     <use xlink:href="#m1a196b09e7" x="277.64149" y="63.564395" style="fill: #00bfbf; stroke: #00bfbf"/>
     <use xlink:href="#m1a196b09e7" x="143.241199" y="60.344166" style="fill: #00bfbf; stroke: #00bfbf"/>
     <use xlink:href="#m1a196b09e7" x="273.132698" y="57.139004" style="fill: #00bfbf; stroke: #00bfbf"/>
     <use xlink:href="#m1a196b09e7" x="286.916912" y="60.739979" style="fill: #00bfbf; stroke: #00bfbf"/>
     <use xlink:href="#m1a196b09e7" x="278.650135" y="60.197128" style="fill: #00bfbf; stroke: #00bfbf"/>
     <use xlink:href="#m1a196b09e7" x="212.608537" y="56.294352" style="fill: #00bfbf; stroke: #00bfbf"/>
     <use xlink:href="#m1a196b09e7" x="184.615709" y="59.977972" style="fill: #00bfbf; stroke: #00bfbf"/>
     <use xlink:href="#m1a196b09e7" x="263.732117" y="77.951224" style="fill: #00bfbf; stroke: #00bfbf"/>
     <use xlink:href="#m1a196b09e7" x="233.498722" y="57.918734" style="fill: #00bfbf; stroke: #00bfbf"/>
     <use xlink:href="#m1a196b09e7" x="222.792504" y="59.330344" style="fill: #00bfbf; stroke: #00bfbf"/>
     <use xlink:href="#m1a196b09e7" x="237.442266" y="62.274756" style="fill: #00bfbf; stroke: #00bfbf"/>
     <use xlink:href="#m1a196b09e7" x="158.241601" y="57.403966" style="fill: #00bfbf; stroke: #00bfbf"/>
    </g>
   </g>
   <g id="PathCollection_5">
    <defs>
     <path id="m97aebbffde" d="M 0 -2.236068 
L -2.126627 -0.690983 
L -1.314328 1.809017 
L 1.314328 1.809017 
L 2.126627 -0.690983 
z
" style="stroke: #bf00bf"/>
    </defs>
    <g clip-path="url(#pb600fcd541)">
     <use xlink:href="#m97aebbffde" x="102.129562" y="151.073751" style="fill: #bf00bf; stroke: #bf00bf"/>
     <use xlink:href="#m97aebbffde" x="264.549824" y="172.190228" style="fill: #bf00bf; stroke: #bf00bf"/>
     <use xlink:href="#m97aebbffde" x="277.532415" y="178.911386" style="fill: #bf00bf; stroke: #bf00bf"/>
     <use xlink:href="#m97aebbffde" x="285.338851" y="166.745688" style="fill: #bf00bf; stroke: #bf00bf"/>
     <use xlink:href="#m97aebbffde" x="260.248988" y="155.412963" style="fill: #bf00bf; stroke: #bf00bf"/>
     <use xlink:href="#m97aebbffde" x="224.494246" y="183.855561" style="fill: #bf00bf; stroke: #bf00bf"/>
     <use xlink:href="#m97aebbffde" x="203.903408" y="183.855561" style="fill: #bf00bf; stroke: #bf00bf"/>
     <use xlink:href="#m97aebbffde" x="52.937964" y="163.913543" style="fill: #bf00bf; stroke: #bf00bf"/>
     <use xlink:href="#m97aebbffde" x="279.712447" y="166.745688" style="fill: #bf00bf; stroke: #bf00bf"/>
     <use xlink:href="#m97aebbffde" x="227.572234" y="167.755275" style="fill: #bf00bf; stroke: #bf00bf"/>
     <use xlink:href="#m97aebbffde" x="271.454492" y="154.751549" style="fill: #bf00bf; stroke: #bf00bf"/>
     <use xlink:href="#m97aebbffde" x="213.245167" y="165.770332" style="fill: #bf00bf; stroke: #bf00bf"/>
     <use xlink:href="#m97aebbffde" x="288.697236" y="177.435665" style="fill: #bf00bf; stroke: #bf00bf"/>
     <use xlink:href="#m97aebbffde" x="274.663171" y="158.969368" style="fill: #bf00bf; stroke: #bf00bf"/>
     <use xlink:href="#m97aebbffde" x="277.64149" y="172.190228" style="fill: #bf00bf; stroke: #bf00bf"/>
     <use xlink:href="#m97aebbffde" x="143.241199" y="173.414679" style="fill: #bf00bf; stroke: #bf00bf"/>
     <use xlink:href="#m97aebbffde" x="273.132698" y="163.028235" style="fill: #bf00bf; stroke: #bf00bf"/>
     <use xlink:href="#m97aebbffde" x="286.916912" y="146.80367" style="fill: #bf00bf; stroke: #bf00bf"/>
     <use xlink:href="#m97aebbffde" x="278.650135" y="149.39734" style="fill: #bf00bf; stroke: #bf00bf"/>
     <use xlink:href="#m97aebbffde" x="212.608537" y="149.945361" style="fill: #bf00bf; stroke: #bf00bf"/>
     <use xlink:href="#m97aebbffde" x="184.615709" y="162.169357" style="fill: #bf00bf; stroke: #bf00bf"/>
     <use xlink:href="#m97aebbffde" x="263.732117" y="197.377683" style="fill: #bf00bf; stroke: #bf00bf"/>
     <use xlink:href="#m97aebbffde" x="233.498722" y="165.770332" style="fill: #bf00bf; stroke: #bf00bf"/>
     <use xlink:href="#m97aebbffde" x="222.792504" y="154.104999" style="fill: #bf00bf; stroke: #bf00bf"/>
     <use xlink:href="#m97aebbffde" x="237.442266" y="161.335379" style="fill: #bf00bf; stroke: #bf00bf"/>
     <use xlink:href="#m97aebbffde" x="158.241601" y="140.985265" style="fill: #bf00bf; stroke: #bf00bf"/>
    </g>
   </g>
   <g id="PathCollection_6">
    <defs>
     <path id="m518152d463" d="M 0 -2.236068 
L -0.502029 -0.690983 
L -2.126627 -0.690983 
L -0.812299 0.263932 
L -1.314328 1.809017 
L -0 0.854102 
L 1.314328 1.809017 
L 0.812299 0.263932 
L 2.126627 -0.690983 
L 0.502029 -0.690983 
z
" style="stroke: #008000"/>
    </defs>
    <g clip-path="url(#pb600fcd541)">
     <use xlink:href="#m518152d463" x="102.129562" y="207.639311" style="fill: #008000; stroke: #008000"/>
     <use xlink:href="#m518152d463" x="264.549824" y="207.639311" style="fill: #008000; stroke: #008000"/>
     <use xlink:href="#m518152d463" x="277.532415" y="212.074265" style="fill: #008000; stroke: #008000"/>
     <use xlink:href="#m518152d463" x="285.338851" y="194.635586" style="fill: #008000; stroke: #008000"/>
     <use xlink:href="#m518152d463" x="260.248988" y="194.635586" style="fill: #008000; stroke: #008000"/>
     <use xlink:href="#m518152d463" x="224.494246" y="223.739598" style="fill: #008000; stroke: #008000"/>
     <use xlink:href="#m518152d463" x="203.903408" y="243.681616" style="fill: #008000; stroke: #008000"/>
     <use xlink:href="#m518152d463" x="52.937964" y="200.408932" style="fill: #008000; stroke: #008000"/>
     <use xlink:href="#m518152d463" x="279.712447" y="217.319702" style="fill: #008000; stroke: #008000"/>
     <use xlink:href="#m518152d463" x="227.572234" y="232.016283" style="fill: #008000; stroke: #008000"/>
     <use xlink:href="#m518152d463" x="271.454492" y="217.319702" style="fill: #008000; stroke: #008000"/>
     <use xlink:href="#m518152d463" x="213.245167" y="207.639311" style="fill: #008000; stroke: #008000"/>
     <use xlink:href="#m518152d463" x="288.697236" y="223.739598" style="fill: #008000; stroke: #008000"/>
     <use xlink:href="#m518152d463" x="274.663171" y="192.132246" style="fill: #008000; stroke: #008000"/>
     <use xlink:href="#m518152d463" x="277.64149" y="223.739598" style="fill: #008000; stroke: #008000"/>
     <use xlink:href="#m518152d463" x="143.241199" y="217.319702" style="fill: #008000; stroke: #008000"/>
     <use xlink:href="#m518152d463" x="273.132698" y="212.074265" style="fill: #008000; stroke: #008000"/>
     <use xlink:href="#m518152d463" x="286.916912" y="192.132246" style="fill: #008000; stroke: #008000"/>
     <use xlink:href="#m518152d463" x="278.650135" y="197.377683" style="fill: #008000; stroke: #008000"/>
     <use xlink:href="#m518152d463" x="212.608537" y="207.639311" style="fill: #008000; stroke: #008000"/>
     <use xlink:href="#m518152d463" x="184.615709" y="217.319702" style="fill: #008000; stroke: #008000"/>
     <use xlink:href="#m518152d463" x="263.732117" y="263.623634" style="fill: #008000; stroke: #008000"/>
     <use xlink:href="#m518152d463" x="233.498722" y="212.074265" style="fill: #008000; stroke: #008000"/>
     <use xlink:href="#m518152d463" x="222.792504" y="203.797579" style="fill: #008000; stroke: #008000"/>
     <use xlink:href="#m518152d463" x="237.442266" y="187.697293" style="fill: #008000; stroke: #008000"/>
     <use xlink:href="#m518152d463" x="158.241601" y="194.635586" style="fill: #008000; stroke: #008000"/>
    </g>
   </g>
   <g id="PathCollection_7">
    <defs>
     <path id="m8c54e2b1ec" d="M 0 -2.236068 
L -1.936492 -1.118034 
L -1.936492 1.118034 
L -0 2.236068 
L 1.936492 1.118034 
L 1.936492 -1.118034 
z
" style="stroke: #bfbf00"/>
    </defs>
    <g clip-path="url(#pb600fcd541)">
     <use xlink:href="#m8c54e2b1ec" x="102.129562" y="107.92922" style="fill: #bfbf00; stroke: #bfbf00"/>
     <use xlink:href="#m8c54e2b1ec" x="264.549824" y="115.031446" style="fill: #bfbf00; stroke: #bfbf00"/>
     <use xlink:href="#m8c54e2b1ec" x="277.532415" y="117.252212" style="fill: #bfbf00; stroke: #bfbf00"/>
     <use xlink:href="#m8c54e2b1ec" x="285.338851" y="127.362017" style="fill: #bfbf00; stroke: #bfbf00"/>
     <use xlink:href="#m8c54e2b1ec" x="260.248988" y="108.710361" style="fill: #bfbf00; stroke: #bfbf00"/>
     <use xlink:href="#m8c54e2b1ec" x="224.494246" y="131.420884" style="fill: #bfbf00; stroke: #bfbf00"/>
     <use xlink:href="#m8c54e2b1ec" x="203.903408" y="121.657581" style="fill: #bfbf00; stroke: #bfbf00"/>
     <use xlink:href="#m8c54e2b1ec" x="52.937964" y="105.351056" style="fill: #bfbf00; stroke: #bfbf00"/>
     <use xlink:href="#m8c54e2b1ec" x="279.712447" y="118.709244" style="fill: #bfbf00; stroke: #bfbf00"/>
     <use xlink:href="#m8c54e2b1ec" x="227.572234" y="106.795891" style="fill: #bfbf00; stroke: #bfbf00"/>
     <use xlink:href="#m8c54e2b1ec" x="271.454492" y="109.786009" style="fill: #bfbf00; stroke: #bfbf00"/>
     <use xlink:href="#m8c54e2b1ec" x="213.245167" y="109.513304" style="fill: #bfbf00; stroke: #bfbf00"/>
     <use xlink:href="#m8c54e2b1ec" x="288.697236" y="140.582877" style="fill: #bfbf00; stroke: #bfbf00"/>
     <use xlink:href="#m8c54e2b1ec" x="274.663171" y="122.285321" style="fill: #bfbf00; stroke: #bfbf00"/>
     <use xlink:href="#m8c54e2b1ec" x="277.64149" y="120.047637" style="fill: #bfbf00; stroke: #bfbf00"/>
     <use xlink:href="#m8c54e2b1ec" x="143.241199" y="115.362142" style="fill: #bfbf00; stroke: #bfbf00"/>
     <use xlink:href="#m8c54e2b1ec" x="273.132698" y="107.294089" style="fill: #bfbf00; stroke: #bfbf00"/>
     <use xlink:href="#m8c54e2b1ec" x="286.916912" y="105.586879" style="fill: #bfbf00; stroke: #bfbf00"/>
     <use xlink:href="#m8c54e2b1ec" x="278.650135" y="101.715563" style="fill: #bfbf00; stroke: #bfbf00"/>
     <use xlink:href="#m8c54e2b1ec" x="212.608537" y="101.101228" style="fill: #bfbf00; stroke: #bfbf00"/>
     <use xlink:href="#m8c54e2b1ec" x="184.615709" y="107.673483" style="fill: #bfbf00; stroke: #bfbf00"/>
     <use xlink:href="#m8c54e2b1ec" x="263.732117" y="145.352762" style="fill: #bfbf00; stroke: #bfbf00"/>
     <use xlink:href="#m8c54e2b1ec" x="233.498722" y="115.362142" style="fill: #bfbf00; stroke: #bfbf00"/>
     <use xlink:href="#m8c54e2b1ec" x="222.792504" y="109.923338" style="fill: #bfbf00; stroke: #bfbf00"/>
     <use xlink:href="#m8c54e2b1ec" x="237.442266" y="112.364174" style="fill: #bfbf00; stroke: #bfbf00"/>
     <use xlink:href="#m8c54e2b1ec" x="158.241601" y="98.954655" style="fill: #bfbf00; stroke: #bfbf00"/>
    </g>
   </g>
   <g id="PathCollection_8">
    <defs>
     <path id="m8401099c9c" d="M -2.236068 0 
L 2.236068 0 
M 0 2.236068 
L 0 -2.236068 
" style="stroke: #9467bd; stroke-width: 1.5"/>
    </defs>
    <g clip-path="url(#pb600fcd541)">
     <use xlink:href="#m8401099c9c" x="102.129562" y="108.317139" style="fill: #9467bd; stroke: #9467bd; stroke-width: 1.5"/>
     <use xlink:href="#m8401099c9c" x="264.549824" y="104.313138" style="fill: #9467bd; stroke: #9467bd; stroke-width: 1.5"/>
     <use xlink:href="#m8401099c9c" x="277.532415" y="95.923407" style="fill: #9467bd; stroke: #9467bd; stroke-width: 1.5"/>
     <use xlink:href="#m8401099c9c" x="285.338851" y="116.377668" style="fill: #9467bd; stroke: #9467bd; stroke-width: 1.5"/>
     <use xlink:href="#m8401099c9c" x="260.248988" y="97.75764" style="fill: #9467bd; stroke: #9467bd; stroke-width: 1.5"/>
     <use xlink:href="#m8401099c9c" x="224.494246" y="124.482591" style="fill: #9467bd; stroke: #9467bd; stroke-width: 1.5"/>
     <use xlink:href="#m8401099c9c" x="203.903408" y="108.447617" style="fill: #9467bd; stroke: #9467bd; stroke-width: 1.5"/>
     <use xlink:href="#m8401099c9c" x="52.937964" y="133.530643" style="fill: #9467bd; stroke: #9467bd; stroke-width: 1.5"/>
     <use xlink:href="#m8401099c9c" x="279.712447" y="101.304553" style="fill: #9467bd; stroke: #9467bd; stroke-width: 1.5"/>
     <use xlink:href="#m8401099c9c" x="227.572234" y="97.045028" style="fill: #9467bd; stroke: #9467bd; stroke-width: 1.5"/>
     <use xlink:href="#m8401099c9c" x="271.454492" y="103.752297" style="fill: #9467bd; stroke: #9467bd; stroke-width: 1.5"/>
     <use xlink:href="#m8401099c9c" x="213.245167" y="95.503396" style="fill: #9467bd; stroke: #9467bd; stroke-width: 1.5"/>
     <use xlink:href="#m8401099c9c" x="288.697236" y="116.550463" style="fill: #9467bd; stroke: #9467bd; stroke-width: 1.5"/>
     <use xlink:href="#m8401099c9c" x="274.663171" y="104.087488" style="fill: #9467bd; stroke: #9467bd; stroke-width: 1.5"/>
     <use xlink:href="#m8401099c9c" x="277.64149" y="98.673968" style="fill: #9467bd; stroke: #9467bd; stroke-width: 1.5"/>
     <use xlink:href="#m8401099c9c" x="143.241199" y="101.81924" style="fill: #9467bd; stroke: #9467bd; stroke-width: 1.5"/>
     <use xlink:href="#m8401099c9c" x="273.132698" y="90.607541" style="fill: #9467bd; stroke: #9467bd; stroke-width: 1.5"/>
     <use xlink:href="#m8401099c9c" x="286.916912" y="93.803393" style="fill: #9467bd; stroke: #9467bd; stroke-width: 1.5"/>
     <use xlink:href="#m8401099c9c" x="278.650135" y="98.395992" style="fill: #9467bd; stroke: #9467bd; stroke-width: 1.5"/>
     <use xlink:href="#m8401099c9c" x="212.608537" y="100.105619" style="fill: #9467bd; stroke: #9467bd; stroke-width: 1.5"/>
     <use xlink:href="#m8401099c9c" x="184.615709" y="99.04883" style="fill: #9467bd; stroke: #9467bd; stroke-width: 1.5"/>
     <use xlink:href="#m8401099c9c" x="263.732117" y="117.075163" style="fill: #9467bd; stroke: #9467bd; stroke-width: 1.5"/>
     <use xlink:href="#m8401099c9c" x="233.498722" y="95.754666" style="fill: #9467bd; stroke: #9467bd; stroke-width: 1.5"/>
     <use xlink:href="#m8401099c9c" x="222.792504" y="111.918114" style="fill: #9467bd; stroke: #9467bd; stroke-width: 1.5"/>
     <use xlink:href="#m8401099c9c" x="237.442266" y="118.709244" style="fill: #9467bd; stroke: #9467bd; stroke-width: 1.5"/>
     <use xlink:href="#m8401099c9c" x="158.241601" y="106.54999" style="fill: #9467bd; stroke: #9467bd; stroke-width: 1.5"/>
    </g>
   </g>
   <g id="PathCollection_9">
    <defs>
     <path id="m7c0bda46db" d="M -2.236068 2.236068 
L 2.236068 -2.236068 
M -2.236068 -2.236068 
L 2.236068 2.236068 
" style="stroke: #8c564b; stroke-width: 1.5"/>
    </defs>
    <g clip-path="url(#pb600fcd541)">
     <use xlink:href="#m7c0bda46db" x="102.129562" y="223.739598" style="fill: #8c564b; stroke: #8c564b; stroke-width: 1.5"/>
     <use xlink:href="#m7c0bda46db" x="264.549824" y="187.697293" style="fill: #8c564b; stroke: #8c564b; stroke-width: 1.5"/>
     <use xlink:href="#m7c0bda46db" x="277.532415" y="197.377683" style="fill: #8c564b; stroke: #8c564b; stroke-width: 1.5"/>
     <use xlink:href="#m7c0bda46db" x="285.338851" y="263.623634" style="fill: #8c564b; stroke: #8c564b; stroke-width: 1.5"/>
     <use xlink:href="#m7c0bda46db" x="260.248988" y="177.435665" style="fill: #8c564b; stroke: #8c564b; stroke-width: 1.5"/>
     <use xlink:href="#m7c0bda46db" x="224.494246" y="263.623634" style="fill: #8c564b; stroke: #8c564b; stroke-width: 1.5"/>
     <use xlink:href="#m7c0bda46db" x="203.903408" y="217.319702" style="fill: #8c564b; stroke: #8c564b; stroke-width: 1.5"/>
     <use xlink:href="#m7c0bda46db" x="52.937964" y="200.408932" style="fill: #8c564b; stroke: #8c564b; stroke-width: 1.5"/>
     <use xlink:href="#m7c0bda46db" x="279.712447" y="223.739598" style="fill: #8c564b; stroke: #8c564b; stroke-width: 1.5"/>
     <use xlink:href="#m7c0bda46db" x="227.572234" y="232.016283" style="fill: #8c564b; stroke: #8c564b; stroke-width: 1.5"/>
     <use xlink:href="#m7c0bda46db" x="271.454492" y="212.074265" style="fill: #8c564b; stroke: #8c564b; stroke-width: 1.5"/>
     <use xlink:href="#m7c0bda46db" x="213.245167" y="200.408932" style="fill: #8c564b; stroke: #8c564b; stroke-width: 1.5"/>
     <use xlink:href="#m7c0bda46db" x="288.697236" y="263.623634" style="fill: #8c564b; stroke: #8c564b; stroke-width: 1.5"/>
     <use xlink:href="#m7c0bda46db" x="274.663171" y="197.377683" style="fill: #8c564b; stroke: #8c564b; stroke-width: 1.5"/>
     <use xlink:href="#m7c0bda46db" x="277.64149" y="197.377683" style="fill: #8c564b; stroke: #8c564b; stroke-width: 1.5"/>
     <use xlink:href="#m7c0bda46db" x="143.241199" y="212.074265" style="fill: #8c564b; stroke: #8c564b; stroke-width: 1.5"/>
     <use xlink:href="#m7c0bda46db" x="273.132698" y="203.797579" style="fill: #8c564b; stroke: #8c564b; stroke-width: 1.5"/>
     <use xlink:href="#m7c0bda46db" x="286.916912" y="194.635586" style="fill: #8c564b; stroke: #8c564b; stroke-width: 1.5"/>
     <use xlink:href="#m7c0bda46db" x="278.650135" y="212.074265" style="fill: #8c564b; stroke: #8c564b; stroke-width: 1.5"/>
     <use xlink:href="#m7c0bda46db" x="212.608537" y="194.635586" style="fill: #8c564b; stroke: #8c564b; stroke-width: 1.5"/>
     <use xlink:href="#m7c0bda46db" x="184.615709" y="212.074265" style="fill: #8c564b; stroke: #8c564b; stroke-width: 1.5"/>
     <use xlink:href="#m7c0bda46db" x="263.732117" y="263.623634" style="fill: #8c564b; stroke: #8c564b; stroke-width: 1.5"/>
     <use xlink:href="#m7c0bda46db" x="233.498722" y="189.829398" style="fill: #8c564b; stroke: #8c564b; stroke-width: 1.5"/>
     <use xlink:href="#m7c0bda46db" x="222.792504" y="212.074265" style="fill: #8c564b; stroke: #8c564b; stroke-width: 1.5"/>
     <use xlink:href="#m7c0bda46db" x="237.442266" y="183.855561" style="fill: #8c564b; stroke: #8c564b; stroke-width: 1.5"/>
     <use xlink:href="#m7c0bda46db" x="158.241601" y="217.319702" style="fill: #8c564b; stroke: #8c564b; stroke-width: 1.5"/>
    </g>
   </g>
   <g id="PathCollection_10">
    <defs>
     <path id="m070c40b070" d="M 0 -2.236068 
L -2.236068 2.236068 
L 2.236068 2.236068 
z
" style="stroke: #ff7f0e"/>
    </defs>
    <g clip-path="url(#pb600fcd541)">
     <use xlink:href="#m070c40b070" x="102.129562" y="47.342674" style="fill: #ff7f0e; stroke: #ff7f0e"/>
     <use xlink:href="#m070c40b070" x="264.549824" y="48.818395" style="fill: #ff7f0e; stroke: #ff7f0e"/>
     <use xlink:href="#m070c40b070" x="277.532415" y="44.843244" style="fill: #ff7f0e; stroke: #ff7f0e"/>
     <use xlink:href="#m070c40b070" x="285.338851" y="59.881102" style="fill: #ff7f0e; stroke: #ff7f0e"/>
     <use xlink:href="#m070c40b070" x="260.248988" y="43.308094" style="fill: #ff7f0e; stroke: #ff7f0e"/>
     <use xlink:href="#m070c40b070" x="224.494246" y="65.880987" style="fill: #ff7f0e; stroke: #ff7f0e"/>
     <use xlink:href="#m070c40b070" x="203.903408" y="56.102904" style="fill: #ff7f0e; stroke: #ff7f0e"/>
     <use xlink:href="#m070c40b070" x="52.937964" y="46.678062" style="fill: #ff7f0e; stroke: #ff7f0e"/>
     <use xlink:href="#m070c40b070" x="279.712447" y="48.087115" style="fill: #ff7f0e; stroke: #ff7f0e"/>
     <use xlink:href="#m070c40b070" x="227.572234" y="43.172513" style="fill: #ff7f0e; stroke: #ff7f0e"/>
     <use xlink:href="#m070c40b070" x="271.454492" y="47.047113" style="fill: #ff7f0e; stroke: #ff7f0e"/>
     <use xlink:href="#m070c40b070" x="213.245167" y="42.570183" style="fill: #ff7f0e; stroke: #ff7f0e"/>
     <use xlink:href="#m070c40b070" x="288.697236" y="65.970474" style="fill: #ff7f0e; stroke: #ff7f0e"/>
     <use xlink:href="#m070c40b070" x="274.663171" y="50.846869" style="fill: #ff7f0e; stroke: #ff7f0e"/>
     <use xlink:href="#m070c40b070" x="277.64149" y="47.959033" style="fill: #ff7f0e; stroke: #ff7f0e"/>
     <use xlink:href="#m070c40b070" x="143.241199" y="46.754558" style="fill: #ff7f0e; stroke: #ff7f0e"/>
     <use xlink:href="#m070c40b070" x="273.132698" y="39.329091" style="fill: #ff7f0e; stroke: #ff7f0e"/>
     <use xlink:href="#m070c40b070" x="286.916912" y="42.490817" style="fill: #ff7f0e; stroke: #ff7f0e"/>
     <use xlink:href="#m070c40b070" x="278.650135" y="42.796251" style="fill: #ff7f0e; stroke: #ff7f0e"/>
     <use xlink:href="#m070c40b070" x="212.608537" y="40.922778" style="fill: #ff7f0e; stroke: #ff7f0e"/>
     <use xlink:href="#m070c40b070" x="184.615709" y="43.649869" style="fill: #ff7f0e; stroke: #ff7f0e"/>
     <use xlink:href="#m070c40b070" x="263.732117" y="66.331235" style="fill: #ff7f0e; stroke: #ff7f0e"/>
     <use xlink:href="#m070c40b070" x="233.498722" y="42.006171" style="fill: #ff7f0e; stroke: #ff7f0e"/>
     <use xlink:href="#m070c40b070" x="222.792504" y="46.954405" style="fill: #ff7f0e; stroke: #ff7f0e"/>
     <use xlink:href="#m070c40b070" x="237.442266" y="50.864535" style="fill: #ff7f0e; stroke: #ff7f0e"/>
     <use xlink:href="#m070c40b070" x="158.241601" y="42.583432" style="fill: #ff7f0e; stroke: #ff7f0e"/>
    </g>
   </g>
   <g id="matplotlib.axis_1">
    <g id="xtick_1">
     <g id="line2d_1">
      <defs>
       <path id="mbbdc11b23b" d="M 0 0 
L 0 3.5 
" style="stroke: #000000; stroke-width: 0.8"/>
      </defs>
      <g>
       <use xlink:href="#mbbdc11b23b" x="45.542947" y="300.76" style="stroke: #000000; stroke-width: 0.8"/>
      </g>
     </g>
     <g id="text_1">
      <!-- 0.25 -->
      <g transform="translate(34.410134 315.358437)scale(0.1 -0.1)">
       <defs>
        <path id="DejaVuSans-30" d="M 2034 4250 
Q 1547 4250 1301 3770 
Q 1056 3291 1056 2328 
Q 1056 1369 1301 889 
Q 1547 409 2034 409 
Q 2525 409 2770 889 
Q 3016 1369 3016 2328 
Q 3016 3291 2770 3770 
Q 2525 4250 2034 4250 
z
M 2034 4750 
Q 2819 4750 3233 4129 
Q 3647 3509 3647 2328 
Q 3647 1150 3233 529 
Q 2819 -91 2034 -91 
Q 1250 -91 836 529 
Q 422 1150 422 2328 
Q 422 3509 836 4129 
Q 1250 4750 2034 4750 
z
" transform="scale(0.015625)"/>
        <path id="DejaVuSans-2e" d="M 684 794 
L 1344 794 
L 1344 0 
L 684 0 
L 684 794 
z
" transform="scale(0.015625)"/>
        <path id="DejaVuSans-32" d="M 1228 531 
L 3431 531 
L 3431 0 
L 469 0 
L 469 531 
Q 828 903 1448 1529 
Q 2069 2156 2228 2338 
Q 2531 2678 2651 2914 
Q 2772 3150 2772 3378 
Q 2772 3750 2511 3984 
Q 2250 4219 1831 4219 
Q 1534 4219 1204 4116 
Q 875 4013 500 3803 
L 500 4441 
Q 881 4594 1212 4672 
Q 1544 4750 1819 4750 
Q 2544 4750 2975 4387 
Q 3406 4025 3406 3419 
Q 3406 3131 3298 2873 
Q 3191 2616 2906 2266 
Q 2828 2175 2409 1742 
Q 1991 1309 1228 531 
z
" transform="scale(0.015625)"/>
        <path id="DejaVuSans-35" d="M 691 4666 
L 3169 4666 
L 3169 4134 
L 1269 4134 
L 1269 2991 
Q 1406 3038 1543 3061 
Q 1681 3084 1819 3084 
Q 2600 3084 3056 2656 
Q 3513 2228 3513 1497 
Q 3513 744 3044 326 
Q 2575 -91 1722 -91 
Q 1428 -91 1123 -41 
Q 819 9 494 109 
L 494 744 
Q 775 591 1075 516 
Q 1375 441 1709 441 
Q 2250 441 2565 725 
Q 2881 1009 2881 1497 
Q 2881 1984 2565 2268 
Q 2250 2553 1709 2553 
Q 1456 2553 1204 2497 
Q 953 2441 691 2322 
L 691 4666 
z
" transform="scale(0.015625)"/>
       </defs>
       <use xlink:href="#DejaVuSans-30"/>
       <use xlink:href="#DejaVuSans-2e" x="63.623047"/>
       <use xlink:href="#DejaVuSans-32" x="95.410156"/>
       <use xlink:href="#DejaVuSans-35" x="159.033203"/>
      </g>
     </g>
    </g>
    <g id="xtick_2">
     <g id="line2d_2">
      <g>
       <use xlink:href="#mbbdc11b23b" x="80.296541" y="300.76" style="stroke: #000000; stroke-width: 0.8"/>
      </g>
     </g>
     <g id="text_2">
      <!-- 0.50 -->
      <g transform="translate(69.163728 315.358437)scale(0.1 -0.1)">
       <use xlink:href="#DejaVuSans-30"/>
       <use xlink:href="#DejaVuSans-2e" x="63.623047"/>
       <use xlink:href="#DejaVuSans-35" x="95.410156"/>
       <use xlink:href="#DejaVuSans-30" x="159.033203"/>
      </g>
     </g>
    </g>
    <g id="xtick_3">
     <g id="line2d_3">
      <g>
       <use xlink:href="#mbbdc11b23b" x="115.050135" y="300.76" style="stroke: #000000; stroke-width: 0.8"/>
      </g>
     </g>
     <g id="text_3">
      <!-- 0.75 -->
      <g transform="translate(103.917322 315.358437)scale(0.1 -0.1)">
       <defs>
        <path id="DejaVuSans-37" d="M 525 4666 
L 3525 4666 
L 3525 4397 
L 1831 0 
L 1172 0 
L 2766 4134 
L 525 4134 
L 525 4666 
z
" transform="scale(0.015625)"/>
       </defs>
       <use xlink:href="#DejaVuSans-30"/>
       <use xlink:href="#DejaVuSans-2e" x="63.623047"/>
       <use xlink:href="#DejaVuSans-37" x="95.410156"/>
       <use xlink:href="#DejaVuSans-35" x="159.033203"/>
      </g>
     </g>
    </g>
    <g id="xtick_4">
     <g id="line2d_4">
      <g>
       <use xlink:href="#mbbdc11b23b" x="149.803728" y="300.76" style="stroke: #000000; stroke-width: 0.8"/>
      </g>
     </g>
     <g id="text_4">
      <!-- 1.00 -->
      <g transform="translate(138.670916 315.358437)scale(0.1 -0.1)">
       <defs>
        <path id="DejaVuSans-31" d="M 794 531 
L 1825 531 
L 1825 4091 
L 703 3866 
L 703 4441 
L 1819 4666 
L 2450 4666 
L 2450 531 
L 3481 531 
L 3481 0 
L 794 0 
L 794 531 
z
" transform="scale(0.015625)"/>
       </defs>
       <use xlink:href="#DejaVuSans-31"/>
       <use xlink:href="#DejaVuSans-2e" x="63.623047"/>
       <use xlink:href="#DejaVuSans-30" x="95.410156"/>
       <use xlink:href="#DejaVuSans-30" x="159.033203"/>
      </g>
     </g>
    </g>
    <g id="xtick_5">
     <g id="line2d_5">
      <g>
       <use xlink:href="#mbbdc11b23b" x="184.557322" y="300.76" style="stroke: #000000; stroke-width: 0.8"/>
      </g>
     </g>
     <g id="text_5">
      <!-- 1.25 -->
      <g transform="translate(173.42451 315.358437)scale(0.1 -0.1)">
       <use xlink:href="#DejaVuSans-31"/>
       <use xlink:href="#DejaVuSans-2e" x="63.623047"/>
       <use xlink:href="#DejaVuSans-32" x="95.410156"/>
       <use xlink:href="#DejaVuSans-35" x="159.033203"/>
      </g>
     </g>
    </g>
    <g id="xtick_6">
     <g id="line2d_6">
      <g>
       <use xlink:href="#mbbdc11b23b" x="219.310916" y="300.76" style="stroke: #000000; stroke-width: 0.8"/>
      </g>
     </g>
     <g id="text_6">
      <!-- 1.50 -->
      <g transform="translate(208.178104 315.358437)scale(0.1 -0.1)">
       <use xlink:href="#DejaVuSans-31"/>
       <use xlink:href="#DejaVuSans-2e" x="63.623047"/>
       <use xlink:href="#DejaVuSans-35" x="95.410156"/>
       <use xlink:href="#DejaVuSans-30" x="159.033203"/>
      </g>
     </g>
    </g>
    <g id="xtick_7">
     <g id="line2d_7">
      <g>
       <use xlink:href="#mbbdc11b23b" x="254.06451" y="300.76" style="stroke: #000000; stroke-width: 0.8"/>
      </g>
     </g>
     <g id="text_7">
      <!-- 1.75 -->
      <g transform="translate(242.931697 315.358437)scale(0.1 -0.1)">
       <use xlink:href="#DejaVuSans-31"/>
       <use xlink:href="#DejaVuSans-2e" x="63.623047"/>
       <use xlink:href="#DejaVuSans-37" x="95.410156"/>
       <use xlink:href="#DejaVuSans-35" x="159.033203"/>
      </g>
     </g>
    </g>
    <g id="xtick_8">
     <g id="line2d_8">
      <g>
       <use xlink:href="#mbbdc11b23b" x="288.818104" y="300.76" style="stroke: #000000; stroke-width: 0.8"/>
      </g>
     </g>
     <g id="text_8">
      <!-- 2.00 -->
      <g transform="translate(277.685291 315.358437)scale(0.1 -0.1)">
       <use xlink:href="#DejaVuSans-32"/>
       <use xlink:href="#DejaVuSans-2e" x="63.623047"/>
       <use xlink:href="#DejaVuSans-30" x="95.410156"/>
       <use xlink:href="#DejaVuSans-30" x="159.033203"/>
      </g>
     </g>
    </g>
    <g id="text_9">
     <!-- ForestCover (in log10) -->
     <g transform="translate(95.091037 330.55625)scale(0.12 -0.12)">
      <defs>
       <path id="DejaVuSans-Bold-46" d="M 588 4666 
L 3834 4666 
L 3834 3756 
L 1791 3756 
L 1791 2888 
L 3713 2888 
L 3713 1978 
L 1791 1978 
L 1791 0 
L 588 0 
L 588 4666 
z
" transform="scale(0.015625)"/>
       <path id="DejaVuSans-Bold-6f" d="M 2203 2784 
Q 1831 2784 1636 2517 
Q 1441 2250 1441 1747 
Q 1441 1244 1636 976 
Q 1831 709 2203 709 
Q 2569 709 2762 976 
Q 2956 1244 2956 1747 
Q 2956 2250 2762 2517 
Q 2569 2784 2203 2784 
z
M 2203 3584 
Q 3106 3584 3614 3096 
Q 4122 2609 4122 1747 
Q 4122 884 3614 396 
Q 3106 -91 2203 -91 
Q 1297 -91 786 396 
Q 275 884 275 1747 
Q 275 2609 786 3096 
Q 1297 3584 2203 3584 
z
" transform="scale(0.015625)"/>
       <path id="DejaVuSans-Bold-72" d="M 3138 2547 
Q 2991 2616 2845 2648 
Q 2700 2681 2553 2681 
Q 2122 2681 1889 2404 
Q 1656 2128 1656 1613 
L 1656 0 
L 538 0 
L 538 3500 
L 1656 3500 
L 1656 2925 
Q 1872 3269 2151 3426 
Q 2431 3584 2822 3584 
Q 2878 3584 2943 3579 
Q 3009 3575 3134 3559 
L 3138 2547 
z
" transform="scale(0.015625)"/>
       <path id="DejaVuSans-Bold-65" d="M 4031 1759 
L 4031 1441 
L 1416 1441 
Q 1456 1047 1700 850 
Q 1944 653 2381 653 
Q 2734 653 3104 758 
Q 3475 863 3866 1075 
L 3866 213 
Q 3469 63 3072 -14 
Q 2675 -91 2278 -91 
Q 1328 -91 801 392 
Q 275 875 275 1747 
Q 275 2603 792 3093 
Q 1309 3584 2216 3584 
Q 3041 3584 3536 3087 
Q 4031 2591 4031 1759 
z
M 2881 2131 
Q 2881 2450 2695 2645 
Q 2509 2841 2209 2841 
Q 1884 2841 1681 2658 
Q 1478 2475 1428 2131 
L 2881 2131 
z
" transform="scale(0.015625)"/>
       <path id="DejaVuSans-Bold-73" d="M 3272 3391 
L 3272 2541 
Q 2913 2691 2578 2766 
Q 2244 2841 1947 2841 
Q 1628 2841 1473 2761 
Q 1319 2681 1319 2516 
Q 1319 2381 1436 2309 
Q 1553 2238 1856 2203 
L 2053 2175 
Q 2913 2066 3209 1816 
Q 3506 1566 3506 1031 
Q 3506 472 3093 190 
Q 2681 -91 1863 -91 
Q 1516 -91 1145 -36 
Q 775 19 384 128 
L 384 978 
Q 719 816 1070 734 
Q 1422 653 1784 653 
Q 2113 653 2278 743 
Q 2444 834 2444 1013 
Q 2444 1163 2330 1236 
Q 2216 1309 1875 1350 
L 1678 1375 
Q 931 1469 631 1722 
Q 331 1975 331 2491 
Q 331 3047 712 3315 
Q 1094 3584 1881 3584 
Q 2191 3584 2531 3537 
Q 2872 3491 3272 3391 
z
" transform="scale(0.015625)"/>
       <path id="DejaVuSans-Bold-74" d="M 1759 4494 
L 1759 3500 
L 2913 3500 
L 2913 2700 
L 1759 2700 
L 1759 1216 
Q 1759 972 1856 886 
Q 1953 800 2241 800 
L 2816 800 
L 2816 0 
L 1856 0 
Q 1194 0 917 276 
Q 641 553 641 1216 
L 641 2700 
L 84 2700 
L 84 3500 
L 641 3500 
L 641 4494 
L 1759 4494 
z
" transform="scale(0.015625)"/>
       <path id="DejaVuSans-Bold-43" d="M 4288 256 
Q 3956 84 3597 -3 
Q 3238 -91 2847 -91 
Q 1681 -91 1000 561 
Q 319 1213 319 2328 
Q 319 3447 1000 4098 
Q 1681 4750 2847 4750 
Q 3238 4750 3597 4662 
Q 3956 4575 4288 4403 
L 4288 3438 
Q 3953 3666 3628 3772 
Q 3303 3878 2944 3878 
Q 2300 3878 1931 3465 
Q 1563 3053 1563 2328 
Q 1563 1606 1931 1193 
Q 2300 781 2944 781 
Q 3303 781 3628 887 
Q 3953 994 4288 1222 
L 4288 256 
z
" transform="scale(0.015625)"/>
       <path id="DejaVuSans-Bold-76" d="M 97 3500 
L 1216 3500 
L 2088 1081 
L 2956 3500 
L 4078 3500 
L 2700 0 
L 1472 0 
L 97 3500 
z
" transform="scale(0.015625)"/>
       <path id="DejaVuSans-Bold-20" transform="scale(0.015625)"/>
       <path id="DejaVuSans-Bold-28" d="M 2413 -844 
L 1484 -844 
Q 1006 -72 778 623 
Q 550 1319 550 2003 
Q 550 2688 779 3389 
Q 1009 4091 1484 4856 
L 2413 4856 
Q 2013 4116 1813 3408 
Q 1613 2700 1613 2009 
Q 1613 1319 1811 609 
Q 2009 -100 2413 -844 
z
" transform="scale(0.015625)"/>
       <path id="DejaVuSans-Bold-69" d="M 538 3500 
L 1656 3500 
L 1656 0 
L 538 0 
L 538 3500 
z
M 538 4863 
L 1656 4863 
L 1656 3950 
L 538 3950 
L 538 4863 
z
" transform="scale(0.015625)"/>
       <path id="DejaVuSans-Bold-6e" d="M 4056 2131 
L 4056 0 
L 2931 0 
L 2931 347 
L 2931 1631 
Q 2931 2084 2911 2256 
Q 2891 2428 2841 2509 
Q 2775 2619 2662 2680 
Q 2550 2741 2406 2741 
Q 2056 2741 1856 2470 
Q 1656 2200 1656 1722 
L 1656 0 
L 538 0 
L 538 3500 
L 1656 3500 
L 1656 2988 
Q 1909 3294 2193 3439 
Q 2478 3584 2822 3584 
Q 3428 3584 3742 3212 
Q 4056 2841 4056 2131 
z
" transform="scale(0.015625)"/>
       <path id="DejaVuSans-Bold-6c" d="M 538 4863 
L 1656 4863 
L 1656 0 
L 538 0 
L 538 4863 
z
" transform="scale(0.015625)"/>
       <path id="DejaVuSans-Bold-67" d="M 2919 594 
Q 2688 288 2409 144 
Q 2131 0 1766 0 
Q 1125 0 706 504 
Q 288 1009 288 1791 
Q 288 2575 706 3076 
Q 1125 3578 1766 3578 
Q 2131 3578 2409 3434 
Q 2688 3291 2919 2981 
L 2919 3500 
L 4044 3500 
L 4044 353 
Q 4044 -491 3511 -936 
Q 2978 -1381 1966 -1381 
Q 1638 -1381 1331 -1331 
Q 1025 -1281 716 -1178 
L 716 -306 
Q 1009 -475 1290 -558 
Q 1572 -641 1856 -641 
Q 2406 -641 2662 -400 
Q 2919 -159 2919 353 
L 2919 594 
z
M 2181 2772 
Q 1834 2772 1640 2515 
Q 1447 2259 1447 1791 
Q 1447 1309 1634 1061 
Q 1822 813 2181 813 
Q 2531 813 2725 1069 
Q 2919 1325 2919 1791 
Q 2919 2259 2725 2515 
Q 2531 2772 2181 2772 
z
" transform="scale(0.015625)"/>
       <path id="DejaVuSans-Bold-31" d="M 750 831 
L 1813 831 
L 1813 3847 
L 722 3622 
L 722 4441 
L 1806 4666 
L 2950 4666 
L 2950 831 
L 4013 831 
L 4013 0 
L 750 0 
L 750 831 
z
" transform="scale(0.015625)"/>
       <path id="DejaVuSans-Bold-30" d="M 2944 2338 
Q 2944 3213 2780 3570 
Q 2616 3928 2228 3928 
Q 1841 3928 1675 3570 
Q 1509 3213 1509 2338 
Q 1509 1453 1675 1090 
Q 1841 728 2228 728 
Q 2613 728 2778 1090 
Q 2944 1453 2944 2338 
z
M 4147 2328 
Q 4147 1169 3647 539 
Q 3147 -91 2228 -91 
Q 1306 -91 806 539 
Q 306 1169 306 2328 
Q 306 3491 806 4120 
Q 1306 4750 2228 4750 
Q 3147 4750 3647 4120 
Q 4147 3491 4147 2328 
z
" transform="scale(0.015625)"/>
       <path id="DejaVuSans-Bold-29" d="M 513 -844 
Q 913 -100 1113 609 
Q 1313 1319 1313 2009 
Q 1313 2700 1113 3408 
Q 913 4116 513 4856 
L 1441 4856 
Q 1916 4091 2145 3389 
Q 2375 2688 2375 2003 
Q 2375 1319 2147 623 
Q 1919 -72 1441 -844 
L 513 -844 
z
" transform="scale(0.015625)"/>
      </defs>
      <use xlink:href="#DejaVuSans-Bold-46"/>
      <use xlink:href="#DejaVuSans-Bold-6f" x="64.310547"/>
      <use xlink:href="#DejaVuSans-Bold-72" x="133.011719"/>
      <use xlink:href="#DejaVuSans-Bold-65" x="182.328125"/>
      <use xlink:href="#DejaVuSans-Bold-73" x="250.150391"/>
      <use xlink:href="#DejaVuSans-Bold-74" x="309.671875"/>
      <use xlink:href="#DejaVuSans-Bold-43" x="357.474609"/>
      <use xlink:href="#DejaVuSans-Bold-6f" x="430.863281"/>
      <use xlink:href="#DejaVuSans-Bold-76" x="499.564453"/>
      <use xlink:href="#DejaVuSans-Bold-65" x="564.75"/>
      <use xlink:href="#DejaVuSans-Bold-72" x="632.572266"/>
      <use xlink:href="#DejaVuSans-Bold-20" x="681.888672"/>
      <use xlink:href="#DejaVuSans-Bold-28" x="716.703125"/>
      <use xlink:href="#DejaVuSans-Bold-69" x="762.40625"/>
      <use xlink:href="#DejaVuSans-Bold-6e" x="796.683594"/>
      <use xlink:href="#DejaVuSans-Bold-20" x="867.875"/>
      <use xlink:href="#DejaVuSans-Bold-6c" x="902.689453"/>
      <use xlink:href="#DejaVuSans-Bold-6f" x="936.966797"/>
      <use xlink:href="#DejaVuSans-Bold-67" x="1005.667969"/>
      <use xlink:href="#DejaVuSans-Bold-31" x="1077.25"/>
      <use xlink:href="#DejaVuSans-Bold-30" x="1146.830078"/>
      <use xlink:href="#DejaVuSans-Bold-29" x="1216.410156"/>
     </g>
    </g>
   </g>
   <g id="matplotlib.axis_2">
    <g id="ytick_1">
     <g id="line2d_9">
      <defs>
       <path id="mac8195bb7f" d="M 0 0 
L -3.5 0 
" style="stroke: #000000; stroke-width: 0.8"/>
      </defs>
      <g>
       <use xlink:href="#mac8195bb7f" x="41.15" y="263.623634" style="stroke: #000000; stroke-width: 0.8"/>
      </g>
     </g>
     <g id="text_10">
      <!-- 0 -->
      <g transform="translate(27.7875 267.422853)scale(0.1 -0.1)">
       <use xlink:href="#DejaVuSans-30"/>
      </g>
     </g>
    </g>
    <g id="ytick_2">
     <g id="line2d_10">
      <g>
       <use xlink:href="#mac8195bb7f" x="41.15" y="206.083132" style="stroke: #000000; stroke-width: 0.8"/>
      </g>
     </g>
     <g id="text_11">
      <!-- 2 -->
      <g transform="translate(27.7875 209.882351)scale(0.1 -0.1)">
       <use xlink:href="#DejaVuSans-32"/>
      </g>
     </g>
    </g>
    <g id="ytick_3">
     <g id="line2d_11">
      <g>
       <use xlink:href="#mac8195bb7f" x="41.15" y="148.542631" style="stroke: #000000; stroke-width: 0.8"/>
      </g>
     </g>
     <g id="text_12">
      <!-- 4 -->
      <g transform="translate(27.7875 152.34185)scale(0.1 -0.1)">
       <defs>
        <path id="DejaVuSans-34" d="M 2419 4116 
L 825 1625 
L 2419 1625 
L 2419 4116 
z
M 2253 4666 
L 3047 4666 
L 3047 1625 
L 3713 1625 
L 3713 1100 
L 3047 1100 
L 3047 0 
L 2419 0 
L 2419 1100 
L 313 1100 
L 313 1709 
L 2253 4666 
z
" transform="scale(0.015625)"/>
       </defs>
       <use xlink:href="#DejaVuSans-34"/>
      </g>
     </g>
    </g>
    <g id="ytick_4">
     <g id="line2d_12">
      <g>
       <use xlink:href="#mac8195bb7f" x="41.15" y="91.002129" style="stroke: #000000; stroke-width: 0.8"/>
      </g>
     </g>
     <g id="text_13">
      <!-- 6 -->
      <g transform="translate(27.7875 94.801348)scale(0.1 -0.1)">
       <defs>
        <path id="DejaVuSans-36" d="M 2113 2584 
Q 1688 2584 1439 2293 
Q 1191 2003 1191 1497 
Q 1191 994 1439 701 
Q 1688 409 2113 409 
Q 2538 409 2786 701 
Q 3034 994 3034 1497 
Q 3034 2003 2786 2293 
Q 2538 2584 2113 2584 
z
M 3366 4563 
L 3366 3988 
Q 3128 4100 2886 4159 
Q 2644 4219 2406 4219 
Q 1781 4219 1451 3797 
Q 1122 3375 1075 2522 
Q 1259 2794 1537 2939 
Q 1816 3084 2150 3084 
Q 2853 3084 3261 2657 
Q 3669 2231 3669 1497 
Q 3669 778 3244 343 
Q 2819 -91 2113 -91 
Q 1303 -91 875 529 
Q 447 1150 447 2328 
Q 447 3434 972 4092 
Q 1497 4750 2381 4750 
Q 2619 4750 2861 4703 
Q 3103 4656 3366 4563 
z
" transform="scale(0.015625)"/>
       </defs>
       <use xlink:href="#DejaVuSans-36"/>
      </g>
     </g>
    </g>
    <g id="ytick_5">
     <g id="line2d_13">
      <g>
       <use xlink:href="#mac8195bb7f" x="41.15" y="33.461628" style="stroke: #000000; stroke-width: 0.8"/>
      </g>
     </g>
     <g id="text_14">
      <!-- 8 -->
      <g transform="translate(27.7875 37.260846)scale(0.1 -0.1)">
       <defs>
        <path id="DejaVuSans-38" d="M 2034 2216 
Q 1584 2216 1326 1975 
Q 1069 1734 1069 1313 
Q 1069 891 1326 650 
Q 1584 409 2034 409 
Q 2484 409 2743 651 
Q 3003 894 3003 1313 
Q 3003 1734 2745 1975 
Q 2488 2216 2034 2216 
z
M 1403 2484 
Q 997 2584 770 2862 
Q 544 3141 544 3541 
Q 544 4100 942 4425 
Q 1341 4750 2034 4750 
Q 2731 4750 3128 4425 
Q 3525 4100 3525 3541 
Q 3525 3141 3298 2862 
Q 3072 2584 2669 2484 
Q 3125 2378 3379 2068 
Q 3634 1759 3634 1313 
Q 3634 634 3220 271 
Q 2806 -91 2034 -91 
Q 1263 -91 848 271 
Q 434 634 434 1313 
Q 434 1759 690 2068 
Q 947 2378 1403 2484 
z
M 1172 3481 
Q 1172 3119 1398 2916 
Q 1625 2713 2034 2713 
Q 2441 2713 2670 2916 
Q 2900 3119 2900 3481 
Q 2900 3844 2670 4047 
Q 2441 4250 2034 4250 
Q 1625 4250 1398 4047 
Q 1172 3844 1172 3481 
z
" transform="scale(0.015625)"/>
       </defs>
       <use xlink:href="#DejaVuSans-38"/>
      </g>
     </g>
    </g>
    <g id="text_15">
     <!-- Species richness (in log10) -->
     <g transform="translate(21.198125 254.988125)rotate(-90)scale(0.12 -0.12)">
      <defs>
       <path id="DejaVuSans-Bold-53" d="M 3834 4519 
L 3834 3531 
Q 3450 3703 3084 3790 
Q 2719 3878 2394 3878 
Q 1963 3878 1756 3759 
Q 1550 3641 1550 3391 
Q 1550 3203 1689 3098 
Q 1828 2994 2194 2919 
L 2706 2816 
Q 3484 2659 3812 2340 
Q 4141 2022 4141 1434 
Q 4141 663 3683 286 
Q 3225 -91 2284 -91 
Q 1841 -91 1394 -6 
Q 947 78 500 244 
L 500 1259 
Q 947 1022 1364 901 
Q 1781 781 2169 781 
Q 2563 781 2772 912 
Q 2981 1044 2981 1288 
Q 2981 1506 2839 1625 
Q 2697 1744 2272 1838 
L 1806 1941 
Q 1106 2091 782 2419 
Q 459 2747 459 3303 
Q 459 4000 909 4375 
Q 1359 4750 2203 4750 
Q 2588 4750 2994 4692 
Q 3400 4634 3834 4519 
z
" transform="scale(0.015625)"/>
       <path id="DejaVuSans-Bold-70" d="M 1656 506 
L 1656 -1331 
L 538 -1331 
L 538 3500 
L 1656 3500 
L 1656 2988 
Q 1888 3294 2169 3439 
Q 2450 3584 2816 3584 
Q 3463 3584 3878 3070 
Q 4294 2556 4294 1747 
Q 4294 938 3878 423 
Q 3463 -91 2816 -91 
Q 2450 -91 2169 54 
Q 1888 200 1656 506 
z
M 2400 2772 
Q 2041 2772 1848 2508 
Q 1656 2244 1656 1747 
Q 1656 1250 1848 986 
Q 2041 722 2400 722 
Q 2759 722 2948 984 
Q 3138 1247 3138 1747 
Q 3138 2247 2948 2509 
Q 2759 2772 2400 2772 
z
" transform="scale(0.015625)"/>
       <path id="DejaVuSans-Bold-63" d="M 3366 3391 
L 3366 2478 
Q 3138 2634 2908 2709 
Q 2678 2784 2431 2784 
Q 1963 2784 1702 2511 
Q 1441 2238 1441 1747 
Q 1441 1256 1702 982 
Q 1963 709 2431 709 
Q 2694 709 2930 787 
Q 3166 866 3366 1019 
L 3366 103 
Q 3103 6 2833 -42 
Q 2563 -91 2291 -91 
Q 1344 -91 809 395 
Q 275 881 275 1747 
Q 275 2613 809 3098 
Q 1344 3584 2291 3584 
Q 2566 3584 2833 3536 
Q 3100 3488 3366 3391 
z
" transform="scale(0.015625)"/>
       <path id="DejaVuSans-Bold-68" d="M 4056 2131 
L 4056 0 
L 2931 0 
L 2931 347 
L 2931 1625 
Q 2931 2084 2911 2256 
Q 2891 2428 2841 2509 
Q 2775 2619 2662 2680 
Q 2550 2741 2406 2741 
Q 2056 2741 1856 2470 
Q 1656 2200 1656 1722 
L 1656 0 
L 538 0 
L 538 4863 
L 1656 4863 
L 1656 2988 
Q 1909 3294 2193 3439 
Q 2478 3584 2822 3584 
Q 3428 3584 3742 3212 
Q 4056 2841 4056 2131 
z
" transform="scale(0.015625)"/>
      </defs>
      <use xlink:href="#DejaVuSans-Bold-53"/>
      <use xlink:href="#DejaVuSans-Bold-70" x="72.021484"/>
      <use xlink:href="#DejaVuSans-Bold-65" x="143.603516"/>
      <use xlink:href="#DejaVuSans-Bold-63" x="211.425781"/>
      <use xlink:href="#DejaVuSans-Bold-69" x="270.703125"/>
      <use xlink:href="#DejaVuSans-Bold-65" x="304.980469"/>
      <use xlink:href="#DejaVuSans-Bold-73" x="372.802734"/>
      <use xlink:href="#DejaVuSans-Bold-20" x="432.324219"/>
      <use xlink:href="#DejaVuSans-Bold-72" x="467.138672"/>
      <use xlink:href="#DejaVuSans-Bold-69" x="516.455078"/>
      <use xlink:href="#DejaVuSans-Bold-63" x="550.732422"/>
      <use xlink:href="#DejaVuSans-Bold-68" x="610.009766"/>
      <use xlink:href="#DejaVuSans-Bold-6e" x="681.201172"/>
      <use xlink:href="#DejaVuSans-Bold-65" x="752.392578"/>
      <use xlink:href="#DejaVuSans-Bold-73" x="820.214844"/>
      <use xlink:href="#DejaVuSans-Bold-73" x="879.736328"/>
      <use xlink:href="#DejaVuSans-Bold-20" x="939.257812"/>
      <use xlink:href="#DejaVuSans-Bold-28" x="974.072266"/>
      <use xlink:href="#DejaVuSans-Bold-69" x="1019.775391"/>
      <use xlink:href="#DejaVuSans-Bold-6e" x="1054.052734"/>
      <use xlink:href="#DejaVuSans-Bold-20" x="1125.244141"/>
      <use xlink:href="#DejaVuSans-Bold-6c" x="1160.058594"/>
      <use xlink:href="#DejaVuSans-Bold-6f" x="1194.335938"/>
      <use xlink:href="#DejaVuSans-Bold-67" x="1263.037109"/>
      <use xlink:href="#DejaVuSans-Bold-31" x="1334.619141"/>
      <use xlink:href="#DejaVuSans-Bold-30" x="1404.199219"/>
      <use xlink:href="#DejaVuSans-Bold-29" x="1473.779297"/>
     </g>
    </g>
   </g>
   <g id="line2d_14">
    <path d="M 102.129562 144.358572 
L 264.549824 154.151512 
L 277.532415 154.934282 
L 285.338851 155.404962 
L 260.248988 153.892198 
L 224.494246 151.736408 
L 203.903408 150.494907 
L 52.937964 141.392622 
L 279.712447 155.065725 
L 227.572234 151.921991 
L 271.454492 154.567821 
L 213.245167 151.058158 
L 288.697236 155.607452 
L 274.663171 154.761284 
L 277.64149 154.940859 
L 143.241199 146.83735 
L 273.132698 154.669006 
L 286.916912 155.500109 
L 278.650135 155.001674 
L 212.608537 151.019773 
L 184.615709 149.331978 
L 263.732117 154.102209 
L 233.498722 152.279322 
L 222.792504 151.633803 
L 237.442266 152.517093 
L 158.241601 147.741782 
" clip-path="url(#pb600fcd541)" style="fill: none; stroke: #0000ff; stroke-width: 1.5; stroke-linecap: square"/>
   </g>
   <g id="line2d_15">
    <path d="M 102.129562 153.542724 
L 264.549824 270.867893 
L 277.532415 280.245939 
L 285.338851 285.884961 
L 260.248988 267.76116 
L 224.494246 241.933526 
L 203.903408 227.059621 
L 52.937964 118.008902 
L 279.712447 281.820697 
L 227.572234 244.156928 
L 271.454492 275.855518 
L 213.245167 233.807692 
L 288.697236 288.310909 
L 274.663171 278.173325 
L 277.64149 280.32473 
L 143.241199 183.239941 
L 273.132698 277.067779 
L 286.916912 287.024882 
L 278.650135 281.05333 
L 212.608537 233.347819 
L 184.615709 213.127045 
L 263.732117 270.277218 
L 233.498722 248.437959 
L 222.792504 240.704263 
L 237.442266 251.286599 
L 158.241601 194.075563 
" clip-path="url(#pb600fcd541)" style="fill: none; stroke: #000000; stroke-width: 1.5; stroke-linecap: square"/>
   </g>
   <g id="line2d_16">
    <path d="M 102.129562 125.080738 
L 264.549824 116.578697 
L 277.532415 115.899111 
L 285.338851 115.490476 
L 260.248988 116.803828 
L 224.494246 118.675444 
L 203.903408 119.75329 
L 52.937964 127.655718 
L 279.712447 115.784995 
L 227.572234 118.514323 
L 271.454492 116.217265 
L 213.245167 119.264287 
L 288.697236 115.314678 
L 274.663171 116.049304 
L 277.64149 115.893401 
L 143.241199 122.92871 
L 273.132698 116.129418 
L 286.916912 115.40787 
L 278.650135 115.840603 
L 212.608537 119.297612 
L 184.615709 120.762923 
L 263.732117 116.6215 
L 233.498722 118.204096 
L 222.792504 118.764523 
L 237.442266 117.997667 
L 158.241601 122.1435 
" clip-path="url(#pb600fcd541)" style="fill: none; stroke: #ff0000; stroke-width: 1.5; stroke-linecap: square"/>
   </g>
   <g id="line2d_17">
    <path d="M 102.129562 58.480918 
L 264.549824 64.586252 
L 277.532415 65.074265 
L 285.338851 65.367706 
L 260.248988 64.424585 
L 224.494246 63.080574 
L 203.903408 62.30657 
L 52.937964 56.631819 
L 279.712447 65.156211 
L 227.572234 63.196275 
L 271.454492 64.845797 
L 213.245167 62.657724 
L 288.697236 65.493947 
L 274.663171 64.96641 
L 277.64149 65.078365 
L 143.241199 60.026293 
L 273.132698 64.90888 
L 286.916912 65.427025 
L 278.650135 65.116279 
L 212.608537 62.633793 
L 184.615709 61.58155 
L 263.732117 64.555515 
L 233.498722 63.41905 
L 222.792504 63.016606 
L 237.442266 63.567286 
L 158.241601 60.590154 
" clip-path="url(#pb600fcd541)" style="fill: none; stroke: #00bfbf; stroke-width: 1.5; stroke-linecap: square"/>
   </g>
   <g id="line2d_18">
    <path d="M 102.129562 160.291305 
L 264.549824 165.942413 
L 277.532415 166.394118 
L 285.338851 166.665728 
L 260.248988 165.792773 
L 224.494246 164.548754 
L 203.903408 163.832335 
L 52.937964 158.579776 
L 279.712447 166.469968 
L 227.572234 164.655847 
L 271.454492 166.182648 
L 213.245167 164.157364 
L 288.697236 166.782577 
L 274.663171 166.294288 
L 277.64149 166.397913 
L 143.241199 161.721707 
L 273.132698 166.241038 
L 286.916912 166.720634 
L 278.650135 166.433007 
L 212.608537 164.135213 
L 184.615709 163.161256 
L 263.732117 165.913962 
L 233.498722 164.862048 
L 222.792504 164.489545 
L 237.442266 164.999256 
L 158.241601 162.243618 
" clip-path="url(#pb600fcd541)" style="fill: none; stroke: #bf00bf; stroke-width: 1.5; stroke-linecap: square"/>
   </g>
   <g id="line2d_19">
    <path d="M 102.129562 209.78684 
L 264.549824 212.195926 
L 277.532415 212.38849 
L 285.338851 212.504278 
L 260.248988 212.132134 
L 224.494246 211.601805 
L 203.903408 211.296393 
L 52.937964 209.057209 
L 279.712447 212.420825 
L 227.572234 211.647459 
L 271.454492 212.298339 
L 213.245167 211.434954 
L 288.697236 212.554091 
L 274.663171 212.345932 
L 277.64149 212.390107 
L 143.241199 210.396625 
L 273.132698 212.323231 
L 286.916912 212.527684 
L 278.650135 212.405068 
L 212.608537 211.425511 
L 184.615709 211.010309 
L 263.732117 212.183798 
L 233.498722 211.735363 
L 222.792504 211.576564 
L 237.442266 211.793855 
L 158.241601 210.619117 
" clip-path="url(#pb600fcd541)" style="fill: none; stroke: #008000; stroke-width: 1.5; stroke-linecap: square"/>
   </g>
   <g id="line2d_20">
    <path d="M 102.129562 105.873058 
L 264.549824 117.066254 
L 277.532415 117.960949 
L 285.338851 118.49893 
L 260.248988 116.769862 
L 224.494246 114.305823 
L 203.903408 112.886805 
L 52.937964 102.483017 
L 279.712447 118.111186 
L 227.572234 114.517942 
L 271.454492 117.542089 
L 213.245167 113.530592 
L 288.697236 118.730373 
L 274.663171 117.763215 
L 277.64149 117.968466 
L 143.241199 108.706267 
L 273.132698 117.657743 
L 286.916912 118.607682 
L 278.650135 118.037977 
L 212.608537 113.486719 
L 184.615709 111.557592 
L 263.732117 117.009902 
L 233.498722 114.926366 
L 222.792504 114.188547 
L 237.442266 115.198136 
L 158.241601 109.74002 
" clip-path="url(#pb600fcd541)" style="fill: none; stroke: #bfbf00; stroke-width: 1.5; stroke-linecap: square"/>
   </g>
   <g id="line2d_21">
    <path d="M 102.129562 113.896026 
L 264.549824 103.139245 
L 277.532415 102.279433 
L 285.338851 101.762428 
L 260.248988 103.424082 
L 224.494246 105.792049 
L 203.903408 107.155741 
L 52.937964 117.153891 
L 279.712447 102.135054 
L 227.572234 105.5882 
L 271.454492 102.681963 
L 213.245167 106.537054 
L 288.697236 101.540009 
L 274.663171 102.469458 
L 277.64149 102.27221 
L 143.241199 111.173282 
L 273.132698 102.570818 
L 286.916912 101.657916 
L 278.650135 102.205409 
L 212.608537 106.579217 
L 184.615709 108.433128 
L 263.732117 103.193401 
L 233.498722 105.1957 
L 222.792504 105.904752 
L 237.442266 104.934527 
L 158.241601 110.179834 
" clip-path="url(#pb600fcd541)" style="fill: none; stroke: #9467bd; stroke-width: 1.5; stroke-linecap: square"/>
   </g>
   <g id="line2d_22">
    <path d="M 102.129562 209.668076 
L 264.549824 214.645588 
L 277.532415 215.043451 
L 285.338851 215.282686 
L 260.248988 214.513785 
L 224.494246 213.41805 
L 203.903408 212.787025 
L 52.937964 208.160556 
L 279.712447 215.11026 
L 227.572234 213.512377 
L 271.454492 214.857188 
L 213.245167 213.073312 
L 288.697236 215.385607 
L 274.663171 214.955521 
L 277.64149 215.046794 
L 143.241199 210.927978 
L 273.132698 214.908618 
L 286.916912 215.331047 
L 278.650135 215.077705 
L 212.608537 213.053802 
L 184.615709 212.195937 
L 263.732117 214.620529 
L 233.498722 213.694 
L 222.792504 213.365898 
L 237.442266 213.814853 
L 158.241601 211.387679 
" clip-path="url(#pb600fcd541)" style="fill: none; stroke: #8c564b; stroke-width: 1.5; stroke-linecap: square"/>
   </g>
   <g id="line2d_23">
    <path d="M 102.129562 45.584046 
L 264.549824 49.373307 
L 277.532415 49.676191 
L 285.338851 49.858315 
L 260.248988 49.272969 
L 224.494246 48.438812 
L 203.903408 47.958428 
L 52.937964 44.436407 
L 279.712447 49.727051 
L 227.572234 48.510621 
L 271.454492 49.534393 
L 213.245167 48.176371 
L 288.697236 49.936666 
L 274.663171 49.609251 
L 277.64149 49.678736 
L 143.241199 46.54318 
L 273.132698 49.573546 
L 286.916912 49.895131 
L 278.650135 49.702267 
L 212.608537 48.161518 
L 184.615709 47.508446 
L 263.732117 49.35423 
L 233.498722 48.648886 
L 222.792504 48.39911 
L 237.442266 48.740889 
L 158.241601 46.893139 
" clip-path="url(#pb600fcd541)" style="fill: none; stroke: #ff7f0e; stroke-width: 1.5; stroke-linecap: square"/>
   </g>
   <g id="patch_3">
    <path d="M 41.15 300.76 
L 41.15 26.88 
" style="fill: none; stroke: #000000; stroke-width: 0.8; stroke-linejoin: miter; stroke-linecap: square"/>
   </g>
   <g id="patch_4">
    <path d="M 300.4852 300.76 
L 300.4852 26.88 
" style="fill: none; stroke: #000000; stroke-width: 0.8; stroke-linejoin: miter; stroke-linecap: square"/>
   </g>
   <g id="patch_5">
    <path d="M 41.15 300.76 
L 300.4852 300.76 
" style="fill: none; stroke: #000000; stroke-width: 0.8; stroke-linejoin: miter; stroke-linecap: square"/>
   </g>
   <g id="patch_6">
    <path d="M 41.15 26.88 
L 300.4852 26.88 
" style="fill: none; stroke: #000000; stroke-width: 0.8; stroke-linejoin: miter; stroke-linecap: square"/>
   </g>
   <g id="text_16">
    <!-- log(SR) vs. log(ForestCover) -->
    <g transform="translate(86.807288 20.88)scale(0.12 -0.12)">
     <defs>
      <path id="DejaVuSans-6c" d="M 603 4863 
L 1178 4863 
L 1178 0 
L 603 0 
L 603 4863 
z
" transform="scale(0.015625)"/>
      <path id="DejaVuSans-6f" d="M 1959 3097 
Q 1497 3097 1228 2736 
Q 959 2375 959 1747 
Q 959 1119 1226 758 
Q 1494 397 1959 397 
Q 2419 397 2687 759 
Q 2956 1122 2956 1747 
Q 2956 2369 2687 2733 
Q 2419 3097 1959 3097 
z
M 1959 3584 
Q 2709 3584 3137 3096 
Q 3566 2609 3566 1747 
Q 3566 888 3137 398 
Q 2709 -91 1959 -91 
Q 1206 -91 779 398 
Q 353 888 353 1747 
Q 353 2609 779 3096 
Q 1206 3584 1959 3584 
z
" transform="scale(0.015625)"/>
      <path id="DejaVuSans-67" d="M 2906 1791 
Q 2906 2416 2648 2759 
Q 2391 3103 1925 3103 
Q 1463 3103 1205 2759 
Q 947 2416 947 1791 
Q 947 1169 1205 825 
Q 1463 481 1925 481 
Q 2391 481 2648 825 
Q 2906 1169 2906 1791 
z
M 3481 434 
Q 3481 -459 3084 -895 
Q 2688 -1331 1869 -1331 
Q 1566 -1331 1297 -1286 
Q 1028 -1241 775 -1147 
L 775 -588 
Q 1028 -725 1275 -790 
Q 1522 -856 1778 -856 
Q 2344 -856 2625 -561 
Q 2906 -266 2906 331 
L 2906 616 
Q 2728 306 2450 153 
Q 2172 0 1784 0 
Q 1141 0 747 490 
Q 353 981 353 1791 
Q 353 2603 747 3093 
Q 1141 3584 1784 3584 
Q 2172 3584 2450 3431 
Q 2728 3278 2906 2969 
L 2906 3500 
L 3481 3500 
L 3481 434 
z
" transform="scale(0.015625)"/>
      <path id="DejaVuSans-28" d="M 1984 4856 
Q 1566 4138 1362 3434 
Q 1159 2731 1159 2009 
Q 1159 1288 1364 580 
Q 1569 -128 1984 -844 
L 1484 -844 
Q 1016 -109 783 600 
Q 550 1309 550 2009 
Q 550 2706 781 3412 
Q 1013 4119 1484 4856 
L 1984 4856 
z
" transform="scale(0.015625)"/>
      <path id="DejaVuSans-53" d="M 3425 4513 
L 3425 3897 
Q 3066 4069 2747 4153 
Q 2428 4238 2131 4238 
Q 1616 4238 1336 4038 
Q 1056 3838 1056 3469 
Q 1056 3159 1242 3001 
Q 1428 2844 1947 2747 
L 2328 2669 
Q 3034 2534 3370 2195 
Q 3706 1856 3706 1288 
Q 3706 609 3251 259 
Q 2797 -91 1919 -91 
Q 1588 -91 1214 -16 
Q 841 59 441 206 
L 441 856 
Q 825 641 1194 531 
Q 1563 422 1919 422 
Q 2459 422 2753 634 
Q 3047 847 3047 1241 
Q 3047 1584 2836 1778 
Q 2625 1972 2144 2069 
L 1759 2144 
Q 1053 2284 737 2584 
Q 422 2884 422 3419 
Q 422 4038 858 4394 
Q 1294 4750 2059 4750 
Q 2388 4750 2728 4690 
Q 3069 4631 3425 4513 
z
" transform="scale(0.015625)"/>
      <path id="DejaVuSans-52" d="M 2841 2188 
Q 3044 2119 3236 1894 
Q 3428 1669 3622 1275 
L 4263 0 
L 3584 0 
L 2988 1197 
Q 2756 1666 2539 1819 
Q 2322 1972 1947 1972 
L 1259 1972 
L 1259 0 
L 628 0 
L 628 4666 
L 2053 4666 
Q 2853 4666 3247 4331 
Q 3641 3997 3641 3322 
Q 3641 2881 3436 2590 
Q 3231 2300 2841 2188 
z
M 1259 4147 
L 1259 2491 
L 2053 2491 
Q 2509 2491 2742 2702 
Q 2975 2913 2975 3322 
Q 2975 3731 2742 3939 
Q 2509 4147 2053 4147 
L 1259 4147 
z
" transform="scale(0.015625)"/>
      <path id="DejaVuSans-29" d="M 513 4856 
L 1013 4856 
Q 1481 4119 1714 3412 
Q 1947 2706 1947 2009 
Q 1947 1309 1714 600 
Q 1481 -109 1013 -844 
L 513 -844 
Q 928 -128 1133 580 
Q 1338 1288 1338 2009 
Q 1338 2731 1133 3434 
Q 928 4138 513 4856 
z
" transform="scale(0.015625)"/>
      <path id="DejaVuSans-20" transform="scale(0.015625)"/>
      <path id="DejaVuSans-76" d="M 191 3500 
L 800 3500 
L 1894 563 
L 2988 3500 
L 3597 3500 
L 2284 0 
L 1503 0 
L 191 3500 
z
" transform="scale(0.015625)"/>
      <path id="DejaVuSans-73" d="M 2834 3397 
L 2834 2853 
Q 2591 2978 2328 3040 
Q 2066 3103 1784 3103 
Q 1356 3103 1142 2972 
Q 928 2841 928 2578 
Q 928 2378 1081 2264 
Q 1234 2150 1697 2047 
L 1894 2003 
Q 2506 1872 2764 1633 
Q 3022 1394 3022 966 
Q 3022 478 2636 193 
Q 2250 -91 1575 -91 
Q 1294 -91 989 -36 
Q 684 19 347 128 
L 347 722 
Q 666 556 975 473 
Q 1284 391 1588 391 
Q 1994 391 2212 530 
Q 2431 669 2431 922 
Q 2431 1156 2273 1281 
Q 2116 1406 1581 1522 
L 1381 1569 
Q 847 1681 609 1914 
Q 372 2147 372 2553 
Q 372 3047 722 3315 
Q 1072 3584 1716 3584 
Q 2034 3584 2315 3537 
Q 2597 3491 2834 3397 
z
" transform="scale(0.015625)"/>
      <path id="DejaVuSans-46" d="M 628 4666 
L 3309 4666 
L 3309 4134 
L 1259 4134 
L 1259 2759 
L 3109 2759 
L 3109 2228 
L 1259 2228 
L 1259 0 
L 628 0 
L 628 4666 
z
" transform="scale(0.015625)"/>
      <path id="DejaVuSans-72" d="M 2631 2963 
Q 2534 3019 2420 3045 
Q 2306 3072 2169 3072 
Q 1681 3072 1420 2755 
Q 1159 2438 1159 1844 
L 1159 0 
L 581 0 
L 581 3500 
L 1159 3500 
L 1159 2956 
Q 1341 3275 1631 3429 
Q 1922 3584 2338 3584 
Q 2397 3584 2469 3576 
Q 2541 3569 2628 3553 
L 2631 2963 
z
" transform="scale(0.015625)"/>
      <path id="DejaVuSans-65" d="M 3597 1894 
L 3597 1613 
L 953 1613 
Q 991 1019 1311 708 
Q 1631 397 2203 397 
Q 2534 397 2845 478 
Q 3156 559 3463 722 
L 3463 178 
Q 3153 47 2828 -22 
Q 2503 -91 2169 -91 
Q 1331 -91 842 396 
Q 353 884 353 1716 
Q 353 2575 817 3079 
Q 1281 3584 2069 3584 
Q 2775 3584 3186 3129 
Q 3597 2675 3597 1894 
z
M 3022 2063 
Q 3016 2534 2758 2815 
Q 2500 3097 2075 3097 
Q 1594 3097 1305 2825 
Q 1016 2553 972 2059 
L 3022 2063 
z
" transform="scale(0.015625)"/>
      <path id="DejaVuSans-74" d="M 1172 4494 
L 1172 3500 
L 2356 3500 
L 2356 3053 
L 1172 3053 
L 1172 1153 
Q 1172 725 1289 603 
Q 1406 481 1766 481 
L 2356 481 
L 2356 0 
L 1766 0 
Q 1100 0 847 248 
Q 594 497 594 1153 
L 594 3053 
L 172 3053 
L 172 3500 
L 594 3500 
L 594 4494 
L 1172 4494 
z
" transform="scale(0.015625)"/>
      <path id="DejaVuSans-43" d="M 4122 4306 
L 4122 3641 
Q 3803 3938 3442 4084 
Q 3081 4231 2675 4231 
Q 1875 4231 1450 3742 
Q 1025 3253 1025 2328 
Q 1025 1406 1450 917 
Q 1875 428 2675 428 
Q 3081 428 3442 575 
Q 3803 722 4122 1019 
L 4122 359 
Q 3791 134 3420 21 
Q 3050 -91 2638 -91 
Q 1578 -91 968 557 
Q 359 1206 359 2328 
Q 359 3453 968 4101 
Q 1578 4750 2638 4750 
Q 3056 4750 3426 4639 
Q 3797 4528 4122 4306 
z
" transform="scale(0.015625)"/>
     </defs>
     <use xlink:href="#DejaVuSans-6c"/>
     <use xlink:href="#DejaVuSans-6f" x="27.783203"/>
     <use xlink:href="#DejaVuSans-67" x="88.964844"/>
     <use xlink:href="#DejaVuSans-28" x="152.441406"/>
     <use xlink:href="#DejaVuSans-53" x="191.455078"/>
     <use xlink:href="#DejaVuSans-52" x="254.931641"/>
     <use xlink:href="#DejaVuSans-29" x="324.414062"/>
     <use xlink:href="#DejaVuSans-20" x="363.427734"/>
     <use xlink:href="#DejaVuSans-76" x="395.214844"/>
     <use xlink:href="#DejaVuSans-73" x="454.394531"/>
     <use xlink:href="#DejaVuSans-2e" x="506.494141"/>
     <use xlink:href="#DejaVuSans-20" x="538.28125"/>
     <use xlink:href="#DejaVuSans-6c" x="570.068359"/>
     <use xlink:href="#DejaVuSans-6f" x="597.851562"/>
     <use xlink:href="#DejaVuSans-67" x="659.033203"/>
     <use xlink:href="#DejaVuSans-28" x="722.509766"/>
     <use xlink:href="#DejaVuSans-46" x="761.523438"/>
     <use xlink:href="#DejaVuSans-6f" x="815.417969"/>
     <use xlink:href="#DejaVuSans-72" x="876.599609"/>
     <use xlink:href="#DejaVuSans-65" x="915.462891"/>
     <use xlink:href="#DejaVuSans-73" x="976.986328"/>
     <use xlink:href="#DejaVuSans-74" x="1029.085938"/>
     <use xlink:href="#DejaVuSans-43" x="1068.294922"/>
     <use xlink:href="#DejaVuSans-6f" x="1138.119141"/>
     <use xlink:href="#DejaVuSans-76" x="1199.300781"/>
     <use xlink:href="#DejaVuSans-65" x="1258.480469"/>
     <use xlink:href="#DejaVuSans-72" x="1320.003906"/>
     <use xlink:href="#DejaVuSans-29" x="1361.117188"/>
    </g>
   </g>
   <g id="legend_1">
    <g id="patch_7">
     <path d="M 317.858608 181.66125 
L 444.224233 181.66125 
Q 446.224233 181.66125 446.224233 179.66125 
L 446.224233 33.88 
Q 446.224233 31.88 444.224233 31.88 
L 317.858608 31.88 
Q 315.858608 31.88 315.858608 33.88 
L 315.858608 179.66125 
Q 315.858608 181.66125 317.858608 181.66125 
z
" style="fill: #ffffff; opacity: 0.8; stroke: #cccccc; stroke-linejoin: miter"/>
    </g>
    <g id="line2d_24">
     <path d="M 319.858608 39.978437 
L 329.858608 39.978437 
L 339.858608 39.978437 
" style="fill: none; stroke: #0000ff; stroke-width: 1.5; stroke-linecap: square"/>
    </g>
    <g id="text_17">
     <!-- AminoSugar -->
     <g transform="translate(347.858608 43.478437)scale(0.1 -0.1)">
      <defs>
       <path id="DejaVuSans-41" d="M 2188 4044 
L 1331 1722 
L 3047 1722 
L 2188 4044 
z
M 1831 4666 
L 2547 4666 
L 4325 0 
L 3669 0 
L 3244 1197 
L 1141 1197 
L 716 0 
L 50 0 
L 1831 4666 
z
" transform="scale(0.015625)"/>
       <path id="DejaVuSans-6d" d="M 3328 2828 
Q 3544 3216 3844 3400 
Q 4144 3584 4550 3584 
Q 5097 3584 5394 3201 
Q 5691 2819 5691 2113 
L 5691 0 
L 5113 0 
L 5113 2094 
Q 5113 2597 4934 2840 
Q 4756 3084 4391 3084 
Q 3944 3084 3684 2787 
Q 3425 2491 3425 1978 
L 3425 0 
L 2847 0 
L 2847 2094 
Q 2847 2600 2669 2842 
Q 2491 3084 2119 3084 
Q 1678 3084 1418 2786 
Q 1159 2488 1159 1978 
L 1159 0 
L 581 0 
L 581 3500 
L 1159 3500 
L 1159 2956 
Q 1356 3278 1631 3431 
Q 1906 3584 2284 3584 
Q 2666 3584 2933 3390 
Q 3200 3197 3328 2828 
z
" transform="scale(0.015625)"/>
       <path id="DejaVuSans-69" d="M 603 3500 
L 1178 3500 
L 1178 0 
L 603 0 
L 603 3500 
z
M 603 4863 
L 1178 4863 
L 1178 4134 
L 603 4134 
L 603 4863 
z
" transform="scale(0.015625)"/>
       <path id="DejaVuSans-6e" d="M 3513 2113 
L 3513 0 
L 2938 0 
L 2938 2094 
Q 2938 2591 2744 2837 
Q 2550 3084 2163 3084 
Q 1697 3084 1428 2787 
Q 1159 2491 1159 1978 
L 1159 0 
L 581 0 
L 581 3500 
L 1159 3500 
L 1159 2956 
Q 1366 3272 1645 3428 
Q 1925 3584 2291 3584 
Q 2894 3584 3203 3211 
Q 3513 2838 3513 2113 
z
" transform="scale(0.015625)"/>
       <path id="DejaVuSans-75" d="M 544 1381 
L 544 3500 
L 1119 3500 
L 1119 1403 
Q 1119 906 1312 657 
Q 1506 409 1894 409 
Q 2359 409 2629 706 
Q 2900 1003 2900 1516 
L 2900 3500 
L 3475 3500 
L 3475 0 
L 2900 0 
L 2900 538 
Q 2691 219 2414 64 
Q 2138 -91 1772 -91 
Q 1169 -91 856 284 
Q 544 659 544 1381 
z
M 1991 3584 
L 1991 3584 
z
" transform="scale(0.015625)"/>
       <path id="DejaVuSans-61" d="M 2194 1759 
Q 1497 1759 1228 1600 
Q 959 1441 959 1056 
Q 959 750 1161 570 
Q 1363 391 1709 391 
Q 2188 391 2477 730 
Q 2766 1069 2766 1631 
L 2766 1759 
L 2194 1759 
z
M 3341 1997 
L 3341 0 
L 2766 0 
L 2766 531 
Q 2569 213 2275 61 
Q 1981 -91 1556 -91 
Q 1019 -91 701 211 
Q 384 513 384 1019 
Q 384 1609 779 1909 
Q 1175 2209 1959 2209 
L 2766 2209 
L 2766 2266 
Q 2766 2663 2505 2880 
Q 2244 3097 1772 3097 
Q 1472 3097 1187 3025 
Q 903 2953 641 2809 
L 641 3341 
Q 956 3463 1253 3523 
Q 1550 3584 1831 3584 
Q 2591 3584 2966 3190 
Q 3341 2797 3341 1997 
z
" transform="scale(0.015625)"/>
      </defs>
      <use xlink:href="#DejaVuSans-41"/>
      <use xlink:href="#DejaVuSans-6d" x="68.408203"/>
      <use xlink:href="#DejaVuSans-69" x="165.820312"/>
      <use xlink:href="#DejaVuSans-6e" x="193.603516"/>
      <use xlink:href="#DejaVuSans-6f" x="256.982422"/>
      <use xlink:href="#DejaVuSans-53" x="318.164062"/>
      <use xlink:href="#DejaVuSans-75" x="381.640625"/>
      <use xlink:href="#DejaVuSans-67" x="445.019531"/>
      <use xlink:href="#DejaVuSans-61" x="508.496094"/>
      <use xlink:href="#DejaVuSans-72" x="569.775391"/>
     </g>
    </g>
    <g id="line2d_25">
     <path d="M 319.858608 54.656563 
L 329.858608 54.656563 
L 339.858608 54.656563 
" style="fill: none; stroke: #000000; stroke-width: 1.5; stroke-linecap: square"/>
    </g>
    <g id="text_18">
     <!-- Carb -->
     <g transform="translate(347.858608 58.156563)scale(0.1 -0.1)">
      <defs>
       <path id="DejaVuSans-62" d="M 3116 1747 
Q 3116 2381 2855 2742 
Q 2594 3103 2138 3103 
Q 1681 3103 1420 2742 
Q 1159 2381 1159 1747 
Q 1159 1113 1420 752 
Q 1681 391 2138 391 
Q 2594 391 2855 752 
Q 3116 1113 3116 1747 
z
M 1159 2969 
Q 1341 3281 1617 3432 
Q 1894 3584 2278 3584 
Q 2916 3584 3314 3078 
Q 3713 2572 3713 1747 
Q 3713 922 3314 415 
Q 2916 -91 2278 -91 
Q 1894 -91 1617 61 
Q 1341 213 1159 525 
L 1159 0 
L 581 0 
L 581 4863 
L 1159 4863 
L 1159 2969 
z
" transform="scale(0.015625)"/>
      </defs>
      <use xlink:href="#DejaVuSans-43"/>
      <use xlink:href="#DejaVuSans-61" x="69.824219"/>
      <use xlink:href="#DejaVuSans-72" x="131.103516"/>
      <use xlink:href="#DejaVuSans-62" x="172.216797"/>
     </g>
    </g>
    <g id="line2d_26">
     <path d="M 319.858608 69.334688 
L 329.858608 69.334688 
L 339.858608 69.334688 
" style="fill: none; stroke: #ff0000; stroke-width: 1.5; stroke-linecap: square"/>
    </g>
    <g id="text_19">
     <!-- ConcHC -->
     <g transform="translate(347.858608 72.834688)scale(0.1 -0.1)">
      <defs>
       <path id="DejaVuSans-63" d="M 3122 3366 
L 3122 2828 
Q 2878 2963 2633 3030 
Q 2388 3097 2138 3097 
Q 1578 3097 1268 2742 
Q 959 2388 959 1747 
Q 959 1106 1268 751 
Q 1578 397 2138 397 
Q 2388 397 2633 464 
Q 2878 531 3122 666 
L 3122 134 
Q 2881 22 2623 -34 
Q 2366 -91 2075 -91 
Q 1284 -91 818 406 
Q 353 903 353 1747 
Q 353 2603 823 3093 
Q 1294 3584 2113 3584 
Q 2378 3584 2631 3529 
Q 2884 3475 3122 3366 
z
" transform="scale(0.015625)"/>
       <path id="DejaVuSans-48" d="M 628 4666 
L 1259 4666 
L 1259 2753 
L 3553 2753 
L 3553 4666 
L 4184 4666 
L 4184 0 
L 3553 0 
L 3553 2222 
L 1259 2222 
L 1259 0 
L 628 0 
L 628 4666 
z
" transform="scale(0.015625)"/>
      </defs>
      <use xlink:href="#DejaVuSans-43"/>
      <use xlink:href="#DejaVuSans-6f" x="69.824219"/>
      <use xlink:href="#DejaVuSans-6e" x="131.005859"/>
      <use xlink:href="#DejaVuSans-63" x="194.384766"/>
      <use xlink:href="#DejaVuSans-48" x="249.365234"/>
      <use xlink:href="#DejaVuSans-43" x="324.560547"/>
     </g>
    </g>
    <g id="line2d_27">
     <path d="M 319.858608 84.012812 
L 329.858608 84.012812 
L 339.858608 84.012812 
" style="fill: none; stroke: #00bfbf; stroke-width: 1.5; stroke-linecap: square"/>
    </g>
    <g id="text_20">
     <!-- Lignin -->
     <g transform="translate(347.858608 87.512812)scale(0.1 -0.1)">
      <defs>
       <path id="DejaVuSans-4c" d="M 628 4666 
L 1259 4666 
L 1259 531 
L 3531 531 
L 3531 0 
L 628 0 
L 628 4666 
z
" transform="scale(0.015625)"/>
      </defs>
      <use xlink:href="#DejaVuSans-4c"/>
      <use xlink:href="#DejaVuSans-69" x="55.712891"/>
      <use xlink:href="#DejaVuSans-67" x="83.496094"/>
      <use xlink:href="#DejaVuSans-6e" x="146.972656"/>
      <use xlink:href="#DejaVuSans-69" x="210.351562"/>
      <use xlink:href="#DejaVuSans-6e" x="238.134766"/>
     </g>
    </g>
    <g id="line2d_28">
     <path d="M 319.858608 98.690938 
L 329.858608 98.690938 
L 339.858608 98.690938 
" style="fill: none; stroke: #bf00bf; stroke-width: 1.5; stroke-linecap: square"/>
    </g>
    <g id="text_21">
     <!-- Lipid -->
     <g transform="translate(347.858608 102.190938)scale(0.1 -0.1)">
      <defs>
       <path id="DejaVuSans-70" d="M 1159 525 
L 1159 -1331 
L 581 -1331 
L 581 3500 
L 1159 3500 
L 1159 2969 
Q 1341 3281 1617 3432 
Q 1894 3584 2278 3584 
Q 2916 3584 3314 3078 
Q 3713 2572 3713 1747 
Q 3713 922 3314 415 
Q 2916 -91 2278 -91 
Q 1894 -91 1617 61 
Q 1341 213 1159 525 
z
M 3116 1747 
Q 3116 2381 2855 2742 
Q 2594 3103 2138 3103 
Q 1681 3103 1420 2742 
Q 1159 2381 1159 1747 
Q 1159 1113 1420 752 
Q 1681 391 2138 391 
Q 2594 391 2855 752 
Q 3116 1113 3116 1747 
z
" transform="scale(0.015625)"/>
       <path id="DejaVuSans-64" d="M 2906 2969 
L 2906 4863 
L 3481 4863 
L 3481 0 
L 2906 0 
L 2906 525 
Q 2725 213 2448 61 
Q 2172 -91 1784 -91 
Q 1150 -91 751 415 
Q 353 922 353 1747 
Q 353 2572 751 3078 
Q 1150 3584 1784 3584 
Q 2172 3584 2448 3432 
Q 2725 3281 2906 2969 
z
M 947 1747 
Q 947 1113 1208 752 
Q 1469 391 1925 391 
Q 2381 391 2643 752 
Q 2906 1113 2906 1747 
Q 2906 2381 2643 2742 
Q 2381 3103 1925 3103 
Q 1469 3103 1208 2742 
Q 947 2381 947 1747 
z
" transform="scale(0.015625)"/>
      </defs>
      <use xlink:href="#DejaVuSans-4c"/>
      <use xlink:href="#DejaVuSans-69" x="55.712891"/>
      <use xlink:href="#DejaVuSans-70" x="83.496094"/>
      <use xlink:href="#DejaVuSans-69" x="146.972656"/>
      <use xlink:href="#DejaVuSans-64" x="174.755859"/>
     </g>
    </g>
    <g id="line2d_29">
     <path d="M 319.858608 113.369062 
L 329.858608 113.369062 
L 339.858608 113.369062 
" style="fill: none; stroke: #008000; stroke-width: 1.5; stroke-linecap: square"/>
    </g>
    <g id="text_22">
     <!-- Other -->
     <g transform="translate(347.858608 116.869062)scale(0.1 -0.1)">
      <defs>
       <path id="DejaVuSans-4f" d="M 2522 4238 
Q 1834 4238 1429 3725 
Q 1025 3213 1025 2328 
Q 1025 1447 1429 934 
Q 1834 422 2522 422 
Q 3209 422 3611 934 
Q 4013 1447 4013 2328 
Q 4013 3213 3611 3725 
Q 3209 4238 2522 4238 
z
M 2522 4750 
Q 3503 4750 4090 4092 
Q 4678 3434 4678 2328 
Q 4678 1225 4090 567 
Q 3503 -91 2522 -91 
Q 1538 -91 948 565 
Q 359 1222 359 2328 
Q 359 3434 948 4092 
Q 1538 4750 2522 4750 
z
" transform="scale(0.015625)"/>
       <path id="DejaVuSans-68" d="M 3513 2113 
L 3513 0 
L 2938 0 
L 2938 2094 
Q 2938 2591 2744 2837 
Q 2550 3084 2163 3084 
Q 1697 3084 1428 2787 
Q 1159 2491 1159 1978 
L 1159 0 
L 581 0 
L 581 4863 
L 1159 4863 
L 1159 2956 
Q 1366 3272 1645 3428 
Q 1925 3584 2291 3584 
Q 2894 3584 3203 3211 
Q 3513 2838 3513 2113 
z
" transform="scale(0.015625)"/>
      </defs>
      <use xlink:href="#DejaVuSans-4f"/>
      <use xlink:href="#DejaVuSans-74" x="78.710938"/>
      <use xlink:href="#DejaVuSans-68" x="117.919922"/>
      <use xlink:href="#DejaVuSans-65" x="181.298828"/>
      <use xlink:href="#DejaVuSans-72" x="242.822266"/>
     </g>
    </g>
    <g id="line2d_30">
     <path d="M 319.858608 128.047188 
L 329.858608 128.047188 
L 339.858608 128.047188 
" style="fill: none; stroke: #bfbf00; stroke-width: 1.5; stroke-linecap: square"/>
    </g>
    <g id="text_23">
     <!-- Protein -->
     <g transform="translate(347.858608 131.547188)scale(0.1 -0.1)">
      <defs>
       <path id="DejaVuSans-50" d="M 1259 4147 
L 1259 2394 
L 2053 2394 
Q 2494 2394 2734 2622 
Q 2975 2850 2975 3272 
Q 2975 3691 2734 3919 
Q 2494 4147 2053 4147 
L 1259 4147 
z
M 628 4666 
L 2053 4666 
Q 2838 4666 3239 4311 
Q 3641 3956 3641 3272 
Q 3641 2581 3239 2228 
Q 2838 1875 2053 1875 
L 1259 1875 
L 1259 0 
L 628 0 
L 628 4666 
z
" transform="scale(0.015625)"/>
      </defs>
      <use xlink:href="#DejaVuSans-50"/>
      <use xlink:href="#DejaVuSans-72" x="58.552734"/>
      <use xlink:href="#DejaVuSans-6f" x="97.416016"/>
      <use xlink:href="#DejaVuSans-74" x="158.597656"/>
      <use xlink:href="#DejaVuSans-65" x="197.806641"/>
      <use xlink:href="#DejaVuSans-69" x="259.330078"/>
      <use xlink:href="#DejaVuSans-6e" x="287.113281"/>
     </g>
    </g>
    <g id="line2d_31">
     <path d="M 319.858608 142.725312 
L 329.858608 142.725312 
L 339.858608 142.725312 
" style="fill: none; stroke: #9467bd; stroke-width: 1.5; stroke-linecap: square"/>
    </g>
    <g id="text_24">
     <!-- Tannin -->
     <g transform="translate(347.858608 146.225312)scale(0.1 -0.1)">
      <defs>
       <path id="DejaVuSans-54" d="M -19 4666 
L 3928 4666 
L 3928 4134 
L 2272 4134 
L 2272 0 
L 1638 0 
L 1638 4134 
L -19 4134 
L -19 4666 
z
" transform="scale(0.015625)"/>
      </defs>
      <use xlink:href="#DejaVuSans-54"/>
      <use xlink:href="#DejaVuSans-61" x="44.583984"/>
      <use xlink:href="#DejaVuSans-6e" x="105.863281"/>
      <use xlink:href="#DejaVuSans-6e" x="169.242188"/>
      <use xlink:href="#DejaVuSans-69" x="232.621094"/>
      <use xlink:href="#DejaVuSans-6e" x="260.404297"/>
     </g>
    </g>
    <g id="line2d_32">
     <path d="M 319.858608 157.403437 
L 329.858608 157.403437 
L 339.858608 157.403437 
" style="fill: none; stroke: #8c564b; stroke-width: 1.5; stroke-linecap: square"/>
    </g>
    <g id="text_25">
     <!-- UnsatHC -->
     <g transform="translate(347.858608 160.903437)scale(0.1 -0.1)">
      <defs>
       <path id="DejaVuSans-55" d="M 556 4666 
L 1191 4666 
L 1191 1831 
Q 1191 1081 1462 751 
Q 1734 422 2344 422 
Q 2950 422 3222 751 
Q 3494 1081 3494 1831 
L 3494 4666 
L 4128 4666 
L 4128 1753 
Q 4128 841 3676 375 
Q 3225 -91 2344 -91 
Q 1459 -91 1007 375 
Q 556 841 556 1753 
L 556 4666 
z
" transform="scale(0.015625)"/>
      </defs>
      <use xlink:href="#DejaVuSans-55"/>
      <use xlink:href="#DejaVuSans-6e" x="73.193359"/>
      <use xlink:href="#DejaVuSans-73" x="136.572266"/>
      <use xlink:href="#DejaVuSans-61" x="188.671875"/>
      <use xlink:href="#DejaVuSans-74" x="249.951172"/>
      <use xlink:href="#DejaVuSans-48" x="289.160156"/>
      <use xlink:href="#DejaVuSans-43" x="364.355469"/>
     </g>
    </g>
    <g id="line2d_33">
     <path d="M 319.858608 172.081562 
L 329.858608 172.081562 
L 339.858608 172.081562 
" style="fill: none; stroke: #ff7f0e; stroke-width: 1.5; stroke-linecap: square"/>
    </g>
    <g id="text_26">
     <!-- SumAllCompounds -->
     <g transform="translate(347.858608 175.581562)scale(0.1 -0.1)">
      <use xlink:href="#DejaVuSans-53"/>
      <use xlink:href="#DejaVuSans-75" x="63.476562"/>
      <use xlink:href="#DejaVuSans-6d" x="126.855469"/>
      <use xlink:href="#DejaVuSans-41" x="224.267578"/>
      <use xlink:href="#DejaVuSans-6c" x="292.675781"/>
      <use xlink:href="#DejaVuSans-6c" x="320.458984"/>
      <use xlink:href="#DejaVuSans-43" x="348.242188"/>
      <use xlink:href="#DejaVuSans-6f" x="418.066406"/>
      <use xlink:href="#DejaVuSans-6d" x="479.248047"/>
      <use xlink:href="#DejaVuSans-70" x="576.660156"/>
      <use xlink:href="#DejaVuSans-6f" x="640.136719"/>
      <use xlink:href="#DejaVuSans-75" x="701.318359"/>
      <use xlink:href="#DejaVuSans-6e" x="764.697266"/>
      <use xlink:href="#DejaVuSans-64" x="828.076172"/>
      <use xlink:href="#DejaVuSans-73" x="891.552734"/>
     </g>
    </g>
   </g>
  </g>
 </g>
 <defs>
  <clipPath id="pb600fcd541">
   <rect x="41.15" y="26.88" width="259.3352" height="273.88"/>
  </clipPath>
 </defs>
</svg>
