<?xml version="1.0" encoding="utf-8" standalone="no"?>
<!DOCTYPE svg PUBLIC "-//W3C//DTD SVG 1.1//EN"
  "http://www.w3.org/Graphics/SVG/1.1/DTD/svg11.dtd">
<svg xmlns:xlink="http://www.w3.org/1999/xlink" width="460.8pt" height="345.6pt" viewBox="0 0 460.8 345.6" xmlns="http://www.w3.org/2000/svg" version="1.1">
 <metadata>
  <rdf:RDF xmlns:dc="http://purl.org/dc/elements/1.1/" xmlns:cc="http://creativecommons.org/ns#" xmlns:rdf="http://www.w3.org/1999/02/22-rdf-syntax-ns#">
   <cc:Work>
    <dc:type rdf:resource="http://purl.org/dc/dcmitype/StillImage"/>
    <dc:date>2024-04-07T20:43:27.520787</dc:date>
    <dc:format>image/svg+xml</dc:format>
    <dc:creator>
     <cc:Agent>
      <dc:title>Matplotlib v3.5.2, https://matplotlib.org/</dc:title>
     </cc:Agent>
    </dc:creator>
   </cc:Work>
  </rdf:RDF>
 </metadata>
 <defs>
  <style type="text/css">*{stroke-linejoin: round; stroke-linecap: butt}</style>
 </defs>
 <g id="figure_1">
  <g id="patch_1">
   <path d="M 0 345.6 
L 460.8 345.6 
L 460.8 0 
L 0 0 
z
" style="fill: #ffffff"/>
  </g>
  <g id="axes_1">
   <g id="patch_2">
    <path d="M 60.05 300.76 
L 446.826555 300.76 
L 446.826555 26.88 
L 60.05 26.88 
z
" style="fill: #ffffff"/>
   </g>
   <g id="PathCollection_1">
    <defs>
     <path id="m2ff39dd6de" d="M 0 2.236068 
C 0.593012 2.236068 1.161816 2.000462 1.581139 1.581139 
C 2.000462 1.161816 2.236068 0.593012 2.236068 0 
C 2.236068 -0.593012 2.000462 -1.161816 1.581139 -1.581139 
C 1.161816 -2.000462 0.593012 -2.236068 0 -2.236068 
C -0.593012 -2.236068 -1.161816 -2.000462 -1.581139 -1.581139 
C -2.000462 -1.161816 -2.236068 -0.593012 -2.236068 0 
C -2.236068 0.593012 -2.000462 1.161816 -1.581139 1.581139 
C -1.161816 2.000462 -0.593012 2.236068 0 2.236068 
z
" style="stroke: #0000ff"/>
    </defs>
    <g clip-path="url(#p63b0061c07)">
     <use xlink:href="#m2ff39dd6de" x="317.674012" y="284.649412" style="fill: #0000ff; stroke: #0000ff"/>
     <use xlink:href="#m2ff39dd6de" x="78.850647" y="281.086874" style="fill: #0000ff; stroke: #0000ff"/>
     <use xlink:href="#m2ff39dd6de" x="97.908161" y="278.316011" style="fill: #0000ff; stroke: #0000ff"/>
     <use xlink:href="#m2ff39dd6de" x="92.042287" y="283.066062" style="fill: #0000ff; stroke: #0000ff"/>
     <use xlink:href="#m2ff39dd6de" x="80.77062" y="280.09728" style="fill: #0000ff; stroke: #0000ff"/>
     <use xlink:href="#m2ff39dd6de" x="215.204317" y="283.560859" style="fill: #0000ff; stroke: #0000ff"/>
     <use xlink:href="#m2ff39dd6de" x="429.245803" y="284.649412" style="fill: #0000ff; stroke: #0000ff"/>
     <use xlink:href="#m2ff39dd6de" x="416.090429" y="284.748371" style="fill: #0000ff; stroke: #0000ff"/>
     <use xlink:href="#m2ff39dd6de" x="153.001088" y="287.420275" style="fill: #0000ff; stroke: #0000ff"/>
     <use xlink:href="#m2ff39dd6de" x="181.427006" y="285.144209" style="fill: #0000ff; stroke: #0000ff"/>
     <use xlink:href="#m2ff39dd6de" x="312.482972" y="282.769183" style="fill: #0000ff; stroke: #0000ff"/>
     <use xlink:href="#m2ff39dd6de" x="227.391527" y="283.461899" style="fill: #0000ff; stroke: #0000ff"/>
     <use xlink:href="#m2ff39dd6de" x="178.582601" y="284.352534" style="fill: #0000ff; stroke: #0000ff"/>
     <use xlink:href="#m2ff39dd6de" x="77.630753" y="283.461899" style="fill: #0000ff; stroke: #0000ff"/>
     <use xlink:href="#m2ff39dd6de" x="77.699374" y="283.066062" style="fill: #0000ff; stroke: #0000ff"/>
     <use xlink:href="#m2ff39dd6de" x="160.805069" y="278.810808" style="fill: #0000ff; stroke: #0000ff"/>
     <use xlink:href="#m2ff39dd6de" x="94.032659" y="283.26398" style="fill: #0000ff; stroke: #0000ff"/>
     <use xlink:href="#m2ff39dd6de" x="350.313561" y="283.165021" style="fill: #0000ff; stroke: #0000ff"/>
     <use xlink:href="#m2ff39dd6de" x="78.815092" y="281.68063" style="fill: #0000ff; stroke: #0000ff"/>
     <use xlink:href="#m2ff39dd6de" x="131.649917" y="286.331721" style="fill: #0000ff; stroke: #0000ff"/>
     <use xlink:href="#m2ff39dd6de" x="87.703858" y="285.144209" style="fill: #0000ff; stroke: #0000ff"/>
     <use xlink:href="#m2ff39dd6de" x="82.975034" y="285.342127" style="fill: #0000ff; stroke: #0000ff"/>
     <use xlink:href="#m2ff39dd6de" x="362.046732" y="286.133803" style="fill: #0000ff; stroke: #0000ff"/>
     <use xlink:href="#m2ff39dd6de" x="263.559204" y="284.352534" style="fill: #0000ff; stroke: #0000ff"/>
     <use xlink:href="#m2ff39dd6de" x="88.948285" y="281.878549" style="fill: #0000ff; stroke: #0000ff"/>
     <use xlink:href="#m2ff39dd6de" x="80.287071" y="279.206645" style="fill: #0000ff; stroke: #0000ff"/>
     <use xlink:href="#m2ff39dd6de" x="102.210324" y="280.09728" style="fill: #0000ff; stroke: #0000ff"/>
     <use xlink:href="#m2ff39dd6de" x="187.115817" y="286.826518" style="fill: #0000ff; stroke: #0000ff"/>
     <use xlink:href="#m2ff39dd6de" x="250.04828" y="283.560859" style="fill: #0000ff; stroke: #0000ff"/>
     <use xlink:href="#m2ff39dd6de" x="148.262665" y="276.336823" style="fill: #0000ff; stroke: #0000ff"/>
    </g>
   </g>
   <g id="PathCollection_2">
    <defs>
     <path id="mfcbfba7bf9" d="M -0 2.236068 
L 2.236068 -2.236068 
L -2.236068 -2.236068 
z
" style="stroke: #000000"/>
    </defs>
    <g clip-path="url(#p63b0061c07)">
     <use xlink:href="#mfcbfba7bf9" x="317.674012" y="287.618193" style="stroke: #000000"/>
     <use xlink:href="#mfcbfba7bf9" x="78.850647" y="287.024437" style="stroke: #000000"/>
     <use xlink:href="#mfcbfba7bf9" x="97.908161" y="283.857737" style="stroke: #000000"/>
     <use xlink:href="#mfcbfba7bf9" x="92.042287" y="286.826518" style="stroke: #000000"/>
     <use xlink:href="#mfcbfba7bf9" x="80.77062" y="285.639006" style="stroke: #000000"/>
     <use xlink:href="#mfcbfba7bf9" x="215.204317" y="287.618193" style="stroke: #000000"/>
     <use xlink:href="#mfcbfba7bf9" x="429.245803" y="287.915072" style="stroke: #000000"/>
     <use xlink:href="#mfcbfba7bf9" x="416.090429" y="288.11299" style="stroke: #000000"/>
     <use xlink:href="#mfcbfba7bf9" x="153.001088" y="287.816112" style="stroke: #000000"/>
     <use xlink:href="#mfcbfba7bf9" x="181.427006" y="287.915072" style="stroke: #000000"/>
     <use xlink:href="#mfcbfba7bf9" x="312.482972" y="287.420275" style="stroke: #000000"/>
     <use xlink:href="#mfcbfba7bf9" x="227.391527" y="286.6286" style="stroke: #000000"/>
     <use xlink:href="#mfcbfba7bf9" x="178.582601" y="287.618193" style="stroke: #000000"/>
     <use xlink:href="#mfcbfba7bf9" x="77.630753" y="286.727559" style="stroke: #000000"/>
     <use xlink:href="#mfcbfba7bf9" x="77.699374" y="286.826518" style="stroke: #000000"/>
     <use xlink:href="#mfcbfba7bf9" x="160.805069" y="283.758777" style="stroke: #000000"/>
     <use xlink:href="#mfcbfba7bf9" x="94.032659" y="287.321315" style="stroke: #000000"/>
     <use xlink:href="#mfcbfba7bf9" x="350.313561" y="287.519234" style="stroke: #000000"/>
     <use xlink:href="#mfcbfba7bf9" x="78.815092" y="286.826518" style="stroke: #000000"/>
     <use xlink:href="#mfcbfba7bf9" x="131.649917" y="288.310909" style="stroke: #000000"/>
     <use xlink:href="#mfcbfba7bf9" x="87.703858" y="288.21195" style="stroke: #000000"/>
     <use xlink:href="#mfcbfba7bf9" x="82.975034" y="287.915072" style="stroke: #000000"/>
     <use xlink:href="#mfcbfba7bf9" x="362.046732" y="288.014031" style="stroke: #000000"/>
     <use xlink:href="#mfcbfba7bf9" x="263.559204" y="287.816112" style="stroke: #000000"/>
     <use xlink:href="#mfcbfba7bf9" x="88.948285" y="287.321315" style="stroke: #000000"/>
     <use xlink:href="#mfcbfba7bf9" x="80.287071" y="285.342127" style="stroke: #000000"/>
     <use xlink:href="#mfcbfba7bf9" x="102.210324" y="284.550452" style="stroke: #000000"/>
     <use xlink:href="#mfcbfba7bf9" x="187.115817" y="288.310909" style="stroke: #000000"/>
     <use xlink:href="#mfcbfba7bf9" x="250.04828" y="287.717153" style="stroke: #000000"/>
     <use xlink:href="#mfcbfba7bf9" x="148.262665" y="283.36294" style="stroke: #000000"/>
    </g>
   </g>
   <g id="PathCollection_3">
    <defs>
     <path id="mf920fa892b" d="M -0.855706 -2.065857 
L -2.065857 -0.855706 
L -2.065857 0.855706 
L -0.855706 2.065857 
L 0.855706 2.065857 
L 2.065857 0.855706 
L 2.065857 -0.855706 
L 0.855706 -2.065857 
z
" style="stroke: #ff0000"/>
    </defs>
    <g clip-path="url(#p63b0061c07)">
     <use xlink:href="#mf920fa892b" x="317.674012" y="268.914869" style="fill: #ff0000; stroke: #ff0000"/>
     <use xlink:href="#mf920fa892b" x="78.850647" y="264.362737" style="fill: #ff0000; stroke: #ff0000"/>
     <use xlink:href="#mf920fa892b" x="97.908161" y="260.998118" style="fill: #ff0000; stroke: #ff0000"/>
     <use xlink:href="#mf920fa892b" x="92.042287" y="284.253574" style="fill: #ff0000; stroke: #ff0000"/>
     <use xlink:href="#mf920fa892b" x="80.77062" y="262.581468" style="fill: #ff0000; stroke: #ff0000"/>
     <use xlink:href="#mf920fa892b" x="215.204317" y="265.847128" style="fill: #ff0000; stroke: #ff0000"/>
     <use xlink:href="#mf920fa892b" x="429.245803" y="270.597179" style="fill: #ff0000; stroke: #ff0000"/>
     <use xlink:href="#mf920fa892b" x="416.090429" y="273.66492" style="fill: #ff0000; stroke: #ff0000"/>
     <use xlink:href="#mf920fa892b" x="153.001088" y="276.039945" style="fill: #ff0000; stroke: #ff0000"/>
     <use xlink:href="#mf920fa892b" x="181.427006" y="279.701442" style="fill: #ff0000; stroke: #ff0000"/>
     <use xlink:href="#mf920fa892b" x="312.482972" y="261.987712" style="fill: #ff0000; stroke: #ff0000"/>
     <use xlink:href="#mf920fa892b" x="227.391527" y="258.821012" style="fill: #ff0000; stroke: #ff0000"/>
     <use xlink:href="#mf920fa892b" x="178.582601" y="274.456595" style="fill: #ff0000; stroke: #ff0000"/>
     <use xlink:href="#mf920fa892b" x="77.630753" y="260.899159" style="fill: #ff0000; stroke: #ff0000"/>
     <use xlink:href="#mf920fa892b" x="77.699374" y="269.013829" style="fill: #ff0000; stroke: #ff0000"/>
     <use xlink:href="#mf920fa892b" x="160.805069" y="269.607585" style="fill: #ff0000; stroke: #ff0000"/>
     <use xlink:href="#mf920fa892b" x="94.032659" y="270.597179" style="fill: #ff0000; stroke: #ff0000"/>
     <use xlink:href="#mf920fa892b" x="350.313561" y="258.919971" style="fill: #ff0000; stroke: #ff0000"/>
     <use xlink:href="#mf920fa892b" x="78.815092" y="264.362737" style="fill: #ff0000; stroke: #ff0000"/>
     <use xlink:href="#mf920fa892b" x="131.649917" y="282.769183" style="fill: #ff0000; stroke: #ff0000"/>
     <use xlink:href="#mf920fa892b" x="87.703858" y="272.774285" style="fill: #ff0000; stroke: #ff0000"/>
     <use xlink:href="#mf920fa892b" x="82.975034" y="265.946088" style="fill: #ff0000; stroke: #ff0000"/>
     <use xlink:href="#mf920fa892b" x="362.046732" y="277.524336" style="fill: #ff0000; stroke: #ff0000"/>
     <use xlink:href="#mf920fa892b" x="263.559204" y="271.388854" style="fill: #ff0000; stroke: #ff0000"/>
     <use xlink:href="#mf920fa892b" x="88.948285" y="262.779387" style="fill: #ff0000; stroke: #ff0000"/>
     <use xlink:href="#mf920fa892b" x="80.287071" y="268.81591" style="fill: #ff0000; stroke: #ff0000"/>
     <use xlink:href="#mf920fa892b" x="102.210324" y="263.175225" style="fill: #ff0000; stroke: #ff0000"/>
     <use xlink:href="#mf920fa892b" x="187.115817" y="281.878549" style="fill: #ff0000; stroke: #ff0000"/>
     <use xlink:href="#mf920fa892b" x="250.04828" y="256.347027" style="fill: #ff0000; stroke: #ff0000"/>
     <use xlink:href="#mf920fa892b" x="148.262665" y="259.414768" style="fill: #ff0000; stroke: #ff0000"/>
    </g>
   </g>
   <g id="PathCollection_4">
    <defs>
     <path id="md965ebbdd6" d="M -2.236068 2.236068 
L 2.236068 2.236068 
L 2.236068 -2.236068 
L -2.236068 -2.236068 
z
" style="stroke: #00bfbf"/>
    </defs>
    <g clip-path="url(#p63b0061c07)">
     <use xlink:href="#md965ebbdd6" x="317.674012" y="185.986903" style="fill: #00bfbf; stroke: #00bfbf"/>
     <use xlink:href="#md965ebbdd6" x="78.850647" y="155.111574" style="fill: #00bfbf; stroke: #00bfbf"/>
     <use xlink:href="#md965ebbdd6" x="97.908161" y="162.731447" style="fill: #00bfbf; stroke: #00bfbf"/>
     <use xlink:href="#md965ebbdd6" x="92.042287" y="192.320304" style="fill: #00bfbf; stroke: #00bfbf"/>
     <use xlink:href="#md965ebbdd6" x="80.77062" y="162.23665" style="fill: #00bfbf; stroke: #00bfbf"/>
     <use xlink:href="#md965ebbdd6" x="215.204317" y="177.377436" style="fill: #00bfbf; stroke: #00bfbf"/>
     <use xlink:href="#md965ebbdd6" x="429.245803" y="200.632892" style="fill: #00bfbf; stroke: #00bfbf"/>
     <use xlink:href="#md965ebbdd6" x="416.090429" y="178.169111" style="fill: #00bfbf; stroke: #00bfbf"/>
     <use xlink:href="#md965ebbdd6" x="153.001088" y="168.66901" style="fill: #00bfbf; stroke: #00bfbf"/>
     <use xlink:href="#md965ebbdd6" x="181.427006" y="214.586166" style="fill: #00bfbf; stroke: #00bfbf"/>
     <use xlink:href="#md965ebbdd6" x="312.482972" y="172.033629" style="fill: #00bfbf; stroke: #00bfbf"/>
     <use xlink:href="#md965ebbdd6" x="227.391527" y="166.195025" style="fill: #00bfbf; stroke: #00bfbf"/>
     <use xlink:href="#md965ebbdd6" x="178.582601" y="210.330912" style="fill: #00bfbf; stroke: #00bfbf"/>
     <use xlink:href="#md965ebbdd6" x="77.630753" y="172.231548" style="fill: #00bfbf; stroke: #00bfbf"/>
     <use xlink:href="#md965ebbdd6" x="77.699374" y="187.669212" style="fill: #00bfbf; stroke: #00bfbf"/>
     <use xlink:href="#md965ebbdd6" x="160.805069" y="145.413554" style="fill: #00bfbf; stroke: #00bfbf"/>
     <use xlink:href="#md965ebbdd6" x="94.032659" y="178.268071" style="fill: #00bfbf; stroke: #00bfbf"/>
     <use xlink:href="#md965ebbdd6" x="350.313561" y="167.481497" style="fill: #00bfbf; stroke: #00bfbf"/>
     <use xlink:href="#md965ebbdd6" x="78.815092" y="165.106472" style="fill: #00bfbf; stroke: #00bfbf"/>
     <use xlink:href="#md965ebbdd6" x="131.649917" y="226.560251" style="fill: #00bfbf; stroke: #00bfbf"/>
     <use xlink:href="#md965ebbdd6" x="87.703858" y="190.637994" style="fill: #00bfbf; stroke: #00bfbf"/>
     <use xlink:href="#md965ebbdd6" x="82.975034" y="184.700431" style="fill: #00bfbf; stroke: #00bfbf"/>
     <use xlink:href="#md965ebbdd6" x="362.046732" y="189.450481" style="fill: #00bfbf; stroke: #00bfbf"/>
     <use xlink:href="#md965ebbdd6" x="263.559204" y="201.523527" style="fill: #00bfbf; stroke: #00bfbf"/>
     <use xlink:href="#md965ebbdd6" x="88.948285" y="174.012817" style="fill: #00bfbf; stroke: #00bfbf"/>
     <use xlink:href="#md965ebbdd6" x="80.287071" y="171.83571" style="fill: #00bfbf; stroke: #00bfbf"/>
     <use xlink:href="#md965ebbdd6" x="102.210324" y="152.53863" style="fill: #00bfbf; stroke: #00bfbf"/>
     <use xlink:href="#md965ebbdd6" x="187.115817" y="225.471698" style="fill: #00bfbf; stroke: #00bfbf"/>
     <use xlink:href="#md965ebbdd6" x="250.04828" y="162.23665" style="fill: #00bfbf; stroke: #00bfbf"/>
     <use xlink:href="#md965ebbdd6" x="148.262665" y="157.882437" style="fill: #00bfbf; stroke: #00bfbf"/>
    </g>
   </g>
   <g id="PathCollection_5">
    <defs>
     <path id="m4b321fcd58" d="M 0 -2.236068 
L -2.126627 -0.690983 
L -1.314328 1.809017 
L 1.314328 1.809017 
L 2.126627 -0.690983 
z
" style="stroke: #bf00bf"/>
    </defs>
    <g clip-path="url(#p63b0061c07)">
     <use xlink:href="#m4b321fcd58" x="317.674012" y="285.935884" style="fill: #bf00bf; stroke: #bf00bf"/>
     <use xlink:href="#m4b321fcd58" x="78.850647" y="284.649412" style="fill: #bf00bf; stroke: #bf00bf"/>
     <use xlink:href="#m4b321fcd58" x="97.908161" y="281.878549" style="fill: #bf00bf; stroke: #bf00bf"/>
     <use xlink:href="#m4b321fcd58" x="92.042287" y="285.342127" style="fill: #bf00bf; stroke: #bf00bf"/>
     <use xlink:href="#m4b321fcd58" x="80.77062" y="282.670224" style="fill: #bf00bf; stroke: #bf00bf"/>
     <use xlink:href="#m4b321fcd58" x="215.204317" y="286.133803" style="fill: #bf00bf; stroke: #bf00bf"/>
     <use xlink:href="#m4b321fcd58" x="429.245803" y="286.826518" style="fill: #bf00bf; stroke: #bf00bf"/>
     <use xlink:href="#m4b321fcd58" x="416.090429" y="286.826518" style="fill: #bf00bf; stroke: #bf00bf"/>
     <use xlink:href="#m4b321fcd58" x="153.001088" y="286.826518" style="fill: #bf00bf; stroke: #bf00bf"/>
     <use xlink:href="#m4b321fcd58" x="181.427006" y="285.441087" style="fill: #bf00bf; stroke: #bf00bf"/>
     <use xlink:href="#m4b321fcd58" x="312.482972" y="284.055655" style="fill: #bf00bf; stroke: #bf00bf"/>
     <use xlink:href="#m4b321fcd58" x="227.391527" y="286.232762" style="fill: #bf00bf; stroke: #bf00bf"/>
     <use xlink:href="#m4b321fcd58" x="178.582601" y="286.727559" style="fill: #bf00bf; stroke: #bf00bf"/>
     <use xlink:href="#m4b321fcd58" x="77.630753" y="286.232762" style="fill: #bf00bf; stroke: #bf00bf"/>
     <use xlink:href="#m4b321fcd58" x="77.699374" y="285.935884" style="fill: #bf00bf; stroke: #bf00bf"/>
     <use xlink:href="#m4b321fcd58" x="160.805069" y="282.472305" style="fill: #bf00bf; stroke: #bf00bf"/>
     <use xlink:href="#m4b321fcd58" x="94.032659" y="286.430681" style="fill: #bf00bf; stroke: #bf00bf"/>
     <use xlink:href="#m4b321fcd58" x="350.313561" y="285.836924" style="fill: #bf00bf; stroke: #bf00bf"/>
     <use xlink:href="#m4b321fcd58" x="78.815092" y="285.342127" style="fill: #bf00bf; stroke: #bf00bf"/>
     <use xlink:href="#m4b321fcd58" x="131.649917" y="286.331721" style="fill: #bf00bf; stroke: #bf00bf"/>
     <use xlink:href="#m4b321fcd58" x="87.703858" y="284.550452" style="fill: #bf00bf; stroke: #bf00bf"/>
     <use xlink:href="#m4b321fcd58" x="82.975034" y="285.935884" style="fill: #bf00bf; stroke: #bf00bf"/>
     <use xlink:href="#m4b321fcd58" x="362.046732" y="286.727559" style="fill: #bf00bf; stroke: #bf00bf"/>
     <use xlink:href="#m4b321fcd58" x="263.559204" y="286.925478" style="fill: #bf00bf; stroke: #bf00bf"/>
     <use xlink:href="#m4b321fcd58" x="88.948285" y="282.571265" style="fill: #bf00bf; stroke: #bf00bf"/>
     <use xlink:href="#m4b321fcd58" x="80.287071" y="283.066062" style="fill: #bf00bf; stroke: #bf00bf"/>
     <use xlink:href="#m4b321fcd58" x="102.210324" y="284.154615" style="fill: #bf00bf; stroke: #bf00bf"/>
     <use xlink:href="#m4b321fcd58" x="187.115817" y="287.321315" style="fill: #bf00bf; stroke: #bf00bf"/>
     <use xlink:href="#m4b321fcd58" x="250.04828" y="285.342127" style="fill: #bf00bf; stroke: #bf00bf"/>
     <use xlink:href="#m4b321fcd58" x="148.262665" y="280.592077" style="fill: #bf00bf; stroke: #bf00bf"/>
    </g>
   </g>
   <g id="PathCollection_6">
    <defs>
     <path id="me8e69c1c62" d="M 0 -2.236068 
L -0.502029 -0.690983 
L -2.126627 -0.690983 
L -0.812299 0.263932 
L -1.314328 1.809017 
L -0 0.854102 
L 1.314328 1.809017 
L 0.812299 0.263932 
L 2.126627 -0.690983 
L 0.502029 -0.690983 
z
" style="stroke: #008000"/>
    </defs>
    <g clip-path="url(#p63b0061c07)">
     <use xlink:href="#me8e69c1c62" x="317.674012" y="287.618193" style="fill: #008000; stroke: #008000"/>
     <use xlink:href="#me8e69c1c62" x="78.850647" y="287.717153" style="fill: #008000; stroke: #008000"/>
     <use xlink:href="#me8e69c1c62" x="97.908161" y="287.618193" style="fill: #008000; stroke: #008000"/>
     <use xlink:href="#me8e69c1c62" x="92.042287" y="287.717153" style="fill: #008000; stroke: #008000"/>
     <use xlink:href="#me8e69c1c62" x="80.77062" y="287.816112" style="fill: #008000; stroke: #008000"/>
     <use xlink:href="#me8e69c1c62" x="215.204317" y="287.915072" style="fill: #008000; stroke: #008000"/>
     <use xlink:href="#me8e69c1c62" x="429.245803" y="287.717153" style="fill: #008000; stroke: #008000"/>
     <use xlink:href="#me8e69c1c62" x="416.090429" y="287.915072" style="fill: #008000; stroke: #008000"/>
     <use xlink:href="#me8e69c1c62" x="153.001088" y="287.816112" style="fill: #008000; stroke: #008000"/>
     <use xlink:href="#me8e69c1c62" x="181.427006" y="287.222356" style="fill: #008000; stroke: #008000"/>
     <use xlink:href="#me8e69c1c62" x="312.482972" y="287.222356" style="fill: #008000; stroke: #008000"/>
     <use xlink:href="#me8e69c1c62" x="227.391527" y="287.717153" style="fill: #008000; stroke: #008000"/>
     <use xlink:href="#me8e69c1c62" x="178.582601" y="288.11299" style="fill: #008000; stroke: #008000"/>
     <use xlink:href="#me8e69c1c62" x="77.630753" y="287.816112" style="fill: #008000; stroke: #008000"/>
     <use xlink:href="#me8e69c1c62" x="77.699374" y="287.519234" style="fill: #008000; stroke: #008000"/>
     <use xlink:href="#me8e69c1c62" x="160.805069" y="287.222356" style="fill: #008000; stroke: #008000"/>
     <use xlink:href="#me8e69c1c62" x="94.032659" y="288.11299" style="fill: #008000; stroke: #008000"/>
     <use xlink:href="#me8e69c1c62" x="350.313561" y="288.11299" style="fill: #008000; stroke: #008000"/>
     <use xlink:href="#me8e69c1c62" x="78.815092" y="287.618193" style="fill: #008000; stroke: #008000"/>
     <use xlink:href="#me8e69c1c62" x="131.649917" y="287.915072" style="fill: #008000; stroke: #008000"/>
     <use xlink:href="#me8e69c1c62" x="87.703858" y="287.123396" style="fill: #008000; stroke: #008000"/>
     <use xlink:href="#me8e69c1c62" x="82.975034" y="287.915072" style="fill: #008000; stroke: #008000"/>
     <use xlink:href="#me8e69c1c62" x="362.046732" y="288.014031" style="fill: #008000; stroke: #008000"/>
     <use xlink:href="#me8e69c1c62" x="263.559204" y="288.11299" style="fill: #008000; stroke: #008000"/>
     <use xlink:href="#me8e69c1c62" x="88.948285" y="287.123396" style="fill: #008000; stroke: #008000"/>
     <use xlink:href="#me8e69c1c62" x="80.287071" y="287.321315" style="fill: #008000; stroke: #008000"/>
     <use xlink:href="#me8e69c1c62" x="102.210324" y="287.816112" style="fill: #008000; stroke: #008000"/>
     <use xlink:href="#me8e69c1c62" x="187.115817" y="288.21195" style="fill: #008000; stroke: #008000"/>
     <use xlink:href="#me8e69c1c62" x="250.04828" y="287.717153" style="fill: #008000; stroke: #008000"/>
     <use xlink:href="#me8e69c1c62" x="148.262665" y="287.816112" style="fill: #008000; stroke: #008000"/>
    </g>
   </g>
   <g id="PathCollection_7">
    <defs>
     <path id="mdb3c2b4c58" d="M 0 -2.236068 
L -1.936492 -1.118034 
L -1.936492 1.118034 
L -0 2.236068 
L 1.936492 1.118034 
L 1.936492 -1.118034 
z
" style="stroke: #bfbf00"/>
    </defs>
    <g clip-path="url(#p63b0061c07)">
     <use xlink:href="#mdb3c2b4c58" x="317.674012" y="270.993016" style="fill: #bfbf00; stroke: #bfbf00"/>
     <use xlink:href="#mdb3c2b4c58" x="78.850647" y="265.451291" style="fill: #bfbf00; stroke: #bfbf00"/>
     <use xlink:href="#mdb3c2b4c58" x="97.908161" y="257.039743" style="fill: #bfbf00; stroke: #bfbf00"/>
     <use xlink:href="#mdb3c2b4c58" x="92.042287" y="267.23256" style="fill: #bfbf00; stroke: #bfbf00"/>
     <use xlink:href="#mdb3c2b4c58" x="80.77062" y="258.821012" style="fill: #bfbf00; stroke: #bfbf00"/>
     <use xlink:href="#mdb3c2b4c58" x="215.204317" y="272.774285" style="fill: #bfbf00; stroke: #bfbf00"/>
     <use xlink:href="#mdb3c2b4c58" x="429.245803" y="276.435783" style="fill: #bfbf00; stroke: #bfbf00"/>
     <use xlink:href="#mdb3c2b4c58" x="416.090429" y="275.149311" style="fill: #bfbf00; stroke: #bfbf00"/>
     <use xlink:href="#mdb3c2b4c58" x="153.001088" y="280.196239" style="fill: #bfbf00; stroke: #bfbf00"/>
     <use xlink:href="#mdb3c2b4c58" x="181.427006" y="277.029539" style="fill: #bfbf00; stroke: #bfbf00"/>
     <use xlink:href="#mdb3c2b4c58" x="312.482972" y="266.737763" style="fill: #bfbf00; stroke: #bfbf00"/>
     <use xlink:href="#mdb3c2b4c58" x="227.391527" y="273.862839" style="fill: #bfbf00; stroke: #bfbf00"/>
     <use xlink:href="#mdb3c2b4c58" x="178.582601" y="274.555554" style="fill: #bfbf00; stroke: #bfbf00"/>
     <use xlink:href="#mdb3c2b4c58" x="77.630753" y="274.159717" style="fill: #bfbf00; stroke: #bfbf00"/>
     <use xlink:href="#mdb3c2b4c58" x="77.699374" y="269.904463" style="fill: #bfbf00; stroke: #bfbf00"/>
     <use xlink:href="#mdb3c2b4c58" x="160.805069" y="257.039743" style="fill: #bfbf00; stroke: #bfbf00"/>
     <use xlink:href="#mdb3c2b4c58" x="94.032659" y="272.279488" style="fill: #bfbf00; stroke: #bfbf00"/>
     <use xlink:href="#mdb3c2b4c58" x="350.313561" y="270.696138" style="fill: #bfbf00; stroke: #bfbf00"/>
     <use xlink:href="#mdb3c2b4c58" x="78.815092" y="267.331519" style="fill: #bfbf00; stroke: #bfbf00"/>
     <use xlink:href="#mdb3c2b4c58" x="131.649917" y="281.185833" style="fill: #bfbf00; stroke: #bfbf00"/>
     <use xlink:href="#mdb3c2b4c58" x="87.703858" y="274.852432" style="fill: #bfbf00; stroke: #bfbf00"/>
     <use xlink:href="#mdb3c2b4c58" x="82.975034" y="273.763879" style="fill: #bfbf00; stroke: #bfbf00"/>
     <use xlink:href="#mdb3c2b4c58" x="362.046732" y="277.128498" style="fill: #bfbf00; stroke: #bfbf00"/>
     <use xlink:href="#mdb3c2b4c58" x="263.559204" y="276.83162" style="fill: #bfbf00; stroke: #bfbf00"/>
     <use xlink:href="#mdb3c2b4c58" x="88.948285" y="264.263778" style="fill: #bfbf00; stroke: #bfbf00"/>
     <use xlink:href="#mdb3c2b4c58" x="80.287071" y="260.800199" style="fill: #bfbf00; stroke: #bfbf00"/>
     <use xlink:href="#mdb3c2b4c58" x="102.210324" y="259.414768" style="fill: #bfbf00; stroke: #bfbf00"/>
     <use xlink:href="#mdb3c2b4c58" x="187.115817" y="282.274386" style="fill: #bfbf00; stroke: #bfbf00"/>
     <use xlink:href="#mdb3c2b4c58" x="250.04828" y="271.190935" style="fill: #bfbf00; stroke: #bfbf00"/>
     <use xlink:href="#mdb3c2b4c58" x="148.262665" y="247.242763" style="fill: #bfbf00; stroke: #bfbf00"/>
    </g>
   </g>
   <g id="PathCollection_8">
    <defs>
     <path id="mdfa4772d83" d="M -2.236068 0 
L 2.236068 0 
M 0 2.236068 
L 0 -2.236068 
" style="stroke: #9467bd; stroke-width: 1.5"/>
    </defs>
    <g clip-path="url(#p63b0061c07)">
     <use xlink:href="#mdfa4772d83" x="317.674012" y="263.175225" style="fill: #9467bd; stroke: #9467bd; stroke-width: 1.5"/>
     <use xlink:href="#mdfa4772d83" x="78.850647" y="253.180327" style="fill: #9467bd; stroke: #9467bd; stroke-width: 1.5"/>
     <use xlink:href="#mdfa4772d83" x="97.908161" y="251.596976" style="fill: #9467bd; stroke: #9467bd; stroke-width: 1.5"/>
     <use xlink:href="#mdfa4772d83" x="92.042287" y="283.659818" style="fill: #9467bd; stroke: #9467bd; stroke-width: 1.5"/>
     <use xlink:href="#mdfa4772d83" x="80.77062" y="252.58657" style="fill: #9467bd; stroke: #9467bd; stroke-width: 1.5"/>
     <use xlink:href="#mdfa4772d83" x="215.204317" y="257.138702" style="fill: #9467bd; stroke: #9467bd; stroke-width: 1.5"/>
     <use xlink:href="#mdfa4772d83" x="429.245803" y="263.571062" style="fill: #9467bd; stroke: #9467bd; stroke-width: 1.5"/>
     <use xlink:href="#mdfa4772d83" x="416.090429" y="258.524134" style="fill: #9467bd; stroke: #9467bd; stroke-width: 1.5"/>
     <use xlink:href="#mdfa4772d83" x="153.001088" y="267.1336" style="fill: #9467bd; stroke: #9467bd; stroke-width: 1.5"/>
     <use xlink:href="#mdfa4772d83" x="181.427006" y="271.784691" style="fill: #9467bd; stroke: #9467bd; stroke-width: 1.5"/>
     <use xlink:href="#mdfa4772d83" x="312.482972" y="256.742865" style="fill: #9467bd; stroke: #9467bd; stroke-width: 1.5"/>
     <use xlink:href="#mdfa4772d83" x="227.391527" y="249.320911" style="fill: #9467bd; stroke: #9467bd; stroke-width: 1.5"/>
     <use xlink:href="#mdfa4772d83" x="178.582601" y="266.539844" style="fill: #9467bd; stroke: #9467bd; stroke-width: 1.5"/>
     <use xlink:href="#mdfa4772d83" x="77.630753" y="253.378245" style="fill: #9467bd; stroke: #9467bd; stroke-width: 1.5"/>
     <use xlink:href="#mdfa4772d83" x="77.699374" y="263.670022" style="fill: #9467bd; stroke: #9467bd; stroke-width: 1.5"/>
     <use xlink:href="#mdfa4772d83" x="160.805069" y="257.43558" style="fill: #9467bd; stroke: #9467bd; stroke-width: 1.5"/>
     <use xlink:href="#mdfa4772d83" x="94.032659" y="260.998118" style="fill: #9467bd; stroke: #9467bd; stroke-width: 1.5"/>
     <use xlink:href="#mdfa4772d83" x="350.313561" y="254.367839" style="fill: #9467bd; stroke: #9467bd; stroke-width: 1.5"/>
     <use xlink:href="#mdfa4772d83" x="78.815092" y="254.169921" style="fill: #9467bd; stroke: #9467bd; stroke-width: 1.5"/>
     <use xlink:href="#mdfa4772d83" x="131.649917" y="271.883651" style="fill: #9467bd; stroke: #9467bd; stroke-width: 1.5"/>
     <use xlink:href="#mdfa4772d83" x="87.703858" y="262.977306" style="fill: #9467bd; stroke: #9467bd; stroke-width: 1.5"/>
     <use xlink:href="#mdfa4772d83" x="82.975034" y="257.732458" style="fill: #9467bd; stroke: #9467bd; stroke-width: 1.5"/>
     <use xlink:href="#mdfa4772d83" x="362.046732" y="265.946088" style="fill: #9467bd; stroke: #9467bd; stroke-width: 1.5"/>
     <use xlink:href="#mdfa4772d83" x="263.559204" y="261.393956" style="fill: #9467bd; stroke: #9467bd; stroke-width: 1.5"/>
     <use xlink:href="#mdfa4772d83" x="88.948285" y="252.091773" style="fill: #9467bd; stroke: #9467bd; stroke-width: 1.5"/>
     <use xlink:href="#mdfa4772d83" x="80.287071" y="257.43558" style="fill: #9467bd; stroke: #9467bd; stroke-width: 1.5"/>
     <use xlink:href="#mdfa4772d83" x="102.210324" y="259.414768" style="fill: #9467bd; stroke: #9467bd; stroke-width: 1.5"/>
     <use xlink:href="#mdfa4772d83" x="187.115817" y="272.180529" style="fill: #9467bd; stroke: #9467bd; stroke-width: 1.5"/>
     <use xlink:href="#mdfa4772d83" x="250.04828" y="254.466799" style="fill: #9467bd; stroke: #9467bd; stroke-width: 1.5"/>
     <use xlink:href="#mdfa4772d83" x="148.262665" y="265.55025" style="fill: #9467bd; stroke: #9467bd; stroke-width: 1.5"/>
    </g>
   </g>
   <g id="PathCollection_9">
    <defs>
     <path id="m73aa669fe0" d="M -2.236068 2.236068 
L 2.236068 -2.236068 
M -2.236068 -2.236068 
L 2.236068 2.236068 
" style="stroke: #8c564b; stroke-width: 1.5"/>
    </defs>
    <g clip-path="url(#p63b0061c07)">
     <use xlink:href="#m73aa669fe0" x="317.674012" y="286.925478" style="fill: #8c564b; stroke: #8c564b; stroke-width: 1.5"/>
     <use xlink:href="#m73aa669fe0" x="78.850647" y="286.826518" style="fill: #8c564b; stroke: #8c564b; stroke-width: 1.5"/>
     <use xlink:href="#m73aa669fe0" x="97.908161" y="286.727559" style="fill: #8c564b; stroke: #8c564b; stroke-width: 1.5"/>
     <use xlink:href="#m73aa669fe0" x="92.042287" y="287.915072" style="fill: #8c564b; stroke: #8c564b; stroke-width: 1.5"/>
     <use xlink:href="#m73aa669fe0" x="80.77062" y="287.420275" style="fill: #8c564b; stroke: #8c564b; stroke-width: 1.5"/>
     <use xlink:href="#m73aa669fe0" x="215.204317" y="287.519234" style="fill: #8c564b; stroke: #8c564b; stroke-width: 1.5"/>
     <use xlink:href="#m73aa669fe0" x="429.245803" y="288.11299" style="fill: #8c564b; stroke: #8c564b; stroke-width: 1.5"/>
     <use xlink:href="#m73aa669fe0" x="416.090429" y="287.123396" style="fill: #8c564b; stroke: #8c564b; stroke-width: 1.5"/>
     <use xlink:href="#m73aa669fe0" x="153.001088" y="287.123396" style="fill: #8c564b; stroke: #8c564b; stroke-width: 1.5"/>
     <use xlink:href="#m73aa669fe0" x="181.427006" y="288.21195" style="fill: #8c564b; stroke: #8c564b; stroke-width: 1.5"/>
     <use xlink:href="#m73aa669fe0" x="312.482972" y="286.331721" style="fill: #8c564b; stroke: #8c564b; stroke-width: 1.5"/>
     <use xlink:href="#m73aa669fe0" x="227.391527" y="286.925478" style="fill: #8c564b; stroke: #8c564b; stroke-width: 1.5"/>
     <use xlink:href="#m73aa669fe0" x="178.582601" y="287.816112" style="fill: #8c564b; stroke: #8c564b; stroke-width: 1.5"/>
     <use xlink:href="#m73aa669fe0" x="77.630753" y="287.420275" style="fill: #8c564b; stroke: #8c564b; stroke-width: 1.5"/>
     <use xlink:href="#m73aa669fe0" x="77.699374" y="287.717153" style="fill: #8c564b; stroke: #8c564b; stroke-width: 1.5"/>
     <use xlink:href="#m73aa669fe0" x="160.805069" y="287.717153" style="fill: #8c564b; stroke: #8c564b; stroke-width: 1.5"/>
     <use xlink:href="#m73aa669fe0" x="94.032659" y="287.717153" style="fill: #8c564b; stroke: #8c564b; stroke-width: 1.5"/>
     <use xlink:href="#m73aa669fe0" x="350.313561" y="287.321315" style="fill: #8c564b; stroke: #8c564b; stroke-width: 1.5"/>
     <use xlink:href="#m73aa669fe0" x="78.815092" y="287.420275" style="fill: #8c564b; stroke: #8c564b; stroke-width: 1.5"/>
     <use xlink:href="#m73aa669fe0" x="131.649917" y="288.21195" style="fill: #8c564b; stroke: #8c564b; stroke-width: 1.5"/>
     <use xlink:href="#m73aa669fe0" x="87.703858" y="287.321315" style="fill: #8c564b; stroke: #8c564b; stroke-width: 1.5"/>
     <use xlink:href="#m73aa669fe0" x="82.975034" y="287.321315" style="fill: #8c564b; stroke: #8c564b; stroke-width: 1.5"/>
     <use xlink:href="#m73aa669fe0" x="362.046732" y="287.321315" style="fill: #8c564b; stroke: #8c564b; stroke-width: 1.5"/>
     <use xlink:href="#m73aa669fe0" x="263.559204" y="287.816112" style="fill: #8c564b; stroke: #8c564b; stroke-width: 1.5"/>
     <use xlink:href="#m73aa669fe0" x="88.948285" y="287.222356" style="fill: #8c564b; stroke: #8c564b; stroke-width: 1.5"/>
     <use xlink:href="#m73aa669fe0" x="80.287071" y="287.717153" style="fill: #8c564b; stroke: #8c564b; stroke-width: 1.5"/>
     <use xlink:href="#m73aa669fe0" x="102.210324" y="287.717153" style="fill: #8c564b; stroke: #8c564b; stroke-width: 1.5"/>
     <use xlink:href="#m73aa669fe0" x="187.115817" y="288.21195" style="fill: #8c564b; stroke: #8c564b; stroke-width: 1.5"/>
     <use xlink:href="#m73aa669fe0" x="250.04828" y="287.024437" style="fill: #8c564b; stroke: #8c564b; stroke-width: 1.5"/>
     <use xlink:href="#m73aa669fe0" x="148.262665" y="287.618193" style="fill: #8c564b; stroke: #8c564b; stroke-width: 1.5"/>
    </g>
   </g>
   <g id="PathCollection_10">
    <defs>
     <path id="m56f6011878" d="M 0 -2.236068 
L -2.236068 2.236068 
L 2.236068 2.236068 
z
" style="stroke: #ff7f0e"/>
    </defs>
    <g clip-path="url(#p63b0061c07)">
     <use xlink:href="#m56f6011878" x="317.674012" y="115.3299" style="fill: #ff7f0e; stroke: #ff7f0e"/>
     <use xlink:href="#m56f6011878" x="78.850647" y="58.92305" style="fill: #ff7f0e; stroke: #ff7f0e"/>
     <use xlink:href="#m56f6011878" x="97.908161" y="44.27706" style="fill: #ff7f0e; stroke: #ff7f0e"/>
     <use xlink:href="#m56f6011878" x="92.042287" y="151.845914" style="fill: #ff7f0e; stroke: #ff7f0e"/>
     <use xlink:href="#m56f6011878" x="80.77062" y="53.381324" style="fill: #ff7f0e; stroke: #ff7f0e"/>
     <use xlink:href="#m56f6011878" x="215.204317" y="99.397439" style="fill: #ff7f0e; stroke: #ff7f0e"/>
     <use xlink:href="#m56f6011878" x="429.245803" y="139.970788" style="fill: #ff7f0e; stroke: #ff7f0e"/>
     <use xlink:href="#m56f6011878" x="416.090429" y="113.74655" style="fill: #ff7f0e; stroke: #ff7f0e"/>
     <use xlink:href="#m56f6011878" x="153.001088" y="122.553936" style="fill: #ff7f0e; stroke: #ff7f0e"/>
     <use xlink:href="#m56f6011878" x="181.427006" y="170.549238" style="fill: #ff7f0e; stroke: #ff7f0e"/>
     <use xlink:href="#m56f6011878" x="312.482972" y="78.813886" style="fill: #ff7f0e; stroke: #ff7f0e"/>
     <use xlink:href="#m56f6011878" x="227.391527" y="72.678404" style="fill: #ff7f0e; stroke: #ff7f0e"/>
     <use xlink:href="#m56f6011878" x="178.582601" y="154.023021" style="fill: #ff7f0e; stroke: #ff7f0e"/>
     <use xlink:href="#m56f6011878" x="77.630753" y="85.840003" style="fill: #ff7f0e; stroke: #ff7f0e"/>
     <use xlink:href="#m56f6011878" x="77.699374" y="114.835103" style="fill: #ff7f0e; stroke: #ff7f0e"/>
     <use xlink:href="#m56f6011878" x="160.805069" y="42.990588" style="fill: #ff7f0e; stroke: #ff7f0e"/>
     <use xlink:href="#m56f6011878" x="94.032659" y="108.501703" style="fill: #ff7f0e; stroke: #ff7f0e"/>
     <use xlink:href="#m56f6011878" x="350.313561" y="76.933658" style="fill: #ff7f0e; stroke: #ff7f0e"/>
     <use xlink:href="#m56f6011878" x="78.815092" y="73.37112" style="fill: #ff7f0e; stroke: #ff7f0e"/>
     <use xlink:href="#m56f6011878" x="131.649917" y="193.013019" style="fill: #ff7f0e; stroke: #ff7f0e"/>
     <use xlink:href="#m56f6011878" x="87.703858" y="127.106067" style="fill: #ff7f0e; stroke: #ff7f0e"/>
     <use xlink:href="#m56f6011878" x="82.975034" y="110.085053" style="fill: #ff7f0e; stroke: #ff7f0e"/>
     <use xlink:href="#m56f6011878" x="362.046732" y="139.772869" style="fill: #ff7f0e; stroke: #ff7f0e"/>
     <use xlink:href="#m56f6011878" x="263.559204" y="139.67391" style="fill: #ff7f0e; stroke: #ff7f0e"/>
     <use xlink:href="#m56f6011878" x="88.948285" y="72.777364" style="fill: #ff7f0e; stroke: #ff7f0e"/>
     <use xlink:href="#m56f6011878" x="80.287071" y="75.05343" style="fill: #ff7f0e; stroke: #ff7f0e"/>
     <use xlink:href="#m56f6011878" x="102.210324" y="52.39173" style="fill: #ff7f0e; stroke: #ff7f0e"/>
     <use xlink:href="#m56f6011878" x="187.115817" y="194.200532" style="fill: #ff7f0e; stroke: #ff7f0e"/>
     <use xlink:href="#m56f6011878" x="250.04828" y="69.115866" style="fill: #ff7f0e; stroke: #ff7f0e"/>
     <use xlink:href="#m56f6011878" x="148.262665" y="39.329091" style="fill: #ff7f0e; stroke: #ff7f0e"/>
    </g>
   </g>
   <g id="matplotlib.axis_1">
    <g id="xtick_1">
     <g id="line2d_1">
      <defs>
       <path id="m696903c26b" d="M 0 0 
L 0 3.5 
" style="stroke: #000000; stroke-width: 0.8"/>
      </defs>
      <g>
       <use xlink:href="#m696903c26b" x="77.60622" y="300.76" style="stroke: #000000; stroke-width: 0.8"/>
      </g>
     </g>
     <g id="text_1">
      <!-- 0 -->
      <g transform="translate(74.42497 315.358437)scale(0.1 -0.1)">
       <defs>
        <path id="DejaVuSans-30" d="M 2034 4250 
Q 1547 4250 1301 3770 
Q 1056 3291 1056 2328 
Q 1056 1369 1301 889 
Q 1547 409 2034 409 
Q 2525 409 2770 889 
Q 3016 1369 3016 2328 
Q 3016 3291 2770 3770 
Q 2525 4250 2034 4250 
z
M 2034 4750 
Q 2819 4750 3233 4129 
Q 3647 3509 3647 2328 
Q 3647 1150 3233 529 
Q 2819 -91 2034 -91 
Q 1250 -91 836 529 
Q 422 1150 422 2328 
Q 422 3509 836 4129 
Q 1250 4750 2034 4750 
z
" transform="scale(0.015625)"/>
       </defs>
       <use xlink:href="#DejaVuSans-30"/>
      </g>
     </g>
    </g>
    <g id="xtick_2">
     <g id="line2d_2">
      <g>
       <use xlink:href="#m696903c26b" x="148.716348" y="300.76" style="stroke: #000000; stroke-width: 0.8"/>
      </g>
     </g>
     <g id="text_2">
      <!-- 2000 -->
      <g transform="translate(135.991348 315.358437)scale(0.1 -0.1)">
       <defs>
        <path id="DejaVuSans-32" d="M 1228 531 
L 3431 531 
L 3431 0 
L 469 0 
L 469 531 
Q 828 903 1448 1529 
Q 2069 2156 2228 2338 
Q 2531 2678 2651 2914 
Q 2772 3150 2772 3378 
Q 2772 3750 2511 3984 
Q 2250 4219 1831 4219 
Q 1534 4219 1204 4116 
Q 875 4013 500 3803 
L 500 4441 
Q 881 4594 1212 4672 
Q 1544 4750 1819 4750 
Q 2544 4750 2975 4387 
Q 3406 4025 3406 3419 
Q 3406 3131 3298 2873 
Q 3191 2616 2906 2266 
Q 2828 2175 2409 1742 
Q 1991 1309 1228 531 
z
" transform="scale(0.015625)"/>
       </defs>
       <use xlink:href="#DejaVuSans-32"/>
       <use xlink:href="#DejaVuSans-30" x="63.623047"/>
       <use xlink:href="#DejaVuSans-30" x="127.246094"/>
       <use xlink:href="#DejaVuSans-30" x="190.869141"/>
      </g>
     </g>
    </g>
    <g id="xtick_3">
     <g id="line2d_3">
      <g>
       <use xlink:href="#m696903c26b" x="219.826476" y="300.76" style="stroke: #000000; stroke-width: 0.8"/>
      </g>
     </g>
     <g id="text_3">
      <!-- 4000 -->
      <g transform="translate(207.101476 315.358437)scale(0.1 -0.1)">
       <defs>
        <path id="DejaVuSans-34" d="M 2419 4116 
L 825 1625 
L 2419 1625 
L 2419 4116 
z
M 2253 4666 
L 3047 4666 
L 3047 1625 
L 3713 1625 
L 3713 1100 
L 3047 1100 
L 3047 0 
L 2419 0 
L 2419 1100 
L 313 1100 
L 313 1709 
L 2253 4666 
z
" transform="scale(0.015625)"/>
       </defs>
       <use xlink:href="#DejaVuSans-34"/>
       <use xlink:href="#DejaVuSans-30" x="63.623047"/>
       <use xlink:href="#DejaVuSans-30" x="127.246094"/>
       <use xlink:href="#DejaVuSans-30" x="190.869141"/>
      </g>
     </g>
    </g>
    <g id="xtick_4">
     <g id="line2d_4">
      <g>
       <use xlink:href="#m696903c26b" x="290.936604" y="300.76" style="stroke: #000000; stroke-width: 0.8"/>
      </g>
     </g>
     <g id="text_4">
      <!-- 6000 -->
      <g transform="translate(278.211604 315.358437)scale(0.1 -0.1)">
       <defs>
        <path id="DejaVuSans-36" d="M 2113 2584 
Q 1688 2584 1439 2293 
Q 1191 2003 1191 1497 
Q 1191 994 1439 701 
Q 1688 409 2113 409 
Q 2538 409 2786 701 
Q 3034 994 3034 1497 
Q 3034 2003 2786 2293 
Q 2538 2584 2113 2584 
z
M 3366 4563 
L 3366 3988 
Q 3128 4100 2886 4159 
Q 2644 4219 2406 4219 
Q 1781 4219 1451 3797 
Q 1122 3375 1075 2522 
Q 1259 2794 1537 2939 
Q 1816 3084 2150 3084 
Q 2853 3084 3261 2657 
Q 3669 2231 3669 1497 
Q 3669 778 3244 343 
Q 2819 -91 2113 -91 
Q 1303 -91 875 529 
Q 447 1150 447 2328 
Q 447 3434 972 4092 
Q 1497 4750 2381 4750 
Q 2619 4750 2861 4703 
Q 3103 4656 3366 4563 
z
" transform="scale(0.015625)"/>
       </defs>
       <use xlink:href="#DejaVuSans-36"/>
       <use xlink:href="#DejaVuSans-30" x="63.623047"/>
       <use xlink:href="#DejaVuSans-30" x="127.246094"/>
       <use xlink:href="#DejaVuSans-30" x="190.869141"/>
      </g>
     </g>
    </g>
    <g id="xtick_5">
     <g id="line2d_5">
      <g>
       <use xlink:href="#m696903c26b" x="362.046732" y="300.76" style="stroke: #000000; stroke-width: 0.8"/>
      </g>
     </g>
     <g id="text_5">
      <!-- 8000 -->
      <g transform="translate(349.321732 315.358437)scale(0.1 -0.1)">
       <defs>
        <path id="DejaVuSans-38" d="M 2034 2216 
Q 1584 2216 1326 1975 
Q 1069 1734 1069 1313 
Q 1069 891 1326 650 
Q 1584 409 2034 409 
Q 2484 409 2743 651 
Q 3003 894 3003 1313 
Q 3003 1734 2745 1975 
Q 2488 2216 2034 2216 
z
M 1403 2484 
Q 997 2584 770 2862 
Q 544 3141 544 3541 
Q 544 4100 942 4425 
Q 1341 4750 2034 4750 
Q 2731 4750 3128 4425 
Q 3525 4100 3525 3541 
Q 3525 3141 3298 2862 
Q 3072 2584 2669 2484 
Q 3125 2378 3379 2068 
Q 3634 1759 3634 1313 
Q 3634 634 3220 271 
Q 2806 -91 2034 -91 
Q 1263 -91 848 271 
Q 434 634 434 1313 
Q 434 1759 690 2068 
Q 947 2378 1403 2484 
z
M 1172 3481 
Q 1172 3119 1398 2916 
Q 1625 2713 2034 2713 
Q 2441 2713 2670 2916 
Q 2900 3119 2900 3481 
Q 2900 3844 2670 4047 
Q 2441 4250 2034 4250 
Q 1625 4250 1398 4047 
Q 1172 3844 1172 3481 
z
" transform="scale(0.015625)"/>
       </defs>
       <use xlink:href="#DejaVuSans-38"/>
       <use xlink:href="#DejaVuSans-30" x="63.623047"/>
       <use xlink:href="#DejaVuSans-30" x="127.246094"/>
       <use xlink:href="#DejaVuSans-30" x="190.869141"/>
      </g>
     </g>
    </g>
    <g id="xtick_6">
     <g id="line2d_6">
      <g>
       <use xlink:href="#m696903c26b" x="433.15686" y="300.76" style="stroke: #000000; stroke-width: 0.8"/>
      </g>
     </g>
     <g id="text_6">
      <!-- 10000 -->
      <g transform="translate(417.25061 315.358437)scale(0.1 -0.1)">
       <defs>
        <path id="DejaVuSans-31" d="M 794 531 
L 1825 531 
L 1825 4091 
L 703 3866 
L 703 4441 
L 1819 4666 
L 2450 4666 
L 2450 531 
L 3481 531 
L 3481 0 
L 794 0 
L 794 531 
z
" transform="scale(0.015625)"/>
       </defs>
       <use xlink:href="#DejaVuSans-31"/>
       <use xlink:href="#DejaVuSans-30" x="63.623047"/>
       <use xlink:href="#DejaVuSans-30" x="127.246094"/>
       <use xlink:href="#DejaVuSans-30" x="190.869141"/>
       <use xlink:href="#DejaVuSans-30" x="254.492188"/>
      </g>
     </g>
    </g>
    <g id="text_7">
     <!-- Min basin elevation -->
     <g transform="translate(187.244215 330.55625)scale(0.12 -0.12)">
      <defs>
       <path id="DejaVuSans-Bold-4d" d="M 588 4666 
L 2119 4666 
L 3181 2169 
L 4250 4666 
L 5778 4666 
L 5778 0 
L 4641 0 
L 4641 3413 
L 3566 897 
L 2803 897 
L 1728 3413 
L 1728 0 
L 588 0 
L 588 4666 
z
" transform="scale(0.015625)"/>
       <path id="DejaVuSans-Bold-69" d="M 538 3500 
L 1656 3500 
L 1656 0 
L 538 0 
L 538 3500 
z
M 538 4863 
L 1656 4863 
L 1656 3950 
L 538 3950 
L 538 4863 
z
" transform="scale(0.015625)"/>
       <path id="DejaVuSans-Bold-6e" d="M 4056 2131 
L 4056 0 
L 2931 0 
L 2931 347 
L 2931 1631 
Q 2931 2084 2911 2256 
Q 2891 2428 2841 2509 
Q 2775 2619 2662 2680 
Q 2550 2741 2406 2741 
Q 2056 2741 1856 2470 
Q 1656 2200 1656 1722 
L 1656 0 
L 538 0 
L 538 3500 
L 1656 3500 
L 1656 2988 
Q 1909 3294 2193 3439 
Q 2478 3584 2822 3584 
Q 3428 3584 3742 3212 
Q 4056 2841 4056 2131 
z
" transform="scale(0.015625)"/>
       <path id="DejaVuSans-Bold-20" transform="scale(0.015625)"/>
       <path id="DejaVuSans-Bold-62" d="M 2400 722 
Q 2759 722 2948 984 
Q 3138 1247 3138 1747 
Q 3138 2247 2948 2509 
Q 2759 2772 2400 2772 
Q 2041 2772 1848 2508 
Q 1656 2244 1656 1747 
Q 1656 1250 1848 986 
Q 2041 722 2400 722 
z
M 1656 2988 
Q 1888 3294 2169 3439 
Q 2450 3584 2816 3584 
Q 3463 3584 3878 3070 
Q 4294 2556 4294 1747 
Q 4294 938 3878 423 
Q 3463 -91 2816 -91 
Q 2450 -91 2169 54 
Q 1888 200 1656 506 
L 1656 0 
L 538 0 
L 538 4863 
L 1656 4863 
L 1656 2988 
z
" transform="scale(0.015625)"/>
       <path id="DejaVuSans-Bold-61" d="M 2106 1575 
Q 1756 1575 1579 1456 
Q 1403 1338 1403 1106 
Q 1403 894 1545 773 
Q 1688 653 1941 653 
Q 2256 653 2472 879 
Q 2688 1106 2688 1447 
L 2688 1575 
L 2106 1575 
z
M 3816 1997 
L 3816 0 
L 2688 0 
L 2688 519 
Q 2463 200 2181 54 
Q 1900 -91 1497 -91 
Q 953 -91 614 226 
Q 275 544 275 1050 
Q 275 1666 698 1953 
Q 1122 2241 2028 2241 
L 2688 2241 
L 2688 2328 
Q 2688 2594 2478 2717 
Q 2269 2841 1825 2841 
Q 1466 2841 1156 2769 
Q 847 2697 581 2553 
L 581 3406 
Q 941 3494 1303 3539 
Q 1666 3584 2028 3584 
Q 2975 3584 3395 3211 
Q 3816 2838 3816 1997 
z
" transform="scale(0.015625)"/>
       <path id="DejaVuSans-Bold-73" d="M 3272 3391 
L 3272 2541 
Q 2913 2691 2578 2766 
Q 2244 2841 1947 2841 
Q 1628 2841 1473 2761 
Q 1319 2681 1319 2516 
Q 1319 2381 1436 2309 
Q 1553 2238 1856 2203 
L 2053 2175 
Q 2913 2066 3209 1816 
Q 3506 1566 3506 1031 
Q 3506 472 3093 190 
Q 2681 -91 1863 -91 
Q 1516 -91 1145 -36 
Q 775 19 384 128 
L 384 978 
Q 719 816 1070 734 
Q 1422 653 1784 653 
Q 2113 653 2278 743 
Q 2444 834 2444 1013 
Q 2444 1163 2330 1236 
Q 2216 1309 1875 1350 
L 1678 1375 
Q 931 1469 631 1722 
Q 331 1975 331 2491 
Q 331 3047 712 3315 
Q 1094 3584 1881 3584 
Q 2191 3584 2531 3537 
Q 2872 3491 3272 3391 
z
" transform="scale(0.015625)"/>
       <path id="DejaVuSans-Bold-65" d="M 4031 1759 
L 4031 1441 
L 1416 1441 
Q 1456 1047 1700 850 
Q 1944 653 2381 653 
Q 2734 653 3104 758 
Q 3475 863 3866 1075 
L 3866 213 
Q 3469 63 3072 -14 
Q 2675 -91 2278 -91 
Q 1328 -91 801 392 
Q 275 875 275 1747 
Q 275 2603 792 3093 
Q 1309 3584 2216 3584 
Q 3041 3584 3536 3087 
Q 4031 2591 4031 1759 
z
M 2881 2131 
Q 2881 2450 2695 2645 
Q 2509 2841 2209 2841 
Q 1884 2841 1681 2658 
Q 1478 2475 1428 2131 
L 2881 2131 
z
" transform="scale(0.015625)"/>
       <path id="DejaVuSans-Bold-6c" d="M 538 4863 
L 1656 4863 
L 1656 0 
L 538 0 
L 538 4863 
z
" transform="scale(0.015625)"/>
       <path id="DejaVuSans-Bold-76" d="M 97 3500 
L 1216 3500 
L 2088 1081 
L 2956 3500 
L 4078 3500 
L 2700 0 
L 1472 0 
L 97 3500 
z
" transform="scale(0.015625)"/>
       <path id="DejaVuSans-Bold-74" d="M 1759 4494 
L 1759 3500 
L 2913 3500 
L 2913 2700 
L 1759 2700 
L 1759 1216 
Q 1759 972 1856 886 
Q 1953 800 2241 800 
L 2816 800 
L 2816 0 
L 1856 0 
Q 1194 0 917 276 
Q 641 553 641 1216 
L 641 2700 
L 84 2700 
L 84 3500 
L 641 3500 
L 641 4494 
L 1759 4494 
z
" transform="scale(0.015625)"/>
       <path id="DejaVuSans-Bold-6f" d="M 2203 2784 
Q 1831 2784 1636 2517 
Q 1441 2250 1441 1747 
Q 1441 1244 1636 976 
Q 1831 709 2203 709 
Q 2569 709 2762 976 
Q 2956 1244 2956 1747 
Q 2956 2250 2762 2517 
Q 2569 2784 2203 2784 
z
M 2203 3584 
Q 3106 3584 3614 3096 
Q 4122 2609 4122 1747 
Q 4122 884 3614 396 
Q 3106 -91 2203 -91 
Q 1297 -91 786 396 
Q 275 884 275 1747 
Q 275 2609 786 3096 
Q 1297 3584 2203 3584 
z
" transform="scale(0.015625)"/>
      </defs>
      <use xlink:href="#DejaVuSans-Bold-4d"/>
      <use xlink:href="#DejaVuSans-Bold-69" x="99.511719"/>
      <use xlink:href="#DejaVuSans-Bold-6e" x="133.789062"/>
      <use xlink:href="#DejaVuSans-Bold-20" x="204.980469"/>
      <use xlink:href="#DejaVuSans-Bold-62" x="239.794922"/>
      <use xlink:href="#DejaVuSans-Bold-61" x="311.376953"/>
      <use xlink:href="#DejaVuSans-Bold-73" x="378.857422"/>
      <use xlink:href="#DejaVuSans-Bold-69" x="438.378906"/>
      <use xlink:href="#DejaVuSans-Bold-6e" x="472.65625"/>
      <use xlink:href="#DejaVuSans-Bold-20" x="543.847656"/>
      <use xlink:href="#DejaVuSans-Bold-65" x="578.662109"/>
      <use xlink:href="#DejaVuSans-Bold-6c" x="646.484375"/>
      <use xlink:href="#DejaVuSans-Bold-65" x="680.761719"/>
      <use xlink:href="#DejaVuSans-Bold-76" x="748.583984"/>
      <use xlink:href="#DejaVuSans-Bold-61" x="813.769531"/>
      <use xlink:href="#DejaVuSans-Bold-74" x="881.25"/>
      <use xlink:href="#DejaVuSans-Bold-69" x="929.052734"/>
      <use xlink:href="#DejaVuSans-Bold-6f" x="963.330078"/>
      <use xlink:href="#DejaVuSans-Bold-6e" x="1032.03125"/>
     </g>
    </g>
   </g>
   <g id="matplotlib.axis_2">
    <g id="ytick_1">
     <g id="line2d_7">
      <defs>
       <path id="m04a5333102" d="M 0 0 
L -3.5 0 
" style="stroke: #000000; stroke-width: 0.8"/>
      </defs>
      <g>
       <use xlink:href="#m04a5333102" x="60.05" y="288.310909" style="stroke: #000000; stroke-width: 0.8"/>
      </g>
     </g>
     <g id="text_8">
      <!-- 0 -->
      <g transform="translate(46.6875 292.110128)scale(0.1 -0.1)">
       <use xlink:href="#DejaVuSans-30"/>
      </g>
     </g>
    </g>
    <g id="ytick_2">
     <g id="line2d_8">
      <g>
       <use xlink:href="#m04a5333102" x="60.05" y="238.831215" style="stroke: #000000; stroke-width: 0.8"/>
      </g>
     </g>
     <g id="text_9">
      <!-- 500 -->
      <g transform="translate(33.9625 242.630434)scale(0.1 -0.1)">
       <defs>
        <path id="DejaVuSans-35" d="M 691 4666 
L 3169 4666 
L 3169 4134 
L 1269 4134 
L 1269 2991 
Q 1406 3038 1543 3061 
Q 1681 3084 1819 3084 
Q 2600 3084 3056 2656 
Q 3513 2228 3513 1497 
Q 3513 744 3044 326 
Q 2575 -91 1722 -91 
Q 1428 -91 1123 -41 
Q 819 9 494 109 
L 494 744 
Q 775 591 1075 516 
Q 1375 441 1709 441 
Q 2250 441 2565 725 
Q 2881 1009 2881 1497 
Q 2881 1984 2565 2268 
Q 2250 2553 1709 2553 
Q 1456 2553 1204 2497 
Q 953 2441 691 2322 
L 691 4666 
z
" transform="scale(0.015625)"/>
       </defs>
       <use xlink:href="#DejaVuSans-35"/>
       <use xlink:href="#DejaVuSans-30" x="63.623047"/>
       <use xlink:href="#DejaVuSans-30" x="127.246094"/>
      </g>
     </g>
    </g>
    <g id="ytick_3">
     <g id="line2d_9">
      <g>
       <use xlink:href="#m04a5333102" x="60.05" y="189.351522" style="stroke: #000000; stroke-width: 0.8"/>
      </g>
     </g>
     <g id="text_10">
      <!-- 1000 -->
      <g transform="translate(27.6 193.150741)scale(0.1 -0.1)">
       <use xlink:href="#DejaVuSans-31"/>
       <use xlink:href="#DejaVuSans-30" x="63.623047"/>
       <use xlink:href="#DejaVuSans-30" x="127.246094"/>
       <use xlink:href="#DejaVuSans-30" x="190.869141"/>
      </g>
     </g>
    </g>
    <g id="ytick_4">
     <g id="line2d_10">
      <g>
       <use xlink:href="#m04a5333102" x="60.05" y="139.871828" style="stroke: #000000; stroke-width: 0.8"/>
      </g>
     </g>
     <g id="text_11">
      <!-- 1500 -->
      <g transform="translate(27.6 143.671047)scale(0.1 -0.1)">
       <use xlink:href="#DejaVuSans-31"/>
       <use xlink:href="#DejaVuSans-35" x="63.623047"/>
       <use xlink:href="#DejaVuSans-30" x="127.246094"/>
       <use xlink:href="#DejaVuSans-30" x="190.869141"/>
      </g>
     </g>
    </g>
    <g id="ytick_5">
     <g id="line2d_11">
      <g>
       <use xlink:href="#m04a5333102" x="60.05" y="90.392135" style="stroke: #000000; stroke-width: 0.8"/>
      </g>
     </g>
     <g id="text_12">
      <!-- 2000 -->
      <g transform="translate(27.6 94.191353)scale(0.1 -0.1)">
       <use xlink:href="#DejaVuSans-32"/>
       <use xlink:href="#DejaVuSans-30" x="63.623047"/>
       <use xlink:href="#DejaVuSans-30" x="127.246094"/>
       <use xlink:href="#DejaVuSans-30" x="190.869141"/>
      </g>
     </g>
    </g>
    <g id="ytick_6">
     <g id="line2d_12">
      <g>
       <use xlink:href="#m04a5333102" x="60.05" y="40.912441" style="stroke: #000000; stroke-width: 0.8"/>
      </g>
     </g>
     <g id="text_13">
      <!-- 2500 -->
      <g transform="translate(27.6 44.71166)scale(0.1 -0.1)">
       <use xlink:href="#DejaVuSans-32"/>
       <use xlink:href="#DejaVuSans-35" x="63.623047"/>
       <use xlink:href="#DejaVuSans-30" x="127.246094"/>
       <use xlink:href="#DejaVuSans-30" x="190.869141"/>
      </g>
     </g>
    </g>
    <g id="text_14">
     <!-- Species richness -->
     <g transform="translate(21.104375 220.175)rotate(-90)scale(0.12 -0.12)">
      <defs>
       <path id="DejaVuSans-Bold-53" d="M 3834 4519 
L 3834 3531 
Q 3450 3703 3084 3790 
Q 2719 3878 2394 3878 
Q 1963 3878 1756 3759 
Q 1550 3641 1550 3391 
Q 1550 3203 1689 3098 
Q 1828 2994 2194 2919 
L 2706 2816 
Q 3484 2659 3812 2340 
Q 4141 2022 4141 1434 
Q 4141 663 3683 286 
Q 3225 -91 2284 -91 
Q 1841 -91 1394 -6 
Q 947 78 500 244 
L 500 1259 
Q 947 1022 1364 901 
Q 1781 781 2169 781 
Q 2563 781 2772 912 
Q 2981 1044 2981 1288 
Q 2981 1506 2839 1625 
Q 2697 1744 2272 1838 
L 1806 1941 
Q 1106 2091 782 2419 
Q 459 2747 459 3303 
Q 459 4000 909 4375 
Q 1359 4750 2203 4750 
Q 2588 4750 2994 4692 
Q 3400 4634 3834 4519 
z
" transform="scale(0.015625)"/>
       <path id="DejaVuSans-Bold-70" d="M 1656 506 
L 1656 -1331 
L 538 -1331 
L 538 3500 
L 1656 3500 
L 1656 2988 
Q 1888 3294 2169 3439 
Q 2450 3584 2816 3584 
Q 3463 3584 3878 3070 
Q 4294 2556 4294 1747 
Q 4294 938 3878 423 
Q 3463 -91 2816 -91 
Q 2450 -91 2169 54 
Q 1888 200 1656 506 
z
M 2400 2772 
Q 2041 2772 1848 2508 
Q 1656 2244 1656 1747 
Q 1656 1250 1848 986 
Q 2041 722 2400 722 
Q 2759 722 2948 984 
Q 3138 1247 3138 1747 
Q 3138 2247 2948 2509 
Q 2759 2772 2400 2772 
z
" transform="scale(0.015625)"/>
       <path id="DejaVuSans-Bold-63" d="M 3366 3391 
L 3366 2478 
Q 3138 2634 2908 2709 
Q 2678 2784 2431 2784 
Q 1963 2784 1702 2511 
Q 1441 2238 1441 1747 
Q 1441 1256 1702 982 
Q 1963 709 2431 709 
Q 2694 709 2930 787 
Q 3166 866 3366 1019 
L 3366 103 
Q 3103 6 2833 -42 
Q 2563 -91 2291 -91 
Q 1344 -91 809 395 
Q 275 881 275 1747 
Q 275 2613 809 3098 
Q 1344 3584 2291 3584 
Q 2566 3584 2833 3536 
Q 3100 3488 3366 3391 
z
" transform="scale(0.015625)"/>
       <path id="DejaVuSans-Bold-72" d="M 3138 2547 
Q 2991 2616 2845 2648 
Q 2700 2681 2553 2681 
Q 2122 2681 1889 2404 
Q 1656 2128 1656 1613 
L 1656 0 
L 538 0 
L 538 3500 
L 1656 3500 
L 1656 2925 
Q 1872 3269 2151 3426 
Q 2431 3584 2822 3584 
Q 2878 3584 2943 3579 
Q 3009 3575 3134 3559 
L 3138 2547 
z
" transform="scale(0.015625)"/>
       <path id="DejaVuSans-Bold-68" d="M 4056 2131 
L 4056 0 
L 2931 0 
L 2931 347 
L 2931 1625 
Q 2931 2084 2911 2256 
Q 2891 2428 2841 2509 
Q 2775 2619 2662 2680 
Q 2550 2741 2406 2741 
Q 2056 2741 1856 2470 
Q 1656 2200 1656 1722 
L 1656 0 
L 538 0 
L 538 4863 
L 1656 4863 
L 1656 2988 
Q 1909 3294 2193 3439 
Q 2478 3584 2822 3584 
Q 3428 3584 3742 3212 
Q 4056 2841 4056 2131 
z
" transform="scale(0.015625)"/>
      </defs>
      <use xlink:href="#DejaVuSans-Bold-53"/>
      <use xlink:href="#DejaVuSans-Bold-70" x="72.021484"/>
      <use xlink:href="#DejaVuSans-Bold-65" x="143.603516"/>
      <use xlink:href="#DejaVuSans-Bold-63" x="211.425781"/>
      <use xlink:href="#DejaVuSans-Bold-69" x="270.703125"/>
      <use xlink:href="#DejaVuSans-Bold-65" x="304.980469"/>
      <use xlink:href="#DejaVuSans-Bold-73" x="372.802734"/>
      <use xlink:href="#DejaVuSans-Bold-20" x="432.324219"/>
      <use xlink:href="#DejaVuSans-Bold-72" x="467.138672"/>
      <use xlink:href="#DejaVuSans-Bold-69" x="516.455078"/>
      <use xlink:href="#DejaVuSans-Bold-63" x="550.732422"/>
      <use xlink:href="#DejaVuSans-Bold-68" x="610.009766"/>
      <use xlink:href="#DejaVuSans-Bold-6e" x="681.201172"/>
      <use xlink:href="#DejaVuSans-Bold-65" x="752.392578"/>
      <use xlink:href="#DejaVuSans-Bold-73" x="820.214844"/>
      <use xlink:href="#DejaVuSans-Bold-73" x="879.736328"/>
     </g>
    </g>
   </g>
   <g id="line2d_13">
    <path d="M 77.630753 281.246155 
L 77.699374 281.64002 
L 78.815092 282.336113 
L 78.850647 282.343554 
L 80.287071 282.537244 
L 80.77062 282.578262 
L 82.975034 282.707089 
L 87.703858 282.857237 
L 88.948285 282.884419 
L 92.042287 282.940406 
L 94.032659 282.970147 
L 97.908161 283.018566 
L 102.210324 283.062119 
L 131.649917 283.236723 
L 148.262665 283.294863 
L 153.001088 283.308842 
L 160.805069 283.32998 
L 178.582601 283.371279 
L 181.427006 283.377175 
L 187.115817 283.388478 
L 215.204317 283.436564 
L 227.391527 283.454317 
L 250.04828 283.48364 
L 263.559204 283.499271 
L 312.482972 283.547348 
L 317.674012 283.551823 
L 350.313561 283.577836 
L 362.046732 283.5864 
L 416.090429 283.621603 
L 429.245803 283.629284 
" clip-path="url(#p63b0061c07)" style="fill: none; stroke: #0000ff; stroke-width: 1.5; stroke-linecap: square"/>
   </g>
   <g id="line2d_14">
    <path d="M 77.630753 286.175485 
L 77.699374 286.347805 
L 78.815092 286.640797 
L 78.850647 286.643848 
L 80.287071 286.722606 
L 80.77062 286.739129 
L 82.975034 286.790663 
L 87.703858 286.850032 
L 88.948285 286.8607 
L 92.042287 286.882592 
L 94.032659 286.894178 
L 97.908161 286.912977 
L 102.210324 286.929818 
L 131.649917 286.996677 
L 148.262665 287.018704 
L 153.001088 287.023983 
L 160.805069 287.031951 
L 178.582601 287.047475 
L 181.427006 287.049686 
L 187.115817 287.053922 
L 215.204317 287.071891 
L 227.391527 287.078504 
L 250.04828 287.089402 
L 263.559204 287.095199 
L 312.482972 287.112974 
L 317.674012 287.114624 
L 350.313561 287.124202 
L 362.046732 287.127351 
L 416.090429 287.140263 
L 429.245803 287.143074 
" clip-path="url(#p63b0061c07)" style="fill: none; stroke: #000000; stroke-width: 1.5; stroke-linecap: square"/>
   </g>
   <g id="line2d_15">
    <path d="M 77.630753 263.985243 
L 77.699374 264.952959 
L 78.815092 266.705327 
L 78.850647 266.724373 
L 80.287071 267.222583 
L 80.77062 267.328714 
L 82.975034 267.663495 
L 87.703858 268.056539 
L 88.948285 268.12803 
L 92.042287 268.275609 
L 94.032659 268.354189 
L 97.908161 268.482393 
L 102.210324 268.598005 
L 131.649917 269.064347 
L 148.262665 269.220666 
L 153.001088 269.258331 
L 160.805069 269.31534 
L 178.582601 269.426932 
L 181.427006 269.442886 
L 187.115817 269.473486 
L 215.204317 269.603893 
L 227.391527 269.652133 
L 250.04828 269.731927 
L 263.559204 269.774518 
L 312.482972 269.905777 
L 317.674012 269.918015 
L 350.313561 269.989214 
L 362.046732 270.012681 
L 416.090429 270.10927 
L 429.245803 270.130374 
" clip-path="url(#p63b0061c07)" style="fill: none; stroke: #ff0000; stroke-width: 1.5; stroke-linecap: square"/>
   </g>
   <g id="line2d_16">
    <path d="M 77.630753 167.346864 
L 77.699374 169.868106 
L 78.815092 174.565128 
L 78.850647 174.617168 
L 80.287071 175.986329 
L 80.77062 176.279998 
L 82.975034 177.211064 
L 87.703858 178.313485 
L 88.948285 178.51511 
L 92.042287 178.932409 
L 94.032659 179.15521 
L 97.908161 179.519617 
L 102.210324 179.849206 
L 131.649917 181.188207 
L 148.262665 181.640529 
L 153.001088 181.749779 
L 160.805069 181.915342 
L 178.582601 182.240112 
L 181.427006 182.286619 
L 187.115817 182.37587 
L 215.204317 182.757025 
L 227.391527 182.898346 
L 250.04828 183.13249 
L 263.559204 183.257665 
L 312.482972 183.644309 
L 317.674012 183.680423 
L 350.313561 183.890776 
L 362.046732 183.960193 
L 416.090429 184.246362 
L 429.245803 184.308984 
" clip-path="url(#p63b0061c07)" style="fill: none; stroke: #00bfbf; stroke-width: 1.5; stroke-linecap: square"/>
   </g>
   <g id="line2d_17">
    <path d="M 77.630753 284.437765 
L 77.699374 284.591712 
L 78.815092 284.870497 
L 78.850647 284.873528 
L 80.287071 284.952792 
L 80.77062 284.969677 
L 82.975034 285.022941 
L 87.703858 285.085476 
L 88.948285 285.096851 
L 92.042287 285.120332 
L 94.032659 285.132834 
L 97.908161 285.153233 
L 102.210324 285.171627 
L 131.649917 285.245828 
L 148.262665 285.2707 
L 153.001088 285.276693 
L 160.805069 285.285764 
L 178.582601 285.30352 
L 181.427006 285.306058 
L 187.115817 285.310927 
L 215.204317 285.331677 
L 227.391527 285.339353 
L 250.04828 285.35205 
L 263.559204 285.358827 
L 312.482972 285.379712 
L 317.674012 285.38166 
L 350.313561 285.392989 
L 362.046732 285.396723 
L 416.090429 285.412092 
L 429.245803 285.41545 
" clip-path="url(#p63b0061c07)" style="fill: none; stroke: #bf00bf; stroke-width: 1.5; stroke-linecap: square"/>
   </g>
   <g id="line2d_18">
    <path d="M 77.630753 287.553569 
L 77.699374 287.588962 
L 78.815092 287.65238 
L 78.850647 287.653064 
L 80.287071 287.670927 
L 80.77062 287.674723 
L 82.975034 287.686673 
L 87.703858 287.700659 
L 88.948285 287.703198 
L 92.042287 287.708433 
L 94.032659 287.711218 
L 97.908161 287.715757 
L 102.210324 287.719846 
L 131.649917 287.736296 
L 148.262665 287.741795 
L 153.001088 287.743118 
L 160.805069 287.745121 
L 178.582601 287.749037 
L 181.427006 287.749597 
L 187.115817 287.75067 
L 215.204317 287.75524 
L 227.391527 287.756929 
L 250.04828 287.759721 
L 263.559204 287.76121 
L 312.482972 287.765796 
L 317.674012 287.766224 
L 350.313561 287.768709 
L 362.046732 287.769527 
L 416.090429 287.772895 
L 429.245803 287.77363 
" clip-path="url(#p63b0061c07)" style="fill: none; stroke: #008000; stroke-width: 1.5; stroke-linecap: square"/>
   </g>
   <g id="line2d_19">
    <path d="M 77.630753 265.403792 
L 77.699374 266.341089 
L 78.815092 268.035461 
L 78.850647 268.053856 
L 80.287071 268.534848 
L 80.77062 268.637268 
L 82.975034 268.960245 
L 87.703858 269.339236 
L 88.948285 269.408149 
L 92.042287 269.550381 
L 94.032659 269.626102 
L 97.908161 269.749622 
L 102.210324 269.860991 
L 131.649917 270.310023 
L 148.262665 270.460468 
L 153.001088 270.496712 
L 160.805069 270.551568 
L 178.582601 270.658929 
L 181.427006 270.674277 
L 187.115817 270.703712 
L 215.204317 270.829144 
L 227.391527 270.875537 
L 250.04828 270.952268 
L 263.559204 270.99322 
L 312.482972 271.119411 
L 317.674012 271.131174 
L 350.313561 271.199613 
L 362.046732 271.222168 
L 416.090429 271.314995 
L 429.245803 271.335274 
" clip-path="url(#p63b0061c07)" style="fill: none; stroke: #bfbf00; stroke-width: 1.5; stroke-linecap: square"/>
   </g>
   <g id="line2d_20">
    <path d="M 77.630753 255.606919 
L 77.699374 256.644266 
L 78.815092 258.545676 
L 78.850647 258.566513 
L 80.287071 259.112914 
L 80.77062 259.229652 
L 82.975034 259.598695 
L 87.703858 260.03354 
L 88.948285 260.112821 
L 92.042287 260.276662 
L 94.032659 260.364003 
L 97.908161 260.506652 
L 102.210324 260.635453 
L 131.649917 261.156591 
L 148.262665 261.331857 
L 153.001088 261.37413 
L 160.805069 261.43815 
L 178.582601 261.563577 
L 181.427006 261.581521 
L 187.115817 261.615947 
L 215.204317 261.762791 
L 227.391527 261.817165 
L 250.04828 261.907168 
L 263.559204 261.955241 
L 312.482972 262.103538 
L 317.674012 262.117374 
L 350.313561 262.197918 
L 362.046732 262.224479 
L 416.090429 262.333876 
L 429.245803 262.357794 
" clip-path="url(#p63b0061c07)" style="fill: none; stroke: #9467bd; stroke-width: 1.5; stroke-linecap: square"/>
   </g>
   <g id="line2d_21">
    <path d="M 77.630753 287.48097 
L 77.699374 287.47701 
L 78.815092 287.469351 
L 78.850647 287.469264 
L 80.287071 287.466957 
L 80.77062 287.466457 
L 82.975034 287.464863 
L 87.703858 287.462955 
L 88.948285 287.462603 
L 92.042287 287.461873 
L 94.032659 287.461482 
L 97.908161 287.46084 
L 102.210324 287.460257 
L 131.649917 287.457866 
L 148.262665 287.45705 
L 153.001088 287.456852 
L 160.805069 287.456552 
L 178.582601 287.455961 
L 181.427006 287.455877 
L 187.115817 287.455714 
L 215.204317 287.455017 
L 227.391527 287.454758 
L 250.04828 287.454328 
L 263.559204 287.454097 
L 312.482972 287.453383 
L 317.674012 287.453316 
L 350.313561 287.452926 
L 362.046732 287.452797 
L 416.090429 287.452265 
L 429.245803 287.452148 
" clip-path="url(#p63b0061c07)" style="fill: none; stroke: #8c564b; stroke-width: 1.5; stroke-linecap: square"/>
   </g>
   <g id="line2d_22">
    <path d="M 77.630753 72.505476 
L 77.699374 78.710981 
L 78.815092 90.136044 
L 78.850647 90.261625 
L 80.287071 93.557655 
L 80.77062 94.262607 
L 82.975034 96.492924 
L 87.703858 99.124416 
L 88.948285 99.604601 
L 92.042287 100.597354 
L 94.032659 101.126798 
L 97.908161 101.991848 
L 102.210324 102.773283 
L 131.649917 105.938554 
L 148.262665 107.00437 
L 153.001088 107.261539 
L 160.805069 107.65107 
L 178.582601 108.414499 
L 181.427006 108.523748 
L 187.115817 108.733356 
L 215.204317 109.627739 
L 227.391527 109.959034 
L 250.04828 110.507555 
L 263.559204 110.800606 
L 312.482972 111.704939 
L 317.674012 111.789342 
L 350.313561 112.280735 
L 362.046732 112.442815 
L 416.090429 113.110537 
L 429.245803 113.256558 
" clip-path="url(#p63b0061c07)" style="fill: none; stroke: #ff7f0e; stroke-width: 1.5; stroke-linecap: square"/>
   </g>
   <g id="patch_3">
    <path d="M 60.05 300.76 
L 60.05 26.88 
" style="fill: none; stroke: #000000; stroke-width: 0.8; stroke-linejoin: miter; stroke-linecap: square"/>
   </g>
   <g id="patch_4">
    <path d="M 446.826555 300.76 
L 446.826555 26.88 
" style="fill: none; stroke: #000000; stroke-width: 0.8; stroke-linejoin: miter; stroke-linecap: square"/>
   </g>
   <g id="patch_5">
    <path d="M 60.05 300.76 
L 446.826555 300.76 
" style="fill: none; stroke: #000000; stroke-width: 0.8; stroke-linejoin: miter; stroke-linecap: square"/>
   </g>
   <g id="patch_6">
    <path d="M 60.05 26.88 
L 446.826555 26.88 
" style="fill: none; stroke: #000000; stroke-width: 0.8; stroke-linejoin: miter; stroke-linecap: square"/>
   </g>
   <g id="text_15">
    <!-- SR vs. Min basin elevation -->
    <g transform="translate(174.750153 20.88)scale(0.12 -0.12)">
     <defs>
      <path id="DejaVuSans-53" d="M 3425 4513 
L 3425 3897 
Q 3066 4069 2747 4153 
Q 2428 4238 2131 4238 
Q 1616 4238 1336 4038 
Q 1056 3838 1056 3469 
Q 1056 3159 1242 3001 
Q 1428 2844 1947 2747 
L 2328 2669 
Q 3034 2534 3370 2195 
Q 3706 1856 3706 1288 
Q 3706 609 3251 259 
Q 2797 -91 1919 -91 
Q 1588 -91 1214 -16 
Q 841 59 441 206 
L 441 856 
Q 825 641 1194 531 
Q 1563 422 1919 422 
Q 2459 422 2753 634 
Q 3047 847 3047 1241 
Q 3047 1584 2836 1778 
Q 2625 1972 2144 2069 
L 1759 2144 
Q 1053 2284 737 2584 
Q 422 2884 422 3419 
Q 422 4038 858 4394 
Q 1294 4750 2059 4750 
Q 2388 4750 2728 4690 
Q 3069 4631 3425 4513 
z
" transform="scale(0.015625)"/>
      <path id="DejaVuSans-52" d="M 2841 2188 
Q 3044 2119 3236 1894 
Q 3428 1669 3622 1275 
L 4263 0 
L 3584 0 
L 2988 1197 
Q 2756 1666 2539 1819 
Q 2322 1972 1947 1972 
L 1259 1972 
L 1259 0 
L 628 0 
L 628 4666 
L 2053 4666 
Q 2853 4666 3247 4331 
Q 3641 3997 3641 3322 
Q 3641 2881 3436 2590 
Q 3231 2300 2841 2188 
z
M 1259 4147 
L 1259 2491 
L 2053 2491 
Q 2509 2491 2742 2702 
Q 2975 2913 2975 3322 
Q 2975 3731 2742 3939 
Q 2509 4147 2053 4147 
L 1259 4147 
z
" transform="scale(0.015625)"/>
      <path id="DejaVuSans-20" transform="scale(0.015625)"/>
      <path id="DejaVuSans-76" d="M 191 3500 
L 800 3500 
L 1894 563 
L 2988 3500 
L 3597 3500 
L 2284 0 
L 1503 0 
L 191 3500 
z
" transform="scale(0.015625)"/>
      <path id="DejaVuSans-73" d="M 2834 3397 
L 2834 2853 
Q 2591 2978 2328 3040 
Q 2066 3103 1784 3103 
Q 1356 3103 1142 2972 
Q 928 2841 928 2578 
Q 928 2378 1081 2264 
Q 1234 2150 1697 2047 
L 1894 2003 
Q 2506 1872 2764 1633 
Q 3022 1394 3022 966 
Q 3022 478 2636 193 
Q 2250 -91 1575 -91 
Q 1294 -91 989 -36 
Q 684 19 347 128 
L 347 722 
Q 666 556 975 473 
Q 1284 391 1588 391 
Q 1994 391 2212 530 
Q 2431 669 2431 922 
Q 2431 1156 2273 1281 
Q 2116 1406 1581 1522 
L 1381 1569 
Q 847 1681 609 1914 
Q 372 2147 372 2553 
Q 372 3047 722 3315 
Q 1072 3584 1716 3584 
Q 2034 3584 2315 3537 
Q 2597 3491 2834 3397 
z
" transform="scale(0.015625)"/>
      <path id="DejaVuSans-2e" d="M 684 794 
L 1344 794 
L 1344 0 
L 684 0 
L 684 794 
z
" transform="scale(0.015625)"/>
      <path id="DejaVuSans-4d" d="M 628 4666 
L 1569 4666 
L 2759 1491 
L 3956 4666 
L 4897 4666 
L 4897 0 
L 4281 0 
L 4281 4097 
L 3078 897 
L 2444 897 
L 1241 4097 
L 1241 0 
L 628 0 
L 628 4666 
z
" transform="scale(0.015625)"/>
      <path id="DejaVuSans-69" d="M 603 3500 
L 1178 3500 
L 1178 0 
L 603 0 
L 603 3500 
z
M 603 4863 
L 1178 4863 
L 1178 4134 
L 603 4134 
L 603 4863 
z
" transform="scale(0.015625)"/>
      <path id="DejaVuSans-6e" d="M 3513 2113 
L 3513 0 
L 2938 0 
L 2938 2094 
Q 2938 2591 2744 2837 
Q 2550 3084 2163 3084 
Q 1697 3084 1428 2787 
Q 1159 2491 1159 1978 
L 1159 0 
L 581 0 
L 581 3500 
L 1159 3500 
L 1159 2956 
Q 1366 3272 1645 3428 
Q 1925 3584 2291 3584 
Q 2894 3584 3203 3211 
Q 3513 2838 3513 2113 
z
" transform="scale(0.015625)"/>
      <path id="DejaVuSans-62" d="M 3116 1747 
Q 3116 2381 2855 2742 
Q 2594 3103 2138 3103 
Q 1681 3103 1420 2742 
Q 1159 2381 1159 1747 
Q 1159 1113 1420 752 
Q 1681 391 2138 391 
Q 2594 391 2855 752 
Q 3116 1113 3116 1747 
z
M 1159 2969 
Q 1341 3281 1617 3432 
Q 1894 3584 2278 3584 
Q 2916 3584 3314 3078 
Q 3713 2572 3713 1747 
Q 3713 922 3314 415 
Q 2916 -91 2278 -91 
Q 1894 -91 1617 61 
Q 1341 213 1159 525 
L 1159 0 
L 581 0 
L 581 4863 
L 1159 4863 
L 1159 2969 
z
" transform="scale(0.015625)"/>
      <path id="DejaVuSans-61" d="M 2194 1759 
Q 1497 1759 1228 1600 
Q 959 1441 959 1056 
Q 959 750 1161 570 
Q 1363 391 1709 391 
Q 2188 391 2477 730 
Q 2766 1069 2766 1631 
L 2766 1759 
L 2194 1759 
z
M 3341 1997 
L 3341 0 
L 2766 0 
L 2766 531 
Q 2569 213 2275 61 
Q 1981 -91 1556 -91 
Q 1019 -91 701 211 
Q 384 513 384 1019 
Q 384 1609 779 1909 
Q 1175 2209 1959 2209 
L 2766 2209 
L 2766 2266 
Q 2766 2663 2505 2880 
Q 2244 3097 1772 3097 
Q 1472 3097 1187 3025 
Q 903 2953 641 2809 
L 641 3341 
Q 956 3463 1253 3523 
Q 1550 3584 1831 3584 
Q 2591 3584 2966 3190 
Q 3341 2797 3341 1997 
z
" transform="scale(0.015625)"/>
      <path id="DejaVuSans-65" d="M 3597 1894 
L 3597 1613 
L 953 1613 
Q 991 1019 1311 708 
Q 1631 397 2203 397 
Q 2534 397 2845 478 
Q 3156 559 3463 722 
L 3463 178 
Q 3153 47 2828 -22 
Q 2503 -91 2169 -91 
Q 1331 -91 842 396 
Q 353 884 353 1716 
Q 353 2575 817 3079 
Q 1281 3584 2069 3584 
Q 2775 3584 3186 3129 
Q 3597 2675 3597 1894 
z
M 3022 2063 
Q 3016 2534 2758 2815 
Q 2500 3097 2075 3097 
Q 1594 3097 1305 2825 
Q 1016 2553 972 2059 
L 3022 2063 
z
" transform="scale(0.015625)"/>
      <path id="DejaVuSans-6c" d="M 603 4863 
L 1178 4863 
L 1178 0 
L 603 0 
L 603 4863 
z
" transform="scale(0.015625)"/>
      <path id="DejaVuSans-74" d="M 1172 4494 
L 1172 3500 
L 2356 3500 
L 2356 3053 
L 1172 3053 
L 1172 1153 
Q 1172 725 1289 603 
Q 1406 481 1766 481 
L 2356 481 
L 2356 0 
L 1766 0 
Q 1100 0 847 248 
Q 594 497 594 1153 
L 594 3053 
L 172 3053 
L 172 3500 
L 594 3500 
L 594 4494 
L 1172 4494 
z
" transform="scale(0.015625)"/>
      <path id="DejaVuSans-6f" d="M 1959 3097 
Q 1497 3097 1228 2736 
Q 959 2375 959 1747 
Q 959 1119 1226 758 
Q 1494 397 1959 397 
Q 2419 397 2687 759 
Q 2956 1122 2956 1747 
Q 2956 2369 2687 2733 
Q 2419 3097 1959 3097 
z
M 1959 3584 
Q 2709 3584 3137 3096 
Q 3566 2609 3566 1747 
Q 3566 888 3137 398 
Q 2709 -91 1959 -91 
Q 1206 -91 779 398 
Q 353 888 353 1747 
Q 353 2609 779 3096 
Q 1206 3584 1959 3584 
z
" transform="scale(0.015625)"/>
     </defs>
     <use xlink:href="#DejaVuSans-53"/>
     <use xlink:href="#DejaVuSans-52" x="63.476562"/>
     <use xlink:href="#DejaVuSans-20" x="132.958984"/>
     <use xlink:href="#DejaVuSans-76" x="164.746094"/>
     <use xlink:href="#DejaVuSans-73" x="223.925781"/>
     <use xlink:href="#DejaVuSans-2e" x="276.025391"/>
     <use xlink:href="#DejaVuSans-20" x="307.8125"/>
     <use xlink:href="#DejaVuSans-4d" x="339.599609"/>
     <use xlink:href="#DejaVuSans-69" x="425.878906"/>
     <use xlink:href="#DejaVuSans-6e" x="453.662109"/>
     <use xlink:href="#DejaVuSans-20" x="517.041016"/>
     <use xlink:href="#DejaVuSans-62" x="548.828125"/>
     <use xlink:href="#DejaVuSans-61" x="612.304688"/>
     <use xlink:href="#DejaVuSans-73" x="673.583984"/>
     <use xlink:href="#DejaVuSans-69" x="725.683594"/>
     <use xlink:href="#DejaVuSans-6e" x="753.466797"/>
     <use xlink:href="#DejaVuSans-20" x="816.845703"/>
     <use xlink:href="#DejaVuSans-65" x="848.632812"/>
     <use xlink:href="#DejaVuSans-6c" x="910.15625"/>
     <use xlink:href="#DejaVuSans-65" x="937.939453"/>
     <use xlink:href="#DejaVuSans-76" x="999.462891"/>
     <use xlink:href="#DejaVuSans-61" x="1058.642578"/>
     <use xlink:href="#DejaVuSans-74" x="1119.921875"/>
     <use xlink:href="#DejaVuSans-69" x="1159.130859"/>
     <use xlink:href="#DejaVuSans-6f" x="1186.914062"/>
     <use xlink:href="#DejaVuSans-6e" x="1248.095703"/>
    </g>
   </g>
  </g>
 </g>
 <defs>
  <clipPath id="p63b0061c07">
   <rect x="60.05" y="26.88" width="386.776555" height="273.88"/>
  </clipPath>
 </defs>
</svg>
