<?xml version="1.0" encoding="utf-8" standalone="no"?>
<!DOCTYPE svg PUBLIC "-//W3C//DTD SVG 1.1//EN"
  "http://www.w3.org/Graphics/SVG/1.1/DTD/svg11.dtd">
<svg xmlns:xlink="http://www.w3.org/1999/xlink" width="460.8pt" height="345.6pt" viewBox="0 0 460.8 345.6" xmlns="http://www.w3.org/2000/svg" version="1.1">
 <metadata>
  <rdf:RDF xmlns:dc="http://purl.org/dc/elements/1.1/" xmlns:cc="http://creativecommons.org/ns#" xmlns:rdf="http://www.w3.org/1999/02/22-rdf-syntax-ns#">
   <cc:Work>
    <dc:type rdf:resource="http://purl.org/dc/dcmitype/StillImage"/>
    <dc:date>2024-04-07T18:51:42.064493</dc:date>
    <dc:format>image/svg+xml</dc:format>
    <dc:creator>
     <cc:Agent>
      <dc:title>Matplotlib v3.5.2, https://matplotlib.org/</dc:title>
     </cc:Agent>
    </dc:creator>
   </cc:Work>
  </rdf:RDF>
 </metadata>
 <defs>
  <style type="text/css">*{stroke-linejoin: round; stroke-linecap: butt}</style>
 </defs>
 <g id="figure_1">
  <g id="patch_1">
   <path d="M 0 345.6 
L 460.8 345.6 
L 460.8 0 
L 0 0 
z
" style="fill: #ffffff"/>
  </g>
  <g id="axes_1">
   <g id="patch_2">
    <path d="M 41.15 300.76 
L 300.4852 300.76 
L 300.4852 26.88 
L 41.15 26.88 
z
" style="fill: #ffffff"/>
   </g>
   <g id="PathCollection_1">
    <defs>
     <path id="m0c9b6fba34" d="M 0 2.236068 
C 0.593012 2.236068 1.161816 2.000462 1.581139 1.581139 
C 2.000462 1.161816 2.236068 0.593012 2.236068 0 
C 2.236068 -0.593012 2.000462 -1.161816 1.581139 -1.581139 
C 1.161816 -2.000462 0.593012 -2.236068 0 -2.236068 
C -0.593012 -2.236068 -1.161816 -2.000462 -1.581139 -1.581139 
C -2.000462 -1.161816 -2.236068 -0.593012 -2.236068 0 
C -2.236068 0.593012 -2.000462 1.161816 -1.581139 1.581139 
C -1.161816 2.000462 -0.593012 2.236068 0 2.236068 
z
" style="stroke: #0000ff"/>
    </defs>
    <g clip-path="url(#p0d570049b1)">
     <use xlink:href="#m0c9b6fba34" x="282.252774" y="161.118222" style="fill: #0000ff; stroke: #0000ff"/>
     <use xlink:href="#m0c9b6fba34" x="203.647411" y="153.912996" style="fill: #0000ff; stroke: #0000ff"/>
     <use xlink:href="#m0c9b6fba34" x="231.780821" y="143.743043" style="fill: #0000ff; stroke: #0000ff"/>
     <use xlink:href="#m0c9b6fba34" x="110.909604" y="168.379368" style="fill: #0000ff; stroke: #0000ff"/>
     <use xlink:href="#m0c9b6fba34" x="195.93846" y="149.891478" style="fill: #0000ff; stroke: #0000ff"/>
     <use xlink:href="#m0c9b6fba34" x="185.559855" y="151.837746" style="fill: #0000ff; stroke: #0000ff"/>
     <use xlink:href="#m0c9b6fba34" x="200.200857" y="146.66665" style="fill: #0000ff; stroke: #0000ff"/>
     <use xlink:href="#m0c9b6fba34" x="52.937964" y="167.046195" style="fill: #0000ff; stroke: #0000ff"/>
     <use xlink:href="#m0c9b6fba34" x="84.320693" y="219.483223" style="fill: #0000ff; stroke: #0000ff"/>
     <use xlink:href="#m0c9b6fba34" x="99.93657" y="186.251589" style="fill: #0000ff; stroke: #0000ff"/>
     <use xlink:href="#m0c9b6fba34" x="259.86177" y="130.938706" style="fill: #0000ff; stroke: #0000ff"/>
     <use xlink:href="#m0c9b6fba34" x="96.113362" y="172.757387" style="fill: #0000ff; stroke: #0000ff"/>
     <use xlink:href="#m0c9b6fba34" x="207.602682" y="168.379368" style="fill: #0000ff; stroke: #0000ff"/>
     <use xlink:href="#m0c9b6fba34" x="222.879741" y="146.328" style="fill: #0000ff; stroke: #0000ff"/>
     <use xlink:href="#m0c9b6fba34" x="172.336307" y="163.94219" style="fill: #0000ff; stroke: #0000ff"/>
     <use xlink:href="#m0c9b6fba34" x="226.689605" y="145.333478" style="fill: #0000ff; stroke: #0000ff"/>
     <use xlink:href="#m0c9b6fba34" x="190.490881" y="165.147139" style="fill: #0000ff; stroke: #0000ff"/>
     <use xlink:href="#m0c9b6fba34" x="237.190375" y="155.678242" style="fill: #0000ff; stroke: #0000ff"/>
     <use xlink:href="#m0c9b6fba34" x="117.676009" y="164.538871" style="fill: #0000ff; stroke: #0000ff"/>
     <use xlink:href="#m0c9b6fba34" x="87.761232" y="163.94219" style="fill: #0000ff; stroke: #0000ff"/>
     <use xlink:href="#m0c9b6fba34" x="186.500593" y="156.599627" style="fill: #0000ff; stroke: #0000ff"/>
     <use xlink:href="#m0c9b6fba34" x="288.241481" y="165.147139" style="fill: #0000ff; stroke: #0000ff"/>
     <use xlink:href="#m0c9b6fba34" x="225.016835" y="152.241943" style="fill: #0000ff; stroke: #0000ff"/>
     <use xlink:href="#m0c9b6fba34" x="97.378054" y="172.757387" style="fill: #0000ff; stroke: #0000ff"/>
     <use xlink:href="#m0c9b6fba34" x="163.815813" y="146.66665" style="fill: #0000ff; stroke: #0000ff"/>
     <use xlink:href="#m0c9b6fba34" x="268.279729" y="152.241943" style="fill: #0000ff; stroke: #0000ff"/>
     <use xlink:href="#m0c9b6fba34" x="121.484164" y="148.417096" style="fill: #0000ff; stroke: #0000ff"/>
     <use xlink:href="#m0c9b6fba34" x="174.919588" y="149.891478" style="fill: #0000ff; stroke: #0000ff"/>
     <use xlink:href="#m0c9b6fba34" x="101.21622" y="203.481697" style="fill: #0000ff; stroke: #0000ff"/>
     <use xlink:href="#m0c9b6fba34" x="288.697236" y="138.083585" style="fill: #0000ff; stroke: #0000ff"/>
     <use xlink:href="#m0c9b6fba34" x="176.151765" y="162.781878" style="fill: #0000ff; stroke: #0000ff"/>
     <use xlink:href="#m0c9b6fba34" x="221.853224" y="145.333478" style="fill: #0000ff; stroke: #0000ff"/>
    </g>
   </g>
   <g id="PathCollection_2">
    <defs>
     <path id="m164164d302" d="M -0 2.236068 
L 2.236068 -2.236068 
L -2.236068 -2.236068 
z
" style="stroke: #000000"/>
    </defs>
    <g clip-path="url(#p0d570049b1)">
     <use xlink:href="#m164164d302" x="282.252774" y="207.964306" style="stroke: #000000"/>
     <use xlink:href="#m164164d302" x="203.647411" y="207.964306" style="stroke: #000000"/>
     <use xlink:href="#m164164d302" x="231.780821" y="169.067854" style="stroke: #000000"/>
     <use xlink:href="#m164164d302" x="110.909604" y="213.197247" style="stroke: #000000"/>
     <use xlink:href="#m164164d302" x="195.93846" y="185.069379" style="stroke: #000000"/>
     <use xlink:href="#m164164d302" x="185.559855" y="187.480171" style="stroke: #000000"/>
     <use xlink:href="#m164164d302" x="200.200857" y="177.848265" style="stroke: #000000"/>
     <use xlink:href="#m164164d302" x="52.937964" y="227.355604" style="stroke: #000000"/>
     <use xlink:href="#m164164d302" x="84.320693" y="237.89554" style="stroke: #000000"/>
     <use xlink:href="#m164164d302" x="99.93657" y="266.598191" style="stroke: #000000"/>
     <use xlink:href="#m164164d302" x="259.86177" y="144.369561" style="stroke: #000000"/>
     <use xlink:href="#m164164d302" x="96.113362" y="227.355604" style="stroke: #000000"/>
     <use xlink:href="#m164164d302" x="207.602682" y="194.470105" style="stroke: #000000"/>
     <use xlink:href="#m164164d302" x="222.879741" y="178.783404" style="stroke: #000000"/>
     <use xlink:href="#m164164d302" x="172.336307" y="203.481697" style="stroke: #000000"/>
     <use xlink:href="#m164164d302" x="226.689605" y="168.379368" style="stroke: #000000"/>
     <use xlink:href="#m164164d302" x="190.490881" y="216.182822" style="stroke: #000000"/>
     <use xlink:href="#m164164d302" x="237.190375" y="196.076858" style="stroke: #000000"/>
     <use xlink:href="#m164164d302" x="117.676009" y="223.172756" style="stroke: #000000"/>
     <use xlink:href="#m164164d302" x="87.761232" y="219.483223" style="stroke: #000000"/>
     <use xlink:href="#m164164d302" x="186.500593" y="203.481697" style="stroke: #000000"/>
     <use xlink:href="#m164164d302" x="288.241481" y="227.355604" style="stroke: #000000"/>
     <use xlink:href="#m164164d302" x="225.016835" y="190.092086" style="stroke: #000000"/>
     <use xlink:href="#m164164d302" x="97.378054" y="237.89554" style="stroke: #000000"/>
     <use xlink:href="#m164164d302" x="163.815813" y="181.768979" style="stroke: #000000"/>
     <use xlink:href="#m164164d302" x="268.279729" y="192.941761" style="stroke: #000000"/>
     <use xlink:href="#m164164d302" x="121.484164" y="192.941761" style="stroke: #000000"/>
     <use xlink:href="#m164164d302" x="174.919588" y="174.364141" style="stroke: #000000"/>
     <use xlink:href="#m164164d302" x="288.697236" y="165.767453" style="stroke: #000000"/>
     <use xlink:href="#m164164d302" x="176.151765" y="237.89554" style="stroke: #000000"/>
     <use xlink:href="#m164164d302" x="221.853224" y="176.940235" style="stroke: #000000"/>
    </g>
   </g>
   <g id="PathCollection_3">
    <defs>
     <path id="mcb3d9790e0" d="M -0.855706 -2.065857 
L -2.065857 -0.855706 
L -2.065857 0.855706 
L -0.855706 2.065857 
L 0.855706 2.065857 
L 2.065857 0.855706 
L 2.065857 -0.855706 
L 0.855706 -2.065857 
z
" style="stroke: #ff0000"/>
    </defs>
    <g clip-path="url(#p0d570049b1)">
     <use xlink:href="#mcb3d9790e0" x="282.252774" y="132.850645" style="fill: #ff0000; stroke: #ff0000"/>
     <use xlink:href="#mcb3d9790e0" x="203.647411" y="116.370868" style="fill: #ff0000; stroke: #ff0000"/>
     <use xlink:href="#mcb3d9790e0" x="231.780821" y="112.252807" style="fill: #ff0000; stroke: #ff0000"/>
     <use xlink:href="#mcb3d9790e0" x="110.909604" y="112.595158" style="fill: #ff0000; stroke: #ff0000"/>
     <use xlink:href="#mcb3d9790e0" x="195.93846" y="114.123502" style="fill: #ff0000; stroke: #ff0000"/>
     <use xlink:href="#mcb3d9790e0" x="185.559855" y="109.3292" style="fill: #ff0000; stroke: #ff0000"/>
     <use xlink:href="#mcb3d9790e0" x="200.200857" y="114.244214" style="fill: #ff0000; stroke: #ff0000"/>
     <use xlink:href="#mcb3d9790e0" x="52.937964" y="118.375272" style="fill: #ff0000; stroke: #ff0000"/>
     <use xlink:href="#mcb3d9790e0" x="84.320693" y="137.316408" style="fill: #ff0000; stroke: #ff0000"/>
     <use xlink:href="#mcb3d9790e0" x="99.93657" y="165.147139" style="fill: #ff0000; stroke: #ff0000"/>
     <use xlink:href="#mcb3d9790e0" x="259.86177" y="110.273739" style="fill: #ff0000; stroke: #ff0000"/>
     <use xlink:href="#mcb3d9790e0" x="96.113362" y="133.5148" style="fill: #ff0000; stroke: #ff0000"/>
     <use xlink:href="#mcb3d9790e0" x="207.602682" y="152.651423" style="fill: #ff0000; stroke: #ff0000"/>
     <use xlink:href="#mcb3d9790e0" x="222.879741" y="113.764131" style="fill: #ff0000; stroke: #ff0000"/>
     <use xlink:href="#mcb3d9790e0" x="172.336307" y="123.135094" style="fill: #ff0000; stroke: #ff0000"/>
     <use xlink:href="#mcb3d9790e0" x="226.689605" y="124.114075" style="fill: #ff0000; stroke: #ff0000"/>
     <use xlink:href="#mcb3d9790e0" x="190.490881" y="125.81693" style="fill: #ff0000; stroke: #ff0000"/>
     <use xlink:href="#mcb3d9790e0" x="237.190375" y="114.487044" style="fill: #ff0000; stroke: #ff0000"/>
     <use xlink:href="#mcb3d9790e0" x="117.676009" y="109.955718" style="fill: #ff0000; stroke: #ff0000"/>
     <use xlink:href="#mcb3d9790e0" x="87.761232" y="125.99242" style="fill: #ff0000; stroke: #ff0000"/>
     <use xlink:href="#mcb3d9790e0" x="186.500593" y="116.370868" style="fill: #ff0000; stroke: #ff0000"/>
     <use xlink:href="#mcb3d9790e0" x="288.241481" y="128.368035" style="fill: #ff0000; stroke: #ff0000"/>
     <use xlink:href="#mcb3d9790e0" x="225.016835" y="105.9978" style="fill: #ff0000; stroke: #ff0000"/>
     <use xlink:href="#mcb3d9790e0" x="97.378054" y="127.249172" style="fill: #ff0000; stroke: #ff0000"/>
     <use xlink:href="#mcb3d9790e0" x="163.815813" y="122.81545" style="fill: #ff0000; stroke: #ff0000"/>
     <use xlink:href="#mcb3d9790e0" x="268.279729" y="121.416094" style="fill: #ff0000; stroke: #ff0000"/>
     <use xlink:href="#mcb3d9790e0" x="121.484164" y="119.072958" style="fill: #ff0000; stroke: #ff0000"/>
     <use xlink:href="#mcb3d9790e0" x="174.919588" y="114.854854" style="fill: #ff0000; stroke: #ff0000"/>
     <use xlink:href="#mcb3d9790e0" x="101.21622" y="157.548937" style="fill: #ff0000; stroke: #ff0000"/>
     <use xlink:href="#mcb3d9790e0" x="288.697236" y="110.487561" style="fill: #ff0000; stroke: #ff0000"/>
     <use xlink:href="#mcb3d9790e0" x="176.151765" y="136.078111" style="fill: #ff0000; stroke: #ff0000"/>
     <use xlink:href="#mcb3d9790e0" x="221.853224" y="139.676717" style="fill: #ff0000; stroke: #ff0000"/>
    </g>
   </g>
   <g id="PathCollection_4">
    <defs>
     <path id="mc4210d82d4" d="M -2.236068 2.236068 
L 2.236068 2.236068 
L 2.236068 -2.236068 
L -2.236068 -2.236068 
z
" style="stroke: #00bfbf"/>
    </defs>
    <g clip-path="url(#p0d570049b1)">
     <use xlink:href="#mc4210d82d4" x="282.252774" y="68.376647" style="fill: #00bfbf; stroke: #00bfbf"/>
     <use xlink:href="#mc4210d82d4" x="203.647411" y="62.618876" style="fill: #00bfbf; stroke: #00bfbf"/>
     <use xlink:href="#mc4210d82d4" x="231.780821" y="64.46416" style="fill: #00bfbf; stroke: #00bfbf"/>
     <use xlink:href="#mc4210d82d4" x="110.909604" y="67.822211" style="fill: #00bfbf; stroke: #00bfbf"/>
     <use xlink:href="#mc4210d82d4" x="195.93846" y="64.340979" style="fill: #00bfbf; stroke: #00bfbf"/>
     <use xlink:href="#mc4210d82d4" x="185.559855" y="61.95114" style="fill: #00bfbf; stroke: #00bfbf"/>
     <use xlink:href="#mc4210d82d4" x="200.200857" y="61.95114" style="fill: #00bfbf; stroke: #00bfbf"/>
     <use xlink:href="#mc4210d82d4" x="52.937964" y="68.348691" style="fill: #00bfbf; stroke: #00bfbf"/>
     <use xlink:href="#mc4210d82d4" x="84.320693" y="65.981398" style="fill: #00bfbf; stroke: #00bfbf"/>
     <use xlink:href="#mc4210d82d4" x="99.93657" y="85.85761" style="fill: #00bfbf; stroke: #00bfbf"/>
     <use xlink:href="#mc4210d82d4" x="259.86177" y="61.476341" style="fill: #00bfbf; stroke: #00bfbf"/>
     <use xlink:href="#mc4210d82d4" x="96.113362" y="79.390015" style="fill: #00bfbf; stroke: #00bfbf"/>
     <use xlink:href="#mc4210d82d4" x="207.602682" y="62.433247" style="fill: #00bfbf; stroke: #00bfbf"/>
     <use xlink:href="#mc4210d82d4" x="222.879741" y="61.185984" style="fill: #00bfbf; stroke: #00bfbf"/>
     <use xlink:href="#mc4210d82d4" x="172.336307" y="71.398603" style="fill: #00bfbf; stroke: #00bfbf"/>
     <use xlink:href="#mc4210d82d4" x="226.689605" y="60.417373" style="fill: #00bfbf; stroke: #00bfbf"/>
     <use xlink:href="#mc4210d82d4" x="190.490881" y="68.601199" style="fill: #00bfbf; stroke: #00bfbf"/>
     <use xlink:href="#mc4210d82d4" x="237.190375" y="66.530282" style="fill: #00bfbf; stroke: #00bfbf"/>
     <use xlink:href="#mc4210d82d4" x="117.676009" y="65.672014" style="fill: #00bfbf; stroke: #00bfbf"/>
     <use xlink:href="#mc4210d82d4" x="87.761232" y="69.083784" style="fill: #00bfbf; stroke: #00bfbf"/>
     <use xlink:href="#mc4210d82d4" x="186.500593" y="65.062266" style="fill: #00bfbf; stroke: #00bfbf"/>
     <use xlink:href="#mc4210d82d4" x="288.241481" y="66.981771" style="fill: #00bfbf; stroke: #00bfbf"/>
     <use xlink:href="#mc4210d82d4" x="225.016835" y="63.492016" style="fill: #00bfbf; stroke: #00bfbf"/>
     <use xlink:href="#mc4210d82d4" x="97.378054" y="76.037979" style="fill: #00bfbf; stroke: #00bfbf"/>
     <use xlink:href="#mc4210d82d4" x="163.815813" y="66.821678" style="fill: #00bfbf; stroke: #00bfbf"/>
     <use xlink:href="#mc4210d82d4" x="268.279729" y="62.572365" style="fill: #00bfbf; stroke: #00bfbf"/>
     <use xlink:href="#mc4210d82d4" x="121.484164" y="66.583062" style="fill: #00bfbf; stroke: #00bfbf"/>
     <use xlink:href="#mc4210d82d4" x="174.919588" y="62.01956" style="fill: #00bfbf; stroke: #00bfbf"/>
     <use xlink:href="#mc4210d82d4" x="101.21622" y="86.152203" style="fill: #00bfbf; stroke: #00bfbf"/>
     <use xlink:href="#mc4210d82d4" x="288.697236" y="63.27738" style="fill: #00bfbf; stroke: #00bfbf"/>
     <use xlink:href="#mc4210d82d4" x="176.151765" y="65.87793" style="fill: #00bfbf; stroke: #00bfbf"/>
     <use xlink:href="#mc4210d82d4" x="221.853224" y="63.780505" style="fill: #00bfbf; stroke: #00bfbf"/>
    </g>
   </g>
   <g id="PathCollection_5">
    <defs>
     <path id="mf3518f6250" d="M 0 -2.236068 
L -2.126627 -0.690983 
L -1.314328 1.809017 
L 1.314328 1.809017 
L 2.126627 -0.690983 
z
" style="stroke: #bf00bf"/>
    </defs>
    <g clip-path="url(#p0d570049b1)">
     <use xlink:href="#mf3518f6250" x="282.252774" y="165.767453" style="fill: #bf00bf; stroke: #bf00bf"/>
     <use xlink:href="#mf3518f6250" x="203.647411" y="175.199519" style="fill: #bf00bf; stroke: #bf00bf"/>
     <use xlink:href="#mf3518f6250" x="231.780821" y="157.548937" style="fill: #bf00bf; stroke: #bf00bf"/>
     <use xlink:href="#mf3518f6250" x="110.909604" y="196.076858" style="fill: #bf00bf; stroke: #bf00bf"/>
     <use xlink:href="#mf3518f6250" x="195.93846" y="161.663015" style="fill: #bf00bf; stroke: #bf00bf"/>
     <use xlink:href="#mf3518f6250" x="185.559855" y="176.057787" style="fill: #bf00bf; stroke: #bf00bf"/>
     <use xlink:href="#mf3518f6250" x="200.200857" y="161.663015" style="fill: #bf00bf; stroke: #bf00bf"/>
     <use xlink:href="#mf3518f6250" x="52.937964" y="191.48453" style="fill: #bf00bf; stroke: #bf00bf"/>
     <use xlink:href="#mf3518f6250" x="84.320693" y="203.481697" style="fill: #bf00bf; stroke: #bf00bf"/>
     <use xlink:href="#mf3518f6250" x="99.93657" y="201.460039" style="fill: #bf00bf; stroke: #bf00bf"/>
     <use xlink:href="#mf3518f6250" x="259.86177" y="150.271178" style="fill: #bf00bf; stroke: #bf00bf"/>
     <use xlink:href="#mf3518f6250" x="96.113362" y="201.460039" style="fill: #bf00bf; stroke: #bf00bf"/>
     <use xlink:href="#mf3518f6250" x="207.602682" y="179.747321" style="fill: #bf00bf; stroke: #bf00bf"/>
     <use xlink:href="#mf3518f6250" x="222.879741" y="167.046195" style="fill: #bf00bf; stroke: #bf00bf"/>
     <use xlink:href="#mf3518f6250" x="172.336307" y="188.758913" style="fill: #bf00bf; stroke: #bf00bf"/>
     <use xlink:href="#mf3518f6250" x="226.689605" y="160.582742" style="fill: #bf00bf; stroke: #bf00bf"/>
     <use xlink:href="#mf3518f6250" x="190.490881" y="196.076858" style="fill: #bf00bf; stroke: #bf00bf"/>
     <use xlink:href="#mf3518f6250" x="237.190375" y="183.930169" style="fill: #bf00bf; stroke: #bf00bf"/>
     <use xlink:href="#mf3518f6250" x="117.676009" y="187.480171" style="fill: #bf00bf; stroke: #bf00bf"/>
     <use xlink:href="#mf3518f6250" x="87.761232" y="169.771812" style="fill: #bf00bf; stroke: #bf00bf"/>
     <use xlink:href="#mf3518f6250" x="186.500593" y="181.768979" style="fill: #bf00bf; stroke: #bf00bf"/>
     <use xlink:href="#mf3518f6250" x="288.241481" y="190.092086" style="fill: #bf00bf; stroke: #bf00bf"/>
     <use xlink:href="#mf3518f6250" x="225.016835" y="178.783404" style="fill: #bf00bf; stroke: #bf00bf"/>
     <use xlink:href="#mf3518f6250" x="97.378054" y="205.642887" style="fill: #bf00bf; stroke: #bf00bf"/>
     <use xlink:href="#mf3518f6250" x="163.815813" y="163.94219" style="fill: #bf00bf; stroke: #bf00bf"/>
     <use xlink:href="#mf3518f6250" x="268.279729" y="164.538871" style="fill: #bf00bf; stroke: #bf00bf"/>
     <use xlink:href="#mf3518f6250" x="121.484164" y="177.848265" style="fill: #bf00bf; stroke: #bf00bf"/>
     <use xlink:href="#mf3518f6250" x="174.919588" y="171.229044" style="fill: #bf00bf; stroke: #bf00bf"/>
     <use xlink:href="#mf3518f6250" x="101.21622" y="216.182822" style="fill: #bf00bf; stroke: #bf00bf"/>
     <use xlink:href="#mf3518f6250" x="288.697236" y="151.837746" style="fill: #bf00bf; stroke: #bf00bf"/>
     <use xlink:href="#mf3518f6250" x="176.151765" y="169.067854" style="fill: #bf00bf; stroke: #bf00bf"/>
     <use xlink:href="#mf3518f6250" x="221.853224" y="154.783186" style="fill: #bf00bf; stroke: #bf00bf"/>
    </g>
   </g>
   <g id="PathCollection_6">
    <defs>
     <path id="m84169650b6" d="M 0 -2.236068 
L -0.502029 -0.690983 
L -2.126627 -0.690983 
L -0.812299 0.263932 
L -1.314328 1.809017 
L -0 0.854102 
L 1.314328 1.809017 
L 0.812299 0.263932 
L 2.126627 -0.690983 
L 0.502029 -0.690983 
z
" style="stroke: #008000"/>
    </defs>
    <g clip-path="url(#p0d570049b1)">
     <use xlink:href="#m84169650b6" x="282.252774" y="227.355604" style="fill: #008000; stroke: #008000"/>
     <use xlink:href="#m84169650b6" x="203.647411" y="232.184348" style="fill: #008000; stroke: #008000"/>
     <use xlink:href="#m84169650b6" x="231.780821" y="227.355604" style="fill: #008000; stroke: #008000"/>
     <use xlink:href="#m84169650b6" x="110.909604" y="232.184348" style="fill: #008000; stroke: #008000"/>
     <use xlink:href="#m84169650b6" x="195.93846" y="237.89554" style="fill: #008000; stroke: #008000"/>
     <use xlink:href="#m84169650b6" x="185.559855" y="219.483223" style="fill: #008000; stroke: #008000"/>
     <use xlink:href="#m84169650b6" x="200.200857" y="232.184348" style="fill: #008000; stroke: #008000"/>
     <use xlink:href="#m84169650b6" x="52.937964" y="244.885474" style="fill: #008000; stroke: #008000"/>
     <use xlink:href="#m84169650b6" x="84.320693" y="237.89554" style="fill: #008000; stroke: #008000"/>
     <use xlink:href="#m84169650b6" x="99.93657" y="244.885474" style="fill: #008000; stroke: #008000"/>
     <use xlink:href="#m84169650b6" x="259.86177" y="213.197247" style="fill: #008000; stroke: #008000"/>
     <use xlink:href="#m84169650b6" x="96.113362" y="266.598191" style="fill: #008000; stroke: #008000"/>
     <use xlink:href="#m84169650b6" x="207.602682" y="219.483223" style="fill: #008000; stroke: #008000"/>
     <use xlink:href="#m84169650b6" x="222.879741" y="232.184348" style="fill: #008000; stroke: #008000"/>
     <use xlink:href="#m84169650b6" x="172.336307" y="223.172756" style="fill: #008000; stroke: #008000"/>
     <use xlink:href="#m84169650b6" x="226.689605" y="213.197247" style="fill: #008000; stroke: #008000"/>
     <use xlink:href="#m84169650b6" x="190.490881" y="266.598191" style="fill: #008000; stroke: #008000"/>
     <use xlink:href="#m84169650b6" x="237.190375" y="253.897066" style="fill: #008000; stroke: #008000"/>
     <use xlink:href="#m84169650b6" x="117.676009" y="266.598191" style="fill: #008000; stroke: #008000"/>
     <use xlink:href="#m84169650b6" x="87.761232" y="237.89554" style="fill: #008000; stroke: #008000"/>
     <use xlink:href="#m84169650b6" x="186.500593" y="227.355604" style="fill: #008000; stroke: #008000"/>
     <use xlink:href="#m84169650b6" x="288.241481" y="237.89554" style="fill: #008000; stroke: #008000"/>
     <use xlink:href="#m84169650b6" x="225.016835" y="232.184348" style="fill: #008000; stroke: #008000"/>
     <use xlink:href="#m84169650b6" x="97.378054" y="266.598191" style="fill: #008000; stroke: #008000"/>
     <use xlink:href="#m84169650b6" x="163.815813" y="216.182822" style="fill: #008000; stroke: #008000"/>
     <use xlink:href="#m84169650b6" x="268.279729" y="227.355604" style="fill: #008000; stroke: #008000"/>
     <use xlink:href="#m84169650b6" x="121.484164" y="237.89554" style="fill: #008000; stroke: #008000"/>
     <use xlink:href="#m84169650b6" x="174.919588" y="237.89554" style="fill: #008000; stroke: #008000"/>
     <use xlink:href="#m84169650b6" x="101.21622" y="288.310909" style="fill: #008000; stroke: #008000"/>
     <use xlink:href="#m84169650b6" x="288.697236" y="237.89554" style="fill: #008000; stroke: #008000"/>
     <use xlink:href="#m84169650b6" x="176.151765" y="223.172756" style="fill: #008000; stroke: #008000"/>
     <use xlink:href="#m84169650b6" x="221.853224" y="213.197247" style="fill: #008000; stroke: #008000"/>
    </g>
   </g>
   <g id="PathCollection_7">
    <defs>
     <path id="mde2c79b147" d="M 0 -2.236068 
L -1.936492 -1.118034 
L -1.936492 1.118034 
L -0 2.236068 
L 1.936492 1.118034 
L 1.936492 -1.118034 
z
" style="stroke: #bfbf00"/>
    </defs>
    <g clip-path="url(#p0d570049b1)">
     <use xlink:href="#mde2c79b147" x="282.252774" y="118.792016" style="fill: #bfbf00; stroke: #bfbf00"/>
     <use xlink:href="#mde2c79b147" x="203.647411" y="117.828099" style="fill: #bfbf00; stroke: #bfbf00"/>
     <use xlink:href="#mde2c79b147" x="231.780821" y="108.013262" style="fill: #bfbf00; stroke: #bfbf00"/>
     <use xlink:href="#mde2c79b147" x="110.909604" y="128.942819" style="fill: #bfbf00; stroke: #bfbf00"/>
     <use xlink:href="#mde2c79b147" x="195.93846" y="109.850424" style="fill: #bfbf00; stroke: #bfbf00"/>
     <use xlink:href="#mde2c79b147" x="185.559855" y="117.423902" style="fill: #bfbf00; stroke: #bfbf00"/>
     <use xlink:href="#mde2c79b147" x="200.200857" y="109.3292" style="fill: #bfbf00; stroke: #bfbf00"/>
     <use xlink:href="#mde2c79b147" x="52.937964" y="129.924869" style="fill: #bfbf00; stroke: #bfbf00"/>
     <use xlink:href="#mde2c79b147" x="84.320693" y="150.271178" style="fill: #bfbf00; stroke: #bfbf00"/>
     <use xlink:href="#mde2c79b147" x="99.93657" y="144.369561" style="fill: #bfbf00; stroke: #bfbf00"/>
     <use xlink:href="#mde2c79b147" x="259.86177" y="99.325509" style="fill: #bfbf00; stroke: #bfbf00"/>
     <use xlink:href="#mde2c79b147" x="96.113362" y="133.739352" style="fill: #bfbf00; stroke: #bfbf00"/>
     <use xlink:href="#mde2c79b147" x="207.602682" y="115.984931" style="fill: #bfbf00; stroke: #bfbf00"/>
     <use xlink:href="#mde2c79b147" x="222.879741" y="112.595158" style="fill: #bfbf00; stroke: #bfbf00"/>
     <use xlink:href="#mde2c79b147" x="172.336307" y="124.615283" style="fill: #bfbf00; stroke: #bfbf00"/>
     <use xlink:href="#mde2c79b147" x="226.689605" y="108.013262" style="fill: #bfbf00; stroke: #bfbf00"/>
     <use xlink:href="#mde2c79b147" x="190.490881" y="128.942819" style="fill: #bfbf00; stroke: #bfbf00"/>
     <use xlink:href="#mde2c79b147" x="237.190375" y="117.558056" style="fill: #bfbf00; stroke: #bfbf00"/>
     <use xlink:href="#mde2c79b147" x="117.676009" y="125.99242" style="fill: #bfbf00; stroke: #bfbf00"/>
     <use xlink:href="#mde2c79b147" x="87.761232" y="120.813674" style="fill: #bfbf00; stroke: #bfbf00"/>
     <use xlink:href="#mde2c79b147" x="186.500593" y="120.516754" style="fill: #bfbf00; stroke: #bfbf00"/>
     <use xlink:href="#mde2c79b147" x="288.241481" y="126.884926" style="fill: #bfbf00; stroke: #bfbf00"/>
     <use xlink:href="#mde2c79b147" x="225.016835" y="118.100491" style="fill: #bfbf00; stroke: #bfbf00"/>
     <use xlink:href="#mde2c79b147" x="97.378054" y="139.405504" style="fill: #bfbf00; stroke: #bfbf00"/>
     <use xlink:href="#mde2c79b147" x="163.815813" y="112.026634" style="fill: #bfbf00; stroke: #bfbf00"/>
     <use xlink:href="#mde2c79b147" x="268.279729" y="111.357751" style="fill: #bfbf00; stroke: #bfbf00"/>
     <use xlink:href="#mde2c79b147" x="121.484164" y="118.513571" style="fill: #bfbf00; stroke: #bfbf00"/>
     <use xlink:href="#mde2c79b147" x="174.919588" y="110.487561" style="fill: #bfbf00; stroke: #bfbf00"/>
     <use xlink:href="#mde2c79b147" x="101.21622" y="159.538484" style="fill: #bfbf00; stroke: #bfbf00"/>
     <use xlink:href="#mde2c79b147" x="288.697236" y="99.476109" style="fill: #bfbf00; stroke: #bfbf00"/>
     <use xlink:href="#mde2c79b147" x="176.151765" y="120.963197" style="fill: #bfbf00; stroke: #bfbf00"/>
     <use xlink:href="#mde2c79b147" x="221.853224" y="109.020579" style="fill: #bfbf00; stroke: #bfbf00"/>
    </g>
   </g>
   <g id="PathCollection_8">
    <defs>
     <path id="m400a84d608" d="M -2.236068 0 
L 2.236068 0 
M 0 2.236068 
L 0 -2.236068 
" style="stroke: #9467bd; stroke-width: 1.5"/>
    </defs>
    <g clip-path="url(#p0d570049b1)">
     <use xlink:href="#m400a84d608" x="282.252774" y="119.21438" style="fill: #9467bd; stroke: #9467bd; stroke-width: 1.5"/>
     <use xlink:href="#m400a84d608" x="203.647411" y="104.367817" style="fill: #9467bd; stroke: #9467bd; stroke-width: 1.5"/>
     <use xlink:href="#m400a84d608" x="231.780821" y="102.986885" style="fill: #9467bd; stroke: #9467bd; stroke-width: 1.5"/>
     <use xlink:href="#m400a84d608" x="110.909604" y="105.720178" style="fill: #9467bd; stroke: #9467bd; stroke-width: 1.5"/>
     <use xlink:href="#m400a84d608" x="195.93846" y="103.842808" style="fill: #9467bd; stroke: #9467bd; stroke-width: 1.5"/>
     <use xlink:href="#m400a84d608" x="185.559855" y="100.551086" style="fill: #9467bd; stroke: #9467bd; stroke-width: 1.5"/>
     <use xlink:href="#m400a84d608" x="200.200857" y="106.941391" style="fill: #9467bd; stroke: #9467bd; stroke-width: 1.5"/>
     <use xlink:href="#m400a84d608" x="52.937964" y="108.112549" style="fill: #9467bd; stroke: #9467bd; stroke-width: 1.5"/>
     <use xlink:href="#m400a84d608" x="84.320693" y="120.222622" style="fill: #9467bd; stroke: #9467bd; stroke-width: 1.5"/>
     <use xlink:href="#m400a84d608" x="99.93657" y="136.8152" style="fill: #9467bd; stroke: #9467bd; stroke-width: 1.5"/>
     <use xlink:href="#m400a84d608" x="259.86177" y="103.071432" style="fill: #9467bd; stroke: #9467bd; stroke-width: 1.5"/>
     <use xlink:href="#m400a84d608" x="96.113362" y="119.356443" style="fill: #9467bd; stroke: #9467bd; stroke-width: 1.5"/>
     <use xlink:href="#m400a84d608" x="207.602682" y="146.66665" style="fill: #9467bd; stroke: #9467bd; stroke-width: 1.5"/>
     <use xlink:href="#m400a84d608" x="222.879741" y="101.989724" style="fill: #9467bd; stroke: #9467bd; stroke-width: 1.5"/>
     <use xlink:href="#m400a84d608" x="172.336307" y="115.477635" style="fill: #9467bd; stroke: #9467bd; stroke-width: 1.5"/>
     <use xlink:href="#m400a84d608" x="226.689605" y="108.41231" style="fill: #9467bd; stroke: #9467bd; stroke-width: 1.5"/>
     <use xlink:href="#m400a84d608" x="190.490881" y="112.252807" style="fill: #9467bd; stroke: #9467bd; stroke-width: 1.5"/>
     <use xlink:href="#m400a84d608" x="237.190375" y="106.941391" style="fill: #9467bd; stroke: #9467bd; stroke-width: 1.5"/>
     <use xlink:href="#m400a84d608" x="117.676009" y="105.444995" style="fill: #9467bd; stroke: #9467bd; stroke-width: 1.5"/>
     <use xlink:href="#m400a84d608" x="87.761232" y="114.244214" style="fill: #9467bd; stroke: #9467bd; stroke-width: 1.5"/>
     <use xlink:href="#m400a84d608" x="186.500593" y="105.262873" style="fill: #9467bd; stroke: #9467bd; stroke-width: 1.5"/>
     <use xlink:href="#m400a84d608" x="288.241481" y="112.139517" style="fill: #9467bd; stroke: #9467bd; stroke-width: 1.5"/>
     <use xlink:href="#m400a84d608" x="225.016835" y="99.932304" style="fill: #9467bd; stroke: #9467bd; stroke-width: 1.5"/>
     <use xlink:href="#m400a84d608" x="97.378054" y="112.710112" style="fill: #9467bd; stroke: #9467bd; stroke-width: 1.5"/>
     <use xlink:href="#m400a84d608" x="163.815813" y="108.41231" style="fill: #9467bd; stroke: #9467bd; stroke-width: 1.5"/>
     <use xlink:href="#m400a84d608" x="268.279729" y="110.273739" style="fill: #9467bd; stroke: #9467bd; stroke-width: 1.5"/>
     <use xlink:href="#m400a84d608" x="121.484164" y="109.123115" style="fill: #9467bd; stroke: #9467bd; stroke-width: 1.5"/>
     <use xlink:href="#m400a84d608" x="174.919588" y="110.487561" style="fill: #9467bd; stroke: #9467bd; stroke-width: 1.5"/>
     <use xlink:href="#m400a84d608" x="101.21622" y="128.75005" style="fill: #9467bd; stroke: #9467bd; stroke-width: 1.5"/>
     <use xlink:href="#m400a84d608" x="288.697236" y="117.963999" style="fill: #9467bd; stroke: #9467bd; stroke-width: 1.5"/>
     <use xlink:href="#m400a84d608" x="176.151765" y="123.135094" style="fill: #9467bd; stroke: #9467bd; stroke-width: 1.5"/>
     <use xlink:href="#m400a84d608" x="221.853224" y="117.290321" style="fill: #9467bd; stroke: #9467bd; stroke-width: 1.5"/>
    </g>
   </g>
   <g id="PathCollection_9">
    <defs>
     <path id="m59a711fbfa" d="M -2.236068 2.236068 
L 2.236068 -2.236068 
M -2.236068 -2.236068 
L 2.236068 2.236068 
" style="stroke: #8c564b; stroke-width: 1.5"/>
    </defs>
    <g clip-path="url(#p0d570049b1)">
     <use xlink:href="#m59a711fbfa" x="282.252774" y="244.885474" style="fill: #8c564b; stroke: #8c564b; stroke-width: 1.5"/>
     <use xlink:href="#m59a711fbfa" x="203.647411" y="203.481697" style="fill: #8c564b; stroke: #8c564b; stroke-width: 1.5"/>
     <use xlink:href="#m59a711fbfa" x="231.780821" y="201.460039" style="fill: #8c564b; stroke: #8c564b; stroke-width: 1.5"/>
     <use xlink:href="#m59a711fbfa" x="110.909604" y="216.182822" style="fill: #8c564b; stroke: #8c564b; stroke-width: 1.5"/>
     <use xlink:href="#m59a711fbfa" x="195.93846" y="219.483223" style="fill: #8c564b; stroke: #8c564b; stroke-width: 1.5"/>
     <use xlink:href="#m59a711fbfa" x="185.559855" y="203.481697" style="fill: #8c564b; stroke: #8c564b; stroke-width: 1.5"/>
     <use xlink:href="#m59a711fbfa" x="200.200857" y="194.470105" style="fill: #8c564b; stroke: #8c564b; stroke-width: 1.5"/>
     <use xlink:href="#m59a711fbfa" x="52.937964" y="223.172756" style="fill: #8c564b; stroke: #8c564b; stroke-width: 1.5"/>
     <use xlink:href="#m59a711fbfa" x="84.320693" y="210.471631" style="fill: #8c564b; stroke: #8c564b; stroke-width: 1.5"/>
     <use xlink:href="#m59a711fbfa" x="99.93657" y="288.310909" style="fill: #8c564b; stroke: #8c564b; stroke-width: 1.5"/>
     <use xlink:href="#m59a711fbfa" x="259.86177" y="216.182822" style="fill: #8c564b; stroke: #8c564b; stroke-width: 1.5"/>
     <use xlink:href="#m59a711fbfa" x="96.113362" y="237.89554" style="fill: #8c564b; stroke: #8c564b; stroke-width: 1.5"/>
     <use xlink:href="#m59a711fbfa" x="207.602682" y="219.483223" style="fill: #8c564b; stroke: #8c564b; stroke-width: 1.5"/>
     <use xlink:href="#m59a711fbfa" x="222.879741" y="219.483223" style="fill: #8c564b; stroke: #8c564b; stroke-width: 1.5"/>
     <use xlink:href="#m59a711fbfa" x="172.336307" y="232.184348" style="fill: #8c564b; stroke: #8c564b; stroke-width: 1.5"/>
     <use xlink:href="#m59a711fbfa" x="226.689605" y="232.184348" style="fill: #8c564b; stroke: #8c564b; stroke-width: 1.5"/>
     <use xlink:href="#m59a711fbfa" x="190.490881" y="232.184348" style="fill: #8c564b; stroke: #8c564b; stroke-width: 1.5"/>
     <use xlink:href="#m59a711fbfa" x="237.190375" y="253.897066" style="fill: #8c564b; stroke: #8c564b; stroke-width: 1.5"/>
     <use xlink:href="#m59a711fbfa" x="117.676009" y="216.182822" style="fill: #8c564b; stroke: #8c564b; stroke-width: 1.5"/>
     <use xlink:href="#m59a711fbfa" x="87.761232" y="232.184348" style="fill: #8c564b; stroke: #8c564b; stroke-width: 1.5"/>
     <use xlink:href="#m59a711fbfa" x="186.500593" y="219.483223" style="fill: #8c564b; stroke: #8c564b; stroke-width: 1.5"/>
     <use xlink:href="#m59a711fbfa" x="288.241481" y="232.184348" style="fill: #8c564b; stroke: #8c564b; stroke-width: 1.5"/>
     <use xlink:href="#m59a711fbfa" x="225.016835" y="223.172756" style="fill: #8c564b; stroke: #8c564b; stroke-width: 1.5"/>
     <use xlink:href="#m59a711fbfa" x="97.378054" y="237.89554" style="fill: #8c564b; stroke: #8c564b; stroke-width: 1.5"/>
     <use xlink:href="#m59a711fbfa" x="163.815813" y="232.184348" style="fill: #8c564b; stroke: #8c564b; stroke-width: 1.5"/>
     <use xlink:href="#m59a711fbfa" x="268.279729" y="213.197247" style="fill: #8c564b; stroke: #8c564b; stroke-width: 1.5"/>
     <use xlink:href="#m59a711fbfa" x="121.484164" y="232.184348" style="fill: #8c564b; stroke: #8c564b; stroke-width: 1.5"/>
     <use xlink:href="#m59a711fbfa" x="174.919588" y="232.184348" style="fill: #8c564b; stroke: #8c564b; stroke-width: 1.5"/>
     <use xlink:href="#m59a711fbfa" x="101.21622" y="288.310909" style="fill: #8c564b; stroke: #8c564b; stroke-width: 1.5"/>
     <use xlink:href="#m59a711fbfa" x="288.697236" y="227.355604" style="fill: #8c564b; stroke: #8c564b; stroke-width: 1.5"/>
     <use xlink:href="#m59a711fbfa" x="176.151765" y="232.184348" style="fill: #8c564b; stroke: #8c564b; stroke-width: 1.5"/>
     <use xlink:href="#m59a711fbfa" x="221.853224" y="237.89554" style="fill: #8c564b; stroke: #8c564b; stroke-width: 1.5"/>
    </g>
   </g>
   <g id="PathCollection_10">
    <defs>
     <path id="m81b679b483" d="M 0 -2.236068 
L -2.236068 2.236068 
L 2.236068 2.236068 
z
" style="stroke: #ff7f0e"/>
    </defs>
    <g clip-path="url(#p0d570049b1)">
     <use xlink:href="#m81b679b483" x="282.252774" y="52.825846" style="fill: #ff7f0e; stroke: #ff7f0e"/>
     <use xlink:href="#m81b679b483" x="203.647411" y="45.591716" style="fill: #ff7f0e; stroke: #ff7f0e"/>
     <use xlink:href="#m81b679b483" x="231.780821" y="43.652939" style="fill: #ff7f0e; stroke: #ff7f0e"/>
     <use xlink:href="#m81b679b483" x="110.909604" y="50.104486" style="fill: #ff7f0e; stroke: #ff7f0e"/>
     <use xlink:href="#m81b679b483" x="195.93846" y="44.843943" style="fill: #ff7f0e; stroke: #ff7f0e"/>
     <use xlink:href="#m81b679b483" x="185.559855" y="43.526169" style="fill: #ff7f0e; stroke: #ff7f0e"/>
     <use xlink:href="#m81b679b483" x="200.200857" y="43.564146" style="fill: #ff7f0e; stroke: #ff7f0e"/>
     <use xlink:href="#m81b679b483" x="52.937964" y="51.672655" style="fill: #ff7f0e; stroke: #ff7f0e"/>
     <use xlink:href="#m81b679b483" x="84.320693" y="55.768889" style="fill: #ff7f0e; stroke: #ff7f0e"/>
     <use xlink:href="#m81b679b483" x="99.93657" y="73.01022" style="fill: #ff7f0e; stroke: #ff7f0e"/>
     <use xlink:href="#m81b679b483" x="259.86177" y="39.329091" style="fill: #ff7f0e; stroke: #ff7f0e"/>
     <use xlink:href="#m81b679b483" x="96.113362" y="62.363918" style="fill: #ff7f0e; stroke: #ff7f0e"/>
     <use xlink:href="#m81b679b483" x="207.602682" y="52.102221" style="fill: #ff7f0e; stroke: #ff7f0e"/>
     <use xlink:href="#m81b679b483" x="222.879741" y="43.01171" style="fill: #ff7f0e; stroke: #ff7f0e"/>
     <use xlink:href="#m81b679b483" x="172.336307" y="54.343126" style="fill: #ff7f0e; stroke: #ff7f0e"/>
     <use xlink:href="#m81b679b483" x="226.689605" y="43.488237" style="fill: #ff7f0e; stroke: #ff7f0e"/>
     <use xlink:href="#m81b679b483" x="190.490881" y="53.219874" style="fill: #ff7f0e; stroke: #ff7f0e"/>
     <use xlink:href="#m81b679b483" x="237.190375" y="48.285407" style="fill: #ff7f0e; stroke: #ff7f0e"/>
     <use xlink:href="#m81b679b483" x="117.676009" y="48.153142" style="fill: #ff7f0e; stroke: #ff7f0e"/>
     <use xlink:href="#m81b679b483" x="87.761232" y="52.504042" style="fill: #ff7f0e; stroke: #ff7f0e"/>
     <use xlink:href="#m81b679b483" x="186.500593" y="47.629595" style="fill: #ff7f0e; stroke: #ff7f0e"/>
     <use xlink:href="#m81b679b483" x="288.241481" y="52.18551" style="fill: #ff7f0e; stroke: #ff7f0e"/>
     <use xlink:href="#m81b679b483" x="225.016835" y="44.100718" style="fill: #ff7f0e; stroke: #ff7f0e"/>
     <use xlink:href="#m81b679b483" x="97.378054" y="59.183785" style="fill: #ff7f0e; stroke: #ff7f0e"/>
     <use xlink:href="#m81b679b483" x="163.815813" y="47.875735" style="fill: #ff7f0e; stroke: #ff7f0e"/>
     <use xlink:href="#m81b679b483" x="268.279729" y="45.835912" style="fill: #ff7f0e; stroke: #ff7f0e"/>
     <use xlink:href="#m81b679b483" x="121.484164" y="48.805148" style="fill: #ff7f0e; stroke: #ff7f0e"/>
     <use xlink:href="#m81b679b483" x="174.919588" y="44.712271" style="fill: #ff7f0e; stroke: #ff7f0e"/>
     <use xlink:href="#m81b679b483" x="101.21622" y="73.500447" style="fill: #ff7f0e; stroke: #ff7f0e"/>
     <use xlink:href="#m81b679b483" x="288.697236" y="43.024157" style="fill: #ff7f0e; stroke: #ff7f0e"/>
     <use xlink:href="#m81b679b483" x="176.151765" y="52.403102" style="fill: #ff7f0e; stroke: #ff7f0e"/>
     <use xlink:href="#m81b679b483" x="221.853224" y="47.64402" style="fill: #ff7f0e; stroke: #ff7f0e"/>
    </g>
   </g>
   <g id="matplotlib.axis_1">
    <g id="xtick_1">
     <g id="line2d_1">
      <defs>
       <path id="m6b765e9b80" d="M 0 0 
L 0 3.5 
" style="stroke: #000000; stroke-width: 0.8"/>
      </defs>
      <g>
       <use xlink:href="#m6b765e9b80" x="80.493519" y="300.76" style="stroke: #000000; stroke-width: 0.8"/>
      </g>
     </g>
     <g id="text_1">
      <!-- −2 -->
      <g transform="translate(73.122425 315.358437)scale(0.1 -0.1)">
       <defs>
        <path id="DejaVuSans-2212" d="M 678 2272 
L 4684 2272 
L 4684 1741 
L 678 1741 
L 678 2272 
z
" transform="scale(0.015625)"/>
        <path id="DejaVuSans-32" d="M 1228 531 
L 3431 531 
L 3431 0 
L 469 0 
L 469 531 
Q 828 903 1448 1529 
Q 2069 2156 2228 2338 
Q 2531 2678 2651 2914 
Q 2772 3150 2772 3378 
Q 2772 3750 2511 3984 
Q 2250 4219 1831 4219 
Q 1534 4219 1204 4116 
Q 875 4013 500 3803 
L 500 4441 
Q 881 4594 1212 4672 
Q 1544 4750 1819 4750 
Q 2544 4750 2975 4387 
Q 3406 4025 3406 3419 
Q 3406 3131 3298 2873 
Q 3191 2616 2906 2266 
Q 2828 2175 2409 1742 
Q 1991 1309 1228 531 
z
" transform="scale(0.015625)"/>
       </defs>
       <use xlink:href="#DejaVuSans-2212"/>
       <use xlink:href="#DejaVuSans-32" x="83.789062"/>
      </g>
     </g>
    </g>
    <g id="xtick_2">
     <g id="line2d_2">
      <g>
       <use xlink:href="#m6b765e9b80" x="141.750052" y="300.76" style="stroke: #000000; stroke-width: 0.8"/>
      </g>
     </g>
     <g id="text_2">
      <!-- −1 -->
      <g transform="translate(134.378958 315.358437)scale(0.1 -0.1)">
       <defs>
        <path id="DejaVuSans-31" d="M 794 531 
L 1825 531 
L 1825 4091 
L 703 3866 
L 703 4441 
L 1819 4666 
L 2450 4666 
L 2450 531 
L 3481 531 
L 3481 0 
L 794 0 
L 794 531 
z
" transform="scale(0.015625)"/>
       </defs>
       <use xlink:href="#DejaVuSans-2212"/>
       <use xlink:href="#DejaVuSans-31" x="83.789062"/>
      </g>
     </g>
    </g>
    <g id="xtick_3">
     <g id="line2d_3">
      <g>
       <use xlink:href="#m6b765e9b80" x="203.006585" y="300.76" style="stroke: #000000; stroke-width: 0.8"/>
      </g>
     </g>
     <g id="text_3">
      <!-- 0 -->
      <g transform="translate(199.825335 315.358437)scale(0.1 -0.1)">
       <defs>
        <path id="DejaVuSans-30" d="M 2034 4250 
Q 1547 4250 1301 3770 
Q 1056 3291 1056 2328 
Q 1056 1369 1301 889 
Q 1547 409 2034 409 
Q 2525 409 2770 889 
Q 3016 1369 3016 2328 
Q 3016 3291 2770 3770 
Q 2525 4250 2034 4250 
z
M 2034 4750 
Q 2819 4750 3233 4129 
Q 3647 3509 3647 2328 
Q 3647 1150 3233 529 
Q 2819 -91 2034 -91 
Q 1250 -91 836 529 
Q 422 1150 422 2328 
Q 422 3509 836 4129 
Q 1250 4750 2034 4750 
z
" transform="scale(0.015625)"/>
       </defs>
       <use xlink:href="#DejaVuSans-30"/>
      </g>
     </g>
    </g>
    <g id="xtick_4">
     <g id="line2d_4">
      <g>
       <use xlink:href="#m6b765e9b80" x="264.263118" y="300.76" style="stroke: #000000; stroke-width: 0.8"/>
      </g>
     </g>
     <g id="text_4">
      <!-- 1 -->
      <g transform="translate(261.081868 315.358437)scale(0.1 -0.1)">
       <use xlink:href="#DejaVuSans-31"/>
      </g>
     </g>
    </g>
    <g id="text_5">
     <!-- PctUrbMd2011Ws (in log10) -->
     <g transform="translate(75.903225 330.55625)scale(0.12 -0.12)">
      <defs>
       <path id="DejaVuSans-Bold-50" d="M 588 4666 
L 2584 4666 
Q 3475 4666 3951 4270 
Q 4428 3875 4428 3144 
Q 4428 2409 3951 2014 
Q 3475 1619 2584 1619 
L 1791 1619 
L 1791 0 
L 588 0 
L 588 4666 
z
M 1791 3794 
L 1791 2491 
L 2456 2491 
Q 2806 2491 2997 2661 
Q 3188 2831 3188 3144 
Q 3188 3456 2997 3625 
Q 2806 3794 2456 3794 
L 1791 3794 
z
" transform="scale(0.015625)"/>
       <path id="DejaVuSans-Bold-63" d="M 3366 3391 
L 3366 2478 
Q 3138 2634 2908 2709 
Q 2678 2784 2431 2784 
Q 1963 2784 1702 2511 
Q 1441 2238 1441 1747 
Q 1441 1256 1702 982 
Q 1963 709 2431 709 
Q 2694 709 2930 787 
Q 3166 866 3366 1019 
L 3366 103 
Q 3103 6 2833 -42 
Q 2563 -91 2291 -91 
Q 1344 -91 809 395 
Q 275 881 275 1747 
Q 275 2613 809 3098 
Q 1344 3584 2291 3584 
Q 2566 3584 2833 3536 
Q 3100 3488 3366 3391 
z
" transform="scale(0.015625)"/>
       <path id="DejaVuSans-Bold-74" d="M 1759 4494 
L 1759 3500 
L 2913 3500 
L 2913 2700 
L 1759 2700 
L 1759 1216 
Q 1759 972 1856 886 
Q 1953 800 2241 800 
L 2816 800 
L 2816 0 
L 1856 0 
Q 1194 0 917 276 
Q 641 553 641 1216 
L 641 2700 
L 84 2700 
L 84 3500 
L 641 3500 
L 641 4494 
L 1759 4494 
z
" transform="scale(0.015625)"/>
       <path id="DejaVuSans-Bold-55" d="M 588 4666 
L 1791 4666 
L 1791 1869 
Q 1791 1291 1980 1042 
Q 2169 794 2597 794 
Q 3028 794 3217 1042 
Q 3406 1291 3406 1869 
L 3406 4666 
L 4609 4666 
L 4609 1869 
Q 4609 878 4112 393 
Q 3616 -91 2597 -91 
Q 1581 -91 1084 393 
Q 588 878 588 1869 
L 588 4666 
z
" transform="scale(0.015625)"/>
       <path id="DejaVuSans-Bold-72" d="M 3138 2547 
Q 2991 2616 2845 2648 
Q 2700 2681 2553 2681 
Q 2122 2681 1889 2404 
Q 1656 2128 1656 1613 
L 1656 0 
L 538 0 
L 538 3500 
L 1656 3500 
L 1656 2925 
Q 1872 3269 2151 3426 
Q 2431 3584 2822 3584 
Q 2878 3584 2943 3579 
Q 3009 3575 3134 3559 
L 3138 2547 
z
" transform="scale(0.015625)"/>
       <path id="DejaVuSans-Bold-62" d="M 2400 722 
Q 2759 722 2948 984 
Q 3138 1247 3138 1747 
Q 3138 2247 2948 2509 
Q 2759 2772 2400 2772 
Q 2041 2772 1848 2508 
Q 1656 2244 1656 1747 
Q 1656 1250 1848 986 
Q 2041 722 2400 722 
z
M 1656 2988 
Q 1888 3294 2169 3439 
Q 2450 3584 2816 3584 
Q 3463 3584 3878 3070 
Q 4294 2556 4294 1747 
Q 4294 938 3878 423 
Q 3463 -91 2816 -91 
Q 2450 -91 2169 54 
Q 1888 200 1656 506 
L 1656 0 
L 538 0 
L 538 4863 
L 1656 4863 
L 1656 2988 
z
" transform="scale(0.015625)"/>
       <path id="DejaVuSans-Bold-4d" d="M 588 4666 
L 2119 4666 
L 3181 2169 
L 4250 4666 
L 5778 4666 
L 5778 0 
L 4641 0 
L 4641 3413 
L 3566 897 
L 2803 897 
L 1728 3413 
L 1728 0 
L 588 0 
L 588 4666 
z
" transform="scale(0.015625)"/>
       <path id="DejaVuSans-Bold-64" d="M 2919 2988 
L 2919 4863 
L 4044 4863 
L 4044 0 
L 2919 0 
L 2919 506 
Q 2688 197 2409 53 
Q 2131 -91 1766 -91 
Q 1119 -91 703 423 
Q 288 938 288 1747 
Q 288 2556 703 3070 
Q 1119 3584 1766 3584 
Q 2128 3584 2408 3439 
Q 2688 3294 2919 2988 
z
M 2181 722 
Q 2541 722 2730 984 
Q 2919 1247 2919 1747 
Q 2919 2247 2730 2509 
Q 2541 2772 2181 2772 
Q 1825 2772 1636 2509 
Q 1447 2247 1447 1747 
Q 1447 1247 1636 984 
Q 1825 722 2181 722 
z
" transform="scale(0.015625)"/>
       <path id="DejaVuSans-Bold-32" d="M 1844 884 
L 3897 884 
L 3897 0 
L 506 0 
L 506 884 
L 2209 2388 
Q 2438 2594 2547 2791 
Q 2656 2988 2656 3200 
Q 2656 3528 2436 3728 
Q 2216 3928 1850 3928 
Q 1569 3928 1234 3808 
Q 900 3688 519 3450 
L 519 4475 
Q 925 4609 1322 4679 
Q 1719 4750 2100 4750 
Q 2938 4750 3402 4381 
Q 3866 4013 3866 3353 
Q 3866 2972 3669 2642 
Q 3472 2313 2841 1759 
L 1844 884 
z
" transform="scale(0.015625)"/>
       <path id="DejaVuSans-Bold-30" d="M 2944 2338 
Q 2944 3213 2780 3570 
Q 2616 3928 2228 3928 
Q 1841 3928 1675 3570 
Q 1509 3213 1509 2338 
Q 1509 1453 1675 1090 
Q 1841 728 2228 728 
Q 2613 728 2778 1090 
Q 2944 1453 2944 2338 
z
M 4147 2328 
Q 4147 1169 3647 539 
Q 3147 -91 2228 -91 
Q 1306 -91 806 539 
Q 306 1169 306 2328 
Q 306 3491 806 4120 
Q 1306 4750 2228 4750 
Q 3147 4750 3647 4120 
Q 4147 3491 4147 2328 
z
" transform="scale(0.015625)"/>
       <path id="DejaVuSans-Bold-31" d="M 750 831 
L 1813 831 
L 1813 3847 
L 722 3622 
L 722 4441 
L 1806 4666 
L 2950 4666 
L 2950 831 
L 4013 831 
L 4013 0 
L 750 0 
L 750 831 
z
" transform="scale(0.015625)"/>
       <path id="DejaVuSans-Bold-57" d="M 191 4666 
L 1344 4666 
L 2150 1275 
L 2950 4666 
L 4109 4666 
L 4909 1275 
L 5716 4666 
L 6859 4666 
L 5759 0 
L 4372 0 
L 3525 3547 
L 2688 0 
L 1300 0 
L 191 4666 
z
" transform="scale(0.015625)"/>
       <path id="DejaVuSans-Bold-73" d="M 3272 3391 
L 3272 2541 
Q 2913 2691 2578 2766 
Q 2244 2841 1947 2841 
Q 1628 2841 1473 2761 
Q 1319 2681 1319 2516 
Q 1319 2381 1436 2309 
Q 1553 2238 1856 2203 
L 2053 2175 
Q 2913 2066 3209 1816 
Q 3506 1566 3506 1031 
Q 3506 472 3093 190 
Q 2681 -91 1863 -91 
Q 1516 -91 1145 -36 
Q 775 19 384 128 
L 384 978 
Q 719 816 1070 734 
Q 1422 653 1784 653 
Q 2113 653 2278 743 
Q 2444 834 2444 1013 
Q 2444 1163 2330 1236 
Q 2216 1309 1875 1350 
L 1678 1375 
Q 931 1469 631 1722 
Q 331 1975 331 2491 
Q 331 3047 712 3315 
Q 1094 3584 1881 3584 
Q 2191 3584 2531 3537 
Q 2872 3491 3272 3391 
z
" transform="scale(0.015625)"/>
       <path id="DejaVuSans-Bold-20" transform="scale(0.015625)"/>
       <path id="DejaVuSans-Bold-28" d="M 2413 -844 
L 1484 -844 
Q 1006 -72 778 623 
Q 550 1319 550 2003 
Q 550 2688 779 3389 
Q 1009 4091 1484 4856 
L 2413 4856 
Q 2013 4116 1813 3408 
Q 1613 2700 1613 2009 
Q 1613 1319 1811 609 
Q 2009 -100 2413 -844 
z
" transform="scale(0.015625)"/>
       <path id="DejaVuSans-Bold-69" d="M 538 3500 
L 1656 3500 
L 1656 0 
L 538 0 
L 538 3500 
z
M 538 4863 
L 1656 4863 
L 1656 3950 
L 538 3950 
L 538 4863 
z
" transform="scale(0.015625)"/>
       <path id="DejaVuSans-Bold-6e" d="M 4056 2131 
L 4056 0 
L 2931 0 
L 2931 347 
L 2931 1631 
Q 2931 2084 2911 2256 
Q 2891 2428 2841 2509 
Q 2775 2619 2662 2680 
Q 2550 2741 2406 2741 
Q 2056 2741 1856 2470 
Q 1656 2200 1656 1722 
L 1656 0 
L 538 0 
L 538 3500 
L 1656 3500 
L 1656 2988 
Q 1909 3294 2193 3439 
Q 2478 3584 2822 3584 
Q 3428 3584 3742 3212 
Q 4056 2841 4056 2131 
z
" transform="scale(0.015625)"/>
       <path id="DejaVuSans-Bold-6c" d="M 538 4863 
L 1656 4863 
L 1656 0 
L 538 0 
L 538 4863 
z
" transform="scale(0.015625)"/>
       <path id="DejaVuSans-Bold-6f" d="M 2203 2784 
Q 1831 2784 1636 2517 
Q 1441 2250 1441 1747 
Q 1441 1244 1636 976 
Q 1831 709 2203 709 
Q 2569 709 2762 976 
Q 2956 1244 2956 1747 
Q 2956 2250 2762 2517 
Q 2569 2784 2203 2784 
z
M 2203 3584 
Q 3106 3584 3614 3096 
Q 4122 2609 4122 1747 
Q 4122 884 3614 396 
Q 3106 -91 2203 -91 
Q 1297 -91 786 396 
Q 275 884 275 1747 
Q 275 2609 786 3096 
Q 1297 3584 2203 3584 
z
" transform="scale(0.015625)"/>
       <path id="DejaVuSans-Bold-67" d="M 2919 594 
Q 2688 288 2409 144 
Q 2131 0 1766 0 
Q 1125 0 706 504 
Q 288 1009 288 1791 
Q 288 2575 706 3076 
Q 1125 3578 1766 3578 
Q 2131 3578 2409 3434 
Q 2688 3291 2919 2981 
L 2919 3500 
L 4044 3500 
L 4044 353 
Q 4044 -491 3511 -936 
Q 2978 -1381 1966 -1381 
Q 1638 -1381 1331 -1331 
Q 1025 -1281 716 -1178 
L 716 -306 
Q 1009 -475 1290 -558 
Q 1572 -641 1856 -641 
Q 2406 -641 2662 -400 
Q 2919 -159 2919 353 
L 2919 594 
z
M 2181 2772 
Q 1834 2772 1640 2515 
Q 1447 2259 1447 1791 
Q 1447 1309 1634 1061 
Q 1822 813 2181 813 
Q 2531 813 2725 1069 
Q 2919 1325 2919 1791 
Q 2919 2259 2725 2515 
Q 2531 2772 2181 2772 
z
" transform="scale(0.015625)"/>
       <path id="DejaVuSans-Bold-29" d="M 513 -844 
Q 913 -100 1113 609 
Q 1313 1319 1313 2009 
Q 1313 2700 1113 3408 
Q 913 4116 513 4856 
L 1441 4856 
Q 1916 4091 2145 3389 
Q 2375 2688 2375 2003 
Q 2375 1319 2147 623 
Q 1919 -72 1441 -844 
L 513 -844 
z
" transform="scale(0.015625)"/>
      </defs>
      <use xlink:href="#DejaVuSans-Bold-50"/>
      <use xlink:href="#DejaVuSans-Bold-63" x="73.291016"/>
      <use xlink:href="#DejaVuSans-Bold-74" x="132.568359"/>
      <use xlink:href="#DejaVuSans-Bold-55" x="180.371094"/>
      <use xlink:href="#DejaVuSans-Bold-72" x="261.572266"/>
      <use xlink:href="#DejaVuSans-Bold-62" x="310.888672"/>
      <use xlink:href="#DejaVuSans-Bold-4d" x="382.470703"/>
      <use xlink:href="#DejaVuSans-Bold-64" x="481.982422"/>
      <use xlink:href="#DejaVuSans-Bold-32" x="553.564453"/>
      <use xlink:href="#DejaVuSans-Bold-30" x="623.144531"/>
      <use xlink:href="#DejaVuSans-Bold-31" x="692.724609"/>
      <use xlink:href="#DejaVuSans-Bold-31" x="762.304688"/>
      <use xlink:href="#DejaVuSans-Bold-57" x="831.884766"/>
      <use xlink:href="#DejaVuSans-Bold-73" x="942.1875"/>
      <use xlink:href="#DejaVuSans-Bold-20" x="1001.708984"/>
      <use xlink:href="#DejaVuSans-Bold-28" x="1036.523438"/>
      <use xlink:href="#DejaVuSans-Bold-69" x="1082.226562"/>
      <use xlink:href="#DejaVuSans-Bold-6e" x="1116.503906"/>
      <use xlink:href="#DejaVuSans-Bold-20" x="1187.695312"/>
      <use xlink:href="#DejaVuSans-Bold-6c" x="1222.509766"/>
      <use xlink:href="#DejaVuSans-Bold-6f" x="1256.787109"/>
      <use xlink:href="#DejaVuSans-Bold-67" x="1325.488281"/>
      <use xlink:href="#DejaVuSans-Bold-31" x="1397.070312"/>
      <use xlink:href="#DejaVuSans-Bold-30" x="1466.650391"/>
      <use xlink:href="#DejaVuSans-Bold-29" x="1536.230469"/>
     </g>
    </g>
   </g>
   <g id="matplotlib.axis_2">
    <g id="ytick_1">
     <g id="line2d_5">
      <defs>
       <path id="mb484d136d8" d="M 0 0 
L -3.5 0 
" style="stroke: #000000; stroke-width: 0.8"/>
      </defs>
      <g>
       <use xlink:href="#mb484d136d8" x="41.15" y="288.310909" style="stroke: #000000; stroke-width: 0.8"/>
      </g>
     </g>
     <g id="text_6">
      <!-- 0 -->
      <g transform="translate(27.7875 292.110128)scale(0.1 -0.1)">
       <use xlink:href="#DejaVuSans-30"/>
      </g>
     </g>
    </g>
    <g id="ytick_2">
     <g id="line2d_6">
      <g>
       <use xlink:href="#mb484d136d8" x="41.15" y="256.986079" style="stroke: #000000; stroke-width: 0.8"/>
      </g>
     </g>
     <g id="text_7">
      <!-- 1 -->
      <g transform="translate(27.7875 260.785298)scale(0.1 -0.1)">
       <use xlink:href="#DejaVuSans-31"/>
      </g>
     </g>
    </g>
    <g id="ytick_3">
     <g id="line2d_7">
      <g>
       <use xlink:href="#mb484d136d8" x="41.15" y="225.661249" style="stroke: #000000; stroke-width: 0.8"/>
      </g>
     </g>
     <g id="text_8">
      <!-- 2 -->
      <g transform="translate(27.7875 229.460468)scale(0.1 -0.1)">
       <use xlink:href="#DejaVuSans-32"/>
      </g>
     </g>
    </g>
    <g id="ytick_4">
     <g id="line2d_8">
      <g>
       <use xlink:href="#mb484d136d8" x="41.15" y="194.336419" style="stroke: #000000; stroke-width: 0.8"/>
      </g>
     </g>
     <g id="text_9">
      <!-- 3 -->
      <g transform="translate(27.7875 198.135638)scale(0.1 -0.1)">
       <defs>
        <path id="DejaVuSans-33" d="M 2597 2516 
Q 3050 2419 3304 2112 
Q 3559 1806 3559 1356 
Q 3559 666 3084 287 
Q 2609 -91 1734 -91 
Q 1441 -91 1130 -33 
Q 819 25 488 141 
L 488 750 
Q 750 597 1062 519 
Q 1375 441 1716 441 
Q 2309 441 2620 675 
Q 2931 909 2931 1356 
Q 2931 1769 2642 2001 
Q 2353 2234 1838 2234 
L 1294 2234 
L 1294 2753 
L 1863 2753 
Q 2328 2753 2575 2939 
Q 2822 3125 2822 3475 
Q 2822 3834 2567 4026 
Q 2313 4219 1838 4219 
Q 1578 4219 1281 4162 
Q 984 4106 628 3988 
L 628 4550 
Q 988 4650 1302 4700 
Q 1616 4750 1894 4750 
Q 2613 4750 3031 4423 
Q 3450 4097 3450 3541 
Q 3450 3153 3228 2886 
Q 3006 2619 2597 2516 
z
" transform="scale(0.015625)"/>
       </defs>
       <use xlink:href="#DejaVuSans-33"/>
      </g>
     </g>
    </g>
    <g id="ytick_5">
     <g id="line2d_9">
      <g>
       <use xlink:href="#mb484d136d8" x="41.15" y="163.011589" style="stroke: #000000; stroke-width: 0.8"/>
      </g>
     </g>
     <g id="text_10">
      <!-- 4 -->
      <g transform="translate(27.7875 166.810808)scale(0.1 -0.1)">
       <defs>
        <path id="DejaVuSans-34" d="M 2419 4116 
L 825 1625 
L 2419 1625 
L 2419 4116 
z
M 2253 4666 
L 3047 4666 
L 3047 1625 
L 3713 1625 
L 3713 1100 
L 3047 1100 
L 3047 0 
L 2419 0 
L 2419 1100 
L 313 1100 
L 313 1709 
L 2253 4666 
z
" transform="scale(0.015625)"/>
       </defs>
       <use xlink:href="#DejaVuSans-34"/>
      </g>
     </g>
    </g>
    <g id="ytick_6">
     <g id="line2d_10">
      <g>
       <use xlink:href="#mb484d136d8" x="41.15" y="131.686759" style="stroke: #000000; stroke-width: 0.8"/>
      </g>
     </g>
     <g id="text_11">
      <!-- 5 -->
      <g transform="translate(27.7875 135.485978)scale(0.1 -0.1)">
       <defs>
        <path id="DejaVuSans-35" d="M 691 4666 
L 3169 4666 
L 3169 4134 
L 1269 4134 
L 1269 2991 
Q 1406 3038 1543 3061 
Q 1681 3084 1819 3084 
Q 2600 3084 3056 2656 
Q 3513 2228 3513 1497 
Q 3513 744 3044 326 
Q 2575 -91 1722 -91 
Q 1428 -91 1123 -41 
Q 819 9 494 109 
L 494 744 
Q 775 591 1075 516 
Q 1375 441 1709 441 
Q 2250 441 2565 725 
Q 2881 1009 2881 1497 
Q 2881 1984 2565 2268 
Q 2250 2553 1709 2553 
Q 1456 2553 1204 2497 
Q 953 2441 691 2322 
L 691 4666 
z
" transform="scale(0.015625)"/>
       </defs>
       <use xlink:href="#DejaVuSans-35"/>
      </g>
     </g>
    </g>
    <g id="ytick_7">
     <g id="line2d_11">
      <g>
       <use xlink:href="#mb484d136d8" x="41.15" y="100.361929" style="stroke: #000000; stroke-width: 0.8"/>
      </g>
     </g>
     <g id="text_12">
      <!-- 6 -->
      <g transform="translate(27.7875 104.161148)scale(0.1 -0.1)">
       <defs>
        <path id="DejaVuSans-36" d="M 2113 2584 
Q 1688 2584 1439 2293 
Q 1191 2003 1191 1497 
Q 1191 994 1439 701 
Q 1688 409 2113 409 
Q 2538 409 2786 701 
Q 3034 994 3034 1497 
Q 3034 2003 2786 2293 
Q 2538 2584 2113 2584 
z
M 3366 4563 
L 3366 3988 
Q 3128 4100 2886 4159 
Q 2644 4219 2406 4219 
Q 1781 4219 1451 3797 
Q 1122 3375 1075 2522 
Q 1259 2794 1537 2939 
Q 1816 3084 2150 3084 
Q 2853 3084 3261 2657 
Q 3669 2231 3669 1497 
Q 3669 778 3244 343 
Q 2819 -91 2113 -91 
Q 1303 -91 875 529 
Q 447 1150 447 2328 
Q 447 3434 972 4092 
Q 1497 4750 2381 4750 
Q 2619 4750 2861 4703 
Q 3103 4656 3366 4563 
z
" transform="scale(0.015625)"/>
       </defs>
       <use xlink:href="#DejaVuSans-36"/>
      </g>
     </g>
    </g>
    <g id="ytick_8">
     <g id="line2d_12">
      <g>
       <use xlink:href="#mb484d136d8" x="41.15" y="69.037099" style="stroke: #000000; stroke-width: 0.8"/>
      </g>
     </g>
     <g id="text_13">
      <!-- 7 -->
      <g transform="translate(27.7875 72.836318)scale(0.1 -0.1)">
       <defs>
        <path id="DejaVuSans-37" d="M 525 4666 
L 3525 4666 
L 3525 4397 
L 1831 0 
L 1172 0 
L 2766 4134 
L 525 4134 
L 525 4666 
z
" transform="scale(0.015625)"/>
       </defs>
       <use xlink:href="#DejaVuSans-37"/>
      </g>
     </g>
    </g>
    <g id="ytick_9">
     <g id="line2d_13">
      <g>
       <use xlink:href="#mb484d136d8" x="41.15" y="37.712269" style="stroke: #000000; stroke-width: 0.8"/>
      </g>
     </g>
     <g id="text_14">
      <!-- 8 -->
      <g transform="translate(27.7875 41.511487)scale(0.1 -0.1)">
       <defs>
        <path id="DejaVuSans-38" d="M 2034 2216 
Q 1584 2216 1326 1975 
Q 1069 1734 1069 1313 
Q 1069 891 1326 650 
Q 1584 409 2034 409 
Q 2484 409 2743 651 
Q 3003 894 3003 1313 
Q 3003 1734 2745 1975 
Q 2488 2216 2034 2216 
z
M 1403 2484 
Q 997 2584 770 2862 
Q 544 3141 544 3541 
Q 544 4100 942 4425 
Q 1341 4750 2034 4750 
Q 2731 4750 3128 4425 
Q 3525 4100 3525 3541 
Q 3525 3141 3298 2862 
Q 3072 2584 2669 2484 
Q 3125 2378 3379 2068 
Q 3634 1759 3634 1313 
Q 3634 634 3220 271 
Q 2806 -91 2034 -91 
Q 1263 -91 848 271 
Q 434 634 434 1313 
Q 434 1759 690 2068 
Q 947 2378 1403 2484 
z
M 1172 3481 
Q 1172 3119 1398 2916 
Q 1625 2713 2034 2713 
Q 2441 2713 2670 2916 
Q 2900 3119 2900 3481 
Q 2900 3844 2670 4047 
Q 2441 4250 2034 4250 
Q 1625 4250 1398 4047 
Q 1172 3844 1172 3481 
z
" transform="scale(0.015625)"/>
       </defs>
       <use xlink:href="#DejaVuSans-38"/>
      </g>
     </g>
    </g>
    <g id="text_15">
     <!-- Species richness (in log10) -->
     <g transform="translate(21.198125 254.988125)rotate(-90)scale(0.12 -0.12)">
      <defs>
       <path id="DejaVuSans-Bold-53" d="M 3834 4519 
L 3834 3531 
Q 3450 3703 3084 3790 
Q 2719 3878 2394 3878 
Q 1963 3878 1756 3759 
Q 1550 3641 1550 3391 
Q 1550 3203 1689 3098 
Q 1828 2994 2194 2919 
L 2706 2816 
Q 3484 2659 3812 2340 
Q 4141 2022 4141 1434 
Q 4141 663 3683 286 
Q 3225 -91 2284 -91 
Q 1841 -91 1394 -6 
Q 947 78 500 244 
L 500 1259 
Q 947 1022 1364 901 
Q 1781 781 2169 781 
Q 2563 781 2772 912 
Q 2981 1044 2981 1288 
Q 2981 1506 2839 1625 
Q 2697 1744 2272 1838 
L 1806 1941 
Q 1106 2091 782 2419 
Q 459 2747 459 3303 
Q 459 4000 909 4375 
Q 1359 4750 2203 4750 
Q 2588 4750 2994 4692 
Q 3400 4634 3834 4519 
z
" transform="scale(0.015625)"/>
       <path id="DejaVuSans-Bold-70" d="M 1656 506 
L 1656 -1331 
L 538 -1331 
L 538 3500 
L 1656 3500 
L 1656 2988 
Q 1888 3294 2169 3439 
Q 2450 3584 2816 3584 
Q 3463 3584 3878 3070 
Q 4294 2556 4294 1747 
Q 4294 938 3878 423 
Q 3463 -91 2816 -91 
Q 2450 -91 2169 54 
Q 1888 200 1656 506 
z
M 2400 2772 
Q 2041 2772 1848 2508 
Q 1656 2244 1656 1747 
Q 1656 1250 1848 986 
Q 2041 722 2400 722 
Q 2759 722 2948 984 
Q 3138 1247 3138 1747 
Q 3138 2247 2948 2509 
Q 2759 2772 2400 2772 
z
" transform="scale(0.015625)"/>
       <path id="DejaVuSans-Bold-65" d="M 4031 1759 
L 4031 1441 
L 1416 1441 
Q 1456 1047 1700 850 
Q 1944 653 2381 653 
Q 2734 653 3104 758 
Q 3475 863 3866 1075 
L 3866 213 
Q 3469 63 3072 -14 
Q 2675 -91 2278 -91 
Q 1328 -91 801 392 
Q 275 875 275 1747 
Q 275 2603 792 3093 
Q 1309 3584 2216 3584 
Q 3041 3584 3536 3087 
Q 4031 2591 4031 1759 
z
M 2881 2131 
Q 2881 2450 2695 2645 
Q 2509 2841 2209 2841 
Q 1884 2841 1681 2658 
Q 1478 2475 1428 2131 
L 2881 2131 
z
" transform="scale(0.015625)"/>
       <path id="DejaVuSans-Bold-68" d="M 4056 2131 
L 4056 0 
L 2931 0 
L 2931 347 
L 2931 1625 
Q 2931 2084 2911 2256 
Q 2891 2428 2841 2509 
Q 2775 2619 2662 2680 
Q 2550 2741 2406 2741 
Q 2056 2741 1856 2470 
Q 1656 2200 1656 1722 
L 1656 0 
L 538 0 
L 538 4863 
L 1656 4863 
L 1656 2988 
Q 1909 3294 2193 3439 
Q 2478 3584 2822 3584 
Q 3428 3584 3742 3212 
Q 4056 2841 4056 2131 
z
" transform="scale(0.015625)"/>
      </defs>
      <use xlink:href="#DejaVuSans-Bold-53"/>
      <use xlink:href="#DejaVuSans-Bold-70" x="72.021484"/>
      <use xlink:href="#DejaVuSans-Bold-65" x="143.603516"/>
      <use xlink:href="#DejaVuSans-Bold-63" x="211.425781"/>
      <use xlink:href="#DejaVuSans-Bold-69" x="270.703125"/>
      <use xlink:href="#DejaVuSans-Bold-65" x="304.980469"/>
      <use xlink:href="#DejaVuSans-Bold-73" x="372.802734"/>
      <use xlink:href="#DejaVuSans-Bold-20" x="432.324219"/>
      <use xlink:href="#DejaVuSans-Bold-72" x="467.138672"/>
      <use xlink:href="#DejaVuSans-Bold-69" x="516.455078"/>
      <use xlink:href="#DejaVuSans-Bold-63" x="550.732422"/>
      <use xlink:href="#DejaVuSans-Bold-68" x="610.009766"/>
      <use xlink:href="#DejaVuSans-Bold-6e" x="681.201172"/>
      <use xlink:href="#DejaVuSans-Bold-65" x="752.392578"/>
      <use xlink:href="#DejaVuSans-Bold-73" x="820.214844"/>
      <use xlink:href="#DejaVuSans-Bold-73" x="879.736328"/>
      <use xlink:href="#DejaVuSans-Bold-20" x="939.257812"/>
      <use xlink:href="#DejaVuSans-Bold-28" x="974.072266"/>
      <use xlink:href="#DejaVuSans-Bold-69" x="1019.775391"/>
      <use xlink:href="#DejaVuSans-Bold-6e" x="1054.052734"/>
      <use xlink:href="#DejaVuSans-Bold-20" x="1125.244141"/>
      <use xlink:href="#DejaVuSans-Bold-6c" x="1160.058594"/>
      <use xlink:href="#DejaVuSans-Bold-6f" x="1194.335938"/>
      <use xlink:href="#DejaVuSans-Bold-67" x="1263.037109"/>
      <use xlink:href="#DejaVuSans-Bold-31" x="1334.619141"/>
      <use xlink:href="#DejaVuSans-Bold-30" x="1404.199219"/>
      <use xlink:href="#DejaVuSans-Bold-29" x="1473.779297"/>
     </g>
    </g>
   </g>
   <g id="line2d_14">
    <path d="M 282.252774 142.911326 
L 203.647411 156.102198 
L 231.780821 151.381093 
L 110.909604 171.664655 
L 195.93846 157.395848 
L 185.559855 159.137496 
L 200.200857 156.680569 
L 52.937964 181.392955 
L 84.320693 176.126577 
L 99.93657 173.506055 
L 259.86177 146.668791 
L 96.113362 174.147633 
L 207.602682 155.438459 
L 222.879741 152.874795 
L 172.336307 161.356557 
L 226.689605 152.235457 
L 190.490881 158.310014 
L 237.190375 150.473308 
L 117.676009 170.529176 
L 87.761232 175.549215 
L 186.500593 158.979629 
L 288.241481 141.906353 
L 225.016835 152.516166 
L 97.378054 173.935403 
L 163.815813 162.786393 
L 268.279729 145.256161 
L 121.484164 169.890124 
L 174.919588 160.923053 
L 101.21622 173.291315 
L 288.697236 141.829872 
L 176.151765 160.71628 
L 221.853224 153.047056 
" clip-path="url(#p0d570049b1)" style="fill: none; stroke: #0000ff; stroke-width: 1.5; stroke-linecap: square"/>
   </g>
   <g id="line2d_15">
    <path clip-path="url(#p0d570049b1)" style="fill: none; stroke: #000000; stroke-width: 1.5; stroke-linecap: square"/>
   </g>
   <g id="line2d_16">
    <path d="M 282.252774 117.421168 
L 203.647411 122.46673 
L 231.780821 120.660888 
L 110.909604 128.419433 
L 195.93846 122.961556 
L 185.559855 123.627743 
L 200.200857 122.687959 
L 52.937964 132.140547 
L 84.320693 130.126136 
L 99.93657 129.123776 
L 259.86177 118.858413 
L 96.113362 129.369182 
L 207.602682 122.212847 
L 222.879741 121.232235 
L 172.336307 124.476544 
L 226.689605 120.987686 
L 190.490881 123.311228 
L 237.190375 120.313657 
L 117.676009 127.985107 
L 87.761232 129.905293 
L 186.500593 123.567359 
L 288.241481 117.036762 
L 225.016835 121.095058 
L 97.378054 129.288003 
L 163.815813 125.023461 
L 268.279729 118.318077 
L 121.484164 127.740667 
L 174.919588 124.310726 
L 101.21622 129.041637 
L 288.697236 117.007507 
L 176.151765 124.231635 
L 221.853224 121.298126 
" clip-path="url(#p0d570049b1)" style="fill: none; stroke: #ff0000; stroke-width: 1.5; stroke-linecap: square"/>
   </g>
   <g id="line2d_17">
    <path d="M 282.252774 61.487665 
L 203.647411 65.812665 
L 231.780821 64.264717 
L 110.909604 70.915256 
L 195.93846 66.236824 
L 185.559855 66.807873 
L 200.200857 66.0023 
L 52.937964 74.104953 
L 84.320693 72.378223 
L 99.93657 71.519011 
L 259.86177 62.719655 
L 96.113362 71.72937 
L 207.602682 65.595039 
L 222.879741 64.754469 
L 172.336307 67.535455 
L 226.689605 64.544844 
L 190.490881 66.536559 
L 237.190375 63.967074 
L 117.676009 70.542957 
L 87.761232 72.188918 
L 186.500593 66.756112 
L 288.241481 61.158156 
L 225.016835 64.636883 
L 97.378054 71.659784 
L 163.815813 68.004267 
L 268.279729 62.256485 
L 121.484164 70.333425 
L 174.919588 67.393318 
L 101.21622 71.448602 
L 288.697236 61.133079 
L 176.151765 67.325522 
L 221.853224 64.81095 
" clip-path="url(#p0d570049b1)" style="fill: none; stroke: #00bfbf; stroke-width: 1.5; stroke-linecap: square"/>
   </g>
   <g id="line2d_18">
    <path d="M 282.252774 160.566381 
L 203.647411 174.175937 
L 231.780821 169.304982 
L 110.909604 190.232353 
L 195.93846 175.510648 
L 185.559855 177.307576 
L 200.200857 174.772666 
L 52.937964 200.269433 
L 84.320693 194.835897 
L 99.93657 192.1322 
L 259.86177 164.443109 
L 96.113362 192.794141 
L 207.602682 173.49113 
L 222.879741 170.846095 
L 172.336307 179.597071 
L 226.689605 170.186463 
L 190.490881 176.453829 
L 237.190375 168.368384 
L 117.676009 189.060833 
L 87.761232 194.24021 
L 186.500593 177.144699 
L 288.241481 159.529509 
L 225.016835 170.476083 
L 97.378054 192.575175 
L 163.815813 181.072291 
L 268.279729 162.985642 
L 121.484164 188.401497 
L 174.919588 179.149808 
L 101.21622 191.910644 
L 288.697236 159.450601 
L 176.151765 178.936472 
L 221.853224 171.023823 
" clip-path="url(#p0d570049b1)" style="fill: none; stroke: #bf00bf; stroke-width: 1.5; stroke-linecap: square"/>
   </g>
   <g id="line2d_19">
    <path d="M 282.252774 223.363139 
L 203.647411 233.693797 
L 231.780821 229.996382 
L 110.909604 245.881802 
L 195.93846 234.70694 
L 185.559855 236.070942 
L 200.200857 234.146758 
L 52.937964 253.500686 
L 84.320693 249.376232 
L 99.93657 247.323925 
L 259.86177 226.305862 
L 96.113362 247.826388 
L 207.602682 233.173978 
L 222.879741 231.1662 
L 172.336307 237.808838 
L 226.689605 230.665492 
L 190.490881 235.422885 
L 237.190375 229.285435 
L 117.676009 244.992531 
L 87.761232 248.924061 
L 186.500593 235.947306 
L 288.241481 222.576077 
L 225.016835 230.885334 
L 97.378054 247.660177 
L 163.815813 238.928638 
L 268.279729 225.199537 
L 121.484164 244.492047 
L 174.919588 237.469332 
L 101.21622 247.155748 
L 288.697236 222.51618 
L 176.151765 237.307394 
L 221.853224 231.30111 
" clip-path="url(#p0d570049b1)" style="fill: none; stroke: #008000; stroke-width: 1.5; stroke-linecap: square"/>
   </g>
   <g id="line2d_20">
    <path d="M 282.252774 106.405102 
L 203.647411 117.610726 
L 231.780821 113.600154 
L 110.909604 130.831007 
L 195.93846 118.709679 
L 185.559855 120.189205 
L 200.200857 118.102051 
L 52.937964 139.095181 
L 84.320693 134.621401 
L 99.93657 132.395273 
L 259.86177 109.597061 
L 96.113362 132.940292 
L 207.602682 117.04688 
L 222.879741 114.869052 
L 172.336307 122.074295 
L 226.689605 114.325935 
L 190.490881 119.486261 
L 237.190375 112.828993 
L 117.676009 129.866419 
L 87.761232 134.130934 
L 186.500593 120.055098 
L 288.241481 105.551379 
L 225.016835 114.564397 
L 97.378054 132.760003 
L 163.815813 123.288937 
L 268.279729 108.397035 
L 121.484164 129.323545 
L 174.919588 121.706034 
L 101.21622 132.212852 
L 288.697236 105.486408 
L 176.151765 121.53038 
L 221.853224 115.015387 
" clip-path="url(#p0d570049b1)" style="fill: none; stroke: #bfbf00; stroke-width: 1.5; stroke-linecap: square"/>
   </g>
   <g id="line2d_21">
    <path d="M 282.252774 109.332845 
L 203.647411 111.736661 
L 231.780821 110.876318 
L 110.909604 114.572658 
L 195.93846 111.972407 
L 185.559855 112.289793 
L 200.200857 111.842059 
L 52.937964 116.345478 
L 84.320693 115.385769 
L 99.93657 114.908223 
L 259.86177 110.01758 
L 96.113362 115.025139 
L 207.602682 111.615705 
L 222.879741 111.148521 
L 172.336307 112.69418 
L 226.689605 111.032012 
L 190.490881 112.138998 
L 237.190375 110.71089 
L 117.676009 114.365736 
L 87.761232 115.280554 
L 186.500593 112.261024 
L 288.241481 109.149705 
L 225.016835 111.083166 
L 97.378054 114.986464 
L 163.815813 112.954743 
L 268.279729 109.760152 
L 121.484164 114.24928 
L 174.919588 112.615181 
L 101.21622 114.86909 
L 288.697236 109.135768 
L 176.151765 112.5775 
L 221.853224 111.179912 
" clip-path="url(#p0d570049b1)" style="fill: none; stroke: #9467bd; stroke-width: 1.5; stroke-linecap: square"/>
   </g>
   <g id="line2d_22">
    <path d="M 282.252774 220.910181 
L 203.647411 226.622768 
L 231.780821 224.578193 
L 110.909604 233.36242 
L 195.93846 227.183011 
L 185.559855 227.937268 
L 200.200857 226.873244 
L 52.937964 237.575467 
L 84.320693 235.29475 
L 99.93657 234.159878 
L 259.86177 222.537431 
L 96.113362 234.437726 
L 207.602682 226.335322 
L 222.879741 225.225073 
L 172.336307 228.89828 
L 226.689605 224.948194 
L 190.490881 227.578909 
L 237.190375 224.185058 
L 117.676009 232.870677 
L 87.761232 235.044711 
L 186.500593 227.868901 
L 288.241481 220.474956 
L 225.016835 225.069761 
L 97.378054 234.345816 
L 163.815813 229.5175 
L 268.279729 221.925662 
L 121.484164 232.593922 
L 174.919588 228.710542 
L 101.21622 234.06688 
L 288.697236 220.441834 
L 176.151765 228.620994 
L 221.853224 225.299674 
" clip-path="url(#p0d570049b1)" style="fill: none; stroke: #8c564b; stroke-width: 1.5; stroke-linecap: square"/>
   </g>
   <g id="line2d_23">
    <path d="M 282.252774 43.261307 
L 203.647411 48.672546 
L 231.780821 46.735826 
L 110.909604 55.05667 
L 195.93846 49.203235 
L 185.559855 49.917704 
L 200.200857 48.909809 
L 52.937964 59.047472 
L 84.320693 56.887066 
L 99.93657 55.81206 
L 259.86177 44.802717 
L 96.113362 56.075252 
L 207.602682 48.400263 
L 222.879741 47.348581 
L 172.336307 50.828021 
L 226.689605 47.086308 
L 190.490881 49.578249 
L 237.190375 46.363429 
L 117.676009 54.590867 
L 87.761232 56.650218 
L 186.500593 49.852943 
L 288.241481 42.849041 
L 225.016835 47.201463 
L 97.378054 55.98819 
L 163.815813 51.414576 
L 268.279729 44.22322 
L 121.484164 54.328712 
L 174.919588 50.650186 
L 101.21622 55.723969 
L 288.697236 42.817667 
L 176.151765 50.565362 
L 221.853224 47.419247 
" clip-path="url(#p0d570049b1)" style="fill: none; stroke: #ff7f0e; stroke-width: 1.5; stroke-linecap: square"/>
   </g>
   <g id="patch_3">
    <path d="M 41.15 300.76 
L 41.15 26.88 
" style="fill: none; stroke: #000000; stroke-width: 0.8; stroke-linejoin: miter; stroke-linecap: square"/>
   </g>
   <g id="patch_4">
    <path d="M 300.4852 300.76 
L 300.4852 26.88 
" style="fill: none; stroke: #000000; stroke-width: 0.8; stroke-linejoin: miter; stroke-linecap: square"/>
   </g>
   <g id="patch_5">
    <path d="M 41.15 300.76 
L 300.4852 300.76 
" style="fill: none; stroke: #000000; stroke-width: 0.8; stroke-linejoin: miter; stroke-linecap: square"/>
   </g>
   <g id="patch_6">
    <path d="M 41.15 26.88 
L 300.4852 26.88 
" style="fill: none; stroke: #000000; stroke-width: 0.8; stroke-linejoin: miter; stroke-linecap: square"/>
   </g>
   <g id="text_16">
    <!-- log(SR) vs. log(PctUrbMd2011Ws) -->
    <g transform="translate(69.53385 20.88)scale(0.12 -0.12)">
     <defs>
      <path id="DejaVuSans-6c" d="M 603 4863 
L 1178 4863 
L 1178 0 
L 603 0 
L 603 4863 
z
" transform="scale(0.015625)"/>
      <path id="DejaVuSans-6f" d="M 1959 3097 
Q 1497 3097 1228 2736 
Q 959 2375 959 1747 
Q 959 1119 1226 758 
Q 1494 397 1959 397 
Q 2419 397 2687 759 
Q 2956 1122 2956 1747 
Q 2956 2369 2687 2733 
Q 2419 3097 1959 3097 
z
M 1959 3584 
Q 2709 3584 3137 3096 
Q 3566 2609 3566 1747 
Q 3566 888 3137 398 
Q 2709 -91 1959 -91 
Q 1206 -91 779 398 
Q 353 888 353 1747 
Q 353 2609 779 3096 
Q 1206 3584 1959 3584 
z
" transform="scale(0.015625)"/>
      <path id="DejaVuSans-67" d="M 2906 1791 
Q 2906 2416 2648 2759 
Q 2391 3103 1925 3103 
Q 1463 3103 1205 2759 
Q 947 2416 947 1791 
Q 947 1169 1205 825 
Q 1463 481 1925 481 
Q 2391 481 2648 825 
Q 2906 1169 2906 1791 
z
M 3481 434 
Q 3481 -459 3084 -895 
Q 2688 -1331 1869 -1331 
Q 1566 -1331 1297 -1286 
Q 1028 -1241 775 -1147 
L 775 -588 
Q 1028 -725 1275 -790 
Q 1522 -856 1778 -856 
Q 2344 -856 2625 -561 
Q 2906 -266 2906 331 
L 2906 616 
Q 2728 306 2450 153 
Q 2172 0 1784 0 
Q 1141 0 747 490 
Q 353 981 353 1791 
Q 353 2603 747 3093 
Q 1141 3584 1784 3584 
Q 2172 3584 2450 3431 
Q 2728 3278 2906 2969 
L 2906 3500 
L 3481 3500 
L 3481 434 
z
" transform="scale(0.015625)"/>
      <path id="DejaVuSans-28" d="M 1984 4856 
Q 1566 4138 1362 3434 
Q 1159 2731 1159 2009 
Q 1159 1288 1364 580 
Q 1569 -128 1984 -844 
L 1484 -844 
Q 1016 -109 783 600 
Q 550 1309 550 2009 
Q 550 2706 781 3412 
Q 1013 4119 1484 4856 
L 1984 4856 
z
" transform="scale(0.015625)"/>
      <path id="DejaVuSans-53" d="M 3425 4513 
L 3425 3897 
Q 3066 4069 2747 4153 
Q 2428 4238 2131 4238 
Q 1616 4238 1336 4038 
Q 1056 3838 1056 3469 
Q 1056 3159 1242 3001 
Q 1428 2844 1947 2747 
L 2328 2669 
Q 3034 2534 3370 2195 
Q 3706 1856 3706 1288 
Q 3706 609 3251 259 
Q 2797 -91 1919 -91 
Q 1588 -91 1214 -16 
Q 841 59 441 206 
L 441 856 
Q 825 641 1194 531 
Q 1563 422 1919 422 
Q 2459 422 2753 634 
Q 3047 847 3047 1241 
Q 3047 1584 2836 1778 
Q 2625 1972 2144 2069 
L 1759 2144 
Q 1053 2284 737 2584 
Q 422 2884 422 3419 
Q 422 4038 858 4394 
Q 1294 4750 2059 4750 
Q 2388 4750 2728 4690 
Q 3069 4631 3425 4513 
z
" transform="scale(0.015625)"/>
      <path id="DejaVuSans-52" d="M 2841 2188 
Q 3044 2119 3236 1894 
Q 3428 1669 3622 1275 
L 4263 0 
L 3584 0 
L 2988 1197 
Q 2756 1666 2539 1819 
Q 2322 1972 1947 1972 
L 1259 1972 
L 1259 0 
L 628 0 
L 628 4666 
L 2053 4666 
Q 2853 4666 3247 4331 
Q 3641 3997 3641 3322 
Q 3641 2881 3436 2590 
Q 3231 2300 2841 2188 
z
M 1259 4147 
L 1259 2491 
L 2053 2491 
Q 2509 2491 2742 2702 
Q 2975 2913 2975 3322 
Q 2975 3731 2742 3939 
Q 2509 4147 2053 4147 
L 1259 4147 
z
" transform="scale(0.015625)"/>
      <path id="DejaVuSans-29" d="M 513 4856 
L 1013 4856 
Q 1481 4119 1714 3412 
Q 1947 2706 1947 2009 
Q 1947 1309 1714 600 
Q 1481 -109 1013 -844 
L 513 -844 
Q 928 -128 1133 580 
Q 1338 1288 1338 2009 
Q 1338 2731 1133 3434 
Q 928 4138 513 4856 
z
" transform="scale(0.015625)"/>
      <path id="DejaVuSans-20" transform="scale(0.015625)"/>
      <path id="DejaVuSans-76" d="M 191 3500 
L 800 3500 
L 1894 563 
L 2988 3500 
L 3597 3500 
L 2284 0 
L 1503 0 
L 191 3500 
z
" transform="scale(0.015625)"/>
      <path id="DejaVuSans-73" d="M 2834 3397 
L 2834 2853 
Q 2591 2978 2328 3040 
Q 2066 3103 1784 3103 
Q 1356 3103 1142 2972 
Q 928 2841 928 2578 
Q 928 2378 1081 2264 
Q 1234 2150 1697 2047 
L 1894 2003 
Q 2506 1872 2764 1633 
Q 3022 1394 3022 966 
Q 3022 478 2636 193 
Q 2250 -91 1575 -91 
Q 1294 -91 989 -36 
Q 684 19 347 128 
L 347 722 
Q 666 556 975 473 
Q 1284 391 1588 391 
Q 1994 391 2212 530 
Q 2431 669 2431 922 
Q 2431 1156 2273 1281 
Q 2116 1406 1581 1522 
L 1381 1569 
Q 847 1681 609 1914 
Q 372 2147 372 2553 
Q 372 3047 722 3315 
Q 1072 3584 1716 3584 
Q 2034 3584 2315 3537 
Q 2597 3491 2834 3397 
z
" transform="scale(0.015625)"/>
      <path id="DejaVuSans-2e" d="M 684 794 
L 1344 794 
L 1344 0 
L 684 0 
L 684 794 
z
" transform="scale(0.015625)"/>
      <path id="DejaVuSans-50" d="M 1259 4147 
L 1259 2394 
L 2053 2394 
Q 2494 2394 2734 2622 
Q 2975 2850 2975 3272 
Q 2975 3691 2734 3919 
Q 2494 4147 2053 4147 
L 1259 4147 
z
M 628 4666 
L 2053 4666 
Q 2838 4666 3239 4311 
Q 3641 3956 3641 3272 
Q 3641 2581 3239 2228 
Q 2838 1875 2053 1875 
L 1259 1875 
L 1259 0 
L 628 0 
L 628 4666 
z
" transform="scale(0.015625)"/>
      <path id="DejaVuSans-63" d="M 3122 3366 
L 3122 2828 
Q 2878 2963 2633 3030 
Q 2388 3097 2138 3097 
Q 1578 3097 1268 2742 
Q 959 2388 959 1747 
Q 959 1106 1268 751 
Q 1578 397 2138 397 
Q 2388 397 2633 464 
Q 2878 531 3122 666 
L 3122 134 
Q 2881 22 2623 -34 
Q 2366 -91 2075 -91 
Q 1284 -91 818 406 
Q 353 903 353 1747 
Q 353 2603 823 3093 
Q 1294 3584 2113 3584 
Q 2378 3584 2631 3529 
Q 2884 3475 3122 3366 
z
" transform="scale(0.015625)"/>
      <path id="DejaVuSans-74" d="M 1172 4494 
L 1172 3500 
L 2356 3500 
L 2356 3053 
L 1172 3053 
L 1172 1153 
Q 1172 725 1289 603 
Q 1406 481 1766 481 
L 2356 481 
L 2356 0 
L 1766 0 
Q 1100 0 847 248 
Q 594 497 594 1153 
L 594 3053 
L 172 3053 
L 172 3500 
L 594 3500 
L 594 4494 
L 1172 4494 
z
" transform="scale(0.015625)"/>
      <path id="DejaVuSans-55" d="M 556 4666 
L 1191 4666 
L 1191 1831 
Q 1191 1081 1462 751 
Q 1734 422 2344 422 
Q 2950 422 3222 751 
Q 3494 1081 3494 1831 
L 3494 4666 
L 4128 4666 
L 4128 1753 
Q 4128 841 3676 375 
Q 3225 -91 2344 -91 
Q 1459 -91 1007 375 
Q 556 841 556 1753 
L 556 4666 
z
" transform="scale(0.015625)"/>
      <path id="DejaVuSans-72" d="M 2631 2963 
Q 2534 3019 2420 3045 
Q 2306 3072 2169 3072 
Q 1681 3072 1420 2755 
Q 1159 2438 1159 1844 
L 1159 0 
L 581 0 
L 581 3500 
L 1159 3500 
L 1159 2956 
Q 1341 3275 1631 3429 
Q 1922 3584 2338 3584 
Q 2397 3584 2469 3576 
Q 2541 3569 2628 3553 
L 2631 2963 
z
" transform="scale(0.015625)"/>
      <path id="DejaVuSans-62" d="M 3116 1747 
Q 3116 2381 2855 2742 
Q 2594 3103 2138 3103 
Q 1681 3103 1420 2742 
Q 1159 2381 1159 1747 
Q 1159 1113 1420 752 
Q 1681 391 2138 391 
Q 2594 391 2855 752 
Q 3116 1113 3116 1747 
z
M 1159 2969 
Q 1341 3281 1617 3432 
Q 1894 3584 2278 3584 
Q 2916 3584 3314 3078 
Q 3713 2572 3713 1747 
Q 3713 922 3314 415 
Q 2916 -91 2278 -91 
Q 1894 -91 1617 61 
Q 1341 213 1159 525 
L 1159 0 
L 581 0 
L 581 4863 
L 1159 4863 
L 1159 2969 
z
" transform="scale(0.015625)"/>
      <path id="DejaVuSans-4d" d="M 628 4666 
L 1569 4666 
L 2759 1491 
L 3956 4666 
L 4897 4666 
L 4897 0 
L 4281 0 
L 4281 4097 
L 3078 897 
L 2444 897 
L 1241 4097 
L 1241 0 
L 628 0 
L 628 4666 
z
" transform="scale(0.015625)"/>
      <path id="DejaVuSans-64" d="M 2906 2969 
L 2906 4863 
L 3481 4863 
L 3481 0 
L 2906 0 
L 2906 525 
Q 2725 213 2448 61 
Q 2172 -91 1784 -91 
Q 1150 -91 751 415 
Q 353 922 353 1747 
Q 353 2572 751 3078 
Q 1150 3584 1784 3584 
Q 2172 3584 2448 3432 
Q 2725 3281 2906 2969 
z
M 947 1747 
Q 947 1113 1208 752 
Q 1469 391 1925 391 
Q 2381 391 2643 752 
Q 2906 1113 2906 1747 
Q 2906 2381 2643 2742 
Q 2381 3103 1925 3103 
Q 1469 3103 1208 2742 
Q 947 2381 947 1747 
z
" transform="scale(0.015625)"/>
      <path id="DejaVuSans-57" d="M 213 4666 
L 850 4666 
L 1831 722 
L 2809 4666 
L 3519 4666 
L 4500 722 
L 5478 4666 
L 6119 4666 
L 4947 0 
L 4153 0 
L 3169 4050 
L 2175 0 
L 1381 0 
L 213 4666 
z
" transform="scale(0.015625)"/>
     </defs>
     <use xlink:href="#DejaVuSans-6c"/>
     <use xlink:href="#DejaVuSans-6f" x="27.783203"/>
     <use xlink:href="#DejaVuSans-67" x="88.964844"/>
     <use xlink:href="#DejaVuSans-28" x="152.441406"/>
     <use xlink:href="#DejaVuSans-53" x="191.455078"/>
     <use xlink:href="#DejaVuSans-52" x="254.931641"/>
     <use xlink:href="#DejaVuSans-29" x="324.414062"/>
     <use xlink:href="#DejaVuSans-20" x="363.427734"/>
     <use xlink:href="#DejaVuSans-76" x="395.214844"/>
     <use xlink:href="#DejaVuSans-73" x="454.394531"/>
     <use xlink:href="#DejaVuSans-2e" x="506.494141"/>
     <use xlink:href="#DejaVuSans-20" x="538.28125"/>
     <use xlink:href="#DejaVuSans-6c" x="570.068359"/>
     <use xlink:href="#DejaVuSans-6f" x="597.851562"/>
     <use xlink:href="#DejaVuSans-67" x="659.033203"/>
     <use xlink:href="#DejaVuSans-28" x="722.509766"/>
     <use xlink:href="#DejaVuSans-50" x="761.523438"/>
     <use xlink:href="#DejaVuSans-63" x="821.826172"/>
     <use xlink:href="#DejaVuSans-74" x="876.806641"/>
     <use xlink:href="#DejaVuSans-55" x="916.015625"/>
     <use xlink:href="#DejaVuSans-72" x="989.208984"/>
     <use xlink:href="#DejaVuSans-62" x="1030.322266"/>
     <use xlink:href="#DejaVuSans-4d" x="1093.798828"/>
     <use xlink:href="#DejaVuSans-64" x="1180.078125"/>
     <use xlink:href="#DejaVuSans-32" x="1243.554688"/>
     <use xlink:href="#DejaVuSans-30" x="1307.177734"/>
     <use xlink:href="#DejaVuSans-31" x="1370.800781"/>
     <use xlink:href="#DejaVuSans-31" x="1434.423828"/>
     <use xlink:href="#DejaVuSans-57" x="1498.046875"/>
     <use xlink:href="#DejaVuSans-73" x="1596.923828"/>
     <use xlink:href="#DejaVuSans-29" x="1649.023438"/>
    </g>
   </g>
   <g id="legend_1">
    <g id="patch_7">
     <path d="M 317.858608 181.66125 
L 444.224233 181.66125 
Q 446.224233 181.66125 446.224233 179.66125 
L 446.224233 33.88 
Q 446.224233 31.88 444.224233 31.88 
L 317.858608 31.88 
Q 315.858608 31.88 315.858608 33.88 
L 315.858608 179.66125 
Q 315.858608 181.66125 317.858608 181.66125 
z
" style="fill: #ffffff; opacity: 0.8; stroke: #cccccc; stroke-linejoin: miter"/>
    </g>
    <g id="line2d_24">
     <path d="M 319.858608 39.978437 
L 329.858608 39.978437 
L 339.858608 39.978437 
" style="fill: none; stroke: #0000ff; stroke-width: 1.5; stroke-linecap: square"/>
    </g>
    <g id="text_17">
     <!-- AminoSugar -->
     <g transform="translate(347.858608 43.478437)scale(0.1 -0.1)">
      <defs>
       <path id="DejaVuSans-41" d="M 2188 4044 
L 1331 1722 
L 3047 1722 
L 2188 4044 
z
M 1831 4666 
L 2547 4666 
L 4325 0 
L 3669 0 
L 3244 1197 
L 1141 1197 
L 716 0 
L 50 0 
L 1831 4666 
z
" transform="scale(0.015625)"/>
       <path id="DejaVuSans-6d" d="M 3328 2828 
Q 3544 3216 3844 3400 
Q 4144 3584 4550 3584 
Q 5097 3584 5394 3201 
Q 5691 2819 5691 2113 
L 5691 0 
L 5113 0 
L 5113 2094 
Q 5113 2597 4934 2840 
Q 4756 3084 4391 3084 
Q 3944 3084 3684 2787 
Q 3425 2491 3425 1978 
L 3425 0 
L 2847 0 
L 2847 2094 
Q 2847 2600 2669 2842 
Q 2491 3084 2119 3084 
Q 1678 3084 1418 2786 
Q 1159 2488 1159 1978 
L 1159 0 
L 581 0 
L 581 3500 
L 1159 3500 
L 1159 2956 
Q 1356 3278 1631 3431 
Q 1906 3584 2284 3584 
Q 2666 3584 2933 3390 
Q 3200 3197 3328 2828 
z
" transform="scale(0.015625)"/>
       <path id="DejaVuSans-69" d="M 603 3500 
L 1178 3500 
L 1178 0 
L 603 0 
L 603 3500 
z
M 603 4863 
L 1178 4863 
L 1178 4134 
L 603 4134 
L 603 4863 
z
" transform="scale(0.015625)"/>
       <path id="DejaVuSans-6e" d="M 3513 2113 
L 3513 0 
L 2938 0 
L 2938 2094 
Q 2938 2591 2744 2837 
Q 2550 3084 2163 3084 
Q 1697 3084 1428 2787 
Q 1159 2491 1159 1978 
L 1159 0 
L 581 0 
L 581 3500 
L 1159 3500 
L 1159 2956 
Q 1366 3272 1645 3428 
Q 1925 3584 2291 3584 
Q 2894 3584 3203 3211 
Q 3513 2838 3513 2113 
z
" transform="scale(0.015625)"/>
       <path id="DejaVuSans-75" d="M 544 1381 
L 544 3500 
L 1119 3500 
L 1119 1403 
Q 1119 906 1312 657 
Q 1506 409 1894 409 
Q 2359 409 2629 706 
Q 2900 1003 2900 1516 
L 2900 3500 
L 3475 3500 
L 3475 0 
L 2900 0 
L 2900 538 
Q 2691 219 2414 64 
Q 2138 -91 1772 -91 
Q 1169 -91 856 284 
Q 544 659 544 1381 
z
M 1991 3584 
L 1991 3584 
z
" transform="scale(0.015625)"/>
       <path id="DejaVuSans-61" d="M 2194 1759 
Q 1497 1759 1228 1600 
Q 959 1441 959 1056 
Q 959 750 1161 570 
Q 1363 391 1709 391 
Q 2188 391 2477 730 
Q 2766 1069 2766 1631 
L 2766 1759 
L 2194 1759 
z
M 3341 1997 
L 3341 0 
L 2766 0 
L 2766 531 
Q 2569 213 2275 61 
Q 1981 -91 1556 -91 
Q 1019 -91 701 211 
Q 384 513 384 1019 
Q 384 1609 779 1909 
Q 1175 2209 1959 2209 
L 2766 2209 
L 2766 2266 
Q 2766 2663 2505 2880 
Q 2244 3097 1772 3097 
Q 1472 3097 1187 3025 
Q 903 2953 641 2809 
L 641 3341 
Q 956 3463 1253 3523 
Q 1550 3584 1831 3584 
Q 2591 3584 2966 3190 
Q 3341 2797 3341 1997 
z
" transform="scale(0.015625)"/>
      </defs>
      <use xlink:href="#DejaVuSans-41"/>
      <use xlink:href="#DejaVuSans-6d" x="68.408203"/>
      <use xlink:href="#DejaVuSans-69" x="165.820312"/>
      <use xlink:href="#DejaVuSans-6e" x="193.603516"/>
      <use xlink:href="#DejaVuSans-6f" x="256.982422"/>
      <use xlink:href="#DejaVuSans-53" x="318.164062"/>
      <use xlink:href="#DejaVuSans-75" x="381.640625"/>
      <use xlink:href="#DejaVuSans-67" x="445.019531"/>
      <use xlink:href="#DejaVuSans-61" x="508.496094"/>
      <use xlink:href="#DejaVuSans-72" x="569.775391"/>
     </g>
    </g>
    <g id="line2d_25">
     <path d="M 319.858608 54.656563 
L 329.858608 54.656563 
L 339.858608 54.656563 
" style="fill: none; stroke: #000000; stroke-width: 1.5; stroke-linecap: square"/>
    </g>
    <g id="text_18">
     <!-- Carb -->
     <g transform="translate(347.858608 58.156563)scale(0.1 -0.1)">
      <defs>
       <path id="DejaVuSans-43" d="M 4122 4306 
L 4122 3641 
Q 3803 3938 3442 4084 
Q 3081 4231 2675 4231 
Q 1875 4231 1450 3742 
Q 1025 3253 1025 2328 
Q 1025 1406 1450 917 
Q 1875 428 2675 428 
Q 3081 428 3442 575 
Q 3803 722 4122 1019 
L 4122 359 
Q 3791 134 3420 21 
Q 3050 -91 2638 -91 
Q 1578 -91 968 557 
Q 359 1206 359 2328 
Q 359 3453 968 4101 
Q 1578 4750 2638 4750 
Q 3056 4750 3426 4639 
Q 3797 4528 4122 4306 
z
" transform="scale(0.015625)"/>
      </defs>
      <use xlink:href="#DejaVuSans-43"/>
      <use xlink:href="#DejaVuSans-61" x="69.824219"/>
      <use xlink:href="#DejaVuSans-72" x="131.103516"/>
      <use xlink:href="#DejaVuSans-62" x="172.216797"/>
     </g>
    </g>
    <g id="line2d_26">
     <path d="M 319.858608 69.334688 
L 329.858608 69.334688 
L 339.858608 69.334688 
" style="fill: none; stroke: #ff0000; stroke-width: 1.5; stroke-linecap: square"/>
    </g>
    <g id="text_19">
     <!-- ConcHC -->
     <g transform="translate(347.858608 72.834688)scale(0.1 -0.1)">
      <defs>
       <path id="DejaVuSans-48" d="M 628 4666 
L 1259 4666 
L 1259 2753 
L 3553 2753 
L 3553 4666 
L 4184 4666 
L 4184 0 
L 3553 0 
L 3553 2222 
L 1259 2222 
L 1259 0 
L 628 0 
L 628 4666 
z
" transform="scale(0.015625)"/>
      </defs>
      <use xlink:href="#DejaVuSans-43"/>
      <use xlink:href="#DejaVuSans-6f" x="69.824219"/>
      <use xlink:href="#DejaVuSans-6e" x="131.005859"/>
      <use xlink:href="#DejaVuSans-63" x="194.384766"/>
      <use xlink:href="#DejaVuSans-48" x="249.365234"/>
      <use xlink:href="#DejaVuSans-43" x="324.560547"/>
     </g>
    </g>
    <g id="line2d_27">
     <path d="M 319.858608 84.012812 
L 329.858608 84.012812 
L 339.858608 84.012812 
" style="fill: none; stroke: #00bfbf; stroke-width: 1.5; stroke-linecap: square"/>
    </g>
    <g id="text_20">
     <!-- Lignin -->
     <g transform="translate(347.858608 87.512812)scale(0.1 -0.1)">
      <defs>
       <path id="DejaVuSans-4c" d="M 628 4666 
L 1259 4666 
L 1259 531 
L 3531 531 
L 3531 0 
L 628 0 
L 628 4666 
z
" transform="scale(0.015625)"/>
      </defs>
      <use xlink:href="#DejaVuSans-4c"/>
      <use xlink:href="#DejaVuSans-69" x="55.712891"/>
      <use xlink:href="#DejaVuSans-67" x="83.496094"/>
      <use xlink:href="#DejaVuSans-6e" x="146.972656"/>
      <use xlink:href="#DejaVuSans-69" x="210.351562"/>
      <use xlink:href="#DejaVuSans-6e" x="238.134766"/>
     </g>
    </g>
    <g id="line2d_28">
     <path d="M 319.858608 98.690938 
L 329.858608 98.690938 
L 339.858608 98.690938 
" style="fill: none; stroke: #bf00bf; stroke-width: 1.5; stroke-linecap: square"/>
    </g>
    <g id="text_21">
     <!-- Lipid -->
     <g transform="translate(347.858608 102.190938)scale(0.1 -0.1)">
      <defs>
       <path id="DejaVuSans-70" d="M 1159 525 
L 1159 -1331 
L 581 -1331 
L 581 3500 
L 1159 3500 
L 1159 2969 
Q 1341 3281 1617 3432 
Q 1894 3584 2278 3584 
Q 2916 3584 3314 3078 
Q 3713 2572 3713 1747 
Q 3713 922 3314 415 
Q 2916 -91 2278 -91 
Q 1894 -91 1617 61 
Q 1341 213 1159 525 
z
M 3116 1747 
Q 3116 2381 2855 2742 
Q 2594 3103 2138 3103 
Q 1681 3103 1420 2742 
Q 1159 2381 1159 1747 
Q 1159 1113 1420 752 
Q 1681 391 2138 391 
Q 2594 391 2855 752 
Q 3116 1113 3116 1747 
z
" transform="scale(0.015625)"/>
      </defs>
      <use xlink:href="#DejaVuSans-4c"/>
      <use xlink:href="#DejaVuSans-69" x="55.712891"/>
      <use xlink:href="#DejaVuSans-70" x="83.496094"/>
      <use xlink:href="#DejaVuSans-69" x="146.972656"/>
      <use xlink:href="#DejaVuSans-64" x="174.755859"/>
     </g>
    </g>
    <g id="line2d_29">
     <path d="M 319.858608 113.369062 
L 329.858608 113.369062 
L 339.858608 113.369062 
" style="fill: none; stroke: #008000; stroke-width: 1.5; stroke-linecap: square"/>
    </g>
    <g id="text_22">
     <!-- Other -->
     <g transform="translate(347.858608 116.869062)scale(0.1 -0.1)">
      <defs>
       <path id="DejaVuSans-4f" d="M 2522 4238 
Q 1834 4238 1429 3725 
Q 1025 3213 1025 2328 
Q 1025 1447 1429 934 
Q 1834 422 2522 422 
Q 3209 422 3611 934 
Q 4013 1447 4013 2328 
Q 4013 3213 3611 3725 
Q 3209 4238 2522 4238 
z
M 2522 4750 
Q 3503 4750 4090 4092 
Q 4678 3434 4678 2328 
Q 4678 1225 4090 567 
Q 3503 -91 2522 -91 
Q 1538 -91 948 565 
Q 359 1222 359 2328 
Q 359 3434 948 4092 
Q 1538 4750 2522 4750 
z
" transform="scale(0.015625)"/>
       <path id="DejaVuSans-68" d="M 3513 2113 
L 3513 0 
L 2938 0 
L 2938 2094 
Q 2938 2591 2744 2837 
Q 2550 3084 2163 3084 
Q 1697 3084 1428 2787 
Q 1159 2491 1159 1978 
L 1159 0 
L 581 0 
L 581 4863 
L 1159 4863 
L 1159 2956 
Q 1366 3272 1645 3428 
Q 1925 3584 2291 3584 
Q 2894 3584 3203 3211 
Q 3513 2838 3513 2113 
z
" transform="scale(0.015625)"/>
       <path id="DejaVuSans-65" d="M 3597 1894 
L 3597 1613 
L 953 1613 
Q 991 1019 1311 708 
Q 1631 397 2203 397 
Q 2534 397 2845 478 
Q 3156 559 3463 722 
L 3463 178 
Q 3153 47 2828 -22 
Q 2503 -91 2169 -91 
Q 1331 -91 842 396 
Q 353 884 353 1716 
Q 353 2575 817 3079 
Q 1281 3584 2069 3584 
Q 2775 3584 3186 3129 
Q 3597 2675 3597 1894 
z
M 3022 2063 
Q 3016 2534 2758 2815 
Q 2500 3097 2075 3097 
Q 1594 3097 1305 2825 
Q 1016 2553 972 2059 
L 3022 2063 
z
" transform="scale(0.015625)"/>
      </defs>
      <use xlink:href="#DejaVuSans-4f"/>
      <use xlink:href="#DejaVuSans-74" x="78.710938"/>
      <use xlink:href="#DejaVuSans-68" x="117.919922"/>
      <use xlink:href="#DejaVuSans-65" x="181.298828"/>
      <use xlink:href="#DejaVuSans-72" x="242.822266"/>
     </g>
    </g>
    <g id="line2d_30">
     <path d="M 319.858608 128.047188 
L 329.858608 128.047188 
L 339.858608 128.047188 
" style="fill: none; stroke: #bfbf00; stroke-width: 1.5; stroke-linecap: square"/>
    </g>
    <g id="text_23">
     <!-- Protein -->
     <g transform="translate(347.858608 131.547188)scale(0.1 -0.1)">
      <use xlink:href="#DejaVuSans-50"/>
      <use xlink:href="#DejaVuSans-72" x="58.552734"/>
      <use xlink:href="#DejaVuSans-6f" x="97.416016"/>
      <use xlink:href="#DejaVuSans-74" x="158.597656"/>
      <use xlink:href="#DejaVuSans-65" x="197.806641"/>
      <use xlink:href="#DejaVuSans-69" x="259.330078"/>
      <use xlink:href="#DejaVuSans-6e" x="287.113281"/>
     </g>
    </g>
    <g id="line2d_31">
     <path d="M 319.858608 142.725312 
L 329.858608 142.725312 
L 339.858608 142.725312 
" style="fill: none; stroke: #9467bd; stroke-width: 1.5; stroke-linecap: square"/>
    </g>
    <g id="text_24">
     <!-- Tannin -->
     <g transform="translate(347.858608 146.225312)scale(0.1 -0.1)">
      <defs>
       <path id="DejaVuSans-54" d="M -19 4666 
L 3928 4666 
L 3928 4134 
L 2272 4134 
L 2272 0 
L 1638 0 
L 1638 4134 
L -19 4134 
L -19 4666 
z
" transform="scale(0.015625)"/>
      </defs>
      <use xlink:href="#DejaVuSans-54"/>
      <use xlink:href="#DejaVuSans-61" x="44.583984"/>
      <use xlink:href="#DejaVuSans-6e" x="105.863281"/>
      <use xlink:href="#DejaVuSans-6e" x="169.242188"/>
      <use xlink:href="#DejaVuSans-69" x="232.621094"/>
      <use xlink:href="#DejaVuSans-6e" x="260.404297"/>
     </g>
    </g>
    <g id="line2d_32">
     <path d="M 319.858608 157.403437 
L 329.858608 157.403437 
L 339.858608 157.403437 
" style="fill: none; stroke: #8c564b; stroke-width: 1.5; stroke-linecap: square"/>
    </g>
    <g id="text_25">
     <!-- UnsatHC -->
     <g transform="translate(347.858608 160.903437)scale(0.1 -0.1)">
      <use xlink:href="#DejaVuSans-55"/>
      <use xlink:href="#DejaVuSans-6e" x="73.193359"/>
      <use xlink:href="#DejaVuSans-73" x="136.572266"/>
      <use xlink:href="#DejaVuSans-61" x="188.671875"/>
      <use xlink:href="#DejaVuSans-74" x="249.951172"/>
      <use xlink:href="#DejaVuSans-48" x="289.160156"/>
      <use xlink:href="#DejaVuSans-43" x="364.355469"/>
     </g>
    </g>
    <g id="line2d_33">
     <path d="M 319.858608 172.081562 
L 329.858608 172.081562 
L 339.858608 172.081562 
" style="fill: none; stroke: #ff7f0e; stroke-width: 1.5; stroke-linecap: square"/>
    </g>
    <g id="text_26">
     <!-- SumAllCompounds -->
     <g transform="translate(347.858608 175.581562)scale(0.1 -0.1)">
      <use xlink:href="#DejaVuSans-53"/>
      <use xlink:href="#DejaVuSans-75" x="63.476562"/>
      <use xlink:href="#DejaVuSans-6d" x="126.855469"/>
      <use xlink:href="#DejaVuSans-41" x="224.267578"/>
      <use xlink:href="#DejaVuSans-6c" x="292.675781"/>
      <use xlink:href="#DejaVuSans-6c" x="320.458984"/>
      <use xlink:href="#DejaVuSans-43" x="348.242188"/>
      <use xlink:href="#DejaVuSans-6f" x="418.066406"/>
      <use xlink:href="#DejaVuSans-6d" x="479.248047"/>
      <use xlink:href="#DejaVuSans-70" x="576.660156"/>
      <use xlink:href="#DejaVuSans-6f" x="640.136719"/>
      <use xlink:href="#DejaVuSans-75" x="701.318359"/>
      <use xlink:href="#DejaVuSans-6e" x="764.697266"/>
      <use xlink:href="#DejaVuSans-64" x="828.076172"/>
      <use xlink:href="#DejaVuSans-73" x="891.552734"/>
     </g>
    </g>
   </g>
  </g>
 </g>
 <defs>
  <clipPath id="p0d570049b1">
   <rect x="41.15" y="26.88" width="259.3352" height="273.88"/>
  </clipPath>
 </defs>
</svg>
