<?xml version="1.0" encoding="utf-8" standalone="no"?>
<!DOCTYPE svg PUBLIC "-//W3C//DTD SVG 1.1//EN"
  "http://www.w3.org/Graphics/SVG/1.1/DTD/svg11.dtd">
<svg xmlns:xlink="http://www.w3.org/1999/xlink" width="460.8pt" height="345.6pt" viewBox="0 0 460.8 345.6" xmlns="http://www.w3.org/2000/svg" version="1.1">
 <metadata>
  <rdf:RDF xmlns:dc="http://purl.org/dc/elements/1.1/" xmlns:cc="http://creativecommons.org/ns#" xmlns:rdf="http://www.w3.org/1999/02/22-rdf-syntax-ns#">
   <cc:Work>
    <dc:type rdf:resource="http://purl.org/dc/dcmitype/StillImage"/>
    <dc:date>2024-04-07T18:51:39.536018</dc:date>
    <dc:format>image/svg+xml</dc:format>
    <dc:creator>
     <cc:Agent>
      <dc:title>Matplotlib v3.5.2, https://matplotlib.org/</dc:title>
     </cc:Agent>
    </dc:creator>
   </cc:Work>
  </rdf:RDF>
 </metadata>
 <defs>
  <style type="text/css">*{stroke-linejoin: round; stroke-linecap: butt}</style>
 </defs>
 <g id="figure_1">
  <g id="patch_1">
   <path d="M 0 345.6 
L 460.8 345.6 
L 460.8 0 
L 0 0 
z
" style="fill: #ffffff"/>
  </g>
  <g id="axes_1">
   <g id="patch_2">
    <path d="M 41.15 300.76 
L 300.4852 300.76 
L 300.4852 26.88 
L 41.15 26.88 
z
" style="fill: #ffffff"/>
   </g>
   <g id="PathCollection_1">
    <defs>
     <path id="m382cf3b1ba" d="M 0 2.236068 
C 0.593012 2.236068 1.161816 2.000462 1.581139 1.581139 
C 2.000462 1.161816 2.236068 0.593012 2.236068 0 
C 2.236068 -0.593012 2.000462 -1.161816 1.581139 -1.581139 
C 1.161816 -2.000462 0.593012 -2.236068 0 -2.236068 
C -0.593012 -2.236068 -1.161816 -2.000462 -1.581139 -1.581139 
C -2.000462 -1.161816 -2.236068 -0.593012 -2.236068 0 
C -2.236068 0.593012 -2.000462 1.161816 -1.581139 1.581139 
C -1.161816 2.000462 -0.593012 2.236068 0 2.236068 
z
" style="stroke: #0000ff"/>
    </defs>
    <g clip-path="url(#pb3d9078e35)">
     <use xlink:href="#m382cf3b1ba" x="254.239823" y="151.895312" style="fill: #0000ff; stroke: #0000ff"/>
     <use xlink:href="#m382cf3b1ba" x="240.51205" y="141.57268" style="fill: #0000ff; stroke: #0000ff"/>
     <use xlink:href="#m382cf3b1ba" x="129.435796" y="166.578864" style="fill: #0000ff; stroke: #0000ff"/>
     <use xlink:href="#m382cf3b1ba" x="248.468385" y="147.81342" style="fill: #0000ff; stroke: #0000ff"/>
     <use xlink:href="#m382cf3b1ba" x="259.088893" y="149.788906" style="fill: #0000ff; stroke: #0000ff"/>
     <use xlink:href="#m382cf3b1ba" x="253.17968" y="144.540179" style="fill: #0000ff; stroke: #0000ff"/>
     <use xlink:href="#m382cf3b1ba" x="181.631633" y="171.022609" style="fill: #0000ff; stroke: #0000ff"/>
     <use xlink:href="#m382cf3b1ba" x="207.600555" y="174.372558" style="fill: #0000ff; stroke: #0000ff"/>
     <use xlink:href="#m382cf3b1ba" x="95.120478" y="218.449929" style="fill: #0000ff; stroke: #0000ff"/>
     <use xlink:href="#m382cf3b1ba" x="111.735411" y="171.022609" style="fill: #0000ff; stroke: #0000ff"/>
     <use xlink:href="#m382cf3b1ba" x="100.517836" y="164.570085" style="fill: #0000ff; stroke: #0000ff"/>
     <use xlink:href="#m382cf3b1ba" x="71.566115" y="165.225677" style="fill: #0000ff; stroke: #0000ff"/>
     <use xlink:href="#m382cf3b1ba" x="178.474652" y="144.196445" style="fill: #0000ff; stroke: #0000ff"/>
     <use xlink:href="#m382cf3b1ba" x="235.615235" y="162.075072" style="fill: #0000ff; stroke: #0000ff"/>
     <use xlink:href="#m382cf3b1ba" x="182.32382" y="143.186991" style="fill: #0000ff; stroke: #0000ff"/>
     <use xlink:href="#m382cf3b1ba" x="224.223598" y="163.298111" style="fill: #0000ff; stroke: #0000ff"/>
     <use xlink:href="#m382cf3b1ba" x="74.768035" y="162.680711" style="fill: #0000ff; stroke: #0000ff"/>
     <use xlink:href="#m382cf3b1ba" x="192.740955" y="162.075072" style="fill: #0000ff; stroke: #0000ff"/>
     <use xlink:href="#m382cf3b1ba" x="137.573635" y="154.622277" style="fill: #0000ff; stroke: #0000ff"/>
     <use xlink:href="#m382cf3b1ba" x="216.105913" y="163.298111" style="fill: #0000ff; stroke: #0000ff"/>
     <use xlink:href="#m382cf3b1ba" x="179.960544" y="171.022609" style="fill: #0000ff; stroke: #0000ff"/>
     <use xlink:href="#m382cf3b1ba" x="288.697236" y="155.585839" style="fill: #0000ff; stroke: #0000ff"/>
     <use xlink:href="#m382cf3b1ba" x="249.513314" y="144.540179" style="fill: #0000ff; stroke: #0000ff"/>
     <use xlink:href="#m382cf3b1ba" x="154.245355" y="150.199171" style="fill: #0000ff; stroke: #0000ff"/>
     <use xlink:href="#m382cf3b1ba" x="140.961785" y="146.316904" style="fill: #0000ff; stroke: #0000ff"/>
     <use xlink:href="#m382cf3b1ba" x="198.667584" y="202.208176" style="fill: #0000ff; stroke: #0000ff"/>
     <use xlink:href="#m382cf3b1ba" x="163.902839" y="165.225677" style="fill: #0000ff; stroke: #0000ff"/>
     <use xlink:href="#m382cf3b1ba" x="52.937964" y="160.897341" style="fill: #0000ff; stroke: #0000ff"/>
     <use xlink:href="#m382cf3b1ba" x="74.058007" y="143.186991" style="fill: #0000ff; stroke: #0000ff"/>
    </g>
   </g>
   <g id="PathCollection_2">
    <defs>
     <path id="m5fb6702074" d="M -0 2.236068 
L 2.236068 -2.236068 
L -2.236068 -2.236068 
z
" style="stroke: #000000"/>
    </defs>
    <g clip-path="url(#pb3d9078e35)">
     <use xlink:href="#m5fb6702074" x="254.239823" y="206.758082" style="stroke: #000000"/>
     <use xlink:href="#m5fb6702074" x="240.51205" y="167.277686" style="stroke: #000000"/>
     <use xlink:href="#m5fb6702074" x="129.435796" y="212.069584" style="stroke: #000000"/>
     <use xlink:href="#m5fb6702074" x="248.468385" y="183.519439" style="stroke: #000000"/>
     <use xlink:href="#m5fb6702074" x="259.088893" y="185.966423" style="stroke: #000000"/>
     <use xlink:href="#m5fb6702074" x="253.17968" y="176.189915" style="stroke: #000000"/>
     <use xlink:href="#m5fb6702074" x="181.631633" y="244.233538" style="stroke: #000000"/>
     <use xlink:href="#m5fb6702074" x="207.600555" y="266.272224" style="stroke: #000000"/>
     <use xlink:href="#m5fb6702074" x="95.120478" y="237.138666" style="stroke: #000000"/>
     <use xlink:href="#m5fb6702074" x="111.735411" y="226.440497" style="stroke: #000000"/>
     <use xlink:href="#m5fb6702074" x="100.517836" y="200.156167" style="stroke: #000000"/>
     <use xlink:href="#m5fb6702074" x="71.566115" y="244.233538" style="stroke: #000000"/>
     <use xlink:href="#m5fb6702074" x="178.474652" y="177.139093" style="stroke: #000000"/>
     <use xlink:href="#m5fb6702074" x="235.615235" y="202.208176" style="stroke: #000000"/>
     <use xlink:href="#m5fb6702074" x="182.32382" y="166.578864" style="stroke: #000000"/>
     <use xlink:href="#m5fb6702074" x="224.223598" y="215.099981" style="stroke: #000000"/>
     <use xlink:href="#m5fb6702074" x="74.768035" y="222.194853" style="stroke: #000000"/>
     <use xlink:href="#m5fb6702074" x="192.740955" y="218.449929" style="stroke: #000000"/>
     <use xlink:href="#m5fb6702074" x="137.573635" y="202.208176" style="stroke: #000000"/>
     <use xlink:href="#m5fb6702074" x="216.105913" y="226.440497" style="stroke: #000000"/>
     <use xlink:href="#m5fb6702074" x="179.960544" y="237.138666" style="stroke: #000000"/>
     <use xlink:href="#m5fb6702074" x="288.697236" y="215.099981" style="stroke: #000000"/>
     <use xlink:href="#m5fb6702074" x="249.513314" y="180.16949" style="stroke: #000000"/>
     <use xlink:href="#m5fb6702074" x="154.245355" y="191.510007" style="stroke: #000000"/>
     <use xlink:href="#m5fb6702074" x="140.961785" y="191.510007" style="stroke: #000000"/>
     <use xlink:href="#m5fb6702074" x="163.902839" y="231.341733" style="stroke: #000000"/>
     <use xlink:href="#m5fb6702074" x="52.937964" y="237.138666" style="stroke: #000000"/>
     <use xlink:href="#m5fb6702074" x="74.058007" y="175.268254" style="stroke: #000000"/>
    </g>
   </g>
   <g id="PathCollection_3">
    <defs>
     <path id="m588d6bf39d" d="M -0.855706 -2.065857 
L -2.065857 -0.855706 
L -2.065857 0.855706 
L -0.855706 2.065857 
L 0.855706 2.065857 
L 2.065857 0.855706 
L 2.065857 -0.855706 
L 0.855706 -2.065857 
z
" style="stroke: #ff0000"/>
    </defs>
    <g clip-path="url(#pb3d9078e35)">
     <use xlink:href="#m588d6bf39d" x="254.239823" y="113.789573" style="fill: #ff0000; stroke: #ff0000"/>
     <use xlink:href="#m588d6bf39d" x="240.51205" y="109.609689" style="fill: #ff0000; stroke: #ff0000"/>
     <use xlink:href="#m588d6bf39d" x="129.435796" y="109.95718" style="fill: #ff0000; stroke: #ff0000"/>
     <use xlink:href="#m588d6bf39d" x="248.468385" y="111.508468" style="fill: #ff0000; stroke: #ff0000"/>
     <use xlink:href="#m588d6bf39d" x="259.088893" y="106.64219" style="fill: #ff0000; stroke: #ff0000"/>
     <use xlink:href="#m588d6bf39d" x="253.17968" y="111.630992" style="fill: #ff0000; stroke: #ff0000"/>
     <use xlink:href="#m588d6bf39d" x="181.631633" y="125.774734" style="fill: #ff0000; stroke: #ff0000"/>
     <use xlink:href="#m588d6bf39d" x="207.600555" y="129.424034" style="fill: #ff0000; stroke: #ff0000"/>
     <use xlink:href="#m588d6bf39d" x="95.120478" y="135.049564" style="fill: #ff0000; stroke: #ff0000"/>
     <use xlink:href="#m588d6bf39d" x="111.735411" y="131.190883" style="fill: #ff0000; stroke: #ff0000"/>
     <use xlink:href="#m588d6bf39d" x="100.517836" y="109.494697" style="fill: #ff0000; stroke: #ff0000"/>
     <use xlink:href="#m588d6bf39d" x="71.566115" y="121.817701" style="fill: #ff0000; stroke: #ff0000"/>
     <use xlink:href="#m588d6bf39d" x="178.474652" y="111.143702" style="fill: #ff0000; stroke: #ff0000"/>
     <use xlink:href="#m588d6bf39d" x="235.615235" y="120.655349" style="fill: #ff0000; stroke: #ff0000"/>
     <use xlink:href="#m588d6bf39d" x="182.32382" y="121.649027" style="fill: #ff0000; stroke: #ff0000"/>
     <use xlink:href="#m588d6bf39d" x="224.223598" y="123.377447" style="fill: #ff0000; stroke: #ff0000"/>
     <use xlink:href="#m588d6bf39d" x="74.768035" y="107.278113" style="fill: #ff0000; stroke: #ff0000"/>
     <use xlink:href="#m588d6bf39d" x="192.740955" y="123.555571" style="fill: #ff0000; stroke: #ff0000"/>
     <use xlink:href="#m588d6bf39d" x="137.573635" y="113.789573" style="fill: #ff0000; stroke: #ff0000"/>
     <use xlink:href="#m588d6bf39d" x="216.105913" y="125.96685" style="fill: #ff0000; stroke: #ff0000"/>
     <use xlink:href="#m588d6bf39d" x="179.960544" y="124.83119" style="fill: #ff0000; stroke: #ff0000"/>
     <use xlink:href="#m588d6bf39d" x="288.697236" y="111.753991" style="fill: #ff0000; stroke: #ff0000"/>
     <use xlink:href="#m588d6bf39d" x="249.513314" y="120.330906" style="fill: #ff0000; stroke: #ff0000"/>
     <use xlink:href="#m588d6bf39d" x="154.245355" y="118.910541" style="fill: #ff0000; stroke: #ff0000"/>
     <use xlink:href="#m588d6bf39d" x="140.961785" y="116.532229" style="fill: #ff0000; stroke: #ff0000"/>
     <use xlink:href="#m588d6bf39d" x="198.667584" y="155.585839" style="fill: #ff0000; stroke: #ff0000"/>
     <use xlink:href="#m588d6bf39d" x="163.902839" y="104.609862" style="fill: #ff0000; stroke: #ff0000"/>
     <use xlink:href="#m588d6bf39d" x="52.937964" y="133.792677" style="fill: #ff0000; stroke: #ff0000"/>
     <use xlink:href="#m588d6bf39d" x="74.058007" y="137.445307" style="fill: #ff0000; stroke: #ff0000"/>
    </g>
   </g>
   <g id="PathCollection_4">
    <defs>
     <path id="mec4c793a86" d="M -2.236068 2.236068 
L 2.236068 2.236068 
L 2.236068 -2.236068 
L -2.236068 -2.236068 
z
" style="stroke: #00bfbf"/>
    </defs>
    <g clip-path="url(#pb3d9078e35)">
     <use xlink:href="#mec4c793a86" x="254.239823" y="59.230615" style="fill: #00bfbf; stroke: #00bfbf"/>
     <use xlink:href="#mec4c793a86" x="240.51205" y="61.103602" style="fill: #00bfbf; stroke: #00bfbf"/>
     <use xlink:href="#mec4c793a86" x="129.435796" y="64.512066" style="fill: #00bfbf; stroke: #00bfbf"/>
     <use xlink:href="#mec4c793a86" x="248.468385" y="60.978572" style="fill: #00bfbf; stroke: #00bfbf"/>
     <use xlink:href="#mec4c793a86" x="259.088893" y="58.552854" style="fill: #00bfbf; stroke: #00bfbf"/>
     <use xlink:href="#mec4c793a86" x="253.17968" y="58.552854" style="fill: #00bfbf; stroke: #00bfbf"/>
     <use xlink:href="#mec4c793a86" x="181.631633" y="72.028072" style="fill: #00bfbf; stroke: #00bfbf"/>
     <use xlink:href="#mec4c793a86" x="207.600555" y="65.274169" style="fill: #00bfbf; stroke: #00bfbf"/>
     <use xlink:href="#mec4c793a86" x="95.120478" y="62.643617" style="fill: #00bfbf; stroke: #00bfbf"/>
     <use xlink:href="#mec4c793a86" x="111.735411" y="76.253535" style="fill: #00bfbf; stroke: #00bfbf"/>
     <use xlink:href="#mec4c793a86" x="100.517836" y="63.604752" style="fill: #00bfbf; stroke: #00bfbf"/>
     <use xlink:href="#mec4c793a86" x="71.566115" y="66.260593" style="fill: #00bfbf; stroke: #00bfbf"/>
     <use xlink:href="#mec4c793a86" x="178.474652" y="57.776211" style="fill: #00bfbf; stroke: #00bfbf"/>
     <use xlink:href="#mec4c793a86" x="235.615235" y="68.14215" style="fill: #00bfbf; stroke: #00bfbf"/>
     <use xlink:href="#mec4c793a86" x="182.32382" y="56.996061" style="fill: #00bfbf; stroke: #00bfbf"/>
     <use xlink:href="#mec4c793a86" x="224.223598" y="65.302749" style="fill: #00bfbf; stroke: #00bfbf"/>
     <use xlink:href="#mec4c793a86" x="74.768035" y="62.329589" style="fill: #00bfbf; stroke: #00bfbf"/>
     <use xlink:href="#mec4c793a86" x="192.740955" y="65.792579" style="fill: #00bfbf; stroke: #00bfbf"/>
     <use xlink:href="#mec4c793a86" x="137.573635" y="61.710687" style="fill: #00bfbf; stroke: #00bfbf"/>
     <use xlink:href="#mec4c793a86" x="216.105913" y="63.659009" style="fill: #00bfbf; stroke: #00bfbf"/>
     <use xlink:href="#mec4c793a86" x="179.960544" y="72.851176" style="fill: #00bfbf; stroke: #00bfbf"/>
     <use xlink:href="#mec4c793a86" x="288.697236" y="64.096438" style="fill: #00bfbf; stroke: #00bfbf"/>
     <use xlink:href="#mec4c793a86" x="249.513314" y="63.496513" style="fill: #00bfbf; stroke: #00bfbf"/>
     <use xlink:href="#mec4c793a86" x="154.245355" y="59.183406" style="fill: #00bfbf; stroke: #00bfbf"/>
     <use xlink:href="#mec4c793a86" x="140.961785" y="63.254314" style="fill: #00bfbf; stroke: #00bfbf"/>
     <use xlink:href="#mec4c793a86" x="198.667584" y="83.117242" style="fill: #00bfbf; stroke: #00bfbf"/>
     <use xlink:href="#mec4c793a86" x="163.902839" y="60.978572" style="fill: #00bfbf; stroke: #00bfbf"/>
     <use xlink:href="#mec4c793a86" x="52.937964" y="62.538596" style="fill: #00bfbf; stroke: #00bfbf"/>
     <use xlink:href="#mec4c793a86" x="74.058007" y="60.409683" style="fill: #00bfbf; stroke: #00bfbf"/>
    </g>
   </g>
   <g id="PathCollection_5">
    <defs>
     <path id="m960513d918" d="M 0 -2.236068 
L -2.126627 -0.690983 
L -1.314328 1.809017 
L 1.314328 1.809017 
L 2.126627 -0.690983 
z
" style="stroke: #bf00bf"/>
    </defs>
    <g clip-path="url(#pb3d9078e35)">
     <use xlink:href="#m960513d918" x="254.239823" y="173.501405" style="fill: #bf00bf; stroke: #bf00bf"/>
     <use xlink:href="#m960513d918" x="240.51205" y="155.585839" style="fill: #bf00bf; stroke: #bf00bf"/>
     <use xlink:href="#m960513d918" x="129.435796" y="194.692171" style="fill: #bf00bf; stroke: #bf00bf"/>
     <use xlink:href="#m960513d918" x="248.468385" y="159.76168" style="fill: #bf00bf; stroke: #bf00bf"/>
     <use xlink:href="#m960513d918" x="259.088893" y="174.372558" style="fill: #bf00bf; stroke: #bf00bf"/>
     <use xlink:href="#m960513d918" x="253.17968" y="159.76168" style="fill: #bf00bf; stroke: #bf00bf"/>
     <use xlink:href="#m960513d918" x="181.631633" y="190.030898" style="fill: #bf00bf; stroke: #bf00bf"/>
     <use xlink:href="#m960513d918" x="207.600555" y="202.208176" style="fill: #bf00bf; stroke: #bf00bf"/>
     <use xlink:href="#m960513d918" x="95.120478" y="202.208176" style="fill: #bf00bf; stroke: #bf00bf"/>
     <use xlink:href="#m960513d918" x="111.735411" y="200.156167" style="fill: #bf00bf; stroke: #bf00bf"/>
     <use xlink:href="#m960513d918" x="100.517836" y="191.510007" style="fill: #bf00bf; stroke: #bf00bf"/>
     <use xlink:href="#m960513d918" x="71.566115" y="181.247394" style="fill: #bf00bf; stroke: #bf00bf"/>
     <use xlink:href="#m960513d918" x="178.474652" y="165.225677" style="fill: #bf00bf; stroke: #bf00bf"/>
     <use xlink:href="#m960513d918" x="235.615235" y="187.264362" style="fill: #bf00bf; stroke: #bf00bf"/>
     <use xlink:href="#m960513d918" x="182.32382" y="158.665189" style="fill: #bf00bf; stroke: #bf00bf"/>
     <use xlink:href="#m960513d918" x="224.223598" y="194.692171" style="fill: #bf00bf; stroke: #bf00bf"/>
     <use xlink:href="#m960513d918" x="74.768035" y="185.966423" style="fill: #bf00bf; stroke: #bf00bf"/>
     <use xlink:href="#m960513d918" x="192.740955" y="167.992213" style="fill: #bf00bf; stroke: #bf00bf"/>
     <use xlink:href="#m960513d918" x="137.573635" y="180.16949" style="fill: #bf00bf; stroke: #bf00bf"/>
     <use xlink:href="#m960513d918" x="216.105913" y="188.61755" style="fill: #bf00bf; stroke: #bf00bf"/>
     <use xlink:href="#m960513d918" x="179.960544" y="204.401811" style="fill: #bf00bf; stroke: #bf00bf"/>
     <use xlink:href="#m960513d918" x="288.697236" y="159.208708" style="fill: #bf00bf; stroke: #bf00bf"/>
     <use xlink:href="#m960513d918" x="249.513314" y="162.075072" style="fill: #bf00bf; stroke: #bf00bf"/>
     <use xlink:href="#m960513d918" x="154.245355" y="162.680711" style="fill: #bf00bf; stroke: #bf00bf"/>
     <use xlink:href="#m960513d918" x="140.961785" y="176.189915" style="fill: #bf00bf; stroke: #bf00bf"/>
     <use xlink:href="#m960513d918" x="198.667584" y="215.099981" style="fill: #bf00bf; stroke: #bf00bf"/>
     <use xlink:href="#m960513d918" x="163.902839" y="180.16949" style="fill: #bf00bf; stroke: #bf00bf"/>
     <use xlink:href="#m960513d918" x="52.937964" y="167.277686" style="fill: #bf00bf; stroke: #bf00bf"/>
     <use xlink:href="#m960513d918" x="74.058007" y="152.778566" style="fill: #bf00bf; stroke: #bf00bf"/>
    </g>
   </g>
   <g id="PathCollection_6">
    <defs>
     <path id="mdc5ef7df7c" d="M 0 -2.236068 
L -0.502029 -0.690983 
L -2.126627 -0.690983 
L -0.812299 0.263932 
L -1.314328 1.809017 
L -0 0.854102 
L 1.314328 1.809017 
L 0.812299 0.263932 
L 2.126627 -0.690983 
L 0.502029 -0.690983 
z
" style="stroke: #008000"/>
    </defs>
    <g clip-path="url(#pb3d9078e35)">
     <use xlink:href="#mdc5ef7df7c" x="254.239823" y="231.341733" style="fill: #008000; stroke: #008000"/>
     <use xlink:href="#mdc5ef7df7c" x="240.51205" y="226.440497" style="fill: #008000; stroke: #008000"/>
     <use xlink:href="#mdc5ef7df7c" x="129.435796" y="231.341733" style="fill: #008000; stroke: #008000"/>
     <use xlink:href="#mdc5ef7df7c" x="248.468385" y="237.138666" style="fill: #008000; stroke: #008000"/>
     <use xlink:href="#mdc5ef7df7c" x="259.088893" y="218.449929" style="fill: #008000; stroke: #008000"/>
     <use xlink:href="#mdc5ef7df7c" x="253.17968" y="231.341733" style="fill: #008000; stroke: #008000"/>
     <use xlink:href="#mdc5ef7df7c" x="181.631633" y="253.380419" style="fill: #008000; stroke: #008000"/>
     <use xlink:href="#mdc5ef7df7c" x="207.600555" y="244.233538" style="fill: #008000; stroke: #008000"/>
     <use xlink:href="#mdc5ef7df7c" x="95.120478" y="237.138666" style="fill: #008000; stroke: #008000"/>
     <use xlink:href="#mdc5ef7df7c" x="111.735411" y="266.272224" style="fill: #008000; stroke: #008000"/>
     <use xlink:href="#mdc5ef7df7c" x="100.517836" y="237.138666" style="fill: #008000; stroke: #008000"/>
     <use xlink:href="#mdc5ef7df7c" x="71.566115" y="237.138666" style="fill: #008000; stroke: #008000"/>
     <use xlink:href="#mdc5ef7df7c" x="178.474652" y="231.341733" style="fill: #008000; stroke: #008000"/>
     <use xlink:href="#mdc5ef7df7c" x="235.615235" y="222.194853" style="fill: #008000; stroke: #008000"/>
     <use xlink:href="#mdc5ef7df7c" x="182.32382" y="212.069584" style="fill: #008000; stroke: #008000"/>
     <use xlink:href="#mdc5ef7df7c" x="224.223598" y="266.272224" style="fill: #008000; stroke: #008000"/>
     <use xlink:href="#mdc5ef7df7c" x="74.768035" y="266.272224" style="fill: #008000; stroke: #008000"/>
     <use xlink:href="#mdc5ef7df7c" x="192.740955" y="237.138666" style="fill: #008000; stroke: #008000"/>
     <use xlink:href="#mdc5ef7df7c" x="137.573635" y="226.440497" style="fill: #008000; stroke: #008000"/>
     <use xlink:href="#mdc5ef7df7c" x="216.105913" y="237.138666" style="fill: #008000; stroke: #008000"/>
     <use xlink:href="#mdc5ef7df7c" x="179.960544" y="266.272224" style="fill: #008000; stroke: #008000"/>
     <use xlink:href="#mdc5ef7df7c" x="288.697236" y="209.303048" style="fill: #008000; stroke: #008000"/>
     <use xlink:href="#mdc5ef7df7c" x="249.513314" y="215.099981" style="fill: #008000; stroke: #008000"/>
     <use xlink:href="#mdc5ef7df7c" x="154.245355" y="226.440497" style="fill: #008000; stroke: #008000"/>
     <use xlink:href="#mdc5ef7df7c" x="140.961785" y="237.138666" style="fill: #008000; stroke: #008000"/>
     <use xlink:href="#mdc5ef7df7c" x="198.667584" y="288.310909" style="fill: #008000; stroke: #008000"/>
     <use xlink:href="#mdc5ef7df7c" x="163.902839" y="231.341733" style="fill: #008000; stroke: #008000"/>
     <use xlink:href="#mdc5ef7df7c" x="52.937964" y="222.194853" style="fill: #008000; stroke: #008000"/>
     <use xlink:href="#mdc5ef7df7c" x="74.058007" y="212.069584" style="fill: #008000; stroke: #008000"/>
    </g>
   </g>
   <g id="PathCollection_7">
    <defs>
     <path id="mda9ba1f131" d="M 0 -2.236068 
L -1.936492 -1.118034 
L -1.936492 1.118034 
L -0 2.236068 
L 1.936492 1.118034 
L 1.936492 -1.118034 
z
" style="stroke: #bfbf00"/>
    </defs>
    <g clip-path="url(#pb3d9078e35)">
     <use xlink:href="#mda9ba1f131" x="254.239823" y="115.268681" style="fill: #bfbf00; stroke: #bfbf00"/>
     <use xlink:href="#mda9ba1f131" x="240.51205" y="105.306497" style="fill: #bfbf00; stroke: #bfbf00"/>
     <use xlink:href="#mda9ba1f131" x="129.435796" y="126.550263" style="fill: #bfbf00; stroke: #bfbf00"/>
     <use xlink:href="#mda9ba1f131" x="248.468385" y="107.171239" style="fill: #bfbf00; stroke: #bfbf00"/>
     <use xlink:href="#mda9ba1f131" x="259.088893" y="114.858416" style="fill: #bfbf00; stroke: #bfbf00"/>
     <use xlink:href="#mda9ba1f131" x="253.17968" y="106.64219" style="fill: #bfbf00; stroke: #bfbf00"/>
     <use xlink:href="#mda9ba1f131" x="181.631633" y="127.954692" style="fill: #bfbf00; stroke: #bfbf00"/>
     <use xlink:href="#mda9ba1f131" x="207.600555" y="132.821758" style="fill: #bfbf00; stroke: #bfbf00"/>
     <use xlink:href="#mda9ba1f131" x="95.120478" y="148.19882" style="fill: #bfbf00; stroke: #bfbf00"/>
     <use xlink:href="#mda9ba1f131" x="111.735411" y="131.418806" style="fill: #bfbf00; stroke: #bfbf00"/>
     <use xlink:href="#mda9ba1f131" x="100.517836" y="130.516756" style="fill: #bfbf00; stroke: #bfbf00"/>
     <use xlink:href="#mda9ba1f131" x="71.566115" y="128.160486" style="fill: #bfbf00; stroke: #bfbf00"/>
     <use xlink:href="#mda9ba1f131" x="178.474652" y="109.95718" style="fill: #bfbf00; stroke: #bfbf00"/>
     <use xlink:href="#mda9ba1f131" x="235.615235" y="122.157759" style="fill: #bfbf00; stroke: #bfbf00"/>
     <use xlink:href="#mda9ba1f131" x="182.32382" y="105.306497" style="fill: #bfbf00; stroke: #bfbf00"/>
     <use xlink:href="#mda9ba1f131" x="224.223598" y="126.550263" style="fill: #bfbf00; stroke: #bfbf00"/>
     <use xlink:href="#mda9ba1f131" x="74.768035" y="123.555571" style="fill: #bfbf00; stroke: #bfbf00"/>
     <use xlink:href="#mda9ba1f131" x="192.740955" y="118.299078" style="fill: #bfbf00; stroke: #bfbf00"/>
     <use xlink:href="#mda9ba1f131" x="137.573635" y="117.997701" style="fill: #bfbf00; stroke: #bfbf00"/>
     <use xlink:href="#mda9ba1f131" x="216.105913" y="124.461476" style="fill: #bfbf00; stroke: #bfbf00"/>
     <use xlink:href="#mda9ba1f131" x="179.960544" y="137.170023" style="fill: #bfbf00; stroke: #bfbf00"/>
     <use xlink:href="#mda9ba1f131" x="288.697236" y="113.658459" style="fill: #bfbf00; stroke: #bfbf00"/>
     <use xlink:href="#mda9ba1f131" x="249.513314" y="109.38012" style="fill: #bfbf00; stroke: #bfbf00"/>
     <use xlink:href="#mda9ba1f131" x="154.245355" y="108.701195" style="fill: #bfbf00; stroke: #bfbf00"/>
     <use xlink:href="#mda9ba1f131" x="140.961785" y="115.964444" style="fill: #bfbf00; stroke: #bfbf00"/>
     <use xlink:href="#mda9ba1f131" x="198.667584" y="157.605254" style="fill: #bfbf00; stroke: #bfbf00"/>
     <use xlink:href="#mda9ba1f131" x="163.902839" y="124.461476" style="fill: #bfbf00; stroke: #bfbf00"/>
     <use xlink:href="#mda9ba1f131" x="52.937964" y="118.450845" style="fill: #bfbf00; stroke: #bfbf00"/>
     <use xlink:href="#mda9ba1f131" x="74.058007" y="106.328935" style="fill: #bfbf00; stroke: #bfbf00"/>
    </g>
   </g>
   <g id="PathCollection_8">
    <defs>
     <path id="m9183390c99" d="M -2.236068 0 
L 2.236068 0 
M 0 2.236068 
L 0 -2.236068 
" style="stroke: #9467bd; stroke-width: 1.5"/>
    </defs>
    <g clip-path="url(#pb3d9078e35)">
     <use xlink:href="#m9183390c99" x="254.239823" y="101.606323" style="fill: #9467bd; stroke: #9467bd; stroke-width: 1.5"/>
     <use xlink:href="#m9183390c99" x="240.51205" y="100.204659" style="fill: #9467bd; stroke: #9467bd; stroke-width: 1.5"/>
     <use xlink:href="#m9183390c99" x="129.435796" y="102.978987" style="fill: #9467bd; stroke: #9467bd; stroke-width: 1.5"/>
     <use xlink:href="#m9183390c99" x="248.468385" y="101.073432" style="fill: #9467bd; stroke: #9467bd; stroke-width: 1.5"/>
     <use xlink:href="#m9183390c99" x="259.088893" y="97.732292" style="fill: #9467bd; stroke: #9467bd; stroke-width: 1.5"/>
     <use xlink:href="#m9183390c99" x="253.17968" y="104.218533" style="fill: #9467bd; stroke: #9467bd; stroke-width: 1.5"/>
     <use xlink:href="#m9183390c99" x="181.631633" y="118.450845" style="fill: #9467bd; stroke: #9467bd; stroke-width: 1.5"/>
     <use xlink:href="#m9183390c99" x="207.600555" y="106.852754" style="fill: #9467bd; stroke: #9467bd; stroke-width: 1.5"/>
     <use xlink:href="#m9183390c99" x="95.120478" y="117.699153" style="fill: #9467bd; stroke: #9467bd; stroke-width: 1.5"/>
     <use xlink:href="#m9183390c99" x="111.735411" y="116.81997" style="fill: #9467bd; stroke: #9467bd; stroke-width: 1.5"/>
     <use xlink:href="#m9183390c99" x="100.517836" y="101.785957" style="fill: #9467bd; stroke: #9467bd; stroke-width: 1.5"/>
     <use xlink:href="#m9183390c99" x="71.566115" y="108.925897" style="fill: #9467bd; stroke: #9467bd; stroke-width: 1.5"/>
     <use xlink:href="#m9183390c99" x="178.474652" y="99.192528" style="fill: #9467bd; stroke: #9467bd; stroke-width: 1.5"/>
     <use xlink:href="#m9183390c99" x="235.615235" y="112.88293" style="fill: #9467bd; stroke: #9467bd; stroke-width: 1.5"/>
     <use xlink:href="#m9183390c99" x="182.32382" y="105.711535" style="fill: #9467bd; stroke: #9467bd; stroke-width: 1.5"/>
     <use xlink:href="#m9183390c99" x="224.223598" y="109.609689" style="fill: #9467bd; stroke: #9467bd; stroke-width: 1.5"/>
     <use xlink:href="#m9183390c99" x="74.768035" y="102.699672" style="fill: #9467bd; stroke: #9467bd; stroke-width: 1.5"/>
     <use xlink:href="#m9183390c99" x="192.740955" y="111.630992" style="fill: #9467bd; stroke: #9467bd; stroke-width: 1.5"/>
     <use xlink:href="#m9183390c99" x="137.573635" y="102.514817" style="fill: #9467bd; stroke: #9467bd; stroke-width: 1.5"/>
     <use xlink:href="#m9183390c99" x="216.105913" y="109.494697" style="fill: #9467bd; stroke: #9467bd; stroke-width: 1.5"/>
     <use xlink:href="#m9183390c99" x="179.960544" y="110.073859" style="fill: #9467bd; stroke: #9467bd; stroke-width: 1.5"/>
     <use xlink:href="#m9183390c99" x="288.697236" y="100.636078" style="fill: #9467bd; stroke: #9467bd; stroke-width: 1.5"/>
     <use xlink:href="#m9183390c99" x="249.513314" y="105.711535" style="fill: #9467bd; stroke: #9467bd; stroke-width: 1.5"/>
     <use xlink:href="#m9183390c99" x="154.245355" y="107.600909" style="fill: #9467bd; stroke: #9467bd; stroke-width: 1.5"/>
     <use xlink:href="#m9183390c99" x="140.961785" y="106.433011" style="fill: #9467bd; stroke: #9467bd; stroke-width: 1.5"/>
     <use xlink:href="#m9183390c99" x="198.667584" y="126.3546" style="fill: #9467bd; stroke: #9467bd; stroke-width: 1.5"/>
     <use xlink:href="#m9183390c99" x="163.902839" y="102.792505" style="fill: #9467bd; stroke: #9467bd; stroke-width: 1.5"/>
     <use xlink:href="#m9183390c99" x="52.937964" y="120.655349" style="fill: #9467bd; stroke: #9467bd; stroke-width: 1.5"/>
     <use xlink:href="#m9183390c99" x="74.058007" y="114.722829" style="fill: #9467bd; stroke: #9467bd; stroke-width: 1.5"/>
    </g>
   </g>
   <g id="PathCollection_9">
    <defs>
     <path id="m3e6217b6e2" d="M -2.236068 2.236068 
L 2.236068 -2.236068 
M -2.236068 -2.236068 
L 2.236068 2.236068 
" style="stroke: #8c564b; stroke-width: 1.5"/>
    </defs>
    <g clip-path="url(#pb3d9078e35)">
     <use xlink:href="#m3e6217b6e2" x="254.239823" y="202.208176" style="fill: #8c564b; stroke: #8c564b; stroke-width: 1.5"/>
     <use xlink:href="#m3e6217b6e2" x="240.51205" y="200.156167" style="fill: #8c564b; stroke: #8c564b; stroke-width: 1.5"/>
     <use xlink:href="#m3e6217b6e2" x="129.435796" y="215.099981" style="fill: #8c564b; stroke: #8c564b; stroke-width: 1.5"/>
     <use xlink:href="#m3e6217b6e2" x="248.468385" y="218.449929" style="fill: #8c564b; stroke: #8c564b; stroke-width: 1.5"/>
     <use xlink:href="#m3e6217b6e2" x="259.088893" y="202.208176" style="fill: #8c564b; stroke: #8c564b; stroke-width: 1.5"/>
     <use xlink:href="#m3e6217b6e2" x="253.17968" y="193.061295" style="fill: #8c564b; stroke: #8c564b; stroke-width: 1.5"/>
     <use xlink:href="#m3e6217b6e2" x="181.631633" y="244.233538" style="fill: #8c564b; stroke: #8c564b; stroke-width: 1.5"/>
     <use xlink:href="#m3e6217b6e2" x="207.600555" y="209.303048" style="fill: #8c564b; stroke: #8c564b; stroke-width: 1.5"/>
     <use xlink:href="#m3e6217b6e2" x="95.120478" y="209.303048" style="fill: #8c564b; stroke: #8c564b; stroke-width: 1.5"/>
     <use xlink:href="#m3e6217b6e2" x="111.735411" y="237.138666" style="fill: #8c564b; stroke: #8c564b; stroke-width: 1.5"/>
     <use xlink:href="#m3e6217b6e2" x="100.517836" y="218.449929" style="fill: #8c564b; stroke: #8c564b; stroke-width: 1.5"/>
     <use xlink:href="#m3e6217b6e2" x="71.566115" y="244.233538" style="fill: #8c564b; stroke: #8c564b; stroke-width: 1.5"/>
     <use xlink:href="#m3e6217b6e2" x="178.474652" y="218.449929" style="fill: #8c564b; stroke: #8c564b; stroke-width: 1.5"/>
     <use xlink:href="#m3e6217b6e2" x="235.615235" y="231.341733" style="fill: #8c564b; stroke: #8c564b; stroke-width: 1.5"/>
     <use xlink:href="#m3e6217b6e2" x="182.32382" y="231.341733" style="fill: #8c564b; stroke: #8c564b; stroke-width: 1.5"/>
     <use xlink:href="#m3e6217b6e2" x="224.223598" y="231.341733" style="fill: #8c564b; stroke: #8c564b; stroke-width: 1.5"/>
     <use xlink:href="#m3e6217b6e2" x="74.768035" y="215.099981" style="fill: #8c564b; stroke: #8c564b; stroke-width: 1.5"/>
     <use xlink:href="#m3e6217b6e2" x="192.740955" y="231.341733" style="fill: #8c564b; stroke: #8c564b; stroke-width: 1.5"/>
     <use xlink:href="#m3e6217b6e2" x="137.573635" y="218.449929" style="fill: #8c564b; stroke: #8c564b; stroke-width: 1.5"/>
     <use xlink:href="#m3e6217b6e2" x="216.105913" y="231.341733" style="fill: #8c564b; stroke: #8c564b; stroke-width: 1.5"/>
     <use xlink:href="#m3e6217b6e2" x="179.960544" y="237.138666" style="fill: #8c564b; stroke: #8c564b; stroke-width: 1.5"/>
     <use xlink:href="#m3e6217b6e2" x="288.697236" y="212.069584" style="fill: #8c564b; stroke: #8c564b; stroke-width: 1.5"/>
     <use xlink:href="#m3e6217b6e2" x="249.513314" y="231.341733" style="fill: #8c564b; stroke: #8c564b; stroke-width: 1.5"/>
     <use xlink:href="#m3e6217b6e2" x="154.245355" y="212.069584" style="fill: #8c564b; stroke: #8c564b; stroke-width: 1.5"/>
     <use xlink:href="#m3e6217b6e2" x="140.961785" y="231.341733" style="fill: #8c564b; stroke: #8c564b; stroke-width: 1.5"/>
     <use xlink:href="#m3e6217b6e2" x="198.667584" y="288.310909" style="fill: #8c564b; stroke: #8c564b; stroke-width: 1.5"/>
     <use xlink:href="#m3e6217b6e2" x="163.902839" y="206.758082" style="fill: #8c564b; stroke: #8c564b; stroke-width: 1.5"/>
     <use xlink:href="#m3e6217b6e2" x="52.937964" y="231.341733" style="fill: #8c564b; stroke: #8c564b; stroke-width: 1.5"/>
     <use xlink:href="#m3e6217b6e2" x="74.058007" y="237.138666" style="fill: #8c564b; stroke: #8c564b; stroke-width: 1.5"/>
    </g>
   </g>
   <g id="PathCollection_10">
    <defs>
     <path id="mf344731629" d="M 0 -2.236068 
L -2.236068 2.236068 
L 2.236068 2.236068 
z
" style="stroke: #ff7f0e"/>
    </defs>
    <g clip-path="url(#pb3d9078e35)">
     <use xlink:href="#mf344731629" x="254.239823" y="41.94783" style="fill: #ff7f0e; stroke: #ff7f0e"/>
     <use xlink:href="#mf344731629" x="240.51205" y="39.979947" style="fill: #ff7f0e; stroke: #ff7f0e"/>
     <use xlink:href="#mf344731629" x="129.435796" y="46.528349" style="fill: #ff7f0e; stroke: #ff7f0e"/>
     <use xlink:href="#mf344731629" x="248.468385" y="41.188832" style="fill: #ff7f0e; stroke: #ff7f0e"/>
     <use xlink:href="#mf344731629" x="259.088893" y="39.851273" style="fill: #ff7f0e; stroke: #ff7f0e"/>
     <use xlink:href="#mf344731629" x="253.17968" y="39.889821" style="fill: #ff7f0e; stroke: #ff7f0e"/>
     <use xlink:href="#mf344731629" x="181.631633" y="55.722792" style="fill: #ff7f0e; stroke: #ff7f0e"/>
     <use xlink:href="#mf344731629" x="207.600555" y="50.631733" style="fill: #ff7f0e; stroke: #ff7f0e"/>
     <use xlink:href="#mf344731629" x="95.120478" y="52.277791" style="fill: #ff7f0e; stroke: #ff7f0e"/>
     <use xlink:href="#mf344731629" x="111.735411" y="58.97183" style="fill: #ff7f0e; stroke: #ff7f0e"/>
     <use xlink:href="#mf344731629" x="100.517836" y="45.916434" style="fill: #ff7f0e; stroke: #ff7f0e"/>
     <use xlink:href="#mf344731629" x="71.566115" y="50.113275" style="fill: #ff7f0e; stroke: #ff7f0e"/>
     <use xlink:href="#mf344731629" x="178.474652" y="39.329091" style="fill: #ff7f0e; stroke: #ff7f0e"/>
     <use xlink:href="#mf344731629" x="235.615235" y="50.830623" style="fill: #ff7f0e; stroke: #ff7f0e"/>
     <use xlink:href="#mf344731629" x="182.32382" y="39.812773" style="fill: #ff7f0e; stroke: #ff7f0e"/>
     <use xlink:href="#mf344731629" x="224.223598" y="49.690508" style="fill: #ff7f0e; stroke: #ff7f0e"/>
     <use xlink:href="#mf344731629" x="74.768035" y="44.54771" style="fill: #ff7f0e; stroke: #ff7f0e"/>
     <use xlink:href="#mf344731629" x="192.740955" y="48.963929" style="fill: #ff7f0e; stroke: #ff7f0e"/>
     <use xlink:href="#mf344731629" x="137.573635" y="44.016303" style="fill: #ff7f0e; stroke: #ff7f0e"/>
     <use xlink:href="#mf344731629" x="216.105913" y="48.640615" style="fill: #ff7f0e; stroke: #ff7f0e"/>
     <use xlink:href="#mf344731629" x="179.960544" y="55.743954" style="fill: #ff7f0e; stroke: #ff7f0e"/>
     <use xlink:href="#mf344731629" x="288.697236" y="43.928592" style="fill: #ff7f0e; stroke: #ff7f0e"/>
     <use xlink:href="#mf344731629" x="249.513314" y="44.266139" style="fill: #ff7f0e; stroke: #ff7f0e"/>
     <use xlink:href="#mf344731629" x="154.245355" y="42.195693" style="fill: #ff7f0e; stroke: #ff7f0e"/>
     <use xlink:href="#mf344731629" x="140.961785" y="45.209505" style="fill: #ff7f0e; stroke: #ff7f0e"/>
     <use xlink:href="#mf344731629" x="198.667584" y="70.275548" style="fill: #ff7f0e; stroke: #ff7f0e"/>
     <use xlink:href="#mf344731629" x="163.902839" y="43.392992" style="fill: #ff7f0e; stroke: #ff7f0e"/>
     <use xlink:href="#mf344731629" x="52.937964" y="48.861474" style="fill: #ff7f0e; stroke: #ff7f0e"/>
     <use xlink:href="#mf344731629" x="74.058007" y="44.030945" style="fill: #ff7f0e; stroke: #ff7f0e"/>
    </g>
   </g>
   <g id="matplotlib.axis_1">
    <g id="xtick_1">
     <g id="line2d_1">
      <defs>
       <path id="m85c206b8ab" d="M 0 0 
L 0 3.5 
" style="stroke: #000000; stroke-width: 0.8"/>
      </defs>
      <g>
       <use xlink:href="#m85c206b8ab" x="73.766045" y="300.76" style="stroke: #000000; stroke-width: 0.8"/>
      </g>
     </g>
     <g id="text_1">
      <!-- −2.5 -->
      <g transform="translate(61.624639 315.358437)scale(0.1 -0.1)">
       <defs>
        <path id="DejaVuSans-2212" d="M 678 2272 
L 4684 2272 
L 4684 1741 
L 678 1741 
L 678 2272 
z
" transform="scale(0.015625)"/>
        <path id="DejaVuSans-32" d="M 1228 531 
L 3431 531 
L 3431 0 
L 469 0 
L 469 531 
Q 828 903 1448 1529 
Q 2069 2156 2228 2338 
Q 2531 2678 2651 2914 
Q 2772 3150 2772 3378 
Q 2772 3750 2511 3984 
Q 2250 4219 1831 4219 
Q 1534 4219 1204 4116 
Q 875 4013 500 3803 
L 500 4441 
Q 881 4594 1212 4672 
Q 1544 4750 1819 4750 
Q 2544 4750 2975 4387 
Q 3406 4025 3406 3419 
Q 3406 3131 3298 2873 
Q 3191 2616 2906 2266 
Q 2828 2175 2409 1742 
Q 1991 1309 1228 531 
z
" transform="scale(0.015625)"/>
        <path id="DejaVuSans-2e" d="M 684 794 
L 1344 794 
L 1344 0 
L 684 0 
L 684 794 
z
" transform="scale(0.015625)"/>
        <path id="DejaVuSans-35" d="M 691 4666 
L 3169 4666 
L 3169 4134 
L 1269 4134 
L 1269 2991 
Q 1406 3038 1543 3061 
Q 1681 3084 1819 3084 
Q 2600 3084 3056 2656 
Q 3513 2228 3513 1497 
Q 3513 744 3044 326 
Q 2575 -91 1722 -91 
Q 1428 -91 1123 -41 
Q 819 9 494 109 
L 494 744 
Q 775 591 1075 516 
Q 1375 441 1709 441 
Q 2250 441 2565 725 
Q 2881 1009 2881 1497 
Q 2881 1984 2565 2268 
Q 2250 2553 1709 2553 
Q 1456 2553 1204 2497 
Q 953 2441 691 2322 
L 691 4666 
z
" transform="scale(0.015625)"/>
       </defs>
       <use xlink:href="#DejaVuSans-2212"/>
       <use xlink:href="#DejaVuSans-32" x="83.789062"/>
       <use xlink:href="#DejaVuSans-2e" x="147.412109"/>
       <use xlink:href="#DejaVuSans-35" x="179.199219"/>
      </g>
     </g>
    </g>
    <g id="xtick_2">
     <g id="line2d_2">
      <g>
       <use xlink:href="#m85c206b8ab" x="109.696505" y="300.76" style="stroke: #000000; stroke-width: 0.8"/>
      </g>
     </g>
     <g id="text_2">
      <!-- −2.0 -->
      <g transform="translate(97.555098 315.358437)scale(0.1 -0.1)">
       <defs>
        <path id="DejaVuSans-30" d="M 2034 4250 
Q 1547 4250 1301 3770 
Q 1056 3291 1056 2328 
Q 1056 1369 1301 889 
Q 1547 409 2034 409 
Q 2525 409 2770 889 
Q 3016 1369 3016 2328 
Q 3016 3291 2770 3770 
Q 2525 4250 2034 4250 
z
M 2034 4750 
Q 2819 4750 3233 4129 
Q 3647 3509 3647 2328 
Q 3647 1150 3233 529 
Q 2819 -91 2034 -91 
Q 1250 -91 836 529 
Q 422 1150 422 2328 
Q 422 3509 836 4129 
Q 1250 4750 2034 4750 
z
" transform="scale(0.015625)"/>
       </defs>
       <use xlink:href="#DejaVuSans-2212"/>
       <use xlink:href="#DejaVuSans-32" x="83.789062"/>
       <use xlink:href="#DejaVuSans-2e" x="147.412109"/>
       <use xlink:href="#DejaVuSans-30" x="179.199219"/>
      </g>
     </g>
    </g>
    <g id="xtick_3">
     <g id="line2d_3">
      <g>
       <use xlink:href="#m85c206b8ab" x="145.626964" y="300.76" style="stroke: #000000; stroke-width: 0.8"/>
      </g>
     </g>
     <g id="text_3">
      <!-- −1.5 -->
      <g transform="translate(133.485558 315.358437)scale(0.1 -0.1)">
       <defs>
        <path id="DejaVuSans-31" d="M 794 531 
L 1825 531 
L 1825 4091 
L 703 3866 
L 703 4441 
L 1819 4666 
L 2450 4666 
L 2450 531 
L 3481 531 
L 3481 0 
L 794 0 
L 794 531 
z
" transform="scale(0.015625)"/>
       </defs>
       <use xlink:href="#DejaVuSans-2212"/>
       <use xlink:href="#DejaVuSans-31" x="83.789062"/>
       <use xlink:href="#DejaVuSans-2e" x="147.412109"/>
       <use xlink:href="#DejaVuSans-35" x="179.199219"/>
      </g>
     </g>
    </g>
    <g id="xtick_4">
     <g id="line2d_4">
      <g>
       <use xlink:href="#m85c206b8ab" x="181.557424" y="300.76" style="stroke: #000000; stroke-width: 0.8"/>
      </g>
     </g>
     <g id="text_4">
      <!-- −1.0 -->
      <g transform="translate(169.416018 315.358437)scale(0.1 -0.1)">
       <use xlink:href="#DejaVuSans-2212"/>
       <use xlink:href="#DejaVuSans-31" x="83.789062"/>
       <use xlink:href="#DejaVuSans-2e" x="147.412109"/>
       <use xlink:href="#DejaVuSans-30" x="179.199219"/>
      </g>
     </g>
    </g>
    <g id="xtick_5">
     <g id="line2d_5">
      <g>
       <use xlink:href="#m85c206b8ab" x="217.487884" y="300.76" style="stroke: #000000; stroke-width: 0.8"/>
      </g>
     </g>
     <g id="text_5">
      <!-- −0.5 -->
      <g transform="translate(205.346478 315.358437)scale(0.1 -0.1)">
       <use xlink:href="#DejaVuSans-2212"/>
       <use xlink:href="#DejaVuSans-30" x="83.789062"/>
       <use xlink:href="#DejaVuSans-2e" x="147.412109"/>
       <use xlink:href="#DejaVuSans-35" x="179.199219"/>
      </g>
     </g>
    </g>
    <g id="xtick_6">
     <g id="line2d_6">
      <g>
       <use xlink:href="#m85c206b8ab" x="253.418343" y="300.76" style="stroke: #000000; stroke-width: 0.8"/>
      </g>
     </g>
     <g id="text_6">
      <!-- 0.0 -->
      <g transform="translate(245.466781 315.358437)scale(0.1 -0.1)">
       <use xlink:href="#DejaVuSans-30"/>
       <use xlink:href="#DejaVuSans-2e" x="63.623047"/>
       <use xlink:href="#DejaVuSans-30" x="95.410156"/>
      </g>
     </g>
    </g>
    <g id="xtick_7">
     <g id="line2d_7">
      <g>
       <use xlink:href="#m85c206b8ab" x="289.348803" y="300.76" style="stroke: #000000; stroke-width: 0.8"/>
      </g>
     </g>
     <g id="text_7">
      <!-- 0.5 -->
      <g transform="translate(281.397241 315.358437)scale(0.1 -0.1)">
       <use xlink:href="#DejaVuSans-30"/>
       <use xlink:href="#DejaVuSans-2e" x="63.623047"/>
       <use xlink:href="#DejaVuSans-35" x="95.410156"/>
      </g>
     </g>
    </g>
    <g id="text_8">
     <!-- PctFrstLoss2003Ws (in log10) -->
     <g transform="translate(70.093537 330.55625)scale(0.12 -0.12)">
      <defs>
       <path id="DejaVuSans-Bold-50" d="M 588 4666 
L 2584 4666 
Q 3475 4666 3951 4270 
Q 4428 3875 4428 3144 
Q 4428 2409 3951 2014 
Q 3475 1619 2584 1619 
L 1791 1619 
L 1791 0 
L 588 0 
L 588 4666 
z
M 1791 3794 
L 1791 2491 
L 2456 2491 
Q 2806 2491 2997 2661 
Q 3188 2831 3188 3144 
Q 3188 3456 2997 3625 
Q 2806 3794 2456 3794 
L 1791 3794 
z
" transform="scale(0.015625)"/>
       <path id="DejaVuSans-Bold-63" d="M 3366 3391 
L 3366 2478 
Q 3138 2634 2908 2709 
Q 2678 2784 2431 2784 
Q 1963 2784 1702 2511 
Q 1441 2238 1441 1747 
Q 1441 1256 1702 982 
Q 1963 709 2431 709 
Q 2694 709 2930 787 
Q 3166 866 3366 1019 
L 3366 103 
Q 3103 6 2833 -42 
Q 2563 -91 2291 -91 
Q 1344 -91 809 395 
Q 275 881 275 1747 
Q 275 2613 809 3098 
Q 1344 3584 2291 3584 
Q 2566 3584 2833 3536 
Q 3100 3488 3366 3391 
z
" transform="scale(0.015625)"/>
       <path id="DejaVuSans-Bold-74" d="M 1759 4494 
L 1759 3500 
L 2913 3500 
L 2913 2700 
L 1759 2700 
L 1759 1216 
Q 1759 972 1856 886 
Q 1953 800 2241 800 
L 2816 800 
L 2816 0 
L 1856 0 
Q 1194 0 917 276 
Q 641 553 641 1216 
L 641 2700 
L 84 2700 
L 84 3500 
L 641 3500 
L 641 4494 
L 1759 4494 
z
" transform="scale(0.015625)"/>
       <path id="DejaVuSans-Bold-46" d="M 588 4666 
L 3834 4666 
L 3834 3756 
L 1791 3756 
L 1791 2888 
L 3713 2888 
L 3713 1978 
L 1791 1978 
L 1791 0 
L 588 0 
L 588 4666 
z
" transform="scale(0.015625)"/>
       <path id="DejaVuSans-Bold-72" d="M 3138 2547 
Q 2991 2616 2845 2648 
Q 2700 2681 2553 2681 
Q 2122 2681 1889 2404 
Q 1656 2128 1656 1613 
L 1656 0 
L 538 0 
L 538 3500 
L 1656 3500 
L 1656 2925 
Q 1872 3269 2151 3426 
Q 2431 3584 2822 3584 
Q 2878 3584 2943 3579 
Q 3009 3575 3134 3559 
L 3138 2547 
z
" transform="scale(0.015625)"/>
       <path id="DejaVuSans-Bold-73" d="M 3272 3391 
L 3272 2541 
Q 2913 2691 2578 2766 
Q 2244 2841 1947 2841 
Q 1628 2841 1473 2761 
Q 1319 2681 1319 2516 
Q 1319 2381 1436 2309 
Q 1553 2238 1856 2203 
L 2053 2175 
Q 2913 2066 3209 1816 
Q 3506 1566 3506 1031 
Q 3506 472 3093 190 
Q 2681 -91 1863 -91 
Q 1516 -91 1145 -36 
Q 775 19 384 128 
L 384 978 
Q 719 816 1070 734 
Q 1422 653 1784 653 
Q 2113 653 2278 743 
Q 2444 834 2444 1013 
Q 2444 1163 2330 1236 
Q 2216 1309 1875 1350 
L 1678 1375 
Q 931 1469 631 1722 
Q 331 1975 331 2491 
Q 331 3047 712 3315 
Q 1094 3584 1881 3584 
Q 2191 3584 2531 3537 
Q 2872 3491 3272 3391 
z
" transform="scale(0.015625)"/>
       <path id="DejaVuSans-Bold-4c" d="M 588 4666 
L 1791 4666 
L 1791 909 
L 3903 909 
L 3903 0 
L 588 0 
L 588 4666 
z
" transform="scale(0.015625)"/>
       <path id="DejaVuSans-Bold-6f" d="M 2203 2784 
Q 1831 2784 1636 2517 
Q 1441 2250 1441 1747 
Q 1441 1244 1636 976 
Q 1831 709 2203 709 
Q 2569 709 2762 976 
Q 2956 1244 2956 1747 
Q 2956 2250 2762 2517 
Q 2569 2784 2203 2784 
z
M 2203 3584 
Q 3106 3584 3614 3096 
Q 4122 2609 4122 1747 
Q 4122 884 3614 396 
Q 3106 -91 2203 -91 
Q 1297 -91 786 396 
Q 275 884 275 1747 
Q 275 2609 786 3096 
Q 1297 3584 2203 3584 
z
" transform="scale(0.015625)"/>
       <path id="DejaVuSans-Bold-32" d="M 1844 884 
L 3897 884 
L 3897 0 
L 506 0 
L 506 884 
L 2209 2388 
Q 2438 2594 2547 2791 
Q 2656 2988 2656 3200 
Q 2656 3528 2436 3728 
Q 2216 3928 1850 3928 
Q 1569 3928 1234 3808 
Q 900 3688 519 3450 
L 519 4475 
Q 925 4609 1322 4679 
Q 1719 4750 2100 4750 
Q 2938 4750 3402 4381 
Q 3866 4013 3866 3353 
Q 3866 2972 3669 2642 
Q 3472 2313 2841 1759 
L 1844 884 
z
" transform="scale(0.015625)"/>
       <path id="DejaVuSans-Bold-30" d="M 2944 2338 
Q 2944 3213 2780 3570 
Q 2616 3928 2228 3928 
Q 1841 3928 1675 3570 
Q 1509 3213 1509 2338 
Q 1509 1453 1675 1090 
Q 1841 728 2228 728 
Q 2613 728 2778 1090 
Q 2944 1453 2944 2338 
z
M 4147 2328 
Q 4147 1169 3647 539 
Q 3147 -91 2228 -91 
Q 1306 -91 806 539 
Q 306 1169 306 2328 
Q 306 3491 806 4120 
Q 1306 4750 2228 4750 
Q 3147 4750 3647 4120 
Q 4147 3491 4147 2328 
z
" transform="scale(0.015625)"/>
       <path id="DejaVuSans-Bold-33" d="M 2981 2516 
Q 3453 2394 3698 2092 
Q 3944 1791 3944 1325 
Q 3944 631 3412 270 
Q 2881 -91 1863 -91 
Q 1503 -91 1142 -33 
Q 781 25 428 141 
L 428 1069 
Q 766 900 1098 814 
Q 1431 728 1753 728 
Q 2231 728 2486 893 
Q 2741 1059 2741 1369 
Q 2741 1688 2480 1852 
Q 2219 2016 1709 2016 
L 1228 2016 
L 1228 2791 
L 1734 2791 
Q 2188 2791 2409 2933 
Q 2631 3075 2631 3366 
Q 2631 3634 2415 3781 
Q 2200 3928 1806 3928 
Q 1516 3928 1219 3862 
Q 922 3797 628 3669 
L 628 4550 
Q 984 4650 1334 4700 
Q 1684 4750 2022 4750 
Q 2931 4750 3382 4451 
Q 3834 4153 3834 3553 
Q 3834 3144 3618 2883 
Q 3403 2622 2981 2516 
z
" transform="scale(0.015625)"/>
       <path id="DejaVuSans-Bold-57" d="M 191 4666 
L 1344 4666 
L 2150 1275 
L 2950 4666 
L 4109 4666 
L 4909 1275 
L 5716 4666 
L 6859 4666 
L 5759 0 
L 4372 0 
L 3525 3547 
L 2688 0 
L 1300 0 
L 191 4666 
z
" transform="scale(0.015625)"/>
       <path id="DejaVuSans-Bold-20" transform="scale(0.015625)"/>
       <path id="DejaVuSans-Bold-28" d="M 2413 -844 
L 1484 -844 
Q 1006 -72 778 623 
Q 550 1319 550 2003 
Q 550 2688 779 3389 
Q 1009 4091 1484 4856 
L 2413 4856 
Q 2013 4116 1813 3408 
Q 1613 2700 1613 2009 
Q 1613 1319 1811 609 
Q 2009 -100 2413 -844 
z
" transform="scale(0.015625)"/>
       <path id="DejaVuSans-Bold-69" d="M 538 3500 
L 1656 3500 
L 1656 0 
L 538 0 
L 538 3500 
z
M 538 4863 
L 1656 4863 
L 1656 3950 
L 538 3950 
L 538 4863 
z
" transform="scale(0.015625)"/>
       <path id="DejaVuSans-Bold-6e" d="M 4056 2131 
L 4056 0 
L 2931 0 
L 2931 347 
L 2931 1631 
Q 2931 2084 2911 2256 
Q 2891 2428 2841 2509 
Q 2775 2619 2662 2680 
Q 2550 2741 2406 2741 
Q 2056 2741 1856 2470 
Q 1656 2200 1656 1722 
L 1656 0 
L 538 0 
L 538 3500 
L 1656 3500 
L 1656 2988 
Q 1909 3294 2193 3439 
Q 2478 3584 2822 3584 
Q 3428 3584 3742 3212 
Q 4056 2841 4056 2131 
z
" transform="scale(0.015625)"/>
       <path id="DejaVuSans-Bold-6c" d="M 538 4863 
L 1656 4863 
L 1656 0 
L 538 0 
L 538 4863 
z
" transform="scale(0.015625)"/>
       <path id="DejaVuSans-Bold-67" d="M 2919 594 
Q 2688 288 2409 144 
Q 2131 0 1766 0 
Q 1125 0 706 504 
Q 288 1009 288 1791 
Q 288 2575 706 3076 
Q 1125 3578 1766 3578 
Q 2131 3578 2409 3434 
Q 2688 3291 2919 2981 
L 2919 3500 
L 4044 3500 
L 4044 353 
Q 4044 -491 3511 -936 
Q 2978 -1381 1966 -1381 
Q 1638 -1381 1331 -1331 
Q 1025 -1281 716 -1178 
L 716 -306 
Q 1009 -475 1290 -558 
Q 1572 -641 1856 -641 
Q 2406 -641 2662 -400 
Q 2919 -159 2919 353 
L 2919 594 
z
M 2181 2772 
Q 1834 2772 1640 2515 
Q 1447 2259 1447 1791 
Q 1447 1309 1634 1061 
Q 1822 813 2181 813 
Q 2531 813 2725 1069 
Q 2919 1325 2919 1791 
Q 2919 2259 2725 2515 
Q 2531 2772 2181 2772 
z
" transform="scale(0.015625)"/>
       <path id="DejaVuSans-Bold-31" d="M 750 831 
L 1813 831 
L 1813 3847 
L 722 3622 
L 722 4441 
L 1806 4666 
L 2950 4666 
L 2950 831 
L 4013 831 
L 4013 0 
L 750 0 
L 750 831 
z
" transform="scale(0.015625)"/>
       <path id="DejaVuSans-Bold-29" d="M 513 -844 
Q 913 -100 1113 609 
Q 1313 1319 1313 2009 
Q 1313 2700 1113 3408 
Q 913 4116 513 4856 
L 1441 4856 
Q 1916 4091 2145 3389 
Q 2375 2688 2375 2003 
Q 2375 1319 2147 623 
Q 1919 -72 1441 -844 
L 513 -844 
z
" transform="scale(0.015625)"/>
      </defs>
      <use xlink:href="#DejaVuSans-Bold-50"/>
      <use xlink:href="#DejaVuSans-Bold-63" x="73.291016"/>
      <use xlink:href="#DejaVuSans-Bold-74" x="132.568359"/>
      <use xlink:href="#DejaVuSans-Bold-46" x="180.371094"/>
      <use xlink:href="#DejaVuSans-Bold-72" x="242.306641"/>
      <use xlink:href="#DejaVuSans-Bold-73" x="291.623047"/>
      <use xlink:href="#DejaVuSans-Bold-74" x="351.144531"/>
      <use xlink:href="#DejaVuSans-Bold-4c" x="398.947266"/>
      <use xlink:href="#DejaVuSans-Bold-6f" x="462.667969"/>
      <use xlink:href="#DejaVuSans-Bold-73" x="531.369141"/>
      <use xlink:href="#DejaVuSans-Bold-73" x="590.890625"/>
      <use xlink:href="#DejaVuSans-Bold-32" x="650.412109"/>
      <use xlink:href="#DejaVuSans-Bold-30" x="719.992188"/>
      <use xlink:href="#DejaVuSans-Bold-30" x="789.572266"/>
      <use xlink:href="#DejaVuSans-Bold-33" x="859.152344"/>
      <use xlink:href="#DejaVuSans-Bold-57" x="928.732422"/>
      <use xlink:href="#DejaVuSans-Bold-73" x="1039.035156"/>
      <use xlink:href="#DejaVuSans-Bold-20" x="1098.556641"/>
      <use xlink:href="#DejaVuSans-Bold-28" x="1133.371094"/>
      <use xlink:href="#DejaVuSans-Bold-69" x="1179.074219"/>
      <use xlink:href="#DejaVuSans-Bold-6e" x="1213.351562"/>
      <use xlink:href="#DejaVuSans-Bold-20" x="1284.542969"/>
      <use xlink:href="#DejaVuSans-Bold-6c" x="1319.357422"/>
      <use xlink:href="#DejaVuSans-Bold-6f" x="1353.634766"/>
      <use xlink:href="#DejaVuSans-Bold-67" x="1422.335938"/>
      <use xlink:href="#DejaVuSans-Bold-31" x="1493.917969"/>
      <use xlink:href="#DejaVuSans-Bold-30" x="1563.498047"/>
      <use xlink:href="#DejaVuSans-Bold-29" x="1633.078125"/>
     </g>
    </g>
   </g>
   <g id="matplotlib.axis_2">
    <g id="ytick_1">
     <g id="line2d_8">
      <defs>
       <path id="me9100ddd04" d="M 0 0 
L -3.5 0 
" style="stroke: #000000; stroke-width: 0.8"/>
      </defs>
      <g>
       <use xlink:href="#me9100ddd04" x="41.15" y="288.310909" style="stroke: #000000; stroke-width: 0.8"/>
      </g>
     </g>
     <g id="text_9">
      <!-- 0 -->
      <g transform="translate(27.7875 292.110128)scale(0.1 -0.1)">
       <use xlink:href="#DejaVuSans-30"/>
      </g>
     </g>
    </g>
    <g id="ytick_2">
     <g id="line2d_9">
      <g>
       <use xlink:href="#me9100ddd04" x="41.15" y="256.515807" style="stroke: #000000; stroke-width: 0.8"/>
      </g>
     </g>
     <g id="text_10">
      <!-- 1 -->
      <g transform="translate(27.7875 260.315026)scale(0.1 -0.1)">
       <use xlink:href="#DejaVuSans-31"/>
      </g>
     </g>
    </g>
    <g id="ytick_3">
     <g id="line2d_10">
      <g>
       <use xlink:href="#me9100ddd04" x="41.15" y="224.720705" style="stroke: #000000; stroke-width: 0.8"/>
      </g>
     </g>
     <g id="text_11">
      <!-- 2 -->
      <g transform="translate(27.7875 228.519923)scale(0.1 -0.1)">
       <use xlink:href="#DejaVuSans-32"/>
      </g>
     </g>
    </g>
    <g id="ytick_4">
     <g id="line2d_11">
      <g>
       <use xlink:href="#me9100ddd04" x="41.15" y="192.925602" style="stroke: #000000; stroke-width: 0.8"/>
      </g>
     </g>
     <g id="text_12">
      <!-- 3 -->
      <g transform="translate(27.7875 196.724821)scale(0.1 -0.1)">
       <defs>
        <path id="DejaVuSans-33" d="M 2597 2516 
Q 3050 2419 3304 2112 
Q 3559 1806 3559 1356 
Q 3559 666 3084 287 
Q 2609 -91 1734 -91 
Q 1441 -91 1130 -33 
Q 819 25 488 141 
L 488 750 
Q 750 597 1062 519 
Q 1375 441 1716 441 
Q 2309 441 2620 675 
Q 2931 909 2931 1356 
Q 2931 1769 2642 2001 
Q 2353 2234 1838 2234 
L 1294 2234 
L 1294 2753 
L 1863 2753 
Q 2328 2753 2575 2939 
Q 2822 3125 2822 3475 
Q 2822 3834 2567 4026 
Q 2313 4219 1838 4219 
Q 1578 4219 1281 4162 
Q 984 4106 628 3988 
L 628 4550 
Q 988 4650 1302 4700 
Q 1616 4750 1894 4750 
Q 2613 4750 3031 4423 
Q 3450 4097 3450 3541 
Q 3450 3153 3228 2886 
Q 3006 2619 2597 2516 
z
" transform="scale(0.015625)"/>
       </defs>
       <use xlink:href="#DejaVuSans-33"/>
      </g>
     </g>
    </g>
    <g id="ytick_5">
     <g id="line2d_12">
      <g>
       <use xlink:href="#me9100ddd04" x="41.15" y="161.1305" style="stroke: #000000; stroke-width: 0.8"/>
      </g>
     </g>
     <g id="text_13">
      <!-- 4 -->
      <g transform="translate(27.7875 164.929719)scale(0.1 -0.1)">
       <defs>
        <path id="DejaVuSans-34" d="M 2419 4116 
L 825 1625 
L 2419 1625 
L 2419 4116 
z
M 2253 4666 
L 3047 4666 
L 3047 1625 
L 3713 1625 
L 3713 1100 
L 3047 1100 
L 3047 0 
L 2419 0 
L 2419 1100 
L 313 1100 
L 313 1709 
L 2253 4666 
z
" transform="scale(0.015625)"/>
       </defs>
       <use xlink:href="#DejaVuSans-34"/>
      </g>
     </g>
    </g>
    <g id="ytick_6">
     <g id="line2d_13">
      <g>
       <use xlink:href="#me9100ddd04" x="41.15" y="129.335398" style="stroke: #000000; stroke-width: 0.8"/>
      </g>
     </g>
     <g id="text_14">
      <!-- 5 -->
      <g transform="translate(27.7875 133.134616)scale(0.1 -0.1)">
       <use xlink:href="#DejaVuSans-35"/>
      </g>
     </g>
    </g>
    <g id="ytick_7">
     <g id="line2d_14">
      <g>
       <use xlink:href="#me9100ddd04" x="41.15" y="97.540295" style="stroke: #000000; stroke-width: 0.8"/>
      </g>
     </g>
     <g id="text_15">
      <!-- 6 -->
      <g transform="translate(27.7875 101.339514)scale(0.1 -0.1)">
       <defs>
        <path id="DejaVuSans-36" d="M 2113 2584 
Q 1688 2584 1439 2293 
Q 1191 2003 1191 1497 
Q 1191 994 1439 701 
Q 1688 409 2113 409 
Q 2538 409 2786 701 
Q 3034 994 3034 1497 
Q 3034 2003 2786 2293 
Q 2538 2584 2113 2584 
z
M 3366 4563 
L 3366 3988 
Q 3128 4100 2886 4159 
Q 2644 4219 2406 4219 
Q 1781 4219 1451 3797 
Q 1122 3375 1075 2522 
Q 1259 2794 1537 2939 
Q 1816 3084 2150 3084 
Q 2853 3084 3261 2657 
Q 3669 2231 3669 1497 
Q 3669 778 3244 343 
Q 2819 -91 2113 -91 
Q 1303 -91 875 529 
Q 447 1150 447 2328 
Q 447 3434 972 4092 
Q 1497 4750 2381 4750 
Q 2619 4750 2861 4703 
Q 3103 4656 3366 4563 
z
" transform="scale(0.015625)"/>
       </defs>
       <use xlink:href="#DejaVuSans-36"/>
      </g>
     </g>
    </g>
    <g id="ytick_8">
     <g id="line2d_15">
      <g>
       <use xlink:href="#me9100ddd04" x="41.15" y="65.745193" style="stroke: #000000; stroke-width: 0.8"/>
      </g>
     </g>
     <g id="text_16">
      <!-- 7 -->
      <g transform="translate(27.7875 69.544412)scale(0.1 -0.1)">
       <defs>
        <path id="DejaVuSans-37" d="M 525 4666 
L 3525 4666 
L 3525 4397 
L 1831 0 
L 1172 0 
L 2766 4134 
L 525 4134 
L 525 4666 
z
" transform="scale(0.015625)"/>
       </defs>
       <use xlink:href="#DejaVuSans-37"/>
      </g>
     </g>
    </g>
    <g id="ytick_9">
     <g id="line2d_16">
      <g>
       <use xlink:href="#me9100ddd04" x="41.15" y="33.950091" style="stroke: #000000; stroke-width: 0.8"/>
      </g>
     </g>
     <g id="text_17">
      <!-- 8 -->
      <g transform="translate(27.7875 37.749309)scale(0.1 -0.1)">
       <defs>
        <path id="DejaVuSans-38" d="M 2034 2216 
Q 1584 2216 1326 1975 
Q 1069 1734 1069 1313 
Q 1069 891 1326 650 
Q 1584 409 2034 409 
Q 2484 409 2743 651 
Q 3003 894 3003 1313 
Q 3003 1734 2745 1975 
Q 2488 2216 2034 2216 
z
M 1403 2484 
Q 997 2584 770 2862 
Q 544 3141 544 3541 
Q 544 4100 942 4425 
Q 1341 4750 2034 4750 
Q 2731 4750 3128 4425 
Q 3525 4100 3525 3541 
Q 3525 3141 3298 2862 
Q 3072 2584 2669 2484 
Q 3125 2378 3379 2068 
Q 3634 1759 3634 1313 
Q 3634 634 3220 271 
Q 2806 -91 2034 -91 
Q 1263 -91 848 271 
Q 434 634 434 1313 
Q 434 1759 690 2068 
Q 947 2378 1403 2484 
z
M 1172 3481 
Q 1172 3119 1398 2916 
Q 1625 2713 2034 2713 
Q 2441 2713 2670 2916 
Q 2900 3119 2900 3481 
Q 2900 3844 2670 4047 
Q 2441 4250 2034 4250 
Q 1625 4250 1398 4047 
Q 1172 3844 1172 3481 
z
" transform="scale(0.015625)"/>
       </defs>
       <use xlink:href="#DejaVuSans-38"/>
      </g>
     </g>
    </g>
    <g id="text_18">
     <!-- Species richness (in log10) -->
     <g transform="translate(21.198125 254.988125)rotate(-90)scale(0.12 -0.12)">
      <defs>
       <path id="DejaVuSans-Bold-53" d="M 3834 4519 
L 3834 3531 
Q 3450 3703 3084 3790 
Q 2719 3878 2394 3878 
Q 1963 3878 1756 3759 
Q 1550 3641 1550 3391 
Q 1550 3203 1689 3098 
Q 1828 2994 2194 2919 
L 2706 2816 
Q 3484 2659 3812 2340 
Q 4141 2022 4141 1434 
Q 4141 663 3683 286 
Q 3225 -91 2284 -91 
Q 1841 -91 1394 -6 
Q 947 78 500 244 
L 500 1259 
Q 947 1022 1364 901 
Q 1781 781 2169 781 
Q 2563 781 2772 912 
Q 2981 1044 2981 1288 
Q 2981 1506 2839 1625 
Q 2697 1744 2272 1838 
L 1806 1941 
Q 1106 2091 782 2419 
Q 459 2747 459 3303 
Q 459 4000 909 4375 
Q 1359 4750 2203 4750 
Q 2588 4750 2994 4692 
Q 3400 4634 3834 4519 
z
" transform="scale(0.015625)"/>
       <path id="DejaVuSans-Bold-70" d="M 1656 506 
L 1656 -1331 
L 538 -1331 
L 538 3500 
L 1656 3500 
L 1656 2988 
Q 1888 3294 2169 3439 
Q 2450 3584 2816 3584 
Q 3463 3584 3878 3070 
Q 4294 2556 4294 1747 
Q 4294 938 3878 423 
Q 3463 -91 2816 -91 
Q 2450 -91 2169 54 
Q 1888 200 1656 506 
z
M 2400 2772 
Q 2041 2772 1848 2508 
Q 1656 2244 1656 1747 
Q 1656 1250 1848 986 
Q 2041 722 2400 722 
Q 2759 722 2948 984 
Q 3138 1247 3138 1747 
Q 3138 2247 2948 2509 
Q 2759 2772 2400 2772 
z
" transform="scale(0.015625)"/>
       <path id="DejaVuSans-Bold-65" d="M 4031 1759 
L 4031 1441 
L 1416 1441 
Q 1456 1047 1700 850 
Q 1944 653 2381 653 
Q 2734 653 3104 758 
Q 3475 863 3866 1075 
L 3866 213 
Q 3469 63 3072 -14 
Q 2675 -91 2278 -91 
Q 1328 -91 801 392 
Q 275 875 275 1747 
Q 275 2603 792 3093 
Q 1309 3584 2216 3584 
Q 3041 3584 3536 3087 
Q 4031 2591 4031 1759 
z
M 2881 2131 
Q 2881 2450 2695 2645 
Q 2509 2841 2209 2841 
Q 1884 2841 1681 2658 
Q 1478 2475 1428 2131 
L 2881 2131 
z
" transform="scale(0.015625)"/>
       <path id="DejaVuSans-Bold-68" d="M 4056 2131 
L 4056 0 
L 2931 0 
L 2931 347 
L 2931 1625 
Q 2931 2084 2911 2256 
Q 2891 2428 2841 2509 
Q 2775 2619 2662 2680 
Q 2550 2741 2406 2741 
Q 2056 2741 1856 2470 
Q 1656 2200 1656 1722 
L 1656 0 
L 538 0 
L 538 4863 
L 1656 4863 
L 1656 2988 
Q 1909 3294 2193 3439 
Q 2478 3584 2822 3584 
Q 3428 3584 3742 3212 
Q 4056 2841 4056 2131 
z
" transform="scale(0.015625)"/>
      </defs>
      <use xlink:href="#DejaVuSans-Bold-53"/>
      <use xlink:href="#DejaVuSans-Bold-70" x="72.021484"/>
      <use xlink:href="#DejaVuSans-Bold-65" x="143.603516"/>
      <use xlink:href="#DejaVuSans-Bold-63" x="211.425781"/>
      <use xlink:href="#DejaVuSans-Bold-69" x="270.703125"/>
      <use xlink:href="#DejaVuSans-Bold-65" x="304.980469"/>
      <use xlink:href="#DejaVuSans-Bold-73" x="372.802734"/>
      <use xlink:href="#DejaVuSans-Bold-20" x="432.324219"/>
      <use xlink:href="#DejaVuSans-Bold-72" x="467.138672"/>
      <use xlink:href="#DejaVuSans-Bold-69" x="516.455078"/>
      <use xlink:href="#DejaVuSans-Bold-63" x="550.732422"/>
      <use xlink:href="#DejaVuSans-Bold-68" x="610.009766"/>
      <use xlink:href="#DejaVuSans-Bold-6e" x="681.201172"/>
      <use xlink:href="#DejaVuSans-Bold-65" x="752.392578"/>
      <use xlink:href="#DejaVuSans-Bold-73" x="820.214844"/>
      <use xlink:href="#DejaVuSans-Bold-73" x="879.736328"/>
      <use xlink:href="#DejaVuSans-Bold-20" x="939.257812"/>
      <use xlink:href="#DejaVuSans-Bold-28" x="974.072266"/>
      <use xlink:href="#DejaVuSans-Bold-69" x="1019.775391"/>
      <use xlink:href="#DejaVuSans-Bold-6e" x="1054.052734"/>
      <use xlink:href="#DejaVuSans-Bold-20" x="1125.244141"/>
      <use xlink:href="#DejaVuSans-Bold-6c" x="1160.058594"/>
      <use xlink:href="#DejaVuSans-Bold-6f" x="1194.335938"/>
      <use xlink:href="#DejaVuSans-Bold-67" x="1263.037109"/>
      <use xlink:href="#DejaVuSans-Bold-31" x="1334.619141"/>
      <use xlink:href="#DejaVuSans-Bold-30" x="1404.199219"/>
      <use xlink:href="#DejaVuSans-Bold-29" x="1473.779297"/>
     </g>
    </g>
   </g>
   <g id="line2d_17">
    <path d="M 254.239823 155.052678 
L 240.51205 156.047923 
L 129.435796 164.100804 
L 248.468385 155.471099 
L 259.088893 154.701127 
L 253.17968 155.129537 
L 181.631633 160.316675 
L 207.600555 158.433963 
L 95.120478 166.58862 
L 111.735411 165.384059 
L 100.517836 166.197318 
L 71.566115 168.29628 
L 178.474652 160.545552 
L 235.615235 156.402936 
L 182.32382 160.266493 
L 224.223598 157.228814 
L 74.768035 168.064145 
L 192.740955 159.511264 
L 137.573635 163.510822 
L 216.105913 157.817336 
L 179.960544 160.437827 
L 288.697236 152.554561 
L 249.513314 155.395343 
L 154.245355 162.302144 
L 140.961785 163.265186 
L 198.667584 159.081592 
L 163.902839 161.60199 
L 52.937964 169.646796 
L 74.058007 168.115621 
" clip-path="url(#pb3d9078e35)" style="fill: none; stroke: #0000ff; stroke-width: 1.5; stroke-linecap: square"/>
   </g>
   <g id="line2d_18">
    <path clip-path="url(#pb3d9078e35)" style="fill: none; stroke: #000000; stroke-width: 1.5; stroke-linecap: square"/>
   </g>
   <g id="line2d_19">
    <path d="M 254.239823 116.922627 
L 240.51205 117.503948 
L 129.435796 122.207624 
L 248.468385 117.167027 
L 259.088893 116.717287 
L 253.17968 116.96752 
L 181.631633 119.99732 
L 207.600555 118.89763 
L 95.120478 123.660753 
L 111.735411 122.957171 
L 100.517836 123.432194 
L 71.566115 124.658194 
L 178.474652 120.131007 
L 235.615235 117.711311 
L 182.32382 119.968008 
L 224.223598 118.193705 
L 74.768035 124.522605 
L 192.740955 119.52688 
L 137.573635 121.863016 
L 216.105913 118.53746 
L 179.960544 120.068084 
L 288.697236 115.463481 
L 249.513314 117.122778 
L 154.245355 121.157029 
L 140.961785 121.71954 
L 198.667584 119.275909 
L 163.902839 120.74807 
L 52.937964 125.447029 
L 74.058007 124.552672 
" clip-path="url(#pb3d9078e35)" style="fill: none; stroke: #ff0000; stroke-width: 1.5; stroke-linecap: square"/>
   </g>
   <g id="line2d_20">
    <path d="M 254.239823 63.658821 
L 240.51205 63.746461 
L 129.435796 64.455587 
L 248.468385 63.695667 
L 259.088893 63.627864 
L 253.17968 63.665589 
L 181.631633 64.122362 
L 207.600555 63.956573 
L 95.120478 64.67466 
L 111.735411 64.568588 
L 100.517836 64.640203 
L 71.566115 64.825034 
L 178.474652 64.142516 
L 235.615235 63.777723 
L 182.32382 64.117943 
L 224.223598 63.850449 
L 74.768035 64.804593 
L 192.740955 64.051438 
L 137.573635 64.403634 
L 216.105913 63.902273 
L 179.960544 64.13303 
L 288.697236 63.438841 
L 249.513314 63.688996 
L 154.245355 64.297199 
L 140.961785 64.382003 
L 198.667584 64.013602 
L 163.902839 64.235545 
L 52.937964 64.943959 
L 74.058007 64.809126 
" clip-path="url(#pb3d9078e35)" style="fill: none; stroke: #00bfbf; stroke-width: 1.5; stroke-linecap: square"/>
   </g>
   <g id="line2d_21">
    <path d="M 254.239823 174.662165 
L 240.51205 175.436372 
L 129.435796 181.700752 
L 248.468385 174.987657 
L 259.088893 174.388691 
L 253.17968 174.721954 
L 181.631633 178.757057 
L 207.600555 177.292485 
L 95.120478 183.636037 
L 111.735411 182.699002 
L 100.517836 183.331641 
L 71.566115 184.964435 
L 178.474652 178.935102 
L 235.615235 175.712538 
L 182.32382 178.71802 
L 224.223598 176.354993 
L 74.768035 184.783856 
L 192.740955 178.130524 
L 137.573635 181.241801 
L 216.105913 176.812807 
L 179.960544 178.851302 
L 288.697236 172.718866 
L 249.513314 174.928726 
L 154.245355 180.301564 
L 140.961785 181.050719 
L 198.667584 177.796279 
L 163.902839 179.75691 
L 52.937964 186.015009 
L 74.058007 184.823899 
" clip-path="url(#pb3d9078e35)" style="fill: none; stroke: #bf00bf; stroke-width: 1.5; stroke-linecap: square"/>
   </g>
   <g id="line2d_22">
    <path d="M 254.239823 233.081673 
L 240.51205 233.679203 
L 129.435796 238.514026 
L 248.468385 233.332887 
L 259.088893 232.870608 
L 253.17968 233.127818 
L 181.631633 236.242094 
L 207.600555 235.111744 
L 95.120478 240.007671 
L 111.735411 239.284472 
L 100.517836 239.77274 
L 71.566115 241.032923 
L 178.474652 236.379509 
L 235.615235 233.892347 
L 182.32382 236.211966 
L 224.223598 234.388191 
L 74.768035 240.893553 
L 192.740955 235.758538 
L 137.573635 238.15981 
L 216.105913 234.74153 
L 179.960544 236.314832 
L 288.697236 231.581843 
L 249.513314 233.287404 
L 154.245355 237.434139 
L 140.961785 238.012333 
L 198.667584 235.50057 
L 163.902839 237.013777 
L 52.937964 241.843752 
L 74.058007 240.924458 
" clip-path="url(#pb3d9078e35)" style="fill: none; stroke: #008000; stroke-width: 1.5; stroke-linecap: square"/>
   </g>
   <g id="line2d_23">
    <path d="M 254.239823 116.992409 
L 240.51205 117.729125 
L 129.435796 123.690151 
L 248.468385 117.302139 
L 259.088893 116.732178 
L 253.17968 117.049303 
L 181.631633 120.889005 
L 207.600555 119.495355 
L 95.120478 125.531719 
L 111.735411 124.640061 
L 100.517836 125.242064 
L 71.566115 126.795789 
L 178.474652 121.058428 
L 235.615235 117.991917 
L 182.32382 120.851858 
L 224.223598 118.603262 
L 74.768035 126.623955 
L 192.740955 120.292812 
L 137.573635 123.253425 
L 216.105913 119.038906 
L 179.960544 120.978686 
L 288.697236 115.143215 
L 249.513314 117.246062 
L 154.245355 122.358719 
L 140.961785 123.071596 
L 198.667584 119.974753 
L 163.902839 121.84044 
L 52.937964 127.795489 
L 74.058007 126.662059 
" clip-path="url(#pb3d9078e35)" style="fill: none; stroke: #bfbf00; stroke-width: 1.5; stroke-linecap: square"/>
   </g>
   <g id="line2d_24">
    <path d="M 254.239823 104.763625 
L 240.51205 105.300171 
L 129.435796 109.641558 
L 248.468385 104.9892 
L 259.088893 104.5741 
L 253.17968 104.80506 
L 181.631633 107.601497 
L 207.600555 106.586509 
L 95.120478 110.982763 
L 111.735411 110.333373 
L 100.517836 110.771809 
L 71.566115 111.90338 
L 178.474652 107.724887 
L 235.615235 105.491562 
L 182.32382 107.574443 
L 224.223598 105.936801 
L 74.768035 111.778233 
L 192.740955 107.167292 
L 137.573635 109.323493 
L 216.105913 106.254079 
L 179.960544 107.666811 
L 288.697236 103.416866 
L 249.513314 104.948359 
L 154.245355 108.671883 
L 140.961785 109.191068 
L 198.667584 106.935651 
L 163.902839 108.294423 
L 52.937964 112.631456 
L 74.058007 111.805985 
" clip-path="url(#pb3d9078e35)" style="fill: none; stroke: #9467bd; stroke-width: 1.5; stroke-linecap: square"/>
   </g>
   <g id="line2d_25">
    <path d="M 254.239823 218.68693 
L 240.51205 219.580822 
L 129.435796 226.81362 
L 248.468385 219.06274 
L 259.088893 218.371179 
L 253.17968 218.755961 
L 181.631633 223.414856 
L 207.600555 221.723874 
L 95.120478 229.048083 
L 111.735411 227.966192 
L 100.517836 228.696631 
L 71.566115 230.58184 
L 178.474652 223.620425 
L 235.615235 219.899681 
L 182.32382 223.369784 
L 224.223598 220.641454 
L 74.768035 230.373345 
L 192.740955 222.691466 
L 137.573635 226.28372 
L 216.105913 221.170042 
L 179.960544 223.52367 
L 288.697236 216.443214 
L 249.513314 218.994699 
L 154.245355 225.198131 
L 140.961785 226.063098 
L 198.667584 222.30555 
L 163.902839 224.569278 
L 52.937964 231.794823 
L 74.058007 230.419579 
" clip-path="url(#pb3d9078e35)" style="fill: none; stroke: #8c564b; stroke-width: 1.5; stroke-linecap: square"/>
   </g>
   <g id="line2d_26">
    <path d="M 254.239823 45.483832 
L 240.51205 45.771803 
L 129.435796 48.101882 
L 248.468385 45.604901 
L 259.088893 45.382111 
L 253.17968 45.506071 
L 181.631633 47.006955 
L 207.600555 46.462197 
L 95.120478 48.821725 
L 111.735411 48.473188 
L 100.517836 48.708503 
L 71.566115 49.315831 
L 178.474652 47.07318 
L 235.615235 45.874525 
L 182.32382 46.992435 
L 224.223598 46.113491 
L 74.768035 49.248664 
L 192.740955 46.773911 
L 137.573635 47.931172 
L 216.105913 46.283778 
L 179.960544 47.04201 
L 288.697236 44.761009 
L 249.513314 45.582981 
L 154.245355 47.581445 
L 140.961785 47.860098 
L 198.667584 46.649587 
L 163.902839 47.378857 
L 52.937964 49.706599 
L 74.058007 49.263558 
" clip-path="url(#pb3d9078e35)" style="fill: none; stroke: #ff7f0e; stroke-width: 1.5; stroke-linecap: square"/>
   </g>
   <g id="patch_3">
    <path d="M 41.15 300.76 
L 41.15 26.88 
" style="fill: none; stroke: #000000; stroke-width: 0.8; stroke-linejoin: miter; stroke-linecap: square"/>
   </g>
   <g id="patch_4">
    <path d="M 300.4852 300.76 
L 300.4852 26.88 
" style="fill: none; stroke: #000000; stroke-width: 0.8; stroke-linejoin: miter; stroke-linecap: square"/>
   </g>
   <g id="patch_5">
    <path d="M 41.15 300.76 
L 300.4852 300.76 
" style="fill: none; stroke: #000000; stroke-width: 0.8; stroke-linejoin: miter; stroke-linecap: square"/>
   </g>
   <g id="patch_6">
    <path d="M 41.15 26.88 
L 300.4852 26.88 
" style="fill: none; stroke: #000000; stroke-width: 0.8; stroke-linejoin: miter; stroke-linecap: square"/>
   </g>
   <g id="text_19">
    <!-- log(SR) vs. log(PctFrstLoss2003Ws) -->
    <g transform="translate(65.065725 20.88)scale(0.12 -0.12)">
     <defs>
      <path id="DejaVuSans-6c" d="M 603 4863 
L 1178 4863 
L 1178 0 
L 603 0 
L 603 4863 
z
" transform="scale(0.015625)"/>
      <path id="DejaVuSans-6f" d="M 1959 3097 
Q 1497 3097 1228 2736 
Q 959 2375 959 1747 
Q 959 1119 1226 758 
Q 1494 397 1959 397 
Q 2419 397 2687 759 
Q 2956 1122 2956 1747 
Q 2956 2369 2687 2733 
Q 2419 3097 1959 3097 
z
M 1959 3584 
Q 2709 3584 3137 3096 
Q 3566 2609 3566 1747 
Q 3566 888 3137 398 
Q 2709 -91 1959 -91 
Q 1206 -91 779 398 
Q 353 888 353 1747 
Q 353 2609 779 3096 
Q 1206 3584 1959 3584 
z
" transform="scale(0.015625)"/>
      <path id="DejaVuSans-67" d="M 2906 1791 
Q 2906 2416 2648 2759 
Q 2391 3103 1925 3103 
Q 1463 3103 1205 2759 
Q 947 2416 947 1791 
Q 947 1169 1205 825 
Q 1463 481 1925 481 
Q 2391 481 2648 825 
Q 2906 1169 2906 1791 
z
M 3481 434 
Q 3481 -459 3084 -895 
Q 2688 -1331 1869 -1331 
Q 1566 -1331 1297 -1286 
Q 1028 -1241 775 -1147 
L 775 -588 
Q 1028 -725 1275 -790 
Q 1522 -856 1778 -856 
Q 2344 -856 2625 -561 
Q 2906 -266 2906 331 
L 2906 616 
Q 2728 306 2450 153 
Q 2172 0 1784 0 
Q 1141 0 747 490 
Q 353 981 353 1791 
Q 353 2603 747 3093 
Q 1141 3584 1784 3584 
Q 2172 3584 2450 3431 
Q 2728 3278 2906 2969 
L 2906 3500 
L 3481 3500 
L 3481 434 
z
" transform="scale(0.015625)"/>
      <path id="DejaVuSans-28" d="M 1984 4856 
Q 1566 4138 1362 3434 
Q 1159 2731 1159 2009 
Q 1159 1288 1364 580 
Q 1569 -128 1984 -844 
L 1484 -844 
Q 1016 -109 783 600 
Q 550 1309 550 2009 
Q 550 2706 781 3412 
Q 1013 4119 1484 4856 
L 1984 4856 
z
" transform="scale(0.015625)"/>
      <path id="DejaVuSans-53" d="M 3425 4513 
L 3425 3897 
Q 3066 4069 2747 4153 
Q 2428 4238 2131 4238 
Q 1616 4238 1336 4038 
Q 1056 3838 1056 3469 
Q 1056 3159 1242 3001 
Q 1428 2844 1947 2747 
L 2328 2669 
Q 3034 2534 3370 2195 
Q 3706 1856 3706 1288 
Q 3706 609 3251 259 
Q 2797 -91 1919 -91 
Q 1588 -91 1214 -16 
Q 841 59 441 206 
L 441 856 
Q 825 641 1194 531 
Q 1563 422 1919 422 
Q 2459 422 2753 634 
Q 3047 847 3047 1241 
Q 3047 1584 2836 1778 
Q 2625 1972 2144 2069 
L 1759 2144 
Q 1053 2284 737 2584 
Q 422 2884 422 3419 
Q 422 4038 858 4394 
Q 1294 4750 2059 4750 
Q 2388 4750 2728 4690 
Q 3069 4631 3425 4513 
z
" transform="scale(0.015625)"/>
      <path id="DejaVuSans-52" d="M 2841 2188 
Q 3044 2119 3236 1894 
Q 3428 1669 3622 1275 
L 4263 0 
L 3584 0 
L 2988 1197 
Q 2756 1666 2539 1819 
Q 2322 1972 1947 1972 
L 1259 1972 
L 1259 0 
L 628 0 
L 628 4666 
L 2053 4666 
Q 2853 4666 3247 4331 
Q 3641 3997 3641 3322 
Q 3641 2881 3436 2590 
Q 3231 2300 2841 2188 
z
M 1259 4147 
L 1259 2491 
L 2053 2491 
Q 2509 2491 2742 2702 
Q 2975 2913 2975 3322 
Q 2975 3731 2742 3939 
Q 2509 4147 2053 4147 
L 1259 4147 
z
" transform="scale(0.015625)"/>
      <path id="DejaVuSans-29" d="M 513 4856 
L 1013 4856 
Q 1481 4119 1714 3412 
Q 1947 2706 1947 2009 
Q 1947 1309 1714 600 
Q 1481 -109 1013 -844 
L 513 -844 
Q 928 -128 1133 580 
Q 1338 1288 1338 2009 
Q 1338 2731 1133 3434 
Q 928 4138 513 4856 
z
" transform="scale(0.015625)"/>
      <path id="DejaVuSans-20" transform="scale(0.015625)"/>
      <path id="DejaVuSans-76" d="M 191 3500 
L 800 3500 
L 1894 563 
L 2988 3500 
L 3597 3500 
L 2284 0 
L 1503 0 
L 191 3500 
z
" transform="scale(0.015625)"/>
      <path id="DejaVuSans-73" d="M 2834 3397 
L 2834 2853 
Q 2591 2978 2328 3040 
Q 2066 3103 1784 3103 
Q 1356 3103 1142 2972 
Q 928 2841 928 2578 
Q 928 2378 1081 2264 
Q 1234 2150 1697 2047 
L 1894 2003 
Q 2506 1872 2764 1633 
Q 3022 1394 3022 966 
Q 3022 478 2636 193 
Q 2250 -91 1575 -91 
Q 1294 -91 989 -36 
Q 684 19 347 128 
L 347 722 
Q 666 556 975 473 
Q 1284 391 1588 391 
Q 1994 391 2212 530 
Q 2431 669 2431 922 
Q 2431 1156 2273 1281 
Q 2116 1406 1581 1522 
L 1381 1569 
Q 847 1681 609 1914 
Q 372 2147 372 2553 
Q 372 3047 722 3315 
Q 1072 3584 1716 3584 
Q 2034 3584 2315 3537 
Q 2597 3491 2834 3397 
z
" transform="scale(0.015625)"/>
      <path id="DejaVuSans-50" d="M 1259 4147 
L 1259 2394 
L 2053 2394 
Q 2494 2394 2734 2622 
Q 2975 2850 2975 3272 
Q 2975 3691 2734 3919 
Q 2494 4147 2053 4147 
L 1259 4147 
z
M 628 4666 
L 2053 4666 
Q 2838 4666 3239 4311 
Q 3641 3956 3641 3272 
Q 3641 2581 3239 2228 
Q 2838 1875 2053 1875 
L 1259 1875 
L 1259 0 
L 628 0 
L 628 4666 
z
" transform="scale(0.015625)"/>
      <path id="DejaVuSans-63" d="M 3122 3366 
L 3122 2828 
Q 2878 2963 2633 3030 
Q 2388 3097 2138 3097 
Q 1578 3097 1268 2742 
Q 959 2388 959 1747 
Q 959 1106 1268 751 
Q 1578 397 2138 397 
Q 2388 397 2633 464 
Q 2878 531 3122 666 
L 3122 134 
Q 2881 22 2623 -34 
Q 2366 -91 2075 -91 
Q 1284 -91 818 406 
Q 353 903 353 1747 
Q 353 2603 823 3093 
Q 1294 3584 2113 3584 
Q 2378 3584 2631 3529 
Q 2884 3475 3122 3366 
z
" transform="scale(0.015625)"/>
      <path id="DejaVuSans-74" d="M 1172 4494 
L 1172 3500 
L 2356 3500 
L 2356 3053 
L 1172 3053 
L 1172 1153 
Q 1172 725 1289 603 
Q 1406 481 1766 481 
L 2356 481 
L 2356 0 
L 1766 0 
Q 1100 0 847 248 
Q 594 497 594 1153 
L 594 3053 
L 172 3053 
L 172 3500 
L 594 3500 
L 594 4494 
L 1172 4494 
z
" transform="scale(0.015625)"/>
      <path id="DejaVuSans-46" d="M 628 4666 
L 3309 4666 
L 3309 4134 
L 1259 4134 
L 1259 2759 
L 3109 2759 
L 3109 2228 
L 1259 2228 
L 1259 0 
L 628 0 
L 628 4666 
z
" transform="scale(0.015625)"/>
      <path id="DejaVuSans-72" d="M 2631 2963 
Q 2534 3019 2420 3045 
Q 2306 3072 2169 3072 
Q 1681 3072 1420 2755 
Q 1159 2438 1159 1844 
L 1159 0 
L 581 0 
L 581 3500 
L 1159 3500 
L 1159 2956 
Q 1341 3275 1631 3429 
Q 1922 3584 2338 3584 
Q 2397 3584 2469 3576 
Q 2541 3569 2628 3553 
L 2631 2963 
z
" transform="scale(0.015625)"/>
      <path id="DejaVuSans-4c" d="M 628 4666 
L 1259 4666 
L 1259 531 
L 3531 531 
L 3531 0 
L 628 0 
L 628 4666 
z
" transform="scale(0.015625)"/>
      <path id="DejaVuSans-57" d="M 213 4666 
L 850 4666 
L 1831 722 
L 2809 4666 
L 3519 4666 
L 4500 722 
L 5478 4666 
L 6119 4666 
L 4947 0 
L 4153 0 
L 3169 4050 
L 2175 0 
L 1381 0 
L 213 4666 
z
" transform="scale(0.015625)"/>
     </defs>
     <use xlink:href="#DejaVuSans-6c"/>
     <use xlink:href="#DejaVuSans-6f" x="27.783203"/>
     <use xlink:href="#DejaVuSans-67" x="88.964844"/>
     <use xlink:href="#DejaVuSans-28" x="152.441406"/>
     <use xlink:href="#DejaVuSans-53" x="191.455078"/>
     <use xlink:href="#DejaVuSans-52" x="254.931641"/>
     <use xlink:href="#DejaVuSans-29" x="324.414062"/>
     <use xlink:href="#DejaVuSans-20" x="363.427734"/>
     <use xlink:href="#DejaVuSans-76" x="395.214844"/>
     <use xlink:href="#DejaVuSans-73" x="454.394531"/>
     <use xlink:href="#DejaVuSans-2e" x="506.494141"/>
     <use xlink:href="#DejaVuSans-20" x="538.28125"/>
     <use xlink:href="#DejaVuSans-6c" x="570.068359"/>
     <use xlink:href="#DejaVuSans-6f" x="597.851562"/>
     <use xlink:href="#DejaVuSans-67" x="659.033203"/>
     <use xlink:href="#DejaVuSans-28" x="722.509766"/>
     <use xlink:href="#DejaVuSans-50" x="761.523438"/>
     <use xlink:href="#DejaVuSans-63" x="821.826172"/>
     <use xlink:href="#DejaVuSans-74" x="876.806641"/>
     <use xlink:href="#DejaVuSans-46" x="916.015625"/>
     <use xlink:href="#DejaVuSans-72" x="966.285156"/>
     <use xlink:href="#DejaVuSans-73" x="1007.398438"/>
     <use xlink:href="#DejaVuSans-74" x="1059.498047"/>
     <use xlink:href="#DejaVuSans-4c" x="1098.707031"/>
     <use xlink:href="#DejaVuSans-6f" x="1152.669922"/>
     <use xlink:href="#DejaVuSans-73" x="1213.851562"/>
     <use xlink:href="#DejaVuSans-73" x="1265.951172"/>
     <use xlink:href="#DejaVuSans-32" x="1318.050781"/>
     <use xlink:href="#DejaVuSans-30" x="1381.673828"/>
     <use xlink:href="#DejaVuSans-30" x="1445.296875"/>
     <use xlink:href="#DejaVuSans-33" x="1508.919922"/>
     <use xlink:href="#DejaVuSans-57" x="1572.542969"/>
     <use xlink:href="#DejaVuSans-73" x="1671.419922"/>
     <use xlink:href="#DejaVuSans-29" x="1723.519531"/>
    </g>
   </g>
   <g id="legend_1">
    <g id="patch_7">
     <path d="M 317.858608 181.66125 
L 444.224233 181.66125 
Q 446.224233 181.66125 446.224233 179.66125 
L 446.224233 33.88 
Q 446.224233 31.88 444.224233 31.88 
L 317.858608 31.88 
Q 315.858608 31.88 315.858608 33.88 
L 315.858608 179.66125 
Q 315.858608 181.66125 317.858608 181.66125 
z
" style="fill: #ffffff; opacity: 0.8; stroke: #cccccc; stroke-linejoin: miter"/>
    </g>
    <g id="line2d_27">
     <path d="M 319.858608 39.978437 
L 329.858608 39.978437 
L 339.858608 39.978437 
" style="fill: none; stroke: #0000ff; stroke-width: 1.5; stroke-linecap: square"/>
    </g>
    <g id="text_20">
     <!-- AminoSugar -->
     <g transform="translate(347.858608 43.478437)scale(0.1 -0.1)">
      <defs>
       <path id="DejaVuSans-41" d="M 2188 4044 
L 1331 1722 
L 3047 1722 
L 2188 4044 
z
M 1831 4666 
L 2547 4666 
L 4325 0 
L 3669 0 
L 3244 1197 
L 1141 1197 
L 716 0 
L 50 0 
L 1831 4666 
z
" transform="scale(0.015625)"/>
       <path id="DejaVuSans-6d" d="M 3328 2828 
Q 3544 3216 3844 3400 
Q 4144 3584 4550 3584 
Q 5097 3584 5394 3201 
Q 5691 2819 5691 2113 
L 5691 0 
L 5113 0 
L 5113 2094 
Q 5113 2597 4934 2840 
Q 4756 3084 4391 3084 
Q 3944 3084 3684 2787 
Q 3425 2491 3425 1978 
L 3425 0 
L 2847 0 
L 2847 2094 
Q 2847 2600 2669 2842 
Q 2491 3084 2119 3084 
Q 1678 3084 1418 2786 
Q 1159 2488 1159 1978 
L 1159 0 
L 581 0 
L 581 3500 
L 1159 3500 
L 1159 2956 
Q 1356 3278 1631 3431 
Q 1906 3584 2284 3584 
Q 2666 3584 2933 3390 
Q 3200 3197 3328 2828 
z
" transform="scale(0.015625)"/>
       <path id="DejaVuSans-69" d="M 603 3500 
L 1178 3500 
L 1178 0 
L 603 0 
L 603 3500 
z
M 603 4863 
L 1178 4863 
L 1178 4134 
L 603 4134 
L 603 4863 
z
" transform="scale(0.015625)"/>
       <path id="DejaVuSans-6e" d="M 3513 2113 
L 3513 0 
L 2938 0 
L 2938 2094 
Q 2938 2591 2744 2837 
Q 2550 3084 2163 3084 
Q 1697 3084 1428 2787 
Q 1159 2491 1159 1978 
L 1159 0 
L 581 0 
L 581 3500 
L 1159 3500 
L 1159 2956 
Q 1366 3272 1645 3428 
Q 1925 3584 2291 3584 
Q 2894 3584 3203 3211 
Q 3513 2838 3513 2113 
z
" transform="scale(0.015625)"/>
       <path id="DejaVuSans-75" d="M 544 1381 
L 544 3500 
L 1119 3500 
L 1119 1403 
Q 1119 906 1312 657 
Q 1506 409 1894 409 
Q 2359 409 2629 706 
Q 2900 1003 2900 1516 
L 2900 3500 
L 3475 3500 
L 3475 0 
L 2900 0 
L 2900 538 
Q 2691 219 2414 64 
Q 2138 -91 1772 -91 
Q 1169 -91 856 284 
Q 544 659 544 1381 
z
M 1991 3584 
L 1991 3584 
z
" transform="scale(0.015625)"/>
       <path id="DejaVuSans-61" d="M 2194 1759 
Q 1497 1759 1228 1600 
Q 959 1441 959 1056 
Q 959 750 1161 570 
Q 1363 391 1709 391 
Q 2188 391 2477 730 
Q 2766 1069 2766 1631 
L 2766 1759 
L 2194 1759 
z
M 3341 1997 
L 3341 0 
L 2766 0 
L 2766 531 
Q 2569 213 2275 61 
Q 1981 -91 1556 -91 
Q 1019 -91 701 211 
Q 384 513 384 1019 
Q 384 1609 779 1909 
Q 1175 2209 1959 2209 
L 2766 2209 
L 2766 2266 
Q 2766 2663 2505 2880 
Q 2244 3097 1772 3097 
Q 1472 3097 1187 3025 
Q 903 2953 641 2809 
L 641 3341 
Q 956 3463 1253 3523 
Q 1550 3584 1831 3584 
Q 2591 3584 2966 3190 
Q 3341 2797 3341 1997 
z
" transform="scale(0.015625)"/>
      </defs>
      <use xlink:href="#DejaVuSans-41"/>
      <use xlink:href="#DejaVuSans-6d" x="68.408203"/>
      <use xlink:href="#DejaVuSans-69" x="165.820312"/>
      <use xlink:href="#DejaVuSans-6e" x="193.603516"/>
      <use xlink:href="#DejaVuSans-6f" x="256.982422"/>
      <use xlink:href="#DejaVuSans-53" x="318.164062"/>
      <use xlink:href="#DejaVuSans-75" x="381.640625"/>
      <use xlink:href="#DejaVuSans-67" x="445.019531"/>
      <use xlink:href="#DejaVuSans-61" x="508.496094"/>
      <use xlink:href="#DejaVuSans-72" x="569.775391"/>
     </g>
    </g>
    <g id="line2d_28">
     <path d="M 319.858608 54.656563 
L 329.858608 54.656563 
L 339.858608 54.656563 
" style="fill: none; stroke: #000000; stroke-width: 1.5; stroke-linecap: square"/>
    </g>
    <g id="text_21">
     <!-- Carb -->
     <g transform="translate(347.858608 58.156563)scale(0.1 -0.1)">
      <defs>
       <path id="DejaVuSans-43" d="M 4122 4306 
L 4122 3641 
Q 3803 3938 3442 4084 
Q 3081 4231 2675 4231 
Q 1875 4231 1450 3742 
Q 1025 3253 1025 2328 
Q 1025 1406 1450 917 
Q 1875 428 2675 428 
Q 3081 428 3442 575 
Q 3803 722 4122 1019 
L 4122 359 
Q 3791 134 3420 21 
Q 3050 -91 2638 -91 
Q 1578 -91 968 557 
Q 359 1206 359 2328 
Q 359 3453 968 4101 
Q 1578 4750 2638 4750 
Q 3056 4750 3426 4639 
Q 3797 4528 4122 4306 
z
" transform="scale(0.015625)"/>
       <path id="DejaVuSans-62" d="M 3116 1747 
Q 3116 2381 2855 2742 
Q 2594 3103 2138 3103 
Q 1681 3103 1420 2742 
Q 1159 2381 1159 1747 
Q 1159 1113 1420 752 
Q 1681 391 2138 391 
Q 2594 391 2855 752 
Q 3116 1113 3116 1747 
z
M 1159 2969 
Q 1341 3281 1617 3432 
Q 1894 3584 2278 3584 
Q 2916 3584 3314 3078 
Q 3713 2572 3713 1747 
Q 3713 922 3314 415 
Q 2916 -91 2278 -91 
Q 1894 -91 1617 61 
Q 1341 213 1159 525 
L 1159 0 
L 581 0 
L 581 4863 
L 1159 4863 
L 1159 2969 
z
" transform="scale(0.015625)"/>
      </defs>
      <use xlink:href="#DejaVuSans-43"/>
      <use xlink:href="#DejaVuSans-61" x="69.824219"/>
      <use xlink:href="#DejaVuSans-72" x="131.103516"/>
      <use xlink:href="#DejaVuSans-62" x="172.216797"/>
     </g>
    </g>
    <g id="line2d_29">
     <path d="M 319.858608 69.334688 
L 329.858608 69.334688 
L 339.858608 69.334688 
" style="fill: none; stroke: #ff0000; stroke-width: 1.5; stroke-linecap: square"/>
    </g>
    <g id="text_22">
     <!-- ConcHC -->
     <g transform="translate(347.858608 72.834688)scale(0.1 -0.1)">
      <defs>
       <path id="DejaVuSans-48" d="M 628 4666 
L 1259 4666 
L 1259 2753 
L 3553 2753 
L 3553 4666 
L 4184 4666 
L 4184 0 
L 3553 0 
L 3553 2222 
L 1259 2222 
L 1259 0 
L 628 0 
L 628 4666 
z
" transform="scale(0.015625)"/>
      </defs>
      <use xlink:href="#DejaVuSans-43"/>
      <use xlink:href="#DejaVuSans-6f" x="69.824219"/>
      <use xlink:href="#DejaVuSans-6e" x="131.005859"/>
      <use xlink:href="#DejaVuSans-63" x="194.384766"/>
      <use xlink:href="#DejaVuSans-48" x="249.365234"/>
      <use xlink:href="#DejaVuSans-43" x="324.560547"/>
     </g>
    </g>
    <g id="line2d_30">
     <path d="M 319.858608 84.012812 
L 329.858608 84.012812 
L 339.858608 84.012812 
" style="fill: none; stroke: #00bfbf; stroke-width: 1.5; stroke-linecap: square"/>
    </g>
    <g id="text_23">
     <!-- Lignin -->
     <g transform="translate(347.858608 87.512812)scale(0.1 -0.1)">
      <use xlink:href="#DejaVuSans-4c"/>
      <use xlink:href="#DejaVuSans-69" x="55.712891"/>
      <use xlink:href="#DejaVuSans-67" x="83.496094"/>
      <use xlink:href="#DejaVuSans-6e" x="146.972656"/>
      <use xlink:href="#DejaVuSans-69" x="210.351562"/>
      <use xlink:href="#DejaVuSans-6e" x="238.134766"/>
     </g>
    </g>
    <g id="line2d_31">
     <path d="M 319.858608 98.690938 
L 329.858608 98.690938 
L 339.858608 98.690938 
" style="fill: none; stroke: #bf00bf; stroke-width: 1.5; stroke-linecap: square"/>
    </g>
    <g id="text_24">
     <!-- Lipid -->
     <g transform="translate(347.858608 102.190938)scale(0.1 -0.1)">
      <defs>
       <path id="DejaVuSans-70" d="M 1159 525 
L 1159 -1331 
L 581 -1331 
L 581 3500 
L 1159 3500 
L 1159 2969 
Q 1341 3281 1617 3432 
Q 1894 3584 2278 3584 
Q 2916 3584 3314 3078 
Q 3713 2572 3713 1747 
Q 3713 922 3314 415 
Q 2916 -91 2278 -91 
Q 1894 -91 1617 61 
Q 1341 213 1159 525 
z
M 3116 1747 
Q 3116 2381 2855 2742 
Q 2594 3103 2138 3103 
Q 1681 3103 1420 2742 
Q 1159 2381 1159 1747 
Q 1159 1113 1420 752 
Q 1681 391 2138 391 
Q 2594 391 2855 752 
Q 3116 1113 3116 1747 
z
" transform="scale(0.015625)"/>
       <path id="DejaVuSans-64" d="M 2906 2969 
L 2906 4863 
L 3481 4863 
L 3481 0 
L 2906 0 
L 2906 525 
Q 2725 213 2448 61 
Q 2172 -91 1784 -91 
Q 1150 -91 751 415 
Q 353 922 353 1747 
Q 353 2572 751 3078 
Q 1150 3584 1784 3584 
Q 2172 3584 2448 3432 
Q 2725 3281 2906 2969 
z
M 947 1747 
Q 947 1113 1208 752 
Q 1469 391 1925 391 
Q 2381 391 2643 752 
Q 2906 1113 2906 1747 
Q 2906 2381 2643 2742 
Q 2381 3103 1925 3103 
Q 1469 3103 1208 2742 
Q 947 2381 947 1747 
z
" transform="scale(0.015625)"/>
      </defs>
      <use xlink:href="#DejaVuSans-4c"/>
      <use xlink:href="#DejaVuSans-69" x="55.712891"/>
      <use xlink:href="#DejaVuSans-70" x="83.496094"/>
      <use xlink:href="#DejaVuSans-69" x="146.972656"/>
      <use xlink:href="#DejaVuSans-64" x="174.755859"/>
     </g>
    </g>
    <g id="line2d_32">
     <path d="M 319.858608 113.369062 
L 329.858608 113.369062 
L 339.858608 113.369062 
" style="fill: none; stroke: #008000; stroke-width: 1.5; stroke-linecap: square"/>
    </g>
    <g id="text_25">
     <!-- Other -->
     <g transform="translate(347.858608 116.869062)scale(0.1 -0.1)">
      <defs>
       <path id="DejaVuSans-4f" d="M 2522 4238 
Q 1834 4238 1429 3725 
Q 1025 3213 1025 2328 
Q 1025 1447 1429 934 
Q 1834 422 2522 422 
Q 3209 422 3611 934 
Q 4013 1447 4013 2328 
Q 4013 3213 3611 3725 
Q 3209 4238 2522 4238 
z
M 2522 4750 
Q 3503 4750 4090 4092 
Q 4678 3434 4678 2328 
Q 4678 1225 4090 567 
Q 3503 -91 2522 -91 
Q 1538 -91 948 565 
Q 359 1222 359 2328 
Q 359 3434 948 4092 
Q 1538 4750 2522 4750 
z
" transform="scale(0.015625)"/>
       <path id="DejaVuSans-68" d="M 3513 2113 
L 3513 0 
L 2938 0 
L 2938 2094 
Q 2938 2591 2744 2837 
Q 2550 3084 2163 3084 
Q 1697 3084 1428 2787 
Q 1159 2491 1159 1978 
L 1159 0 
L 581 0 
L 581 4863 
L 1159 4863 
L 1159 2956 
Q 1366 3272 1645 3428 
Q 1925 3584 2291 3584 
Q 2894 3584 3203 3211 
Q 3513 2838 3513 2113 
z
" transform="scale(0.015625)"/>
       <path id="DejaVuSans-65" d="M 3597 1894 
L 3597 1613 
L 953 1613 
Q 991 1019 1311 708 
Q 1631 397 2203 397 
Q 2534 397 2845 478 
Q 3156 559 3463 722 
L 3463 178 
Q 3153 47 2828 -22 
Q 2503 -91 2169 -91 
Q 1331 -91 842 396 
Q 353 884 353 1716 
Q 353 2575 817 3079 
Q 1281 3584 2069 3584 
Q 2775 3584 3186 3129 
Q 3597 2675 3597 1894 
z
M 3022 2063 
Q 3016 2534 2758 2815 
Q 2500 3097 2075 3097 
Q 1594 3097 1305 2825 
Q 1016 2553 972 2059 
L 3022 2063 
z
" transform="scale(0.015625)"/>
      </defs>
      <use xlink:href="#DejaVuSans-4f"/>
      <use xlink:href="#DejaVuSans-74" x="78.710938"/>
      <use xlink:href="#DejaVuSans-68" x="117.919922"/>
      <use xlink:href="#DejaVuSans-65" x="181.298828"/>
      <use xlink:href="#DejaVuSans-72" x="242.822266"/>
     </g>
    </g>
    <g id="line2d_33">
     <path d="M 319.858608 128.047188 
L 329.858608 128.047188 
L 339.858608 128.047188 
" style="fill: none; stroke: #bfbf00; stroke-width: 1.5; stroke-linecap: square"/>
    </g>
    <g id="text_26">
     <!-- Protein -->
     <g transform="translate(347.858608 131.547188)scale(0.1 -0.1)">
      <use xlink:href="#DejaVuSans-50"/>
      <use xlink:href="#DejaVuSans-72" x="58.552734"/>
      <use xlink:href="#DejaVuSans-6f" x="97.416016"/>
      <use xlink:href="#DejaVuSans-74" x="158.597656"/>
      <use xlink:href="#DejaVuSans-65" x="197.806641"/>
      <use xlink:href="#DejaVuSans-69" x="259.330078"/>
      <use xlink:href="#DejaVuSans-6e" x="287.113281"/>
     </g>
    </g>
    <g id="line2d_34">
     <path d="M 319.858608 142.725312 
L 329.858608 142.725312 
L 339.858608 142.725312 
" style="fill: none; stroke: #9467bd; stroke-width: 1.5; stroke-linecap: square"/>
    </g>
    <g id="text_27">
     <!-- Tannin -->
     <g transform="translate(347.858608 146.225312)scale(0.1 -0.1)">
      <defs>
       <path id="DejaVuSans-54" d="M -19 4666 
L 3928 4666 
L 3928 4134 
L 2272 4134 
L 2272 0 
L 1638 0 
L 1638 4134 
L -19 4134 
L -19 4666 
z
" transform="scale(0.015625)"/>
      </defs>
      <use xlink:href="#DejaVuSans-54"/>
      <use xlink:href="#DejaVuSans-61" x="44.583984"/>
      <use xlink:href="#DejaVuSans-6e" x="105.863281"/>
      <use xlink:href="#DejaVuSans-6e" x="169.242188"/>
      <use xlink:href="#DejaVuSans-69" x="232.621094"/>
      <use xlink:href="#DejaVuSans-6e" x="260.404297"/>
     </g>
    </g>
    <g id="line2d_35">
     <path d="M 319.858608 157.403437 
L 329.858608 157.403437 
L 339.858608 157.403437 
" style="fill: none; stroke: #8c564b; stroke-width: 1.5; stroke-linecap: square"/>
    </g>
    <g id="text_28">
     <!-- UnsatHC -->
     <g transform="translate(347.858608 160.903437)scale(0.1 -0.1)">
      <defs>
       <path id="DejaVuSans-55" d="M 556 4666 
L 1191 4666 
L 1191 1831 
Q 1191 1081 1462 751 
Q 1734 422 2344 422 
Q 2950 422 3222 751 
Q 3494 1081 3494 1831 
L 3494 4666 
L 4128 4666 
L 4128 1753 
Q 4128 841 3676 375 
Q 3225 -91 2344 -91 
Q 1459 -91 1007 375 
Q 556 841 556 1753 
L 556 4666 
z
" transform="scale(0.015625)"/>
      </defs>
      <use xlink:href="#DejaVuSans-55"/>
      <use xlink:href="#DejaVuSans-6e" x="73.193359"/>
      <use xlink:href="#DejaVuSans-73" x="136.572266"/>
      <use xlink:href="#DejaVuSans-61" x="188.671875"/>
      <use xlink:href="#DejaVuSans-74" x="249.951172"/>
      <use xlink:href="#DejaVuSans-48" x="289.160156"/>
      <use xlink:href="#DejaVuSans-43" x="364.355469"/>
     </g>
    </g>
    <g id="line2d_36">
     <path d="M 319.858608 172.081562 
L 329.858608 172.081562 
L 339.858608 172.081562 
" style="fill: none; stroke: #ff7f0e; stroke-width: 1.5; stroke-linecap: square"/>
    </g>
    <g id="text_29">
     <!-- SumAllCompounds -->
     <g transform="translate(347.858608 175.581562)scale(0.1 -0.1)">
      <use xlink:href="#DejaVuSans-53"/>
      <use xlink:href="#DejaVuSans-75" x="63.476562"/>
      <use xlink:href="#DejaVuSans-6d" x="126.855469"/>
      <use xlink:href="#DejaVuSans-41" x="224.267578"/>
      <use xlink:href="#DejaVuSans-6c" x="292.675781"/>
      <use xlink:href="#DejaVuSans-6c" x="320.458984"/>
      <use xlink:href="#DejaVuSans-43" x="348.242188"/>
      <use xlink:href="#DejaVuSans-6f" x="418.066406"/>
      <use xlink:href="#DejaVuSans-6d" x="479.248047"/>
      <use xlink:href="#DejaVuSans-70" x="576.660156"/>
      <use xlink:href="#DejaVuSans-6f" x="640.136719"/>
      <use xlink:href="#DejaVuSans-75" x="701.318359"/>
      <use xlink:href="#DejaVuSans-6e" x="764.697266"/>
      <use xlink:href="#DejaVuSans-64" x="828.076172"/>
      <use xlink:href="#DejaVuSans-73" x="891.552734"/>
     </g>
    </g>
   </g>
  </g>
 </g>
 <defs>
  <clipPath id="pb3d9078e35">
   <rect x="41.15" y="26.88" width="259.3352" height="273.88"/>
  </clipPath>
 </defs>
</svg>
