<?xml version="1.0" encoding="utf-8" standalone="no"?>
<!DOCTYPE svg PUBLIC "-//W3C//DTD SVG 1.1//EN"
  "http://www.w3.org/Graphics/SVG/1.1/DTD/svg11.dtd">
<svg xmlns:xlink="http://www.w3.org/1999/xlink" width="460.8pt" height="345.6pt" viewBox="0 0 460.8 345.6" xmlns="http://www.w3.org/2000/svg" version="1.1">
 <metadata>
  <rdf:RDF xmlns:dc="http://purl.org/dc/elements/1.1/" xmlns:cc="http://creativecommons.org/ns#" xmlns:rdf="http://www.w3.org/1999/02/22-rdf-syntax-ns#">
   <cc:Work>
    <dc:type rdf:resource="http://purl.org/dc/dcmitype/StillImage"/>
    <dc:date>2024-04-07T18:51:38.727720</dc:date>
    <dc:format>image/svg+xml</dc:format>
    <dc:creator>
     <cc:Agent>
      <dc:title>Matplotlib v3.5.2, https://matplotlib.org/</dc:title>
     </cc:Agent>
    </dc:creator>
   </cc:Work>
  </rdf:RDF>
 </metadata>
 <defs>
  <style type="text/css">*{stroke-linejoin: round; stroke-linecap: butt}</style>
 </defs>
 <g id="figure_1">
  <g id="patch_1">
   <path d="M 0 345.6 
L 460.8 345.6 
L 460.8 0 
L 0 0 
z
" style="fill: #ffffff"/>
  </g>
  <g id="axes_1">
   <g id="patch_2">
    <path d="M 41.15 300.76 
L 300.4852 300.76 
L 300.4852 26.88 
L 41.15 26.88 
z
" style="fill: #ffffff"/>
   </g>
   <g id="PathCollection_1">
    <defs>
     <path id="m91f959ed5c" d="M 0 2.236068 
C 0.593012 2.236068 1.161816 2.000462 1.581139 1.581139 
C 2.000462 1.161816 2.236068 0.593012 2.236068 0 
C 2.236068 -0.593012 2.000462 -1.161816 1.581139 -1.581139 
C 1.161816 -2.000462 0.593012 -2.236068 0 -2.236068 
C -0.593012 -2.236068 -1.161816 -2.000462 -1.581139 -1.581139 
C -2.000462 -1.161816 -2.236068 -0.593012 -2.236068 0 
C -2.236068 0.593012 -2.000462 1.161816 -1.581139 1.581139 
C -1.161816 2.000462 -0.593012 2.236068 0 2.236068 
z
" style="stroke: #0000ff"/>
    </defs>
    <g clip-path="url(#paf23739f0f)">
     <use xlink:href="#m91f959ed5c" x="249.719757" y="162.826736" style="fill: #0000ff; stroke: #0000ff"/>
     <use xlink:href="#m91f959ed5c" x="185.413108" y="151.501662" style="fill: #0000ff; stroke: #0000ff"/>
     <use xlink:href="#m91f959ed5c" x="233.110228" y="158.348447" style="fill: #0000ff; stroke: #0000ff"/>
     <use xlink:href="#m91f959ed5c" x="261.359829" y="160.515775" style="fill: #0000ff; stroke: #0000ff"/>
     <use xlink:href="#m91f959ed5c" x="279.750109" y="154.757338" style="fill: #0000ff; stroke: #0000ff"/>
     <use xlink:href="#m91f959ed5c" x="242.082165" y="183.811505" style="fill: #0000ff; stroke: #0000ff"/>
     <use xlink:href="#m91f959ed5c" x="288.697236" y="154.380223" style="fill: #0000ff; stroke: #0000ff"/>
     <use xlink:href="#m91f959ed5c" x="271.395148" y="173.995062" style="fill: #0000ff; stroke: #0000ff"/>
     <use xlink:href="#m91f959ed5c" x="52.937964" y="153.272741" style="fill: #0000ff; stroke: #0000ff"/>
     <use xlink:href="#m91f959ed5c" x="256.15872" y="175.336872" style="fill: #0000ff; stroke: #0000ff"/>
     <use xlink:href="#m91f959ed5c" x="253.788537" y="174.659516" style="fill: #0000ff; stroke: #0000ff"/>
     <use xlink:href="#m91f959ed5c" x="222.744444" y="173.995062" style="fill: #0000ff; stroke: #0000ff"/>
     <use xlink:href="#m91f959ed5c" x="278.221242" y="165.818519" style="fill: #0000ff; stroke: #0000ff"/>
     <use xlink:href="#m91f959ed5c" x="237.239733" y="183.811505" style="fill: #0000ff; stroke: #0000ff"/>
     <use xlink:href="#m91f959ed5c" x="215.925664" y="154.757338" style="fill: #0000ff; stroke: #0000ff"/>
     <use xlink:href="#m91f959ed5c" x="189.193432" y="160.965881" style="fill: #0000ff; stroke: #0000ff"/>
     <use xlink:href="#m91f959ed5c" x="117.739466" y="158.348447" style="fill: #0000ff; stroke: #0000ff"/>
     <use xlink:href="#m91f959ed5c" x="157.913061" y="172.702961" style="fill: #0000ff; stroke: #0000ff"/>
     <use xlink:href="#m91f959ed5c" x="224.2498" y="153.272741" style="fill: #0000ff; stroke: #0000ff"/>
    </g>
   </g>
   <g id="PathCollection_2">
    <defs>
     <path id="m9a9518802c" d="M -0 2.236068 
L 2.236068 -2.236068 
L -2.236068 -2.236068 
z
" style="stroke: #000000"/>
    </defs>
    <g clip-path="url(#paf23739f0f)">
     <use xlink:href="#m9a9518802c" x="249.719757" y="223.017287" style="stroke: #000000"/>
     <use xlink:href="#m9a9518802c" x="185.413108" y="179.702908" style="stroke: #000000"/>
     <use xlink:href="#m9a9518802c" x="233.110228" y="197.521915" style="stroke: #000000"/>
     <use xlink:href="#m9a9518802c" x="261.359829" y="200.206528" style="stroke: #000000"/>
     <use xlink:href="#m9a9518802c" x="279.750109" y="189.480614" style="stroke: #000000"/>
     <use xlink:href="#m9a9518802c" x="242.082165" y="244.611082" style="stroke: #000000"/>
     <use xlink:href="#m9a9518802c" x="288.697236" y="190.521967" style="stroke: #000000"/>
     <use xlink:href="#m9a9518802c" x="271.395148" y="218.025535" style="stroke: #000000"/>
     <use xlink:href="#m9a9518802c" x="52.937964" y="178.936223" style="stroke: #000000"/>
     <use xlink:href="#m9a9518802c" x="256.15872" y="232.169276" style="stroke: #000000"/>
     <use xlink:href="#m9a9518802c" x="253.788537" y="239.953138" style="stroke: #000000"/>
     <use xlink:href="#m9a9518802c" x="222.744444" y="235.844541" style="stroke: #000000"/>
     <use xlink:href="#m9a9518802c" x="278.221242" y="218.025535" style="stroke: #000000"/>
     <use xlink:href="#m9a9518802c" x="237.239733" y="256.348161" style="stroke: #000000"/>
     <use xlink:href="#m9a9518802c" x="215.925664" y="193.846649" style="stroke: #000000"/>
     <use xlink:href="#m9a9518802c" x="189.193432" y="206.288455" style="stroke: #000000"/>
     <use xlink:href="#m9a9518802c" x="117.739466" y="185.600757" style="stroke: #000000"/>
     <use xlink:href="#m9a9518802c" x="157.913061" y="256.348161" style="stroke: #000000"/>
     <use xlink:href="#m9a9518802c" x="224.2498" y="188.469448" style="stroke: #000000"/>
    </g>
   </g>
   <g id="PathCollection_3">
    <defs>
     <path id="m5cfff7b478" d="M -0.855706 -2.065857 
L -2.065857 -0.855706 
L -2.065857 0.855706 
L -0.855706 2.065857 
L 0.855706 2.065857 
L 2.065857 0.855706 
L 2.065857 -0.855706 
L 0.855706 -2.065857 
z
" style="stroke: #ff0000"/>
    </defs>
    <g clip-path="url(#paf23739f0f)">
     <use xlink:href="#m5cfff7b478" x="249.719757" y="121.020508" style="fill: #ff0000; stroke: #ff0000"/>
     <use xlink:href="#m5cfff7b478" x="185.413108" y="116.434711" style="fill: #ff0000; stroke: #ff0000"/>
     <use xlink:href="#m5cfff7b478" x="233.110228" y="118.517883" style="fill: #ff0000; stroke: #ff0000"/>
     <use xlink:href="#m5cfff7b478" x="261.359829" y="113.179036" style="fill: #ff0000; stroke: #ff0000"/>
     <use xlink:href="#m5cfff7b478" x="279.750109" y="118.652306" style="fill: #ff0000; stroke: #ff0000"/>
     <use xlink:href="#m5cfff7b478" x="242.082165" y="140.111678" style="fill: #ff0000; stroke: #ff0000"/>
     <use xlink:href="#m5cfff7b478" x="288.697236" y="118.117694" style="fill: #ff0000; stroke: #ff0000"/>
     <use xlink:href="#m5cfff7b478" x="271.395148" y="128.553027" style="fill: #ff0000; stroke: #ff0000"/>
     <use xlink:href="#m5cfff7b478" x="52.937964" y="129.643202" style="fill: #ff0000; stroke: #ff0000"/>
     <use xlink:href="#m5cfff7b478" x="256.15872" y="131.539471" style="fill: #ff0000; stroke: #ff0000"/>
     <use xlink:href="#m5cfff7b478" x="253.788537" y="113.876714" style="fill: #ff0000; stroke: #ff0000"/>
     <use xlink:href="#m5cfff7b478" x="222.744444" y="131.734893" style="fill: #ff0000; stroke: #ff0000"/>
     <use xlink:href="#m5cfff7b478" x="278.221242" y="121.020508" style="fill: #ff0000; stroke: #ff0000"/>
     <use xlink:href="#m5cfff7b478" x="237.239733" y="133.134389" style="fill: #ff0000; stroke: #ff0000"/>
     <use xlink:href="#m5cfff7b478" x="215.925664" y="128.197077" style="fill: #ff0000; stroke: #ff0000"/>
     <use xlink:href="#m5cfff7b478" x="189.193432" y="126.638779" style="fill: #ff0000; stroke: #ff0000"/>
     <use xlink:href="#m5cfff7b478" x="117.739466" y="119.332303" style="fill: #ff0000; stroke: #ff0000"/>
     <use xlink:href="#m5cfff7b478" x="157.913061" y="142.966134" style="fill: #ff0000; stroke: #ff0000"/>
     <use xlink:href="#m5cfff7b478" x="224.2498" y="146.973475" style="fill: #ff0000; stroke: #ff0000"/>
    </g>
   </g>
   <g id="PathCollection_4">
    <defs>
     <path id="md03aacffc2" d="M -2.236068 2.236068 
L 2.236068 2.236068 
L 2.236068 -2.236068 
L -2.236068 -2.236068 
z
" style="stroke: #00bfbf"/>
    </defs>
    <g clip-path="url(#paf23739f0f)">
     <use xlink:href="#md03aacffc2" x="249.719757" y="61.163273" style="fill: #00bfbf; stroke: #00bfbf"/>
     <use xlink:href="#md03aacffc2" x="185.413108" y="63.218148" style="fill: #00bfbf; stroke: #00bfbf"/>
     <use xlink:href="#md03aacffc2" x="233.110228" y="63.080976" style="fill: #00bfbf; stroke: #00bfbf"/>
     <use xlink:href="#md03aacffc2" x="261.359829" y="60.419694" style="fill: #00bfbf; stroke: #00bfbf"/>
     <use xlink:href="#md03aacffc2" x="279.750109" y="60.419694" style="fill: #00bfbf; stroke: #00bfbf"/>
     <use xlink:href="#md03aacffc2" x="242.082165" y="79.839307" style="fill: #00bfbf; stroke: #00bfbf"/>
     <use xlink:href="#md03aacffc2" x="288.697236" y="59.56763" style="fill: #00bfbf; stroke: #00bfbf"/>
     <use xlink:href="#md03aacffc2" x="271.395148" y="70.940216" style="fill: #00bfbf; stroke: #00bfbf"/>
     <use xlink:href="#md03aacffc2" x="52.937964" y="58.711719" style="fill: #00bfbf; stroke: #00bfbf"/>
     <use xlink:href="#md03aacffc2" x="256.15872" y="67.825078" style="fill: #00bfbf; stroke: #00bfbf"/>
     <use xlink:href="#md03aacffc2" x="253.788537" y="64.563192" style="fill: #00bfbf; stroke: #00bfbf"/>
     <use xlink:href="#md03aacffc2" x="222.744444" y="68.362476" style="fill: #00bfbf; stroke: #00bfbf"/>
     <use xlink:href="#md03aacffc2" x="278.221242" y="63.884187" style="fill: #00bfbf; stroke: #00bfbf"/>
     <use xlink:href="#md03aacffc2" x="237.239733" y="76.106541" style="fill: #00bfbf; stroke: #00bfbf"/>
     <use xlink:href="#md03aacffc2" x="215.925664" y="65.843436" style="fill: #00bfbf; stroke: #00bfbf"/>
     <use xlink:href="#md03aacffc2" x="189.193432" y="61.111479" style="fill: #00bfbf; stroke: #00bfbf"/>
     <use xlink:href="#md03aacffc2" x="117.739466" y="60.495885" style="fill: #00bfbf; stroke: #00bfbf"/>
     <use xlink:href="#md03aacffc2" x="157.913061" y="64.792496" style="fill: #00bfbf; stroke: #00bfbf"/>
     <use xlink:href="#md03aacffc2" x="224.2498" y="62.456841" style="fill: #00bfbf; stroke: #00bfbf"/>
    </g>
   </g>
   <g id="PathCollection_5">
    <defs>
     <path id="m77edaff801" d="M 0 -2.236068 
L -2.126627 -0.690983 
L -1.314328 1.809017 
L 1.314328 1.809017 
L 2.126627 -0.690983 
z
" style="stroke: #bf00bf"/>
    </defs>
    <g clip-path="url(#paf23739f0f)">
     <use xlink:href="#m77edaff801" x="249.719757" y="186.531019" style="fill: #bf00bf; stroke: #bf00bf"/>
     <use xlink:href="#m77edaff801" x="185.413108" y="166.875653" style="fill: #bf00bf; stroke: #bf00bf"/>
     <use xlink:href="#m77edaff801" x="233.110228" y="171.457015" style="fill: #bf00bf; stroke: #bf00bf"/>
     <use xlink:href="#m77edaff801" x="261.359829" y="187.486771" style="fill: #bf00bf; stroke: #bf00bf"/>
     <use xlink:href="#m77edaff801" x="279.750109" y="171.457015" style="fill: #bf00bf; stroke: #bf00bf"/>
     <use xlink:href="#m77edaff801" x="242.082165" y="215.774253" style="fill: #bf00bf; stroke: #bf00bf"/>
     <use xlink:href="#m77edaff801" x="288.697236" y="177.451626" style="fill: #bf00bf; stroke: #bf00bf"/>
     <use xlink:href="#m77edaff801" x="271.395148" y="201.630512" style="fill: #bf00bf; stroke: #bf00bf"/>
     <use xlink:href="#m77edaff801" x="52.937964" y="170.254043" style="fill: #bf00bf; stroke: #bf00bf"/>
     <use xlink:href="#m77edaff801" x="256.15872" y="209.779642" style="fill: #bf00bf; stroke: #bf00bf"/>
     <use xlink:href="#m77edaff801" x="253.788537" y="200.206528" style="fill: #bf00bf; stroke: #bf00bf"/>
     <use xlink:href="#m77edaff801" x="222.744444" y="180.486823" style="fill: #bf00bf; stroke: #bf00bf"/>
     <use xlink:href="#m77edaff801" x="278.221242" y="193.846649" style="fill: #bf00bf; stroke: #bf00bf"/>
     <use xlink:href="#m77edaff801" x="237.239733" y="220.432196" style="fill: #bf00bf; stroke: #bf00bf"/>
     <use xlink:href="#m77edaff801" x="215.925664" y="173.995062" style="fill: #bf00bf; stroke: #bf00bf"/>
     <use xlink:href="#m77edaff801" x="189.193432" y="174.659516" style="fill: #bf00bf; stroke: #bf00bf"/>
     <use xlink:href="#m77edaff801" x="117.739466" y="182.10957" style="fill: #bf00bf; stroke: #bf00bf"/>
     <use xlink:href="#m77edaff801" x="157.913061" y="179.702908" style="fill: #bf00bf; stroke: #bf00bf"/>
     <use xlink:href="#m77edaff801" x="224.2498" y="163.795764" style="fill: #bf00bf; stroke: #bf00bf"/>
    </g>
   </g>
   <g id="PathCollection_6">
    <defs>
     <path id="m4bc7a31319" d="M 0 -2.236068 
L -0.502029 -0.690983 
L -2.126627 -0.690983 
L -0.812299 0.263932 
L -1.314328 1.809017 
L -0 0.854102 
L 1.314328 1.809017 
L 0.812299 0.263932 
L 2.126627 -0.690983 
L 0.502029 -0.690983 
z
" style="stroke: #008000"/>
    </defs>
    <g clip-path="url(#paf23739f0f)">
     <use xlink:href="#m4bc7a31319" x="249.719757" y="249.988282" style="fill: #008000; stroke: #008000"/>
     <use xlink:href="#m4bc7a31319" x="185.413108" y="244.611082" style="fill: #008000; stroke: #008000"/>
     <use xlink:href="#m4bc7a31319" x="233.110228" y="256.348161" style="fill: #008000; stroke: #008000"/>
     <use xlink:href="#m4bc7a31319" x="261.359829" y="235.844541" style="fill: #008000; stroke: #008000"/>
     <use xlink:href="#m4bc7a31319" x="279.750109" y="249.988282" style="fill: #008000; stroke: #008000"/>
     <use xlink:href="#m4bc7a31319" x="242.082165" y="288.310909" style="fill: #008000; stroke: #008000"/>
     <use xlink:href="#m4bc7a31319" x="288.697236" y="249.988282" style="fill: #008000; stroke: #008000"/>
     <use xlink:href="#m4bc7a31319" x="271.395148" y="239.953138" style="fill: #008000; stroke: #008000"/>
     <use xlink:href="#m4bc7a31319" x="52.937964" y="228.844594" style="fill: #008000; stroke: #008000"/>
     <use xlink:href="#m4bc7a31319" x="256.15872" y="288.310909" style="fill: #008000; stroke: #008000"/>
     <use xlink:href="#m4bc7a31319" x="253.788537" y="288.310909" style="fill: #008000; stroke: #008000"/>
     <use xlink:href="#m4bc7a31319" x="222.744444" y="256.348161" style="fill: #008000; stroke: #008000"/>
     <use xlink:href="#m4bc7a31319" x="278.221242" y="244.611082" style="fill: #008000; stroke: #008000"/>
     <use xlink:href="#m4bc7a31319" x="237.239733" y="288.310909" style="fill: #008000; stroke: #008000"/>
     <use xlink:href="#m4bc7a31319" x="215.925664" y="232.169276" style="fill: #008000; stroke: #008000"/>
     <use xlink:href="#m4bc7a31319" x="189.193432" y="244.611082" style="fill: #008000; stroke: #008000"/>
     <use xlink:href="#m4bc7a31319" x="117.739466" y="256.348161" style="fill: #008000; stroke: #008000"/>
     <use xlink:href="#m4bc7a31319" x="157.913061" y="239.953138" style="fill: #008000; stroke: #008000"/>
     <use xlink:href="#m4bc7a31319" x="224.2498" y="228.844594" style="fill: #008000; stroke: #008000"/>
    </g>
   </g>
   <g id="PathCollection_7">
    <defs>
     <path id="m21b56fe107" d="M 0 -2.236068 
L -1.936492 -1.118034 
L -1.936492 1.118034 
L -0 2.236068 
L 1.936492 1.118034 
L 1.936492 -1.118034 
z
" style="stroke: #bfbf00"/>
    </defs>
    <g clip-path="url(#paf23739f0f)">
     <use xlink:href="#m21b56fe107" x="249.719757" y="122.643254" style="fill: #bfbf00; stroke: #bfbf00"/>
     <use xlink:href="#m21b56fe107" x="185.413108" y="111.713632" style="fill: #bfbf00; stroke: #bfbf00"/>
     <use xlink:href="#m21b56fe107" x="233.110228" y="113.759461" style="fill: #bfbf00; stroke: #bfbf00"/>
     <use xlink:href="#m21b56fe107" x="261.359829" y="122.193148" style="fill: #bfbf00; stroke: #bfbf00"/>
     <use xlink:href="#m21b56fe107" x="279.750109" y="113.179036" style="fill: #bfbf00; stroke: #bfbf00"/>
     <use xlink:href="#m21b56fe107" x="242.082165" y="140.361734" style="fill: #bfbf00; stroke: #bfbf00"/>
     <use xlink:href="#m21b56fe107" x="288.697236" y="116.815947" style="fill: #bfbf00; stroke: #bfbf00"/>
     <use xlink:href="#m21b56fe107" x="271.395148" y="130.201338" style="fill: #bfbf00; stroke: #bfbf00"/>
     <use xlink:href="#m21b56fe107" x="52.937964" y="111.713632" style="fill: #bfbf00; stroke: #bfbf00"/>
     <use xlink:href="#m21b56fe107" x="256.15872" y="135.020403" style="fill: #bfbf00; stroke: #bfbf00"/>
     <use xlink:href="#m21b56fe107" x="253.788537" y="131.734893" style="fill: #bfbf00; stroke: #bfbf00"/>
     <use xlink:href="#m21b56fe107" x="222.744444" y="125.967936" style="fill: #bfbf00; stroke: #bfbf00"/>
     <use xlink:href="#m21b56fe107" x="278.221242" y="125.637292" style="fill: #bfbf00; stroke: #bfbf00"/>
     <use xlink:href="#m21b56fe107" x="237.239733" y="146.671458" style="fill: #bfbf00; stroke: #bfbf00"/>
     <use xlink:href="#m21b56fe107" x="215.925664" y="116.182849" style="fill: #bfbf00; stroke: #bfbf00"/>
     <use xlink:href="#m21b56fe107" x="189.193432" y="115.437993" style="fill: #bfbf00; stroke: #bfbf00"/>
     <use xlink:href="#m21b56fe107" x="117.739466" y="114.468965" style="fill: #bfbf00; stroke: #bfbf00"/>
     <use xlink:href="#m21b56fe107" x="157.913061" y="126.134442" style="fill: #bfbf00; stroke: #bfbf00"/>
     <use xlink:href="#m21b56fe107" x="224.2498" y="112.83536" style="fill: #bfbf00; stroke: #bfbf00"/>
    </g>
   </g>
   <g id="PathCollection_8">
    <defs>
     <path id="m135d337bdd" d="M -2.236068 0 
L 2.236068 0 
M 0 2.236068 
L 0 -2.236068 
" style="stroke: #9467bd; stroke-width: 1.5"/>
    </defs>
    <g clip-path="url(#paf23739f0f)">
     <use xlink:href="#m135d337bdd" x="249.719757" y="107.654131" style="fill: #9467bd; stroke: #9467bd; stroke-width: 1.5"/>
     <use xlink:href="#m135d337bdd" x="185.413108" y="106.11635" style="fill: #9467bd; stroke: #9467bd; stroke-width: 1.5"/>
     <use xlink:href="#m135d337bdd" x="233.110228" y="107.06949" style="fill: #9467bd; stroke: #9467bd; stroke-width: 1.5"/>
     <use xlink:href="#m135d337bdd" x="261.359829" y="103.403888" style="fill: #9467bd; stroke: #9467bd; stroke-width: 1.5"/>
     <use xlink:href="#m135d337bdd" x="279.750109" y="110.520015" style="fill: #9467bd; stroke: #9467bd; stroke-width: 1.5"/>
     <use xlink:href="#m135d337bdd" x="242.082165" y="124.34519" style="fill: #9467bd; stroke: #9467bd; stroke-width: 1.5"/>
     <use xlink:href="#m135d337bdd" x="288.697236" y="105.005929" style="fill: #9467bd; stroke: #9467bd; stroke-width: 1.5"/>
     <use xlink:href="#m135d337bdd" x="271.395148" y="120.02582" style="fill: #9467bd; stroke: #9467bd; stroke-width: 1.5"/>
     <use xlink:href="#m135d337bdd" x="52.937964" y="112.158004" style="fill: #9467bd; stroke: #9467bd; stroke-width: 1.5"/>
     <use xlink:href="#m135d337bdd" x="256.15872" y="116.434711" style="fill: #9467bd; stroke: #9467bd; stroke-width: 1.5"/>
     <use xlink:href="#m135d337bdd" x="253.788537" y="108.853656" style="fill: #9467bd; stroke: #9467bd; stroke-width: 1.5"/>
     <use xlink:href="#m135d337bdd" x="222.744444" y="118.652306" style="fill: #9467bd; stroke: #9467bd; stroke-width: 1.5"/>
     <use xlink:href="#m135d337bdd" x="278.221242" y="108.650849" style="fill: #9467bd; stroke: #9467bd; stroke-width: 1.5"/>
     <use xlink:href="#m135d337bdd" x="237.239733" y="116.943958" style="fill: #9467bd; stroke: #9467bd; stroke-width: 1.5"/>
     <use xlink:href="#m135d337bdd" x="215.925664" y="112.158004" style="fill: #9467bd; stroke: #9467bd; stroke-width: 1.5"/>
     <use xlink:href="#m135d337bdd" x="189.193432" y="114.230857" style="fill: #9467bd; stroke: #9467bd; stroke-width: 1.5"/>
     <use xlink:href="#m135d337bdd" x="117.739466" y="114.468965" style="fill: #9467bd; stroke: #9467bd; stroke-width: 1.5"/>
     <use xlink:href="#m135d337bdd" x="157.913061" y="128.553027" style="fill: #9467bd; stroke: #9467bd; stroke-width: 1.5"/>
     <use xlink:href="#m135d337bdd" x="224.2498" y="122.044394" style="fill: #9467bd; stroke: #9467bd; stroke-width: 1.5"/>
    </g>
   </g>
   <g id="PathCollection_9">
    <defs>
     <path id="m92539cae6c" d="M -2.236068 2.236068 
L 2.236068 -2.236068 
M -2.236068 -2.236068 
L 2.236068 2.236068 
" style="stroke: #8c564b; stroke-width: 1.5"/>
    </defs>
    <g clip-path="url(#paf23739f0f)">
     <use xlink:href="#m92539cae6c" x="249.719757" y="218.025535" style="fill: #8c564b; stroke: #8c564b; stroke-width: 1.5"/>
     <use xlink:href="#m92539cae6c" x="185.413108" y="215.774253" style="fill: #8c564b; stroke: #8c564b; stroke-width: 1.5"/>
     <use xlink:href="#m92539cae6c" x="233.110228" y="235.844541" style="fill: #8c564b; stroke: #8c564b; stroke-width: 1.5"/>
     <use xlink:href="#m92539cae6c" x="261.359829" y="218.025535" style="fill: #8c564b; stroke: #8c564b; stroke-width: 1.5"/>
     <use xlink:href="#m92539cae6c" x="279.750109" y="207.99039" style="fill: #8c564b; stroke: #8c564b; stroke-width: 1.5"/>
     <use xlink:href="#m92539cae6c" x="242.082165" y="256.348161" style="fill: #8c564b; stroke: #8c564b; stroke-width: 1.5"/>
     <use xlink:href="#m92539cae6c" x="288.697236" y="235.844541" style="fill: #8c564b; stroke: #8c564b; stroke-width: 1.5"/>
     <use xlink:href="#m92539cae6c" x="271.395148" y="249.988282" style="fill: #8c564b; stroke: #8c564b; stroke-width: 1.5"/>
     <use xlink:href="#m92539cae6c" x="52.937964" y="249.988282" style="fill: #8c564b; stroke: #8c564b; stroke-width: 1.5"/>
     <use xlink:href="#m92539cae6c" x="256.15872" y="249.988282" style="fill: #8c564b; stroke: #8c564b; stroke-width: 1.5"/>
     <use xlink:href="#m92539cae6c" x="253.788537" y="232.169276" style="fill: #8c564b; stroke: #8c564b; stroke-width: 1.5"/>
     <use xlink:href="#m92539cae6c" x="222.744444" y="249.988282" style="fill: #8c564b; stroke: #8c564b; stroke-width: 1.5"/>
     <use xlink:href="#m92539cae6c" x="278.221242" y="235.844541" style="fill: #8c564b; stroke: #8c564b; stroke-width: 1.5"/>
     <use xlink:href="#m92539cae6c" x="237.239733" y="256.348161" style="fill: #8c564b; stroke: #8c564b; stroke-width: 1.5"/>
     <use xlink:href="#m92539cae6c" x="215.925664" y="249.988282" style="fill: #8c564b; stroke: #8c564b; stroke-width: 1.5"/>
     <use xlink:href="#m92539cae6c" x="189.193432" y="228.844594" style="fill: #8c564b; stroke: #8c564b; stroke-width: 1.5"/>
     <use xlink:href="#m92539cae6c" x="117.739466" y="249.988282" style="fill: #8c564b; stroke: #8c564b; stroke-width: 1.5"/>
     <use xlink:href="#m92539cae6c" x="157.913061" y="249.988282" style="fill: #8c564b; stroke: #8c564b; stroke-width: 1.5"/>
     <use xlink:href="#m92539cae6c" x="224.2498" y="256.348161" style="fill: #8c564b; stroke: #8c564b; stroke-width: 1.5"/>
    </g>
   </g>
   <g id="PathCollection_10">
    <defs>
     <path id="m273d317eb0" d="M 0 -2.236068 
L -2.236068 2.236068 
L 2.236068 2.236068 
z
" style="stroke: #ff7f0e"/>
    </defs>
    <g clip-path="url(#paf23739f0f)">
     <use xlink:href="#m273d317eb0" x="249.719757" y="42.202139" style="fill: #ff7f0e; stroke: #ff7f0e"/>
     <use xlink:href="#m273d317eb0" x="185.413108" y="40.043152" style="fill: #ff7f0e; stroke: #ff7f0e"/>
     <use xlink:href="#m273d317eb0" x="233.110228" y="41.369433" style="fill: #ff7f0e; stroke: #ff7f0e"/>
     <use xlink:href="#m273d317eb0" x="261.359829" y="39.901983" style="fill: #ff7f0e; stroke: #ff7f0e"/>
     <use xlink:href="#m273d317eb0" x="279.750109" y="39.944274" style="fill: #ff7f0e; stroke: #ff7f0e"/>
     <use xlink:href="#m273d317eb0" x="242.082165" y="60.879357" style="fill: #ff7f0e; stroke: #ff7f0e"/>
     <use xlink:href="#m273d317eb0" x="288.697236" y="39.329091" style="fill: #ff7f0e; stroke: #ff7f0e"/>
     <use xlink:href="#m273d317eb0" x="271.395148" y="51.947549" style="fill: #ff7f0e; stroke: #ff7f0e"/>
     <use xlink:href="#m273d317eb0" x="52.937964" y="39.859744" style="fill: #ff7f0e; stroke: #ff7f0e"/>
     <use xlink:href="#m273d317eb0" x="256.15872" y="50.696716" style="fill: #ff7f0e; stroke: #ff7f0e"/>
     <use xlink:href="#m273d317eb0" x="253.788537" y="45.054495" style="fill: #ff7f0e; stroke: #ff7f0e"/>
     <use xlink:href="#m273d317eb0" x="222.744444" y="49.899578" style="fill: #ff7f0e; stroke: #ff7f0e"/>
     <use xlink:href="#m273d317eb0" x="278.221242" y="44.471483" style="fill: #ff7f0e; stroke: #ff7f0e"/>
     <use xlink:href="#m273d317eb0" x="237.239733" y="57.338018" style="fill: #ff7f0e; stroke: #ff7f0e"/>
     <use xlink:href="#m273d317eb0" x="215.925664" y="44.745581" style="fill: #ff7f0e; stroke: #ff7f0e"/>
     <use xlink:href="#m273d317eb0" x="189.193432" y="42.474071" style="fill: #ff7f0e; stroke: #ff7f0e"/>
     <use xlink:href="#m273d317eb0" x="117.739466" y="41.222805" style="fill: #ff7f0e; stroke: #ff7f0e"/>
     <use xlink:href="#m273d317eb0" x="157.913061" y="49.787174" style="fill: #ff7f0e; stroke: #ff7f0e"/>
     <use xlink:href="#m273d317eb0" x="224.2498" y="44.487547" style="fill: #ff7f0e; stroke: #ff7f0e"/>
    </g>
   </g>
   <g id="matplotlib.axis_1">
    <g id="xtick_1">
     <g id="line2d_1">
      <defs>
       <path id="m7536131ead" d="M 0 0 
L 0 3.5 
" style="stroke: #000000; stroke-width: 0.8"/>
      </defs>
      <g>
       <use xlink:href="#m7536131ead" x="59.569463" y="300.76" style="stroke: #000000; stroke-width: 0.8"/>
      </g>
     </g>
     <g id="text_1">
      <!-- 1 -->
      <g transform="translate(56.388213 315.358437)scale(0.1 -0.1)">
       <defs>
        <path id="DejaVuSans-31" d="M 794 531 
L 1825 531 
L 1825 4091 
L 703 3866 
L 703 4441 
L 1819 4666 
L 2450 4666 
L 2450 531 
L 3481 531 
L 3481 0 
L 794 0 
L 794 531 
z
" transform="scale(0.015625)"/>
       </defs>
       <use xlink:href="#DejaVuSans-31"/>
      </g>
     </g>
    </g>
    <g id="xtick_2">
     <g id="line2d_2">
      <g>
       <use xlink:href="#m7536131ead" x="111.949631" y="300.76" style="stroke: #000000; stroke-width: 0.8"/>
      </g>
     </g>
     <g id="text_2">
      <!-- 2 -->
      <g transform="translate(108.768381 315.358437)scale(0.1 -0.1)">
       <defs>
        <path id="DejaVuSans-32" d="M 1228 531 
L 3431 531 
L 3431 0 
L 469 0 
L 469 531 
Q 828 903 1448 1529 
Q 2069 2156 2228 2338 
Q 2531 2678 2651 2914 
Q 2772 3150 2772 3378 
Q 2772 3750 2511 3984 
Q 2250 4219 1831 4219 
Q 1534 4219 1204 4116 
Q 875 4013 500 3803 
L 500 4441 
Q 881 4594 1212 4672 
Q 1544 4750 1819 4750 
Q 2544 4750 2975 4387 
Q 3406 4025 3406 3419 
Q 3406 3131 3298 2873 
Q 3191 2616 2906 2266 
Q 2828 2175 2409 1742 
Q 1991 1309 1228 531 
z
" transform="scale(0.015625)"/>
       </defs>
       <use xlink:href="#DejaVuSans-32"/>
      </g>
     </g>
    </g>
    <g id="xtick_3">
     <g id="line2d_3">
      <g>
       <use xlink:href="#m7536131ead" x="164.329798" y="300.76" style="stroke: #000000; stroke-width: 0.8"/>
      </g>
     </g>
     <g id="text_3">
      <!-- 3 -->
      <g transform="translate(161.148548 315.358437)scale(0.1 -0.1)">
       <defs>
        <path id="DejaVuSans-33" d="M 2597 2516 
Q 3050 2419 3304 2112 
Q 3559 1806 3559 1356 
Q 3559 666 3084 287 
Q 2609 -91 1734 -91 
Q 1441 -91 1130 -33 
Q 819 25 488 141 
L 488 750 
Q 750 597 1062 519 
Q 1375 441 1716 441 
Q 2309 441 2620 675 
Q 2931 909 2931 1356 
Q 2931 1769 2642 2001 
Q 2353 2234 1838 2234 
L 1294 2234 
L 1294 2753 
L 1863 2753 
Q 2328 2753 2575 2939 
Q 2822 3125 2822 3475 
Q 2822 3834 2567 4026 
Q 2313 4219 1838 4219 
Q 1578 4219 1281 4162 
Q 984 4106 628 3988 
L 628 4550 
Q 988 4650 1302 4700 
Q 1616 4750 1894 4750 
Q 2613 4750 3031 4423 
Q 3450 4097 3450 3541 
Q 3450 3153 3228 2886 
Q 3006 2619 2597 2516 
z
" transform="scale(0.015625)"/>
       </defs>
       <use xlink:href="#DejaVuSans-33"/>
      </g>
     </g>
    </g>
    <g id="xtick_4">
     <g id="line2d_4">
      <g>
       <use xlink:href="#m7536131ead" x="216.709966" y="300.76" style="stroke: #000000; stroke-width: 0.8"/>
      </g>
     </g>
     <g id="text_4">
      <!-- 4 -->
      <g transform="translate(213.528716 315.358437)scale(0.1 -0.1)">
       <defs>
        <path id="DejaVuSans-34" d="M 2419 4116 
L 825 1625 
L 2419 1625 
L 2419 4116 
z
M 2253 4666 
L 3047 4666 
L 3047 1625 
L 3713 1625 
L 3713 1100 
L 3047 1100 
L 3047 0 
L 2419 0 
L 2419 1100 
L 313 1100 
L 313 1709 
L 2253 4666 
z
" transform="scale(0.015625)"/>
       </defs>
       <use xlink:href="#DejaVuSans-34"/>
      </g>
     </g>
    </g>
    <g id="xtick_5">
     <g id="line2d_5">
      <g>
       <use xlink:href="#m7536131ead" x="269.090133" y="300.76" style="stroke: #000000; stroke-width: 0.8"/>
      </g>
     </g>
     <g id="text_5">
      <!-- 5 -->
      <g transform="translate(265.908883 315.358437)scale(0.1 -0.1)">
       <defs>
        <path id="DejaVuSans-35" d="M 691 4666 
L 3169 4666 
L 3169 4134 
L 1269 4134 
L 1269 2991 
Q 1406 3038 1543 3061 
Q 1681 3084 1819 3084 
Q 2600 3084 3056 2656 
Q 3513 2228 3513 1497 
Q 3513 744 3044 326 
Q 2575 -91 1722 -91 
Q 1428 -91 1123 -41 
Q 819 9 494 109 
L 494 744 
Q 775 591 1075 516 
Q 1375 441 1709 441 
Q 2250 441 2565 725 
Q 2881 1009 2881 1497 
Q 2881 1984 2565 2268 
Q 2250 2553 1709 2553 
Q 1456 2553 1204 2497 
Q 953 2441 691 2322 
L 691 4666 
z
" transform="scale(0.015625)"/>
       </defs>
       <use xlink:href="#DejaVuSans-35"/>
      </g>
     </g>
    </g>
    <g id="text_6">
     <!-- DamNrmStorM3Ws (in log10) -->
     <g transform="translate(71.886038 330.55625)scale(0.12 -0.12)">
      <defs>
       <path id="DejaVuSans-Bold-44" d="M 1791 3756 
L 1791 909 
L 2222 909 
Q 2959 909 3348 1275 
Q 3738 1641 3738 2338 
Q 3738 3031 3350 3393 
Q 2963 3756 2222 3756 
L 1791 3756 
z
M 588 4666 
L 1856 4666 
Q 2919 4666 3439 4514 
Q 3959 4363 4331 4000 
Q 4659 3684 4818 3271 
Q 4978 2859 4978 2338 
Q 4978 1809 4818 1395 
Q 4659 981 4331 666 
Q 3956 303 3431 151 
Q 2906 0 1856 0 
L 588 0 
L 588 4666 
z
" transform="scale(0.015625)"/>
       <path id="DejaVuSans-Bold-61" d="M 2106 1575 
Q 1756 1575 1579 1456 
Q 1403 1338 1403 1106 
Q 1403 894 1545 773 
Q 1688 653 1941 653 
Q 2256 653 2472 879 
Q 2688 1106 2688 1447 
L 2688 1575 
L 2106 1575 
z
M 3816 1997 
L 3816 0 
L 2688 0 
L 2688 519 
Q 2463 200 2181 54 
Q 1900 -91 1497 -91 
Q 953 -91 614 226 
Q 275 544 275 1050 
Q 275 1666 698 1953 
Q 1122 2241 2028 2241 
L 2688 2241 
L 2688 2328 
Q 2688 2594 2478 2717 
Q 2269 2841 1825 2841 
Q 1466 2841 1156 2769 
Q 847 2697 581 2553 
L 581 3406 
Q 941 3494 1303 3539 
Q 1666 3584 2028 3584 
Q 2975 3584 3395 3211 
Q 3816 2838 3816 1997 
z
" transform="scale(0.015625)"/>
       <path id="DejaVuSans-Bold-6d" d="M 3781 2919 
Q 3994 3244 4286 3414 
Q 4578 3584 4928 3584 
Q 5531 3584 5847 3212 
Q 6163 2841 6163 2131 
L 6163 0 
L 5038 0 
L 5038 1825 
Q 5041 1866 5042 1909 
Q 5044 1953 5044 2034 
Q 5044 2406 4934 2573 
Q 4825 2741 4581 2741 
Q 4263 2741 4089 2478 
Q 3916 2216 3909 1719 
L 3909 0 
L 2784 0 
L 2784 1825 
Q 2784 2406 2684 2573 
Q 2584 2741 2328 2741 
Q 2006 2741 1831 2477 
Q 1656 2213 1656 1722 
L 1656 0 
L 531 0 
L 531 3500 
L 1656 3500 
L 1656 2988 
Q 1863 3284 2130 3434 
Q 2397 3584 2719 3584 
Q 3081 3584 3359 3409 
Q 3638 3234 3781 2919 
z
" transform="scale(0.015625)"/>
       <path id="DejaVuSans-Bold-4e" d="M 588 4666 
L 1931 4666 
L 3628 1466 
L 3628 4666 
L 4769 4666 
L 4769 0 
L 3425 0 
L 1728 3200 
L 1728 0 
L 588 0 
L 588 4666 
z
" transform="scale(0.015625)"/>
       <path id="DejaVuSans-Bold-72" d="M 3138 2547 
Q 2991 2616 2845 2648 
Q 2700 2681 2553 2681 
Q 2122 2681 1889 2404 
Q 1656 2128 1656 1613 
L 1656 0 
L 538 0 
L 538 3500 
L 1656 3500 
L 1656 2925 
Q 1872 3269 2151 3426 
Q 2431 3584 2822 3584 
Q 2878 3584 2943 3579 
Q 3009 3575 3134 3559 
L 3138 2547 
z
" transform="scale(0.015625)"/>
       <path id="DejaVuSans-Bold-53" d="M 3834 4519 
L 3834 3531 
Q 3450 3703 3084 3790 
Q 2719 3878 2394 3878 
Q 1963 3878 1756 3759 
Q 1550 3641 1550 3391 
Q 1550 3203 1689 3098 
Q 1828 2994 2194 2919 
L 2706 2816 
Q 3484 2659 3812 2340 
Q 4141 2022 4141 1434 
Q 4141 663 3683 286 
Q 3225 -91 2284 -91 
Q 1841 -91 1394 -6 
Q 947 78 500 244 
L 500 1259 
Q 947 1022 1364 901 
Q 1781 781 2169 781 
Q 2563 781 2772 912 
Q 2981 1044 2981 1288 
Q 2981 1506 2839 1625 
Q 2697 1744 2272 1838 
L 1806 1941 
Q 1106 2091 782 2419 
Q 459 2747 459 3303 
Q 459 4000 909 4375 
Q 1359 4750 2203 4750 
Q 2588 4750 2994 4692 
Q 3400 4634 3834 4519 
z
" transform="scale(0.015625)"/>
       <path id="DejaVuSans-Bold-74" d="M 1759 4494 
L 1759 3500 
L 2913 3500 
L 2913 2700 
L 1759 2700 
L 1759 1216 
Q 1759 972 1856 886 
Q 1953 800 2241 800 
L 2816 800 
L 2816 0 
L 1856 0 
Q 1194 0 917 276 
Q 641 553 641 1216 
L 641 2700 
L 84 2700 
L 84 3500 
L 641 3500 
L 641 4494 
L 1759 4494 
z
" transform="scale(0.015625)"/>
       <path id="DejaVuSans-Bold-6f" d="M 2203 2784 
Q 1831 2784 1636 2517 
Q 1441 2250 1441 1747 
Q 1441 1244 1636 976 
Q 1831 709 2203 709 
Q 2569 709 2762 976 
Q 2956 1244 2956 1747 
Q 2956 2250 2762 2517 
Q 2569 2784 2203 2784 
z
M 2203 3584 
Q 3106 3584 3614 3096 
Q 4122 2609 4122 1747 
Q 4122 884 3614 396 
Q 3106 -91 2203 -91 
Q 1297 -91 786 396 
Q 275 884 275 1747 
Q 275 2609 786 3096 
Q 1297 3584 2203 3584 
z
" transform="scale(0.015625)"/>
       <path id="DejaVuSans-Bold-4d" d="M 588 4666 
L 2119 4666 
L 3181 2169 
L 4250 4666 
L 5778 4666 
L 5778 0 
L 4641 0 
L 4641 3413 
L 3566 897 
L 2803 897 
L 1728 3413 
L 1728 0 
L 588 0 
L 588 4666 
z
" transform="scale(0.015625)"/>
       <path id="DejaVuSans-Bold-33" d="M 2981 2516 
Q 3453 2394 3698 2092 
Q 3944 1791 3944 1325 
Q 3944 631 3412 270 
Q 2881 -91 1863 -91 
Q 1503 -91 1142 -33 
Q 781 25 428 141 
L 428 1069 
Q 766 900 1098 814 
Q 1431 728 1753 728 
Q 2231 728 2486 893 
Q 2741 1059 2741 1369 
Q 2741 1688 2480 1852 
Q 2219 2016 1709 2016 
L 1228 2016 
L 1228 2791 
L 1734 2791 
Q 2188 2791 2409 2933 
Q 2631 3075 2631 3366 
Q 2631 3634 2415 3781 
Q 2200 3928 1806 3928 
Q 1516 3928 1219 3862 
Q 922 3797 628 3669 
L 628 4550 
Q 984 4650 1334 4700 
Q 1684 4750 2022 4750 
Q 2931 4750 3382 4451 
Q 3834 4153 3834 3553 
Q 3834 3144 3618 2883 
Q 3403 2622 2981 2516 
z
" transform="scale(0.015625)"/>
       <path id="DejaVuSans-Bold-57" d="M 191 4666 
L 1344 4666 
L 2150 1275 
L 2950 4666 
L 4109 4666 
L 4909 1275 
L 5716 4666 
L 6859 4666 
L 5759 0 
L 4372 0 
L 3525 3547 
L 2688 0 
L 1300 0 
L 191 4666 
z
" transform="scale(0.015625)"/>
       <path id="DejaVuSans-Bold-73" d="M 3272 3391 
L 3272 2541 
Q 2913 2691 2578 2766 
Q 2244 2841 1947 2841 
Q 1628 2841 1473 2761 
Q 1319 2681 1319 2516 
Q 1319 2381 1436 2309 
Q 1553 2238 1856 2203 
L 2053 2175 
Q 2913 2066 3209 1816 
Q 3506 1566 3506 1031 
Q 3506 472 3093 190 
Q 2681 -91 1863 -91 
Q 1516 -91 1145 -36 
Q 775 19 384 128 
L 384 978 
Q 719 816 1070 734 
Q 1422 653 1784 653 
Q 2113 653 2278 743 
Q 2444 834 2444 1013 
Q 2444 1163 2330 1236 
Q 2216 1309 1875 1350 
L 1678 1375 
Q 931 1469 631 1722 
Q 331 1975 331 2491 
Q 331 3047 712 3315 
Q 1094 3584 1881 3584 
Q 2191 3584 2531 3537 
Q 2872 3491 3272 3391 
z
" transform="scale(0.015625)"/>
       <path id="DejaVuSans-Bold-20" transform="scale(0.015625)"/>
       <path id="DejaVuSans-Bold-28" d="M 2413 -844 
L 1484 -844 
Q 1006 -72 778 623 
Q 550 1319 550 2003 
Q 550 2688 779 3389 
Q 1009 4091 1484 4856 
L 2413 4856 
Q 2013 4116 1813 3408 
Q 1613 2700 1613 2009 
Q 1613 1319 1811 609 
Q 2009 -100 2413 -844 
z
" transform="scale(0.015625)"/>
       <path id="DejaVuSans-Bold-69" d="M 538 3500 
L 1656 3500 
L 1656 0 
L 538 0 
L 538 3500 
z
M 538 4863 
L 1656 4863 
L 1656 3950 
L 538 3950 
L 538 4863 
z
" transform="scale(0.015625)"/>
       <path id="DejaVuSans-Bold-6e" d="M 4056 2131 
L 4056 0 
L 2931 0 
L 2931 347 
L 2931 1631 
Q 2931 2084 2911 2256 
Q 2891 2428 2841 2509 
Q 2775 2619 2662 2680 
Q 2550 2741 2406 2741 
Q 2056 2741 1856 2470 
Q 1656 2200 1656 1722 
L 1656 0 
L 538 0 
L 538 3500 
L 1656 3500 
L 1656 2988 
Q 1909 3294 2193 3439 
Q 2478 3584 2822 3584 
Q 3428 3584 3742 3212 
Q 4056 2841 4056 2131 
z
" transform="scale(0.015625)"/>
       <path id="DejaVuSans-Bold-6c" d="M 538 4863 
L 1656 4863 
L 1656 0 
L 538 0 
L 538 4863 
z
" transform="scale(0.015625)"/>
       <path id="DejaVuSans-Bold-67" d="M 2919 594 
Q 2688 288 2409 144 
Q 2131 0 1766 0 
Q 1125 0 706 504 
Q 288 1009 288 1791 
Q 288 2575 706 3076 
Q 1125 3578 1766 3578 
Q 2131 3578 2409 3434 
Q 2688 3291 2919 2981 
L 2919 3500 
L 4044 3500 
L 4044 353 
Q 4044 -491 3511 -936 
Q 2978 -1381 1966 -1381 
Q 1638 -1381 1331 -1331 
Q 1025 -1281 716 -1178 
L 716 -306 
Q 1009 -475 1290 -558 
Q 1572 -641 1856 -641 
Q 2406 -641 2662 -400 
Q 2919 -159 2919 353 
L 2919 594 
z
M 2181 2772 
Q 1834 2772 1640 2515 
Q 1447 2259 1447 1791 
Q 1447 1309 1634 1061 
Q 1822 813 2181 813 
Q 2531 813 2725 1069 
Q 2919 1325 2919 1791 
Q 2919 2259 2725 2515 
Q 2531 2772 2181 2772 
z
" transform="scale(0.015625)"/>
       <path id="DejaVuSans-Bold-31" d="M 750 831 
L 1813 831 
L 1813 3847 
L 722 3622 
L 722 4441 
L 1806 4666 
L 2950 4666 
L 2950 831 
L 4013 831 
L 4013 0 
L 750 0 
L 750 831 
z
" transform="scale(0.015625)"/>
       <path id="DejaVuSans-Bold-30" d="M 2944 2338 
Q 2944 3213 2780 3570 
Q 2616 3928 2228 3928 
Q 1841 3928 1675 3570 
Q 1509 3213 1509 2338 
Q 1509 1453 1675 1090 
Q 1841 728 2228 728 
Q 2613 728 2778 1090 
Q 2944 1453 2944 2338 
z
M 4147 2328 
Q 4147 1169 3647 539 
Q 3147 -91 2228 -91 
Q 1306 -91 806 539 
Q 306 1169 306 2328 
Q 306 3491 806 4120 
Q 1306 4750 2228 4750 
Q 3147 4750 3647 4120 
Q 4147 3491 4147 2328 
z
" transform="scale(0.015625)"/>
       <path id="DejaVuSans-Bold-29" d="M 513 -844 
Q 913 -100 1113 609 
Q 1313 1319 1313 2009 
Q 1313 2700 1113 3408 
Q 913 4116 513 4856 
L 1441 4856 
Q 1916 4091 2145 3389 
Q 2375 2688 2375 2003 
Q 2375 1319 2147 623 
Q 1919 -72 1441 -844 
L 513 -844 
z
" transform="scale(0.015625)"/>
      </defs>
      <use xlink:href="#DejaVuSans-Bold-44"/>
      <use xlink:href="#DejaVuSans-Bold-61" x="83.007812"/>
      <use xlink:href="#DejaVuSans-Bold-6d" x="150.488281"/>
      <use xlink:href="#DejaVuSans-Bold-4e" x="254.6875"/>
      <use xlink:href="#DejaVuSans-Bold-72" x="338.378906"/>
      <use xlink:href="#DejaVuSans-Bold-6d" x="387.695312"/>
      <use xlink:href="#DejaVuSans-Bold-53" x="491.894531"/>
      <use xlink:href="#DejaVuSans-Bold-74" x="563.916016"/>
      <use xlink:href="#DejaVuSans-Bold-6f" x="611.71875"/>
      <use xlink:href="#DejaVuSans-Bold-72" x="680.419922"/>
      <use xlink:href="#DejaVuSans-Bold-4d" x="729.736328"/>
      <use xlink:href="#DejaVuSans-Bold-33" x="829.248047"/>
      <use xlink:href="#DejaVuSans-Bold-57" x="898.828125"/>
      <use xlink:href="#DejaVuSans-Bold-73" x="1009.130859"/>
      <use xlink:href="#DejaVuSans-Bold-20" x="1068.652344"/>
      <use xlink:href="#DejaVuSans-Bold-28" x="1103.466797"/>
      <use xlink:href="#DejaVuSans-Bold-69" x="1149.169922"/>
      <use xlink:href="#DejaVuSans-Bold-6e" x="1183.447266"/>
      <use xlink:href="#DejaVuSans-Bold-20" x="1254.638672"/>
      <use xlink:href="#DejaVuSans-Bold-6c" x="1289.453125"/>
      <use xlink:href="#DejaVuSans-Bold-6f" x="1323.730469"/>
      <use xlink:href="#DejaVuSans-Bold-67" x="1392.431641"/>
      <use xlink:href="#DejaVuSans-Bold-31" x="1464.013672"/>
      <use xlink:href="#DejaVuSans-Bold-30" x="1533.59375"/>
      <use xlink:href="#DejaVuSans-Bold-29" x="1603.173828"/>
     </g>
    </g>
   </g>
   <g id="matplotlib.axis_2">
    <g id="ytick_1">
     <g id="line2d_6">
      <defs>
       <path id="mb2f6cc654a" d="M 0 0 
L -3.5 0 
" style="stroke: #000000; stroke-width: 0.8"/>
      </defs>
      <g>
       <use xlink:href="#mb2f6cc654a" x="41.15" y="277.607036" style="stroke: #000000; stroke-width: 0.8"/>
      </g>
     </g>
     <g id="text_7">
      <!-- 1 -->
      <g transform="translate(27.7875 281.406255)scale(0.1 -0.1)">
       <use xlink:href="#DejaVuSans-31"/>
      </g>
     </g>
    </g>
    <g id="ytick_2">
     <g id="line2d_7">
      <g>
       <use xlink:href="#mb2f6cc654a" x="41.15" y="242.724278" style="stroke: #000000; stroke-width: 0.8"/>
      </g>
     </g>
     <g id="text_8">
      <!-- 2 -->
      <g transform="translate(27.7875 246.523497)scale(0.1 -0.1)">
       <use xlink:href="#DejaVuSans-32"/>
      </g>
     </g>
    </g>
    <g id="ytick_3">
     <g id="line2d_8">
      <g>
       <use xlink:href="#mb2f6cc654a" x="41.15" y="207.84152" style="stroke: #000000; stroke-width: 0.8"/>
      </g>
     </g>
     <g id="text_9">
      <!-- 3 -->
      <g transform="translate(27.7875 211.640739)scale(0.1 -0.1)">
       <use xlink:href="#DejaVuSans-33"/>
      </g>
     </g>
    </g>
    <g id="ytick_4">
     <g id="line2d_9">
      <g>
       <use xlink:href="#mb2f6cc654a" x="41.15" y="172.958762" style="stroke: #000000; stroke-width: 0.8"/>
      </g>
     </g>
     <g id="text_10">
      <!-- 4 -->
      <g transform="translate(27.7875 176.757981)scale(0.1 -0.1)">
       <use xlink:href="#DejaVuSans-34"/>
      </g>
     </g>
    </g>
    <g id="ytick_5">
     <g id="line2d_10">
      <g>
       <use xlink:href="#mb2f6cc654a" x="41.15" y="138.076004" style="stroke: #000000; stroke-width: 0.8"/>
      </g>
     </g>
     <g id="text_11">
      <!-- 5 -->
      <g transform="translate(27.7875 141.875223)scale(0.1 -0.1)">
       <use xlink:href="#DejaVuSans-35"/>
      </g>
     </g>
    </g>
    <g id="ytick_6">
     <g id="line2d_11">
      <g>
       <use xlink:href="#mb2f6cc654a" x="41.15" y="103.193246" style="stroke: #000000; stroke-width: 0.8"/>
      </g>
     </g>
     <g id="text_12">
      <!-- 6 -->
      <g transform="translate(27.7875 106.992465)scale(0.1 -0.1)">
       <defs>
        <path id="DejaVuSans-36" d="M 2113 2584 
Q 1688 2584 1439 2293 
Q 1191 2003 1191 1497 
Q 1191 994 1439 701 
Q 1688 409 2113 409 
Q 2538 409 2786 701 
Q 3034 994 3034 1497 
Q 3034 2003 2786 2293 
Q 2538 2584 2113 2584 
z
M 3366 4563 
L 3366 3988 
Q 3128 4100 2886 4159 
Q 2644 4219 2406 4219 
Q 1781 4219 1451 3797 
Q 1122 3375 1075 2522 
Q 1259 2794 1537 2939 
Q 1816 3084 2150 3084 
Q 2853 3084 3261 2657 
Q 3669 2231 3669 1497 
Q 3669 778 3244 343 
Q 2819 -91 2113 -91 
Q 1303 -91 875 529 
Q 447 1150 447 2328 
Q 447 3434 972 4092 
Q 1497 4750 2381 4750 
Q 2619 4750 2861 4703 
Q 3103 4656 3366 4563 
z
" transform="scale(0.015625)"/>
       </defs>
       <use xlink:href="#DejaVuSans-36"/>
      </g>
     </g>
    </g>
    <g id="ytick_7">
     <g id="line2d_12">
      <g>
       <use xlink:href="#mb2f6cc654a" x="41.15" y="68.310488" style="stroke: #000000; stroke-width: 0.8"/>
      </g>
     </g>
     <g id="text_13">
      <!-- 7 -->
      <g transform="translate(27.7875 72.109707)scale(0.1 -0.1)">
       <defs>
        <path id="DejaVuSans-37" d="M 525 4666 
L 3525 4666 
L 3525 4397 
L 1831 0 
L 1172 0 
L 2766 4134 
L 525 4134 
L 525 4666 
z
" transform="scale(0.015625)"/>
       </defs>
       <use xlink:href="#DejaVuSans-37"/>
      </g>
     </g>
    </g>
    <g id="ytick_8">
     <g id="line2d_13">
      <g>
       <use xlink:href="#mb2f6cc654a" x="41.15" y="33.42773" style="stroke: #000000; stroke-width: 0.8"/>
      </g>
     </g>
     <g id="text_14">
      <!-- 8 -->
      <g transform="translate(27.7875 37.226949)scale(0.1 -0.1)">
       <defs>
        <path id="DejaVuSans-38" d="M 2034 2216 
Q 1584 2216 1326 1975 
Q 1069 1734 1069 1313 
Q 1069 891 1326 650 
Q 1584 409 2034 409 
Q 2484 409 2743 651 
Q 3003 894 3003 1313 
Q 3003 1734 2745 1975 
Q 2488 2216 2034 2216 
z
M 1403 2484 
Q 997 2584 770 2862 
Q 544 3141 544 3541 
Q 544 4100 942 4425 
Q 1341 4750 2034 4750 
Q 2731 4750 3128 4425 
Q 3525 4100 3525 3541 
Q 3525 3141 3298 2862 
Q 3072 2584 2669 2484 
Q 3125 2378 3379 2068 
Q 3634 1759 3634 1313 
Q 3634 634 3220 271 
Q 2806 -91 2034 -91 
Q 1263 -91 848 271 
Q 434 634 434 1313 
Q 434 1759 690 2068 
Q 947 2378 1403 2484 
z
M 1172 3481 
Q 1172 3119 1398 2916 
Q 1625 2713 2034 2713 
Q 2441 2713 2670 2916 
Q 2900 3119 2900 3481 
Q 2900 3844 2670 4047 
Q 2441 4250 2034 4250 
Q 1625 4250 1398 4047 
Q 1172 3844 1172 3481 
z
" transform="scale(0.015625)"/>
       </defs>
       <use xlink:href="#DejaVuSans-38"/>
      </g>
     </g>
    </g>
    <g id="text_15">
     <!-- Species richness (in log10) -->
     <g transform="translate(21.198125 254.988125)rotate(-90)scale(0.12 -0.12)">
      <defs>
       <path id="DejaVuSans-Bold-70" d="M 1656 506 
L 1656 -1331 
L 538 -1331 
L 538 3500 
L 1656 3500 
L 1656 2988 
Q 1888 3294 2169 3439 
Q 2450 3584 2816 3584 
Q 3463 3584 3878 3070 
Q 4294 2556 4294 1747 
Q 4294 938 3878 423 
Q 3463 -91 2816 -91 
Q 2450 -91 2169 54 
Q 1888 200 1656 506 
z
M 2400 2772 
Q 2041 2772 1848 2508 
Q 1656 2244 1656 1747 
Q 1656 1250 1848 986 
Q 2041 722 2400 722 
Q 2759 722 2948 984 
Q 3138 1247 3138 1747 
Q 3138 2247 2948 2509 
Q 2759 2772 2400 2772 
z
" transform="scale(0.015625)"/>
       <path id="DejaVuSans-Bold-65" d="M 4031 1759 
L 4031 1441 
L 1416 1441 
Q 1456 1047 1700 850 
Q 1944 653 2381 653 
Q 2734 653 3104 758 
Q 3475 863 3866 1075 
L 3866 213 
Q 3469 63 3072 -14 
Q 2675 -91 2278 -91 
Q 1328 -91 801 392 
Q 275 875 275 1747 
Q 275 2603 792 3093 
Q 1309 3584 2216 3584 
Q 3041 3584 3536 3087 
Q 4031 2591 4031 1759 
z
M 2881 2131 
Q 2881 2450 2695 2645 
Q 2509 2841 2209 2841 
Q 1884 2841 1681 2658 
Q 1478 2475 1428 2131 
L 2881 2131 
z
" transform="scale(0.015625)"/>
       <path id="DejaVuSans-Bold-63" d="M 3366 3391 
L 3366 2478 
Q 3138 2634 2908 2709 
Q 2678 2784 2431 2784 
Q 1963 2784 1702 2511 
Q 1441 2238 1441 1747 
Q 1441 1256 1702 982 
Q 1963 709 2431 709 
Q 2694 709 2930 787 
Q 3166 866 3366 1019 
L 3366 103 
Q 3103 6 2833 -42 
Q 2563 -91 2291 -91 
Q 1344 -91 809 395 
Q 275 881 275 1747 
Q 275 2613 809 3098 
Q 1344 3584 2291 3584 
Q 2566 3584 2833 3536 
Q 3100 3488 3366 3391 
z
" transform="scale(0.015625)"/>
       <path id="DejaVuSans-Bold-68" d="M 4056 2131 
L 4056 0 
L 2931 0 
L 2931 347 
L 2931 1625 
Q 2931 2084 2911 2256 
Q 2891 2428 2841 2509 
Q 2775 2619 2662 2680 
Q 2550 2741 2406 2741 
Q 2056 2741 1856 2470 
Q 1656 2200 1656 1722 
L 1656 0 
L 538 0 
L 538 4863 
L 1656 4863 
L 1656 2988 
Q 1909 3294 2193 3439 
Q 2478 3584 2822 3584 
Q 3428 3584 3742 3212 
Q 4056 2841 4056 2131 
z
" transform="scale(0.015625)"/>
      </defs>
      <use xlink:href="#DejaVuSans-Bold-53"/>
      <use xlink:href="#DejaVuSans-Bold-70" x="72.021484"/>
      <use xlink:href="#DejaVuSans-Bold-65" x="143.603516"/>
      <use xlink:href="#DejaVuSans-Bold-63" x="211.425781"/>
      <use xlink:href="#DejaVuSans-Bold-69" x="270.703125"/>
      <use xlink:href="#DejaVuSans-Bold-65" x="304.980469"/>
      <use xlink:href="#DejaVuSans-Bold-73" x="372.802734"/>
      <use xlink:href="#DejaVuSans-Bold-20" x="432.324219"/>
      <use xlink:href="#DejaVuSans-Bold-72" x="467.138672"/>
      <use xlink:href="#DejaVuSans-Bold-69" x="516.455078"/>
      <use xlink:href="#DejaVuSans-Bold-63" x="550.732422"/>
      <use xlink:href="#DejaVuSans-Bold-68" x="610.009766"/>
      <use xlink:href="#DejaVuSans-Bold-6e" x="681.201172"/>
      <use xlink:href="#DejaVuSans-Bold-65" x="752.392578"/>
      <use xlink:href="#DejaVuSans-Bold-73" x="820.214844"/>
      <use xlink:href="#DejaVuSans-Bold-73" x="879.736328"/>
      <use xlink:href="#DejaVuSans-Bold-20" x="939.257812"/>
      <use xlink:href="#DejaVuSans-Bold-28" x="974.072266"/>
      <use xlink:href="#DejaVuSans-Bold-69" x="1019.775391"/>
      <use xlink:href="#DejaVuSans-Bold-6e" x="1054.052734"/>
      <use xlink:href="#DejaVuSans-Bold-20" x="1125.244141"/>
      <use xlink:href="#DejaVuSans-Bold-6c" x="1160.058594"/>
      <use xlink:href="#DejaVuSans-Bold-6f" x="1194.335938"/>
      <use xlink:href="#DejaVuSans-Bold-67" x="1263.037109"/>
      <use xlink:href="#DejaVuSans-Bold-31" x="1334.619141"/>
      <use xlink:href="#DejaVuSans-Bold-30" x="1404.199219"/>
      <use xlink:href="#DejaVuSans-Bold-29" x="1473.779297"/>
     </g>
    </g>
   </g>
   <g id="line2d_14">
    <path d="M 249.719757 165.893978 
L 185.413108 162.854902 
L 233.110228 165.109026 
L 261.359829 166.444078 
L 279.750109 167.313186 
L 242.082165 165.533032 
L 288.697236 167.73602 
L 271.395148 166.918338 
L 52.937964 156.594242 
L 256.15872 166.198278 
L 253.788537 166.086265 
L 222.744444 164.619148 
L 278.221242 167.240933 
L 237.239733 165.304183 
L 215.925664 164.296899 
L 189.193432 163.033557 
L 117.739466 159.656704 
L 157.913061 161.555274 
L 224.2498 164.69029 
" clip-path="url(#paf23739f0f)" style="fill: none; stroke: #0000ff; stroke-width: 1.5; stroke-linecap: square"/>
   </g>
   <g id="line2d_15">
    <path d="M 249.719757 215.554513 
L 185.413108 208.158216 
L 233.110228 213.644151 
L 261.359829 216.893309 
L 279.750109 219.008486 
L 242.082165 214.676068 
L 288.697236 220.037549 
L 271.395148 218.047531 
L 52.937964 192.921447 
L 256.15872 216.295098 
L 253.788537 216.022488 
L 222.744444 212.451919 
L 278.221242 218.832642 
L 237.239733 214.11911 
L 215.925664 211.66765 
L 189.193432 208.593014 
L 117.739466 200.37466 
L 157.913061 204.995269 
L 224.2498 212.625059 
" clip-path="url(#paf23739f0f)" style="fill: none; stroke: #000000; stroke-width: 1.5; stroke-linecap: square"/>
   </g>
   <g id="line2d_16">
    <path d="M 249.719757 125.32119 
L 185.413108 127.583505 
L 233.110228 125.905515 
L 261.359829 124.911692 
L 279.750109 124.26472 
L 242.082165 125.589882 
L 288.697236 123.949959 
L 271.395148 124.558648 
L 52.937964 132.243993 
L 256.15872 125.094667 
L 253.788537 125.17805 
L 222.744444 126.270185 
L 278.221242 124.318506 
L 237.239733 125.760239 
L 215.925664 126.51007 
L 189.193432 127.450512 
L 117.739466 129.96427 
L 157.913061 128.550959 
L 224.2498 126.217226 
" clip-path="url(#paf23739f0f)" style="fill: none; stroke: #ff0000; stroke-width: 1.5; stroke-linecap: square"/>
   </g>
   <g id="line2d_17">
    <path d="M 249.719757 65.560547 
L 185.413108 63.992874 
L 233.110228 65.155638 
L 261.359829 65.844309 
L 279.750109 66.292629 
L 242.082165 65.374357 
L 288.697236 66.510743 
L 271.395148 66.088951 
L 52.937964 60.763384 
L 256.15872 65.717516 
L 253.788537 65.659736 
L 222.744444 64.90294 
L 278.221242 66.255358 
L 237.239733 65.256308 
L 215.925664 64.736712 
L 189.193432 64.085031 
L 117.739466 62.343121 
L 157.913061 63.322476 
L 224.2498 64.939638 
" clip-path="url(#paf23739f0f)" style="fill: none; stroke: #00bfbf; stroke-width: 1.5; stroke-linecap: square"/>
   </g>
   <g id="line2d_18">
    <path d="M 249.719757 188.539329 
L 185.413108 181.912083 
L 233.110228 186.827602 
L 261.359829 189.73892 
L 279.750109 191.634165 
L 242.082165 187.752222 
L 288.697236 192.556229 
L 271.395148 190.773129 
L 52.937964 168.2596 
L 256.15872 189.202909 
L 253.788537 188.958645 
L 222.744444 185.759336 
L 278.221242 191.476605 
L 237.239733 187.253176 
L 215.925664 185.056613 
L 189.193432 182.301671 
L 117.739466 174.937844 
L 157.913061 179.078012 
L 224.2498 185.914474 
" clip-path="url(#paf23739f0f)" style="fill: none; stroke: #bf00bf; stroke-width: 1.5; stroke-linecap: square"/>
   </g>
   <g id="line2d_19">
    <path d="M 249.719757 256.074942 
L 185.413108 249.519231 
L 233.110228 254.381692 
L 261.359829 257.261584 
L 279.750109 259.136372 
L 242.082165 255.296332 
L 288.697236 260.048483 
L 271.395148 258.28463 
L 52.937964 236.014115 
L 256.15872 256.731359 
L 253.788537 256.489732 
L 222.744444 253.324957 
L 278.221242 258.980513 
L 237.239733 254.802672 
L 215.925664 252.629819 
L 189.193432 249.904615 
L 117.739466 242.620274 
L 157.913061 246.715752 
L 224.2498 253.47842 
" clip-path="url(#paf23739f0f)" style="fill: none; stroke: #008000; stroke-width: 1.5; stroke-linecap: square"/>
   </g>
   <g id="line2d_20">
    <path d="M 249.719757 124.512422 
L 185.413108 120.478186 
L 233.110228 123.470434 
L 261.359829 125.242654 
L 279.750109 126.396356 
L 242.082165 124.033282 
L 288.697236 126.957648 
L 271.395148 125.872213 
L 52.937964 112.167445 
L 256.15872 124.916366 
L 253.788537 124.767674 
L 222.744444 122.820143 
L 278.221242 126.300444 
L 237.239733 123.729496 
L 215.925664 122.392372 
L 189.193432 120.715343 
L 117.739466 116.232725 
L 157.913061 118.752989 
L 224.2498 122.914581 
" clip-path="url(#paf23739f0f)" style="fill: none; stroke: #bfbf00; stroke-width: 1.5; stroke-linecap: square"/>
   </g>
   <g id="line2d_21">
    <path d="M 249.719757 112.830053 
L 185.413108 114.479526 
L 233.110228 113.25609 
L 261.359829 112.531484 
L 279.750109 112.059772 
L 242.082165 113.025959 
L 288.697236 111.830277 
L 271.395148 112.274077 
L 52.937964 117.877529 
L 256.15872 112.664893 
L 253.788537 112.725689 
L 222.744444 113.521973 
L 278.221242 112.098987 
L 237.239733 113.150168 
L 215.925664 113.696876 
L 189.193432 114.382561 
L 117.739466 116.215363 
L 157.913061 115.184906 
L 224.2498 113.483361 
" clip-path="url(#paf23739f0f)" style="fill: none; stroke: #9467bd; stroke-width: 1.5; stroke-linecap: square"/>
   </g>
   <g id="line2d_22">
    <path d="M 249.719757 237.251724 
L 185.413108 242.076581 
L 233.110228 238.497919 
L 261.359829 236.378382 
L 279.750109 234.998579 
L 242.082165 237.824764 
L 288.697236 234.327286 
L 271.395148 235.625443 
L 52.937964 252.016047 
L 256.15872 236.768615 
L 253.788537 236.946448 
L 222.744444 239.275652 
L 278.221242 235.113288 
L 237.239733 238.188086 
L 215.925664 239.787258 
L 189.193432 241.792948 
L 117.739466 247.154061 
L 157.913061 244.13988 
L 224.2498 239.162707 
" clip-path="url(#paf23739f0f)" style="fill: none; stroke: #8c564b; stroke-width: 1.5; stroke-linecap: square"/>
   </g>
   <g id="line2d_23">
    <path d="M 249.719757 46.098085 
L 185.413108 44.852374 
L 233.110228 45.776335 
L 261.359829 46.32357 
L 279.750109 46.679816 
L 242.082165 45.950134 
L 288.697236 46.853134 
L 271.395148 46.517968 
L 52.937964 42.286143 
L 256.15872 46.222817 
L 253.788537 46.176903 
L 222.744444 45.575535 
L 278.221242 46.650199 
L 237.239733 45.856329 
L 215.925664 45.443446 
L 189.193432 44.925604 
L 117.739466 43.54144 
L 157.913061 44.319659 
L 224.2498 45.604696 
" clip-path="url(#paf23739f0f)" style="fill: none; stroke: #ff7f0e; stroke-width: 1.5; stroke-linecap: square"/>
   </g>
   <g id="patch_3">
    <path d="M 41.15 300.76 
L 41.15 26.88 
" style="fill: none; stroke: #000000; stroke-width: 0.8; stroke-linejoin: miter; stroke-linecap: square"/>
   </g>
   <g id="patch_4">
    <path d="M 300.4852 300.76 
L 300.4852 26.88 
" style="fill: none; stroke: #000000; stroke-width: 0.8; stroke-linejoin: miter; stroke-linecap: square"/>
   </g>
   <g id="patch_5">
    <path d="M 41.15 300.76 
L 300.4852 300.76 
" style="fill: none; stroke: #000000; stroke-width: 0.8; stroke-linejoin: miter; stroke-linecap: square"/>
   </g>
   <g id="patch_6">
    <path d="M 41.15 26.88 
L 300.4852 26.88 
" style="fill: none; stroke: #000000; stroke-width: 0.8; stroke-linejoin: miter; stroke-linecap: square"/>
   </g>
   <g id="text_16">
    <!-- log(SR) vs. log(DamNrmStorM3Ws) -->
    <g transform="translate(65.59635 20.88)scale(0.12 -0.12)">
     <defs>
      <path id="DejaVuSans-6c" d="M 603 4863 
L 1178 4863 
L 1178 0 
L 603 0 
L 603 4863 
z
" transform="scale(0.015625)"/>
      <path id="DejaVuSans-6f" d="M 1959 3097 
Q 1497 3097 1228 2736 
Q 959 2375 959 1747 
Q 959 1119 1226 758 
Q 1494 397 1959 397 
Q 2419 397 2687 759 
Q 2956 1122 2956 1747 
Q 2956 2369 2687 2733 
Q 2419 3097 1959 3097 
z
M 1959 3584 
Q 2709 3584 3137 3096 
Q 3566 2609 3566 1747 
Q 3566 888 3137 398 
Q 2709 -91 1959 -91 
Q 1206 -91 779 398 
Q 353 888 353 1747 
Q 353 2609 779 3096 
Q 1206 3584 1959 3584 
z
" transform="scale(0.015625)"/>
      <path id="DejaVuSans-67" d="M 2906 1791 
Q 2906 2416 2648 2759 
Q 2391 3103 1925 3103 
Q 1463 3103 1205 2759 
Q 947 2416 947 1791 
Q 947 1169 1205 825 
Q 1463 481 1925 481 
Q 2391 481 2648 825 
Q 2906 1169 2906 1791 
z
M 3481 434 
Q 3481 -459 3084 -895 
Q 2688 -1331 1869 -1331 
Q 1566 -1331 1297 -1286 
Q 1028 -1241 775 -1147 
L 775 -588 
Q 1028 -725 1275 -790 
Q 1522 -856 1778 -856 
Q 2344 -856 2625 -561 
Q 2906 -266 2906 331 
L 2906 616 
Q 2728 306 2450 153 
Q 2172 0 1784 0 
Q 1141 0 747 490 
Q 353 981 353 1791 
Q 353 2603 747 3093 
Q 1141 3584 1784 3584 
Q 2172 3584 2450 3431 
Q 2728 3278 2906 2969 
L 2906 3500 
L 3481 3500 
L 3481 434 
z
" transform="scale(0.015625)"/>
      <path id="DejaVuSans-28" d="M 1984 4856 
Q 1566 4138 1362 3434 
Q 1159 2731 1159 2009 
Q 1159 1288 1364 580 
Q 1569 -128 1984 -844 
L 1484 -844 
Q 1016 -109 783 600 
Q 550 1309 550 2009 
Q 550 2706 781 3412 
Q 1013 4119 1484 4856 
L 1984 4856 
z
" transform="scale(0.015625)"/>
      <path id="DejaVuSans-53" d="M 3425 4513 
L 3425 3897 
Q 3066 4069 2747 4153 
Q 2428 4238 2131 4238 
Q 1616 4238 1336 4038 
Q 1056 3838 1056 3469 
Q 1056 3159 1242 3001 
Q 1428 2844 1947 2747 
L 2328 2669 
Q 3034 2534 3370 2195 
Q 3706 1856 3706 1288 
Q 3706 609 3251 259 
Q 2797 -91 1919 -91 
Q 1588 -91 1214 -16 
Q 841 59 441 206 
L 441 856 
Q 825 641 1194 531 
Q 1563 422 1919 422 
Q 2459 422 2753 634 
Q 3047 847 3047 1241 
Q 3047 1584 2836 1778 
Q 2625 1972 2144 2069 
L 1759 2144 
Q 1053 2284 737 2584 
Q 422 2884 422 3419 
Q 422 4038 858 4394 
Q 1294 4750 2059 4750 
Q 2388 4750 2728 4690 
Q 3069 4631 3425 4513 
z
" transform="scale(0.015625)"/>
      <path id="DejaVuSans-52" d="M 2841 2188 
Q 3044 2119 3236 1894 
Q 3428 1669 3622 1275 
L 4263 0 
L 3584 0 
L 2988 1197 
Q 2756 1666 2539 1819 
Q 2322 1972 1947 1972 
L 1259 1972 
L 1259 0 
L 628 0 
L 628 4666 
L 2053 4666 
Q 2853 4666 3247 4331 
Q 3641 3997 3641 3322 
Q 3641 2881 3436 2590 
Q 3231 2300 2841 2188 
z
M 1259 4147 
L 1259 2491 
L 2053 2491 
Q 2509 2491 2742 2702 
Q 2975 2913 2975 3322 
Q 2975 3731 2742 3939 
Q 2509 4147 2053 4147 
L 1259 4147 
z
" transform="scale(0.015625)"/>
      <path id="DejaVuSans-29" d="M 513 4856 
L 1013 4856 
Q 1481 4119 1714 3412 
Q 1947 2706 1947 2009 
Q 1947 1309 1714 600 
Q 1481 -109 1013 -844 
L 513 -844 
Q 928 -128 1133 580 
Q 1338 1288 1338 2009 
Q 1338 2731 1133 3434 
Q 928 4138 513 4856 
z
" transform="scale(0.015625)"/>
      <path id="DejaVuSans-20" transform="scale(0.015625)"/>
      <path id="DejaVuSans-76" d="M 191 3500 
L 800 3500 
L 1894 563 
L 2988 3500 
L 3597 3500 
L 2284 0 
L 1503 0 
L 191 3500 
z
" transform="scale(0.015625)"/>
      <path id="DejaVuSans-73" d="M 2834 3397 
L 2834 2853 
Q 2591 2978 2328 3040 
Q 2066 3103 1784 3103 
Q 1356 3103 1142 2972 
Q 928 2841 928 2578 
Q 928 2378 1081 2264 
Q 1234 2150 1697 2047 
L 1894 2003 
Q 2506 1872 2764 1633 
Q 3022 1394 3022 966 
Q 3022 478 2636 193 
Q 2250 -91 1575 -91 
Q 1294 -91 989 -36 
Q 684 19 347 128 
L 347 722 
Q 666 556 975 473 
Q 1284 391 1588 391 
Q 1994 391 2212 530 
Q 2431 669 2431 922 
Q 2431 1156 2273 1281 
Q 2116 1406 1581 1522 
L 1381 1569 
Q 847 1681 609 1914 
Q 372 2147 372 2553 
Q 372 3047 722 3315 
Q 1072 3584 1716 3584 
Q 2034 3584 2315 3537 
Q 2597 3491 2834 3397 
z
" transform="scale(0.015625)"/>
      <path id="DejaVuSans-2e" d="M 684 794 
L 1344 794 
L 1344 0 
L 684 0 
L 684 794 
z
" transform="scale(0.015625)"/>
      <path id="DejaVuSans-44" d="M 1259 4147 
L 1259 519 
L 2022 519 
Q 2988 519 3436 956 
Q 3884 1394 3884 2338 
Q 3884 3275 3436 3711 
Q 2988 4147 2022 4147 
L 1259 4147 
z
M 628 4666 
L 1925 4666 
Q 3281 4666 3915 4102 
Q 4550 3538 4550 2338 
Q 4550 1131 3912 565 
Q 3275 0 1925 0 
L 628 0 
L 628 4666 
z
" transform="scale(0.015625)"/>
      <path id="DejaVuSans-61" d="M 2194 1759 
Q 1497 1759 1228 1600 
Q 959 1441 959 1056 
Q 959 750 1161 570 
Q 1363 391 1709 391 
Q 2188 391 2477 730 
Q 2766 1069 2766 1631 
L 2766 1759 
L 2194 1759 
z
M 3341 1997 
L 3341 0 
L 2766 0 
L 2766 531 
Q 2569 213 2275 61 
Q 1981 -91 1556 -91 
Q 1019 -91 701 211 
Q 384 513 384 1019 
Q 384 1609 779 1909 
Q 1175 2209 1959 2209 
L 2766 2209 
L 2766 2266 
Q 2766 2663 2505 2880 
Q 2244 3097 1772 3097 
Q 1472 3097 1187 3025 
Q 903 2953 641 2809 
L 641 3341 
Q 956 3463 1253 3523 
Q 1550 3584 1831 3584 
Q 2591 3584 2966 3190 
Q 3341 2797 3341 1997 
z
" transform="scale(0.015625)"/>
      <path id="DejaVuSans-6d" d="M 3328 2828 
Q 3544 3216 3844 3400 
Q 4144 3584 4550 3584 
Q 5097 3584 5394 3201 
Q 5691 2819 5691 2113 
L 5691 0 
L 5113 0 
L 5113 2094 
Q 5113 2597 4934 2840 
Q 4756 3084 4391 3084 
Q 3944 3084 3684 2787 
Q 3425 2491 3425 1978 
L 3425 0 
L 2847 0 
L 2847 2094 
Q 2847 2600 2669 2842 
Q 2491 3084 2119 3084 
Q 1678 3084 1418 2786 
Q 1159 2488 1159 1978 
L 1159 0 
L 581 0 
L 581 3500 
L 1159 3500 
L 1159 2956 
Q 1356 3278 1631 3431 
Q 1906 3584 2284 3584 
Q 2666 3584 2933 3390 
Q 3200 3197 3328 2828 
z
" transform="scale(0.015625)"/>
      <path id="DejaVuSans-4e" d="M 628 4666 
L 1478 4666 
L 3547 763 
L 3547 4666 
L 4159 4666 
L 4159 0 
L 3309 0 
L 1241 3903 
L 1241 0 
L 628 0 
L 628 4666 
z
" transform="scale(0.015625)"/>
      <path id="DejaVuSans-72" d="M 2631 2963 
Q 2534 3019 2420 3045 
Q 2306 3072 2169 3072 
Q 1681 3072 1420 2755 
Q 1159 2438 1159 1844 
L 1159 0 
L 581 0 
L 581 3500 
L 1159 3500 
L 1159 2956 
Q 1341 3275 1631 3429 
Q 1922 3584 2338 3584 
Q 2397 3584 2469 3576 
Q 2541 3569 2628 3553 
L 2631 2963 
z
" transform="scale(0.015625)"/>
      <path id="DejaVuSans-74" d="M 1172 4494 
L 1172 3500 
L 2356 3500 
L 2356 3053 
L 1172 3053 
L 1172 1153 
Q 1172 725 1289 603 
Q 1406 481 1766 481 
L 2356 481 
L 2356 0 
L 1766 0 
Q 1100 0 847 248 
Q 594 497 594 1153 
L 594 3053 
L 172 3053 
L 172 3500 
L 594 3500 
L 594 4494 
L 1172 4494 
z
" transform="scale(0.015625)"/>
      <path id="DejaVuSans-4d" d="M 628 4666 
L 1569 4666 
L 2759 1491 
L 3956 4666 
L 4897 4666 
L 4897 0 
L 4281 0 
L 4281 4097 
L 3078 897 
L 2444 897 
L 1241 4097 
L 1241 0 
L 628 0 
L 628 4666 
z
" transform="scale(0.015625)"/>
      <path id="DejaVuSans-57" d="M 213 4666 
L 850 4666 
L 1831 722 
L 2809 4666 
L 3519 4666 
L 4500 722 
L 5478 4666 
L 6119 4666 
L 4947 0 
L 4153 0 
L 3169 4050 
L 2175 0 
L 1381 0 
L 213 4666 
z
" transform="scale(0.015625)"/>
     </defs>
     <use xlink:href="#DejaVuSans-6c"/>
     <use xlink:href="#DejaVuSans-6f" x="27.783203"/>
     <use xlink:href="#DejaVuSans-67" x="88.964844"/>
     <use xlink:href="#DejaVuSans-28" x="152.441406"/>
     <use xlink:href="#DejaVuSans-53" x="191.455078"/>
     <use xlink:href="#DejaVuSans-52" x="254.931641"/>
     <use xlink:href="#DejaVuSans-29" x="324.414062"/>
     <use xlink:href="#DejaVuSans-20" x="363.427734"/>
     <use xlink:href="#DejaVuSans-76" x="395.214844"/>
     <use xlink:href="#DejaVuSans-73" x="454.394531"/>
     <use xlink:href="#DejaVuSans-2e" x="506.494141"/>
     <use xlink:href="#DejaVuSans-20" x="538.28125"/>
     <use xlink:href="#DejaVuSans-6c" x="570.068359"/>
     <use xlink:href="#DejaVuSans-6f" x="597.851562"/>
     <use xlink:href="#DejaVuSans-67" x="659.033203"/>
     <use xlink:href="#DejaVuSans-28" x="722.509766"/>
     <use xlink:href="#DejaVuSans-44" x="761.523438"/>
     <use xlink:href="#DejaVuSans-61" x="838.525391"/>
     <use xlink:href="#DejaVuSans-6d" x="899.804688"/>
     <use xlink:href="#DejaVuSans-4e" x="997.216797"/>
     <use xlink:href="#DejaVuSans-72" x="1072.021484"/>
     <use xlink:href="#DejaVuSans-6d" x="1111.384766"/>
     <use xlink:href="#DejaVuSans-53" x="1208.796875"/>
     <use xlink:href="#DejaVuSans-74" x="1272.273438"/>
     <use xlink:href="#DejaVuSans-6f" x="1311.482422"/>
     <use xlink:href="#DejaVuSans-72" x="1372.664062"/>
     <use xlink:href="#DejaVuSans-4d" x="1413.777344"/>
     <use xlink:href="#DejaVuSans-33" x="1500.056641"/>
     <use xlink:href="#DejaVuSans-57" x="1563.679688"/>
     <use xlink:href="#DejaVuSans-73" x="1662.556641"/>
     <use xlink:href="#DejaVuSans-29" x="1714.65625"/>
    </g>
   </g>
   <g id="legend_1">
    <g id="patch_7">
     <path d="M 317.858608 181.66125 
L 444.224233 181.66125 
Q 446.224233 181.66125 446.224233 179.66125 
L 446.224233 33.88 
Q 446.224233 31.88 444.224233 31.88 
L 317.858608 31.88 
Q 315.858608 31.88 315.858608 33.88 
L 315.858608 179.66125 
Q 315.858608 181.66125 317.858608 181.66125 
z
" style="fill: #ffffff; opacity: 0.8; stroke: #cccccc; stroke-linejoin: miter"/>
    </g>
    <g id="line2d_24">
     <path d="M 319.858608 39.978437 
L 329.858608 39.978437 
L 339.858608 39.978437 
" style="fill: none; stroke: #0000ff; stroke-width: 1.5; stroke-linecap: square"/>
    </g>
    <g id="text_17">
     <!-- AminoSugar -->
     <g transform="translate(347.858608 43.478437)scale(0.1 -0.1)">
      <defs>
       <path id="DejaVuSans-41" d="M 2188 4044 
L 1331 1722 
L 3047 1722 
L 2188 4044 
z
M 1831 4666 
L 2547 4666 
L 4325 0 
L 3669 0 
L 3244 1197 
L 1141 1197 
L 716 0 
L 50 0 
L 1831 4666 
z
" transform="scale(0.015625)"/>
       <path id="DejaVuSans-69" d="M 603 3500 
L 1178 3500 
L 1178 0 
L 603 0 
L 603 3500 
z
M 603 4863 
L 1178 4863 
L 1178 4134 
L 603 4134 
L 603 4863 
z
" transform="scale(0.015625)"/>
       <path id="DejaVuSans-6e" d="M 3513 2113 
L 3513 0 
L 2938 0 
L 2938 2094 
Q 2938 2591 2744 2837 
Q 2550 3084 2163 3084 
Q 1697 3084 1428 2787 
Q 1159 2491 1159 1978 
L 1159 0 
L 581 0 
L 581 3500 
L 1159 3500 
L 1159 2956 
Q 1366 3272 1645 3428 
Q 1925 3584 2291 3584 
Q 2894 3584 3203 3211 
Q 3513 2838 3513 2113 
z
" transform="scale(0.015625)"/>
       <path id="DejaVuSans-75" d="M 544 1381 
L 544 3500 
L 1119 3500 
L 1119 1403 
Q 1119 906 1312 657 
Q 1506 409 1894 409 
Q 2359 409 2629 706 
Q 2900 1003 2900 1516 
L 2900 3500 
L 3475 3500 
L 3475 0 
L 2900 0 
L 2900 538 
Q 2691 219 2414 64 
Q 2138 -91 1772 -91 
Q 1169 -91 856 284 
Q 544 659 544 1381 
z
M 1991 3584 
L 1991 3584 
z
" transform="scale(0.015625)"/>
      </defs>
      <use xlink:href="#DejaVuSans-41"/>
      <use xlink:href="#DejaVuSans-6d" x="68.408203"/>
      <use xlink:href="#DejaVuSans-69" x="165.820312"/>
      <use xlink:href="#DejaVuSans-6e" x="193.603516"/>
      <use xlink:href="#DejaVuSans-6f" x="256.982422"/>
      <use xlink:href="#DejaVuSans-53" x="318.164062"/>
      <use xlink:href="#DejaVuSans-75" x="381.640625"/>
      <use xlink:href="#DejaVuSans-67" x="445.019531"/>
      <use xlink:href="#DejaVuSans-61" x="508.496094"/>
      <use xlink:href="#DejaVuSans-72" x="569.775391"/>
     </g>
    </g>
    <g id="line2d_25">
     <path d="M 319.858608 54.656563 
L 329.858608 54.656563 
L 339.858608 54.656563 
" style="fill: none; stroke: #000000; stroke-width: 1.5; stroke-linecap: square"/>
    </g>
    <g id="text_18">
     <!-- Carb -->
     <g transform="translate(347.858608 58.156563)scale(0.1 -0.1)">
      <defs>
       <path id="DejaVuSans-43" d="M 4122 4306 
L 4122 3641 
Q 3803 3938 3442 4084 
Q 3081 4231 2675 4231 
Q 1875 4231 1450 3742 
Q 1025 3253 1025 2328 
Q 1025 1406 1450 917 
Q 1875 428 2675 428 
Q 3081 428 3442 575 
Q 3803 722 4122 1019 
L 4122 359 
Q 3791 134 3420 21 
Q 3050 -91 2638 -91 
Q 1578 -91 968 557 
Q 359 1206 359 2328 
Q 359 3453 968 4101 
Q 1578 4750 2638 4750 
Q 3056 4750 3426 4639 
Q 3797 4528 4122 4306 
z
" transform="scale(0.015625)"/>
       <path id="DejaVuSans-62" d="M 3116 1747 
Q 3116 2381 2855 2742 
Q 2594 3103 2138 3103 
Q 1681 3103 1420 2742 
Q 1159 2381 1159 1747 
Q 1159 1113 1420 752 
Q 1681 391 2138 391 
Q 2594 391 2855 752 
Q 3116 1113 3116 1747 
z
M 1159 2969 
Q 1341 3281 1617 3432 
Q 1894 3584 2278 3584 
Q 2916 3584 3314 3078 
Q 3713 2572 3713 1747 
Q 3713 922 3314 415 
Q 2916 -91 2278 -91 
Q 1894 -91 1617 61 
Q 1341 213 1159 525 
L 1159 0 
L 581 0 
L 581 4863 
L 1159 4863 
L 1159 2969 
z
" transform="scale(0.015625)"/>
      </defs>
      <use xlink:href="#DejaVuSans-43"/>
      <use xlink:href="#DejaVuSans-61" x="69.824219"/>
      <use xlink:href="#DejaVuSans-72" x="131.103516"/>
      <use xlink:href="#DejaVuSans-62" x="172.216797"/>
     </g>
    </g>
    <g id="line2d_26">
     <path d="M 319.858608 69.334688 
L 329.858608 69.334688 
L 339.858608 69.334688 
" style="fill: none; stroke: #ff0000; stroke-width: 1.5; stroke-linecap: square"/>
    </g>
    <g id="text_19">
     <!-- ConcHC -->
     <g transform="translate(347.858608 72.834688)scale(0.1 -0.1)">
      <defs>
       <path id="DejaVuSans-63" d="M 3122 3366 
L 3122 2828 
Q 2878 2963 2633 3030 
Q 2388 3097 2138 3097 
Q 1578 3097 1268 2742 
Q 959 2388 959 1747 
Q 959 1106 1268 751 
Q 1578 397 2138 397 
Q 2388 397 2633 464 
Q 2878 531 3122 666 
L 3122 134 
Q 2881 22 2623 -34 
Q 2366 -91 2075 -91 
Q 1284 -91 818 406 
Q 353 903 353 1747 
Q 353 2603 823 3093 
Q 1294 3584 2113 3584 
Q 2378 3584 2631 3529 
Q 2884 3475 3122 3366 
z
" transform="scale(0.015625)"/>
       <path id="DejaVuSans-48" d="M 628 4666 
L 1259 4666 
L 1259 2753 
L 3553 2753 
L 3553 4666 
L 4184 4666 
L 4184 0 
L 3553 0 
L 3553 2222 
L 1259 2222 
L 1259 0 
L 628 0 
L 628 4666 
z
" transform="scale(0.015625)"/>
      </defs>
      <use xlink:href="#DejaVuSans-43"/>
      <use xlink:href="#DejaVuSans-6f" x="69.824219"/>
      <use xlink:href="#DejaVuSans-6e" x="131.005859"/>
      <use xlink:href="#DejaVuSans-63" x="194.384766"/>
      <use xlink:href="#DejaVuSans-48" x="249.365234"/>
      <use xlink:href="#DejaVuSans-43" x="324.560547"/>
     </g>
    </g>
    <g id="line2d_27">
     <path d="M 319.858608 84.012812 
L 329.858608 84.012812 
L 339.858608 84.012812 
" style="fill: none; stroke: #00bfbf; stroke-width: 1.5; stroke-linecap: square"/>
    </g>
    <g id="text_20">
     <!-- Lignin -->
     <g transform="translate(347.858608 87.512812)scale(0.1 -0.1)">
      <defs>
       <path id="DejaVuSans-4c" d="M 628 4666 
L 1259 4666 
L 1259 531 
L 3531 531 
L 3531 0 
L 628 0 
L 628 4666 
z
" transform="scale(0.015625)"/>
      </defs>
      <use xlink:href="#DejaVuSans-4c"/>
      <use xlink:href="#DejaVuSans-69" x="55.712891"/>
      <use xlink:href="#DejaVuSans-67" x="83.496094"/>
      <use xlink:href="#DejaVuSans-6e" x="146.972656"/>
      <use xlink:href="#DejaVuSans-69" x="210.351562"/>
      <use xlink:href="#DejaVuSans-6e" x="238.134766"/>
     </g>
    </g>
    <g id="line2d_28">
     <path d="M 319.858608 98.690938 
L 329.858608 98.690938 
L 339.858608 98.690938 
" style="fill: none; stroke: #bf00bf; stroke-width: 1.5; stroke-linecap: square"/>
    </g>
    <g id="text_21">
     <!-- Lipid -->
     <g transform="translate(347.858608 102.190938)scale(0.1 -0.1)">
      <defs>
       <path id="DejaVuSans-70" d="M 1159 525 
L 1159 -1331 
L 581 -1331 
L 581 3500 
L 1159 3500 
L 1159 2969 
Q 1341 3281 1617 3432 
Q 1894 3584 2278 3584 
Q 2916 3584 3314 3078 
Q 3713 2572 3713 1747 
Q 3713 922 3314 415 
Q 2916 -91 2278 -91 
Q 1894 -91 1617 61 
Q 1341 213 1159 525 
z
M 3116 1747 
Q 3116 2381 2855 2742 
Q 2594 3103 2138 3103 
Q 1681 3103 1420 2742 
Q 1159 2381 1159 1747 
Q 1159 1113 1420 752 
Q 1681 391 2138 391 
Q 2594 391 2855 752 
Q 3116 1113 3116 1747 
z
" transform="scale(0.015625)"/>
       <path id="DejaVuSans-64" d="M 2906 2969 
L 2906 4863 
L 3481 4863 
L 3481 0 
L 2906 0 
L 2906 525 
Q 2725 213 2448 61 
Q 2172 -91 1784 -91 
Q 1150 -91 751 415 
Q 353 922 353 1747 
Q 353 2572 751 3078 
Q 1150 3584 1784 3584 
Q 2172 3584 2448 3432 
Q 2725 3281 2906 2969 
z
M 947 1747 
Q 947 1113 1208 752 
Q 1469 391 1925 391 
Q 2381 391 2643 752 
Q 2906 1113 2906 1747 
Q 2906 2381 2643 2742 
Q 2381 3103 1925 3103 
Q 1469 3103 1208 2742 
Q 947 2381 947 1747 
z
" transform="scale(0.015625)"/>
      </defs>
      <use xlink:href="#DejaVuSans-4c"/>
      <use xlink:href="#DejaVuSans-69" x="55.712891"/>
      <use xlink:href="#DejaVuSans-70" x="83.496094"/>
      <use xlink:href="#DejaVuSans-69" x="146.972656"/>
      <use xlink:href="#DejaVuSans-64" x="174.755859"/>
     </g>
    </g>
    <g id="line2d_29">
     <path d="M 319.858608 113.369062 
L 329.858608 113.369062 
L 339.858608 113.369062 
" style="fill: none; stroke: #008000; stroke-width: 1.5; stroke-linecap: square"/>
    </g>
    <g id="text_22">
     <!-- Other -->
     <g transform="translate(347.858608 116.869062)scale(0.1 -0.1)">
      <defs>
       <path id="DejaVuSans-4f" d="M 2522 4238 
Q 1834 4238 1429 3725 
Q 1025 3213 1025 2328 
Q 1025 1447 1429 934 
Q 1834 422 2522 422 
Q 3209 422 3611 934 
Q 4013 1447 4013 2328 
Q 4013 3213 3611 3725 
Q 3209 4238 2522 4238 
z
M 2522 4750 
Q 3503 4750 4090 4092 
Q 4678 3434 4678 2328 
Q 4678 1225 4090 567 
Q 3503 -91 2522 -91 
Q 1538 -91 948 565 
Q 359 1222 359 2328 
Q 359 3434 948 4092 
Q 1538 4750 2522 4750 
z
" transform="scale(0.015625)"/>
       <path id="DejaVuSans-68" d="M 3513 2113 
L 3513 0 
L 2938 0 
L 2938 2094 
Q 2938 2591 2744 2837 
Q 2550 3084 2163 3084 
Q 1697 3084 1428 2787 
Q 1159 2491 1159 1978 
L 1159 0 
L 581 0 
L 581 4863 
L 1159 4863 
L 1159 2956 
Q 1366 3272 1645 3428 
Q 1925 3584 2291 3584 
Q 2894 3584 3203 3211 
Q 3513 2838 3513 2113 
z
" transform="scale(0.015625)"/>
       <path id="DejaVuSans-65" d="M 3597 1894 
L 3597 1613 
L 953 1613 
Q 991 1019 1311 708 
Q 1631 397 2203 397 
Q 2534 397 2845 478 
Q 3156 559 3463 722 
L 3463 178 
Q 3153 47 2828 -22 
Q 2503 -91 2169 -91 
Q 1331 -91 842 396 
Q 353 884 353 1716 
Q 353 2575 817 3079 
Q 1281 3584 2069 3584 
Q 2775 3584 3186 3129 
Q 3597 2675 3597 1894 
z
M 3022 2063 
Q 3016 2534 2758 2815 
Q 2500 3097 2075 3097 
Q 1594 3097 1305 2825 
Q 1016 2553 972 2059 
L 3022 2063 
z
" transform="scale(0.015625)"/>
      </defs>
      <use xlink:href="#DejaVuSans-4f"/>
      <use xlink:href="#DejaVuSans-74" x="78.710938"/>
      <use xlink:href="#DejaVuSans-68" x="117.919922"/>
      <use xlink:href="#DejaVuSans-65" x="181.298828"/>
      <use xlink:href="#DejaVuSans-72" x="242.822266"/>
     </g>
    </g>
    <g id="line2d_30">
     <path d="M 319.858608 128.047188 
L 329.858608 128.047188 
L 339.858608 128.047188 
" style="fill: none; stroke: #bfbf00; stroke-width: 1.5; stroke-linecap: square"/>
    </g>
    <g id="text_23">
     <!-- Protein -->
     <g transform="translate(347.858608 131.547188)scale(0.1 -0.1)">
      <defs>
       <path id="DejaVuSans-50" d="M 1259 4147 
L 1259 2394 
L 2053 2394 
Q 2494 2394 2734 2622 
Q 2975 2850 2975 3272 
Q 2975 3691 2734 3919 
Q 2494 4147 2053 4147 
L 1259 4147 
z
M 628 4666 
L 2053 4666 
Q 2838 4666 3239 4311 
Q 3641 3956 3641 3272 
Q 3641 2581 3239 2228 
Q 2838 1875 2053 1875 
L 1259 1875 
L 1259 0 
L 628 0 
L 628 4666 
z
" transform="scale(0.015625)"/>
      </defs>
      <use xlink:href="#DejaVuSans-50"/>
      <use xlink:href="#DejaVuSans-72" x="58.552734"/>
      <use xlink:href="#DejaVuSans-6f" x="97.416016"/>
      <use xlink:href="#DejaVuSans-74" x="158.597656"/>
      <use xlink:href="#DejaVuSans-65" x="197.806641"/>
      <use xlink:href="#DejaVuSans-69" x="259.330078"/>
      <use xlink:href="#DejaVuSans-6e" x="287.113281"/>
     </g>
    </g>
    <g id="line2d_31">
     <path d="M 319.858608 142.725312 
L 329.858608 142.725312 
L 339.858608 142.725312 
" style="fill: none; stroke: #9467bd; stroke-width: 1.5; stroke-linecap: square"/>
    </g>
    <g id="text_24">
     <!-- Tannin -->
     <g transform="translate(347.858608 146.225312)scale(0.1 -0.1)">
      <defs>
       <path id="DejaVuSans-54" d="M -19 4666 
L 3928 4666 
L 3928 4134 
L 2272 4134 
L 2272 0 
L 1638 0 
L 1638 4134 
L -19 4134 
L -19 4666 
z
" transform="scale(0.015625)"/>
      </defs>
      <use xlink:href="#DejaVuSans-54"/>
      <use xlink:href="#DejaVuSans-61" x="44.583984"/>
      <use xlink:href="#DejaVuSans-6e" x="105.863281"/>
      <use xlink:href="#DejaVuSans-6e" x="169.242188"/>
      <use xlink:href="#DejaVuSans-69" x="232.621094"/>
      <use xlink:href="#DejaVuSans-6e" x="260.404297"/>
     </g>
    </g>
    <g id="line2d_32">
     <path d="M 319.858608 157.403437 
L 329.858608 157.403437 
L 339.858608 157.403437 
" style="fill: none; stroke: #8c564b; stroke-width: 1.5; stroke-linecap: square"/>
    </g>
    <g id="text_25">
     <!-- UnsatHC -->
     <g transform="translate(347.858608 160.903437)scale(0.1 -0.1)">
      <defs>
       <path id="DejaVuSans-55" d="M 556 4666 
L 1191 4666 
L 1191 1831 
Q 1191 1081 1462 751 
Q 1734 422 2344 422 
Q 2950 422 3222 751 
Q 3494 1081 3494 1831 
L 3494 4666 
L 4128 4666 
L 4128 1753 
Q 4128 841 3676 375 
Q 3225 -91 2344 -91 
Q 1459 -91 1007 375 
Q 556 841 556 1753 
L 556 4666 
z
" transform="scale(0.015625)"/>
      </defs>
      <use xlink:href="#DejaVuSans-55"/>
      <use xlink:href="#DejaVuSans-6e" x="73.193359"/>
      <use xlink:href="#DejaVuSans-73" x="136.572266"/>
      <use xlink:href="#DejaVuSans-61" x="188.671875"/>
      <use xlink:href="#DejaVuSans-74" x="249.951172"/>
      <use xlink:href="#DejaVuSans-48" x="289.160156"/>
      <use xlink:href="#DejaVuSans-43" x="364.355469"/>
     </g>
    </g>
    <g id="line2d_33">
     <path d="M 319.858608 172.081562 
L 329.858608 172.081562 
L 339.858608 172.081562 
" style="fill: none; stroke: #ff7f0e; stroke-width: 1.5; stroke-linecap: square"/>
    </g>
    <g id="text_26">
     <!-- SumAllCompounds -->
     <g transform="translate(347.858608 175.581562)scale(0.1 -0.1)">
      <use xlink:href="#DejaVuSans-53"/>
      <use xlink:href="#DejaVuSans-75" x="63.476562"/>
      <use xlink:href="#DejaVuSans-6d" x="126.855469"/>
      <use xlink:href="#DejaVuSans-41" x="224.267578"/>
      <use xlink:href="#DejaVuSans-6c" x="292.675781"/>
      <use xlink:href="#DejaVuSans-6c" x="320.458984"/>
      <use xlink:href="#DejaVuSans-43" x="348.242188"/>
      <use xlink:href="#DejaVuSans-6f" x="418.066406"/>
      <use xlink:href="#DejaVuSans-6d" x="479.248047"/>
      <use xlink:href="#DejaVuSans-70" x="576.660156"/>
      <use xlink:href="#DejaVuSans-6f" x="640.136719"/>
      <use xlink:href="#DejaVuSans-75" x="701.318359"/>
      <use xlink:href="#DejaVuSans-6e" x="764.697266"/>
      <use xlink:href="#DejaVuSans-64" x="828.076172"/>
      <use xlink:href="#DejaVuSans-73" x="891.552734"/>
     </g>
    </g>
   </g>
  </g>
 </g>
 <defs>
  <clipPath id="paf23739f0f">
   <rect x="41.15" y="26.88" width="259.3352" height="273.88"/>
  </clipPath>
 </defs>
</svg>
