<?xml version="1.0" encoding="utf-8" standalone="no"?>
<!DOCTYPE svg PUBLIC "-//W3C//DTD SVG 1.1//EN"
  "http://www.w3.org/Graphics/SVG/1.1/DTD/svg11.dtd">
<svg xmlns:xlink="http://www.w3.org/1999/xlink" width="360pt" height="360pt" viewBox="0 0 360 360" xmlns="http://www.w3.org/2000/svg" version="1.1">
 <metadata>
  <rdf:RDF xmlns:dc="http://purl.org/dc/elements/1.1/" xmlns:cc="http://creativecommons.org/ns#" xmlns:rdf="http://www.w3.org/1999/02/22-rdf-syntax-ns#">
   <cc:Work>
    <dc:type rdf:resource="http://purl.org/dc/dcmitype/StillImage"/>
    <dc:date>2024-04-15T11:22:55.249818</dc:date>
    <dc:format>image/svg+xml</dc:format>
    <dc:creator>
     <cc:Agent>
      <dc:title>Matplotlib v3.5.2, https://matplotlib.org/</dc:title>
     </cc:Agent>
    </dc:creator>
   </cc:Work>
  </rdf:RDF>
 </metadata>
 <defs>
  <style type="text/css">*{stroke-linejoin: round; stroke-linecap: butt}</style>
 </defs>
 <g id="figure_1">
  <g id="patch_1">
   <path d="M 0 360 
L 360 360 
L 360 0 
L 0 0 
z
" style="fill: #ffffff"/>
  </g>
  <g id="axes_1">
   <g id="patch_2">
    <path d="M 46.55 318.04 
L 349.2 318.04 
L 349.2 10.8 
L 46.55 10.8 
z
" style="fill: #ffffff"/>
   </g>
   <g id="PathCollection_1">
    <defs>
     <path id="m0d00a6b755" d="M 0 2.5 
C 0.663008 2.5 1.29895 2.236584 1.767767 1.767767 
C 2.236584 1.29895 2.5 0.663008 2.5 0 
C 2.5 -0.663008 2.236584 -1.29895 1.767767 -1.767767 
C 1.29895 -2.236584 0.663008 -2.5 0 -2.5 
C -0.663008 -2.5 -1.29895 -2.236584 -1.767767 -1.767767 
C -2.236584 -1.29895 -2.5 -0.663008 -2.5 0 
C -2.5 0.663008 -2.236584 1.29895 -1.767767 1.767767 
C -1.29895 2.236584 -0.663008 2.5 0 2.5 
z
" style="stroke: #000000; stroke-opacity: 0"/>
    </defs>
    <g clip-path="url(#pf9d671a0ab)">
     <use xlink:href="#m0d00a6b755" x="206.93818" y="30.653123" style="stroke: #000000; stroke-opacity: 0"/>
     <use xlink:href="#m0d00a6b755" x="98.828245" y="225.612114" style="stroke: #000000; stroke-opacity: 0"/>
     <use xlink:href="#m0d00a6b755" x="335.443182" y="256.54526" style="stroke: #000000; stroke-opacity: 0"/>
     <use xlink:href="#m0d00a6b755" x="270.730368" y="168.279767" style="stroke: #000000; stroke-opacity: 0"/>
     <use xlink:href="#m0d00a6b755" x="122.956226" y="202.585319" style="stroke: #000000; stroke-opacity: 0"/>
     <use xlink:href="#m0d00a6b755" x="170.816744" y="196.427709" style="stroke: #000000; stroke-opacity: 0"/>
     <use xlink:href="#m0d00a6b755" x="309.657719" y="245.388116" style="stroke: #000000; stroke-opacity: 0"/>
     <use xlink:href="#m0d00a6b755" x="149.42298" y="219.265983" style="stroke: #000000; stroke-opacity: 0"/>
     <use xlink:href="#m0d00a6b755" x="169.226004" y="207.565037" style="stroke: #000000; stroke-opacity: 0"/>
     <use xlink:href="#m0d00a6b755" x="331.921543" y="304.074545" style="stroke: #000000; stroke-opacity: 0"/>
     <use xlink:href="#m0d00a6b755" x="316.984431" y="284.44816" style="stroke: #000000; stroke-opacity: 0"/>
     <use xlink:href="#m0d00a6b755" x="196.948689" y="234.703318" style="stroke: #000000; stroke-opacity: 0"/>
     <use xlink:href="#m0d00a6b755" x="156.143241" y="224.830199" style="stroke: #000000; stroke-opacity: 0"/>
     <use xlink:href="#m0d00a6b755" x="74.768739" y="216.960851" style="stroke: #000000; stroke-opacity: 0"/>
     <use xlink:href="#m0d00a6b755" x="60.306818" y="220.586083" style="stroke: #000000; stroke-opacity: 0"/>
     <use xlink:href="#m0d00a6b755" x="194.482331" y="227.446794" style="stroke: #000000; stroke-opacity: 0"/>
     <use xlink:href="#m0d00a6b755" x="96.308288" y="225.786037" style="stroke: #000000; stroke-opacity: 0"/>
     <use xlink:href="#m0d00a6b755" x="94.064616" y="225.485527" style="stroke: #000000; stroke-opacity: 0"/>
     <use xlink:href="#m0d00a6b755" x="84.774268" y="218.599579" style="stroke: #000000; stroke-opacity: 0"/>
     <use xlink:href="#m0d00a6b755" x="168.156389" y="235.03588" style="stroke: #000000; stroke-opacity: 0"/>
     <use xlink:href="#m0d00a6b755" x="147.193532" y="193.602107" style="stroke: #000000; stroke-opacity: 0"/>
     <use xlink:href="#m0d00a6b755" x="208.068085" y="112.303953" style="stroke: #000000; stroke-opacity: 0"/>
     <use xlink:href="#m0d00a6b755" x="133.295536" y="233.26677" style="stroke: #000000; stroke-opacity: 0"/>
     <use xlink:href="#m0d00a6b755" x="147.912162" y="178.573126" style="stroke: #000000; stroke-opacity: 0"/>
     <use xlink:href="#m0d00a6b755" x="222.702371" y="225.532393" style="stroke: #000000; stroke-opacity: 0"/>
     <use xlink:href="#m0d00a6b755" x="108.554118" y="208.382323" style="stroke: #000000; stroke-opacity: 0"/>
     <use xlink:href="#m0d00a6b755" x="251.67713" y="216.808982" style="stroke: #000000; stroke-opacity: 0"/>
     <use xlink:href="#m0d00a6b755" x="260.134137" y="249.363061" style="stroke: #000000; stroke-opacity: 0"/>
     <use xlink:href="#m0d00a6b755" x="138.191936" y="186.862566" style="stroke: #000000; stroke-opacity: 0"/>
     <use xlink:href="#m0d00a6b755" x="91.246785" y="236.107052" style="stroke: #000000; stroke-opacity: 0"/>
     <use xlink:href="#m0d00a6b755" x="171.202261" y="232.477579" style="stroke: #000000; stroke-opacity: 0"/>
     <use xlink:href="#m0d00a6b755" x="143.380168" y="171.96513" style="stroke: #000000; stroke-opacity: 0"/>
     <use xlink:href="#m0d00a6b755" x="110.532594" y="213.34687" style="stroke: #000000; stroke-opacity: 0"/>
     <use xlink:href="#m0d00a6b755" x="157.326624" y="209.656862" style="stroke: #000000; stroke-opacity: 0"/>
     <use xlink:href="#m0d00a6b755" x="227.535847" y="269.764438" style="stroke: #000000; stroke-opacity: 0"/>
     <use xlink:href="#m0d00a6b755" x="98.091545" y="232.893739" style="stroke: #000000; stroke-opacity: 0"/>
     <use xlink:href="#m0d00a6b755" x="134.79823" y="223.976448" style="stroke: #000000; stroke-opacity: 0"/>
     <use xlink:href="#m0d00a6b755" x="136.019117" y="215.964128" style="stroke: #000000; stroke-opacity: 0"/>
     <use xlink:href="#m0d00a6b755" x="73.87407" y="224.182333" style="stroke: #000000; stroke-opacity: 0"/>
     <use xlink:href="#m0d00a6b755" x="166.217196" y="94.846532" style="stroke: #000000; stroke-opacity: 0"/>
     <use xlink:href="#m0d00a6b755" x="142.667712" y="219.149929" style="stroke: #000000; stroke-opacity: 0"/>
     <use xlink:href="#m0d00a6b755" x="130.937113" y="227.391487" style="stroke: #000000; stroke-opacity: 0"/>
     <use xlink:href="#m0d00a6b755" x="156.9217" y="241.695601" style="stroke: #000000; stroke-opacity: 0"/>
     <use xlink:href="#m0d00a6b755" x="193.627455" y="227.860982" style="stroke: #000000; stroke-opacity: 0"/>
     <use xlink:href="#m0d00a6b755" x="250.11008" y="59.954556" style="stroke: #000000; stroke-opacity: 0"/>
     <use xlink:href="#m0d00a6b755" x="200.623469" y="214.697172" style="stroke: #000000; stroke-opacity: 0"/>
     <use xlink:href="#m0d00a6b755" x="166.815244" y="195.106366" style="stroke: #000000; stroke-opacity: 0"/>
     <use xlink:href="#m0d00a6b755" x="93.15221" y="217.635683" style="stroke: #000000; stroke-opacity: 0"/>
     <use xlink:href="#m0d00a6b755" x="111.344887" y="223.91161" style="stroke: #000000; stroke-opacity: 0"/>
     <use xlink:href="#m0d00a6b755" x="90.359942" y="225.857633" style="stroke: #000000; stroke-opacity: 0"/>
     <use xlink:href="#m0d00a6b755" x="208.49227" y="24.765455" style="stroke: #000000; stroke-opacity: 0"/>
     <use xlink:href="#m0d00a6b755" x="136.749511" y="209.150029" style="stroke: #000000; stroke-opacity: 0"/>
     <use xlink:href="#m0d00a6b755" x="78.504474" y="214.671359" style="stroke: #000000; stroke-opacity: 0"/>
     <use xlink:href="#m0d00a6b755" x="238.283774" y="200.933103" style="stroke: #000000; stroke-opacity: 0"/>
    </g>
   </g>
   <g id="patch_3">
    <path d="M 174.243799 210.617478 
L 163.47686 210.641899 
L 164.190161 208.300257 
L 165.114132 208.632613 
L 165.827434 206.290971 
L 164.903462 205.958615 
L 165.616764 203.616973 
z
" clip-path="url(#pf9d671a0ab)" style="opacity: 0.5"/>
   </g>
   <g id="patch_4">
    <path d="M 193.997726 243.391319 
L 184.74723 237.404212 
L 186.465851 235.792911 
L 164.611472 208.267442 
L 166.330094 206.656142 
L 188.184473 234.181611 
L 189.903095 232.570311 
z
" clip-path="url(#pf9d671a0ab)" style="opacity: 0.5"/>
   </g>
   <g id="patch_5">
    <path d="M 182.68989 132.256326 
L 183.527765 143.920941 
L 181.325044 143.325399 
L 166.572143 207.759563 
L 164.369423 207.16402 
L 179.122323 142.729856 
L 176.919603 142.134313 
z
" clip-path="url(#pf9d671a0ab)" style="opacity: 0.5"/>
   </g>
   <g id="patch_6">
    <path d="M 184.779181 170.18946 
L 182.735521 181.676862 
L 180.757519 180.46688 
L 166.459784 208.066783 
L 164.481782 206.856801 
L 178.779517 179.256898 
L 176.801514 178.046916 
z
" clip-path="url(#pf9d671a0ab)" style="opacity: 0.5"/>
   </g>
   <g id="matplotlib.axis_1">
    <g id="xtick_1">
     <g id="line2d_1">
      <defs>
       <path id="m4b3fab0259" d="M 0 0 
L 0 3.5 
" style="stroke: #000000; stroke-width: 0.8"/>
      </defs>
      <g>
       <use xlink:href="#m4b3fab0259" x="63.148853" y="318.04" style="stroke: #000000; stroke-width: 0.8"/>
      </g>
     </g>
     <g id="text_1">
      <!-- −6 -->
      <g transform="translate(55.777759 332.638438)scale(0.1 -0.1)">
       <defs>
        <path id="DejaVuSans-2212" d="M 678 2272 
L 4684 2272 
L 4684 1741 
L 678 1741 
L 678 2272 
z
" transform="scale(0.015625)"/>
        <path id="DejaVuSans-36" d="M 2113 2584 
Q 1688 2584 1439 2293 
Q 1191 2003 1191 1497 
Q 1191 994 1439 701 
Q 1688 409 2113 409 
Q 2538 409 2786 701 
Q 3034 994 3034 1497 
Q 3034 2003 2786 2293 
Q 2538 2584 2113 2584 
z
M 3366 4563 
L 3366 3988 
Q 3128 4100 2886 4159 
Q 2644 4219 2406 4219 
Q 1781 4219 1451 3797 
Q 1122 3375 1075 2522 
Q 1259 2794 1537 2939 
Q 1816 3084 2150 3084 
Q 2853 3084 3261 2657 
Q 3669 2231 3669 1497 
Q 3669 778 3244 343 
Q 2819 -91 2113 -91 
Q 1303 -91 875 529 
Q 447 1150 447 2328 
Q 447 3434 972 4092 
Q 1497 4750 2381 4750 
Q 2619 4750 2861 4703 
Q 3103 4656 3366 4563 
z
" transform="scale(0.015625)"/>
       </defs>
       <use xlink:href="#DejaVuSans-2212"/>
       <use xlink:href="#DejaVuSans-36" x="83.789062"/>
      </g>
     </g>
    </g>
    <g id="xtick_2">
     <g id="line2d_2">
      <g>
       <use xlink:href="#m4b3fab0259" x="97.256163" y="318.04" style="stroke: #000000; stroke-width: 0.8"/>
      </g>
     </g>
     <g id="text_2">
      <!-- −4 -->
      <g transform="translate(89.885069 332.638438)scale(0.1 -0.1)">
       <defs>
        <path id="DejaVuSans-34" d="M 2419 4116 
L 825 1625 
L 2419 1625 
L 2419 4116 
z
M 2253 4666 
L 3047 4666 
L 3047 1625 
L 3713 1625 
L 3713 1100 
L 3047 1100 
L 3047 0 
L 2419 0 
L 2419 1100 
L 313 1100 
L 313 1709 
L 2253 4666 
z
" transform="scale(0.015625)"/>
       </defs>
       <use xlink:href="#DejaVuSans-2212"/>
       <use xlink:href="#DejaVuSans-34" x="83.789062"/>
      </g>
     </g>
    </g>
    <g id="xtick_3">
     <g id="line2d_3">
      <g>
       <use xlink:href="#m4b3fab0259" x="131.363473" y="318.04" style="stroke: #000000; stroke-width: 0.8"/>
      </g>
     </g>
     <g id="text_3">
      <!-- −2 -->
      <g transform="translate(123.992379 332.638438)scale(0.1 -0.1)">
       <defs>
        <path id="DejaVuSans-32" d="M 1228 531 
L 3431 531 
L 3431 0 
L 469 0 
L 469 531 
Q 828 903 1448 1529 
Q 2069 2156 2228 2338 
Q 2531 2678 2651 2914 
Q 2772 3150 2772 3378 
Q 2772 3750 2511 3984 
Q 2250 4219 1831 4219 
Q 1534 4219 1204 4116 
Q 875 4013 500 3803 
L 500 4441 
Q 881 4594 1212 4672 
Q 1544 4750 1819 4750 
Q 2544 4750 2975 4387 
Q 3406 4025 3406 3419 
Q 3406 3131 3298 2873 
Q 3191 2616 2906 2266 
Q 2828 2175 2409 1742 
Q 1991 1309 1228 531 
z
" transform="scale(0.015625)"/>
       </defs>
       <use xlink:href="#DejaVuSans-2212"/>
       <use xlink:href="#DejaVuSans-32" x="83.789062"/>
      </g>
     </g>
    </g>
    <g id="xtick_4">
     <g id="line2d_4">
      <g>
       <use xlink:href="#m4b3fab0259" x="165.470783" y="318.04" style="stroke: #000000; stroke-width: 0.8"/>
      </g>
     </g>
     <g id="text_4">
      <!-- 0 -->
      <g transform="translate(162.289533 332.638438)scale(0.1 -0.1)">
       <defs>
        <path id="DejaVuSans-30" d="M 2034 4250 
Q 1547 4250 1301 3770 
Q 1056 3291 1056 2328 
Q 1056 1369 1301 889 
Q 1547 409 2034 409 
Q 2525 409 2770 889 
Q 3016 1369 3016 2328 
Q 3016 3291 2770 3770 
Q 2525 4250 2034 4250 
z
M 2034 4750 
Q 2819 4750 3233 4129 
Q 3647 3509 3647 2328 
Q 3647 1150 3233 529 
Q 2819 -91 2034 -91 
Q 1250 -91 836 529 
Q 422 1150 422 2328 
Q 422 3509 836 4129 
Q 1250 4750 2034 4750 
z
" transform="scale(0.015625)"/>
       </defs>
       <use xlink:href="#DejaVuSans-30"/>
      </g>
     </g>
    </g>
    <g id="xtick_5">
     <g id="line2d_5">
      <g>
       <use xlink:href="#m4b3fab0259" x="199.578093" y="318.04" style="stroke: #000000; stroke-width: 0.8"/>
      </g>
     </g>
     <g id="text_5">
      <!-- 2 -->
      <g transform="translate(196.396843 332.638438)scale(0.1 -0.1)">
       <use xlink:href="#DejaVuSans-32"/>
      </g>
     </g>
    </g>
    <g id="xtick_6">
     <g id="line2d_6">
      <g>
       <use xlink:href="#m4b3fab0259" x="233.685403" y="318.04" style="stroke: #000000; stroke-width: 0.8"/>
      </g>
     </g>
     <g id="text_6">
      <!-- 4 -->
      <g transform="translate(230.504153 332.638438)scale(0.1 -0.1)">
       <use xlink:href="#DejaVuSans-34"/>
      </g>
     </g>
    </g>
    <g id="xtick_7">
     <g id="line2d_7">
      <g>
       <use xlink:href="#m4b3fab0259" x="267.792713" y="318.04" style="stroke: #000000; stroke-width: 0.8"/>
      </g>
     </g>
     <g id="text_7">
      <!-- 6 -->
      <g transform="translate(264.611463 332.638438)scale(0.1 -0.1)">
       <use xlink:href="#DejaVuSans-36"/>
      </g>
     </g>
    </g>
    <g id="xtick_8">
     <g id="line2d_8">
      <g>
       <use xlink:href="#m4b3fab0259" x="301.900023" y="318.04" style="stroke: #000000; stroke-width: 0.8"/>
      </g>
     </g>
     <g id="text_8">
      <!-- 8 -->
      <g transform="translate(298.718773 332.638438)scale(0.1 -0.1)">
       <defs>
        <path id="DejaVuSans-38" d="M 2034 2216 
Q 1584 2216 1326 1975 
Q 1069 1734 1069 1313 
Q 1069 891 1326 650 
Q 1584 409 2034 409 
Q 2484 409 2743 651 
Q 3003 894 3003 1313 
Q 3003 1734 2745 1975 
Q 2488 2216 2034 2216 
z
M 1403 2484 
Q 997 2584 770 2862 
Q 544 3141 544 3541 
Q 544 4100 942 4425 
Q 1341 4750 2034 4750 
Q 2731 4750 3128 4425 
Q 3525 4100 3525 3541 
Q 3525 3141 3298 2862 
Q 3072 2584 2669 2484 
Q 3125 2378 3379 2068 
Q 3634 1759 3634 1313 
Q 3634 634 3220 271 
Q 2806 -91 2034 -91 
Q 1263 -91 848 271 
Q 434 634 434 1313 
Q 434 1759 690 2068 
Q 947 2378 1403 2484 
z
M 1172 3481 
Q 1172 3119 1398 2916 
Q 1625 2713 2034 2713 
Q 2441 2713 2670 2916 
Q 2900 3119 2900 3481 
Q 2900 3844 2670 4047 
Q 2441 4250 2034 4250 
Q 1625 4250 1398 4047 
Q 1172 3844 1172 3481 
z
" transform="scale(0.015625)"/>
       </defs>
       <use xlink:href="#DejaVuSans-38"/>
      </g>
     </g>
    </g>
    <g id="xtick_9">
     <g id="line2d_9">
      <g>
       <use xlink:href="#m4b3fab0259" x="336.007333" y="318.04" style="stroke: #000000; stroke-width: 0.8"/>
      </g>
     </g>
     <g id="text_9">
      <!-- 10 -->
      <g transform="translate(329.644833 332.638438)scale(0.1 -0.1)">
       <defs>
        <path id="DejaVuSans-31" d="M 794 531 
L 1825 531 
L 1825 4091 
L 703 3866 
L 703 4441 
L 1819 4666 
L 2450 4666 
L 2450 531 
L 3481 531 
L 3481 0 
L 794 0 
L 794 531 
z
" transform="scale(0.015625)"/>
       </defs>
       <use xlink:href="#DejaVuSans-31"/>
       <use xlink:href="#DejaVuSans-30" x="63.623047"/>
      </g>
     </g>
    </g>
    <g id="text_10">
     <!-- PC 1 (29.77%) -->
     <g transform="translate(162.042969 346.316563)scale(0.1 -0.1)">
      <defs>
       <path id="DejaVuSans-50" d="M 1259 4147 
L 1259 2394 
L 2053 2394 
Q 2494 2394 2734 2622 
Q 2975 2850 2975 3272 
Q 2975 3691 2734 3919 
Q 2494 4147 2053 4147 
L 1259 4147 
z
M 628 4666 
L 2053 4666 
Q 2838 4666 3239 4311 
Q 3641 3956 3641 3272 
Q 3641 2581 3239 2228 
Q 2838 1875 2053 1875 
L 1259 1875 
L 1259 0 
L 628 0 
L 628 4666 
z
" transform="scale(0.015625)"/>
       <path id="DejaVuSans-43" d="M 4122 4306 
L 4122 3641 
Q 3803 3938 3442 4084 
Q 3081 4231 2675 4231 
Q 1875 4231 1450 3742 
Q 1025 3253 1025 2328 
Q 1025 1406 1450 917 
Q 1875 428 2675 428 
Q 3081 428 3442 575 
Q 3803 722 4122 1019 
L 4122 359 
Q 3791 134 3420 21 
Q 3050 -91 2638 -91 
Q 1578 -91 968 557 
Q 359 1206 359 2328 
Q 359 3453 968 4101 
Q 1578 4750 2638 4750 
Q 3056 4750 3426 4639 
Q 3797 4528 4122 4306 
z
" transform="scale(0.015625)"/>
       <path id="DejaVuSans-20" transform="scale(0.015625)"/>
       <path id="DejaVuSans-28" d="M 1984 4856 
Q 1566 4138 1362 3434 
Q 1159 2731 1159 2009 
Q 1159 1288 1364 580 
Q 1569 -128 1984 -844 
L 1484 -844 
Q 1016 -109 783 600 
Q 550 1309 550 2009 
Q 550 2706 781 3412 
Q 1013 4119 1484 4856 
L 1984 4856 
z
" transform="scale(0.015625)"/>
       <path id="DejaVuSans-39" d="M 703 97 
L 703 672 
Q 941 559 1184 500 
Q 1428 441 1663 441 
Q 2288 441 2617 861 
Q 2947 1281 2994 2138 
Q 2813 1869 2534 1725 
Q 2256 1581 1919 1581 
Q 1219 1581 811 2004 
Q 403 2428 403 3163 
Q 403 3881 828 4315 
Q 1253 4750 1959 4750 
Q 2769 4750 3195 4129 
Q 3622 3509 3622 2328 
Q 3622 1225 3098 567 
Q 2575 -91 1691 -91 
Q 1453 -91 1209 -44 
Q 966 3 703 97 
z
M 1959 2075 
Q 2384 2075 2632 2365 
Q 2881 2656 2881 3163 
Q 2881 3666 2632 3958 
Q 2384 4250 1959 4250 
Q 1534 4250 1286 3958 
Q 1038 3666 1038 3163 
Q 1038 2656 1286 2365 
Q 1534 2075 1959 2075 
z
" transform="scale(0.015625)"/>
       <path id="DejaVuSans-2e" d="M 684 794 
L 1344 794 
L 1344 0 
L 684 0 
L 684 794 
z
" transform="scale(0.015625)"/>
       <path id="DejaVuSans-37" d="M 525 4666 
L 3525 4666 
L 3525 4397 
L 1831 0 
L 1172 0 
L 2766 4134 
L 525 4134 
L 525 4666 
z
" transform="scale(0.015625)"/>
       <path id="DejaVuSans-25" d="M 4653 2053 
Q 4381 2053 4226 1822 
Q 4072 1591 4072 1178 
Q 4072 772 4226 539 
Q 4381 306 4653 306 
Q 4919 306 5073 539 
Q 5228 772 5228 1178 
Q 5228 1588 5073 1820 
Q 4919 2053 4653 2053 
z
M 4653 2450 
Q 5147 2450 5437 2106 
Q 5728 1763 5728 1178 
Q 5728 594 5436 251 
Q 5144 -91 4653 -91 
Q 4153 -91 3862 251 
Q 3572 594 3572 1178 
Q 3572 1766 3864 2108 
Q 4156 2450 4653 2450 
z
M 1428 4353 
Q 1159 4353 1004 4120 
Q 850 3888 850 3481 
Q 850 3069 1003 2837 
Q 1156 2606 1428 2606 
Q 1700 2606 1854 2837 
Q 2009 3069 2009 3481 
Q 2009 3884 1853 4118 
Q 1697 4353 1428 4353 
z
M 4250 4750 
L 4750 4750 
L 1831 -91 
L 1331 -91 
L 4250 4750 
z
M 1428 4750 
Q 1922 4750 2215 4408 
Q 2509 4066 2509 3481 
Q 2509 2891 2217 2550 
Q 1925 2209 1428 2209 
Q 931 2209 642 2551 
Q 353 2894 353 3481 
Q 353 4063 643 4406 
Q 934 4750 1428 4750 
z
" transform="scale(0.015625)"/>
       <path id="DejaVuSans-29" d="M 513 4856 
L 1013 4856 
Q 1481 4119 1714 3412 
Q 1947 2706 1947 2009 
Q 1947 1309 1714 600 
Q 1481 -109 1013 -844 
L 513 -844 
Q 928 -128 1133 580 
Q 1338 1288 1338 2009 
Q 1338 2731 1133 3434 
Q 928 4138 513 4856 
z
" transform="scale(0.015625)"/>
      </defs>
      <use xlink:href="#DejaVuSans-50"/>
      <use xlink:href="#DejaVuSans-43" x="60.302734"/>
      <use xlink:href="#DejaVuSans-20" x="130.126953"/>
      <use xlink:href="#DejaVuSans-31" x="161.914062"/>
      <use xlink:href="#DejaVuSans-20" x="225.537109"/>
      <use xlink:href="#DejaVuSans-28" x="257.324219"/>
      <use xlink:href="#DejaVuSans-32" x="296.337891"/>
      <use xlink:href="#DejaVuSans-39" x="359.960938"/>
      <use xlink:href="#DejaVuSans-2e" x="423.583984"/>
      <use xlink:href="#DejaVuSans-37" x="455.371094"/>
      <use xlink:href="#DejaVuSans-37" x="518.994141"/>
      <use xlink:href="#DejaVuSans-25" x="582.617188"/>
      <use xlink:href="#DejaVuSans-29" x="677.636719"/>
     </g>
    </g>
   </g>
   <g id="matplotlib.axis_2">
    <g id="ytick_1">
     <g id="line2d_10">
      <defs>
       <path id="ma940c7e10e" d="M 0 0 
L -3.5 0 
" style="stroke: #000000; stroke-width: 0.8"/>
      </defs>
      <g>
       <use xlink:href="#ma940c7e10e" x="46.55" y="281.588324" style="stroke: #000000; stroke-width: 0.8"/>
      </g>
     </g>
     <g id="text_11">
      <!-- −4 -->
      <g transform="translate(24.807813 285.387543)scale(0.1 -0.1)">
       <use xlink:href="#DejaVuSans-2212"/>
       <use xlink:href="#DejaVuSans-34" x="83.789062"/>
      </g>
     </g>
    </g>
    <g id="ytick_2">
     <g id="line2d_11">
      <g>
       <use xlink:href="#ma940c7e10e" x="46.55" y="244.525058" style="stroke: #000000; stroke-width: 0.8"/>
      </g>
     </g>
     <g id="text_12">
      <!-- −2 -->
      <g transform="translate(24.807813 248.324277)scale(0.1 -0.1)">
       <use xlink:href="#DejaVuSans-2212"/>
       <use xlink:href="#DejaVuSans-32" x="83.789062"/>
      </g>
     </g>
    </g>
    <g id="ytick_3">
     <g id="line2d_12">
      <g>
       <use xlink:href="#ma940c7e10e" x="46.55" y="207.461792" style="stroke: #000000; stroke-width: 0.8"/>
      </g>
     </g>
     <g id="text_13">
      <!-- 0 -->
      <g transform="translate(33.1875 211.261011)scale(0.1 -0.1)">
       <use xlink:href="#DejaVuSans-30"/>
      </g>
     </g>
    </g>
    <g id="ytick_4">
     <g id="line2d_13">
      <g>
       <use xlink:href="#ma940c7e10e" x="46.55" y="170.398526" style="stroke: #000000; stroke-width: 0.8"/>
      </g>
     </g>
     <g id="text_14">
      <!-- 2 -->
      <g transform="translate(33.1875 174.197744)scale(0.1 -0.1)">
       <use xlink:href="#DejaVuSans-32"/>
      </g>
     </g>
    </g>
    <g id="ytick_5">
     <g id="line2d_14">
      <g>
       <use xlink:href="#ma940c7e10e" x="46.55" y="133.335259" style="stroke: #000000; stroke-width: 0.8"/>
      </g>
     </g>
     <g id="text_15">
      <!-- 4 -->
      <g transform="translate(33.1875 137.134478)scale(0.1 -0.1)">
       <use xlink:href="#DejaVuSans-34"/>
      </g>
     </g>
    </g>
    <g id="ytick_6">
     <g id="line2d_15">
      <g>
       <use xlink:href="#ma940c7e10e" x="46.55" y="96.271993" style="stroke: #000000; stroke-width: 0.8"/>
      </g>
     </g>
     <g id="text_16">
      <!-- 6 -->
      <g transform="translate(33.1875 100.071212)scale(0.1 -0.1)">
       <use xlink:href="#DejaVuSans-36"/>
      </g>
     </g>
    </g>
    <g id="ytick_7">
     <g id="line2d_16">
      <g>
       <use xlink:href="#ma940c7e10e" x="46.55" y="59.208727" style="stroke: #000000; stroke-width: 0.8"/>
      </g>
     </g>
     <g id="text_17">
      <!-- 8 -->
      <g transform="translate(33.1875 63.007946)scale(0.1 -0.1)">
       <use xlink:href="#DejaVuSans-38"/>
      </g>
     </g>
    </g>
    <g id="ytick_8">
     <g id="line2d_17">
      <g>
       <use xlink:href="#ma940c7e10e" x="46.55" y="22.145461" style="stroke: #000000; stroke-width: 0.8"/>
      </g>
     </g>
     <g id="text_18">
      <!-- 10 -->
      <g transform="translate(26.825 25.94468)scale(0.1 -0.1)">
       <use xlink:href="#DejaVuSans-31"/>
       <use xlink:href="#DejaVuSans-30" x="63.623047"/>
      </g>
     </g>
    </g>
    <g id="text_19">
     <!-- PC 2 (14.78%) -->
     <g transform="translate(18.728125 200.252031)rotate(-90)scale(0.1 -0.1)">
      <use xlink:href="#DejaVuSans-50"/>
      <use xlink:href="#DejaVuSans-43" x="60.302734"/>
      <use xlink:href="#DejaVuSans-20" x="130.126953"/>
      <use xlink:href="#DejaVuSans-32" x="161.914062"/>
      <use xlink:href="#DejaVuSans-20" x="225.537109"/>
      <use xlink:href="#DejaVuSans-28" x="257.324219"/>
      <use xlink:href="#DejaVuSans-31" x="296.337891"/>
      <use xlink:href="#DejaVuSans-34" x="359.960938"/>
      <use xlink:href="#DejaVuSans-2e" x="423.583984"/>
      <use xlink:href="#DejaVuSans-37" x="455.371094"/>
      <use xlink:href="#DejaVuSans-38" x="518.994141"/>
      <use xlink:href="#DejaVuSans-25" x="582.617188"/>
      <use xlink:href="#DejaVuSans-29" x="677.636719"/>
     </g>
    </g>
   </g>
   <g id="patch_7">
    <path d="M 46.55 318.04 
L 46.55 10.8 
" style="fill: none; stroke: #000000; stroke-width: 0.8; stroke-linejoin: miter; stroke-linecap: square"/>
   </g>
   <g id="patch_8">
    <path d="M 349.2 318.04 
L 349.2 10.8 
" style="fill: none; stroke: #000000; stroke-width: 0.8; stroke-linejoin: miter; stroke-linecap: square"/>
   </g>
   <g id="patch_9">
    <path d="M 46.55 318.04 
L 349.2 318.04 
" style="fill: none; stroke: #000000; stroke-width: 0.8; stroke-linejoin: miter; stroke-linecap: square"/>
   </g>
   <g id="patch_10">
    <path d="M 46.55 10.8 
L 349.2 10.8 
" style="fill: none; stroke: #000000; stroke-width: 0.8; stroke-linejoin: miter; stroke-linecap: square"/>
   </g>
   <g id="text_20">
    <!-- Actual ET - aet_mm_s04 -->
    <g transform="translate(139.793629 212.292424)scale(0.0579 -0.0579)">
     <defs>
      <path id="DejaVuSans-41" d="M 2188 4044 
L 1331 1722 
L 3047 1722 
L 2188 4044 
z
M 1831 4666 
L 2547 4666 
L 4325 0 
L 3669 0 
L 3244 1197 
L 1141 1197 
L 716 0 
L 50 0 
L 1831 4666 
z
" transform="scale(0.015625)"/>
      <path id="DejaVuSans-63" d="M 3122 3366 
L 3122 2828 
Q 2878 2963 2633 3030 
Q 2388 3097 2138 3097 
Q 1578 3097 1268 2742 
Q 959 2388 959 1747 
Q 959 1106 1268 751 
Q 1578 397 2138 397 
Q 2388 397 2633 464 
Q 2878 531 3122 666 
L 3122 134 
Q 2881 22 2623 -34 
Q 2366 -91 2075 -91 
Q 1284 -91 818 406 
Q 353 903 353 1747 
Q 353 2603 823 3093 
Q 1294 3584 2113 3584 
Q 2378 3584 2631 3529 
Q 2884 3475 3122 3366 
z
" transform="scale(0.015625)"/>
      <path id="DejaVuSans-74" d="M 1172 4494 
L 1172 3500 
L 2356 3500 
L 2356 3053 
L 1172 3053 
L 1172 1153 
Q 1172 725 1289 603 
Q 1406 481 1766 481 
L 2356 481 
L 2356 0 
L 1766 0 
Q 1100 0 847 248 
Q 594 497 594 1153 
L 594 3053 
L 172 3053 
L 172 3500 
L 594 3500 
L 594 4494 
L 1172 4494 
z
" transform="scale(0.015625)"/>
      <path id="DejaVuSans-75" d="M 544 1381 
L 544 3500 
L 1119 3500 
L 1119 1403 
Q 1119 906 1312 657 
Q 1506 409 1894 409 
Q 2359 409 2629 706 
Q 2900 1003 2900 1516 
L 2900 3500 
L 3475 3500 
L 3475 0 
L 2900 0 
L 2900 538 
Q 2691 219 2414 64 
Q 2138 -91 1772 -91 
Q 1169 -91 856 284 
Q 544 659 544 1381 
z
M 1991 3584 
L 1991 3584 
z
" transform="scale(0.015625)"/>
      <path id="DejaVuSans-61" d="M 2194 1759 
Q 1497 1759 1228 1600 
Q 959 1441 959 1056 
Q 959 750 1161 570 
Q 1363 391 1709 391 
Q 2188 391 2477 730 
Q 2766 1069 2766 1631 
L 2766 1759 
L 2194 1759 
z
M 3341 1997 
L 3341 0 
L 2766 0 
L 2766 531 
Q 2569 213 2275 61 
Q 1981 -91 1556 -91 
Q 1019 -91 701 211 
Q 384 513 384 1019 
Q 384 1609 779 1909 
Q 1175 2209 1959 2209 
L 2766 2209 
L 2766 2266 
Q 2766 2663 2505 2880 
Q 2244 3097 1772 3097 
Q 1472 3097 1187 3025 
Q 903 2953 641 2809 
L 641 3341 
Q 956 3463 1253 3523 
Q 1550 3584 1831 3584 
Q 2591 3584 2966 3190 
Q 3341 2797 3341 1997 
z
" transform="scale(0.015625)"/>
      <path id="DejaVuSans-6c" d="M 603 4863 
L 1178 4863 
L 1178 0 
L 603 0 
L 603 4863 
z
" transform="scale(0.015625)"/>
      <path id="DejaVuSans-45" d="M 628 4666 
L 3578 4666 
L 3578 4134 
L 1259 4134 
L 1259 2753 
L 3481 2753 
L 3481 2222 
L 1259 2222 
L 1259 531 
L 3634 531 
L 3634 0 
L 628 0 
L 628 4666 
z
" transform="scale(0.015625)"/>
      <path id="DejaVuSans-54" d="M -19 4666 
L 3928 4666 
L 3928 4134 
L 2272 4134 
L 2272 0 
L 1638 0 
L 1638 4134 
L -19 4134 
L -19 4666 
z
" transform="scale(0.015625)"/>
      <path id="DejaVuSans-2d" d="M 313 2009 
L 1997 2009 
L 1997 1497 
L 313 1497 
L 313 2009 
z
" transform="scale(0.015625)"/>
      <path id="DejaVuSans-65" d="M 3597 1894 
L 3597 1613 
L 953 1613 
Q 991 1019 1311 708 
Q 1631 397 2203 397 
Q 2534 397 2845 478 
Q 3156 559 3463 722 
L 3463 178 
Q 3153 47 2828 -22 
Q 2503 -91 2169 -91 
Q 1331 -91 842 396 
Q 353 884 353 1716 
Q 353 2575 817 3079 
Q 1281 3584 2069 3584 
Q 2775 3584 3186 3129 
Q 3597 2675 3597 1894 
z
M 3022 2063 
Q 3016 2534 2758 2815 
Q 2500 3097 2075 3097 
Q 1594 3097 1305 2825 
Q 1016 2553 972 2059 
L 3022 2063 
z
" transform="scale(0.015625)"/>
      <path id="DejaVuSans-5f" d="M 3263 -1063 
L 3263 -1509 
L -63 -1509 
L -63 -1063 
L 3263 -1063 
z
" transform="scale(0.015625)"/>
      <path id="DejaVuSans-6d" d="M 3328 2828 
Q 3544 3216 3844 3400 
Q 4144 3584 4550 3584 
Q 5097 3584 5394 3201 
Q 5691 2819 5691 2113 
L 5691 0 
L 5113 0 
L 5113 2094 
Q 5113 2597 4934 2840 
Q 4756 3084 4391 3084 
Q 3944 3084 3684 2787 
Q 3425 2491 3425 1978 
L 3425 0 
L 2847 0 
L 2847 2094 
Q 2847 2600 2669 2842 
Q 2491 3084 2119 3084 
Q 1678 3084 1418 2786 
Q 1159 2488 1159 1978 
L 1159 0 
L 581 0 
L 581 3500 
L 1159 3500 
L 1159 2956 
Q 1356 3278 1631 3431 
Q 1906 3584 2284 3584 
Q 2666 3584 2933 3390 
Q 3200 3197 3328 2828 
z
" transform="scale(0.015625)"/>
      <path id="DejaVuSans-73" d="M 2834 3397 
L 2834 2853 
Q 2591 2978 2328 3040 
Q 2066 3103 1784 3103 
Q 1356 3103 1142 2972 
Q 928 2841 928 2578 
Q 928 2378 1081 2264 
Q 1234 2150 1697 2047 
L 1894 2003 
Q 2506 1872 2764 1633 
Q 3022 1394 3022 966 
Q 3022 478 2636 193 
Q 2250 -91 1575 -91 
Q 1294 -91 989 -36 
Q 684 19 347 128 
L 347 722 
Q 666 556 975 473 
Q 1284 391 1588 391 
Q 1994 391 2212 530 
Q 2431 669 2431 922 
Q 2431 1156 2273 1281 
Q 2116 1406 1581 1522 
L 1381 1569 
Q 847 1681 609 1914 
Q 372 2147 372 2553 
Q 372 3047 722 3315 
Q 1072 3584 1716 3584 
Q 2034 3584 2315 3537 
Q 2597 3491 2834 3397 
z
" transform="scale(0.015625)"/>
     </defs>
     <use xlink:href="#DejaVuSans-41"/>
     <use xlink:href="#DejaVuSans-63" x="66.658203"/>
     <use xlink:href="#DejaVuSans-74" x="121.638672"/>
     <use xlink:href="#DejaVuSans-75" x="160.847656"/>
     <use xlink:href="#DejaVuSans-61" x="224.226562"/>
     <use xlink:href="#DejaVuSans-6c" x="285.505859"/>
     <use xlink:href="#DejaVuSans-20" x="313.289062"/>
     <use xlink:href="#DejaVuSans-45" x="345.076172"/>
     <use xlink:href="#DejaVuSans-54" x="408.259766"/>
     <use xlink:href="#DejaVuSans-20" x="469.34375"/>
     <use xlink:href="#DejaVuSans-2d" x="501.130859"/>
     <use xlink:href="#DejaVuSans-20" x="537.214844"/>
     <use xlink:href="#DejaVuSans-61" x="569.001953"/>
     <use xlink:href="#DejaVuSans-65" x="630.28125"/>
     <use xlink:href="#DejaVuSans-74" x="691.804688"/>
     <use xlink:href="#DejaVuSans-5f" x="731.013672"/>
     <use xlink:href="#DejaVuSans-6d" x="781.013672"/>
     <use xlink:href="#DejaVuSans-6d" x="878.425781"/>
     <use xlink:href="#DejaVuSans-5f" x="975.837891"/>
     <use xlink:href="#DejaVuSans-73" x="1025.837891"/>
     <use xlink:href="#DejaVuSans-30" x="1077.9375"/>
     <use xlink:href="#DejaVuSans-34" x="1141.560547"/>
    </g>
   </g>
   <g id="text_21">
    <!-- Percent forest cover loss - PctFrstLoss -->
    <g transform="translate(140.799042 246.785473)scale(0.0579 -0.0579)">
     <defs>
      <path id="DejaVuSans-72" d="M 2631 2963 
Q 2534 3019 2420 3045 
Q 2306 3072 2169 3072 
Q 1681 3072 1420 2755 
Q 1159 2438 1159 1844 
L 1159 0 
L 581 0 
L 581 3500 
L 1159 3500 
L 1159 2956 
Q 1341 3275 1631 3429 
Q 1922 3584 2338 3584 
Q 2397 3584 2469 3576 
Q 2541 3569 2628 3553 
L 2631 2963 
z
" transform="scale(0.015625)"/>
      <path id="DejaVuSans-6e" d="M 3513 2113 
L 3513 0 
L 2938 0 
L 2938 2094 
Q 2938 2591 2744 2837 
Q 2550 3084 2163 3084 
Q 1697 3084 1428 2787 
Q 1159 2491 1159 1978 
L 1159 0 
L 581 0 
L 581 3500 
L 1159 3500 
L 1159 2956 
Q 1366 3272 1645 3428 
Q 1925 3584 2291 3584 
Q 2894 3584 3203 3211 
Q 3513 2838 3513 2113 
z
" transform="scale(0.015625)"/>
      <path id="DejaVuSans-66" d="M 2375 4863 
L 2375 4384 
L 1825 4384 
Q 1516 4384 1395 4259 
Q 1275 4134 1275 3809 
L 1275 3500 
L 2222 3500 
L 2222 3053 
L 1275 3053 
L 1275 0 
L 697 0 
L 697 3053 
L 147 3053 
L 147 3500 
L 697 3500 
L 697 3744 
Q 697 4328 969 4595 
Q 1241 4863 1831 4863 
L 2375 4863 
z
" transform="scale(0.015625)"/>
      <path id="DejaVuSans-6f" d="M 1959 3097 
Q 1497 3097 1228 2736 
Q 959 2375 959 1747 
Q 959 1119 1226 758 
Q 1494 397 1959 397 
Q 2419 397 2687 759 
Q 2956 1122 2956 1747 
Q 2956 2369 2687 2733 
Q 2419 3097 1959 3097 
z
M 1959 3584 
Q 2709 3584 3137 3096 
Q 3566 2609 3566 1747 
Q 3566 888 3137 398 
Q 2709 -91 1959 -91 
Q 1206 -91 779 398 
Q 353 888 353 1747 
Q 353 2609 779 3096 
Q 1206 3584 1959 3584 
z
" transform="scale(0.015625)"/>
      <path id="DejaVuSans-76" d="M 191 3500 
L 800 3500 
L 1894 563 
L 2988 3500 
L 3597 3500 
L 2284 0 
L 1503 0 
L 191 3500 
z
" transform="scale(0.015625)"/>
      <path id="DejaVuSans-46" d="M 628 4666 
L 3309 4666 
L 3309 4134 
L 1259 4134 
L 1259 2759 
L 3109 2759 
L 3109 2228 
L 1259 2228 
L 1259 0 
L 628 0 
L 628 4666 
z
" transform="scale(0.015625)"/>
      <path id="DejaVuSans-4c" d="M 628 4666 
L 1259 4666 
L 1259 531 
L 3531 531 
L 3531 0 
L 628 0 
L 628 4666 
z
" transform="scale(0.015625)"/>
     </defs>
     <use xlink:href="#DejaVuSans-50"/>
     <use xlink:href="#DejaVuSans-65" x="56.677734"/>
     <use xlink:href="#DejaVuSans-72" x="118.201172"/>
     <use xlink:href="#DejaVuSans-63" x="157.064453"/>
     <use xlink:href="#DejaVuSans-65" x="212.044922"/>
     <use xlink:href="#DejaVuSans-6e" x="273.568359"/>
     <use xlink:href="#DejaVuSans-74" x="336.947266"/>
     <use xlink:href="#DejaVuSans-20" x="376.15625"/>
     <use xlink:href="#DejaVuSans-66" x="407.943359"/>
     <use xlink:href="#DejaVuSans-6f" x="443.148438"/>
     <use xlink:href="#DejaVuSans-72" x="504.330078"/>
     <use xlink:href="#DejaVuSans-65" x="543.193359"/>
     <use xlink:href="#DejaVuSans-73" x="604.716797"/>
     <use xlink:href="#DejaVuSans-74" x="656.816406"/>
     <use xlink:href="#DejaVuSans-20" x="696.025391"/>
     <use xlink:href="#DejaVuSans-63" x="727.8125"/>
     <use xlink:href="#DejaVuSans-6f" x="782.792969"/>
     <use xlink:href="#DejaVuSans-76" x="843.974609"/>
     <use xlink:href="#DejaVuSans-65" x="903.154297"/>
     <use xlink:href="#DejaVuSans-72" x="964.677734"/>
     <use xlink:href="#DejaVuSans-20" x="1005.791016"/>
     <use xlink:href="#DejaVuSans-6c" x="1037.578125"/>
     <use xlink:href="#DejaVuSans-6f" x="1065.361328"/>
     <use xlink:href="#DejaVuSans-73" x="1126.542969"/>
     <use xlink:href="#DejaVuSans-73" x="1178.642578"/>
     <use xlink:href="#DejaVuSans-20" x="1230.742188"/>
     <use xlink:href="#DejaVuSans-2d" x="1262.529297"/>
     <use xlink:href="#DejaVuSans-20" x="1298.613281"/>
     <use xlink:href="#DejaVuSans-50" x="1330.400391"/>
     <use xlink:href="#DejaVuSans-63" x="1390.703125"/>
     <use xlink:href="#DejaVuSans-74" x="1445.683594"/>
     <use xlink:href="#DejaVuSans-46" x="1484.892578"/>
     <use xlink:href="#DejaVuSans-72" x="1535.162109"/>
     <use xlink:href="#DejaVuSans-73" x="1576.275391"/>
     <use xlink:href="#DejaVuSans-74" x="1628.375"/>
     <use xlink:href="#DejaVuSans-4c" x="1667.583984"/>
     <use xlink:href="#DejaVuSans-6f" x="1721.546875"/>
     <use xlink:href="#DejaVuSans-73" x="1782.728516"/>
     <use xlink:href="#DejaVuSans-73" x="1834.828125"/>
    </g>
   </g>
   <g id="text_22">
    <!-- Mean hydraulic conductivity in catchment - - HydrlCondCat -->
    <g transform="translate(98.644566 130.093731)scale(0.0579 -0.0579)">
     <defs>
      <path id="DejaVuSans-4d" d="M 628 4666 
L 1569 4666 
L 2759 1491 
L 3956 4666 
L 4897 4666 
L 4897 0 
L 4281 0 
L 4281 4097 
L 3078 897 
L 2444 897 
L 1241 4097 
L 1241 0 
L 628 0 
L 628 4666 
z
" transform="scale(0.015625)"/>
      <path id="DejaVuSans-68" d="M 3513 2113 
L 3513 0 
L 2938 0 
L 2938 2094 
Q 2938 2591 2744 2837 
Q 2550 3084 2163 3084 
Q 1697 3084 1428 2787 
Q 1159 2491 1159 1978 
L 1159 0 
L 581 0 
L 581 4863 
L 1159 4863 
L 1159 2956 
Q 1366 3272 1645 3428 
Q 1925 3584 2291 3584 
Q 2894 3584 3203 3211 
Q 3513 2838 3513 2113 
z
" transform="scale(0.015625)"/>
      <path id="DejaVuSans-79" d="M 2059 -325 
Q 1816 -950 1584 -1140 
Q 1353 -1331 966 -1331 
L 506 -1331 
L 506 -850 
L 844 -850 
Q 1081 -850 1212 -737 
Q 1344 -625 1503 -206 
L 1606 56 
L 191 3500 
L 800 3500 
L 1894 763 
L 2988 3500 
L 3597 3500 
L 2059 -325 
z
" transform="scale(0.015625)"/>
      <path id="DejaVuSans-64" d="M 2906 2969 
L 2906 4863 
L 3481 4863 
L 3481 0 
L 2906 0 
L 2906 525 
Q 2725 213 2448 61 
Q 2172 -91 1784 -91 
Q 1150 -91 751 415 
Q 353 922 353 1747 
Q 353 2572 751 3078 
Q 1150 3584 1784 3584 
Q 2172 3584 2448 3432 
Q 2725 3281 2906 2969 
z
M 947 1747 
Q 947 1113 1208 752 
Q 1469 391 1925 391 
Q 2381 391 2643 752 
Q 2906 1113 2906 1747 
Q 2906 2381 2643 2742 
Q 2381 3103 1925 3103 
Q 1469 3103 1208 2742 
Q 947 2381 947 1747 
z
" transform="scale(0.015625)"/>
      <path id="DejaVuSans-69" d="M 603 3500 
L 1178 3500 
L 1178 0 
L 603 0 
L 603 3500 
z
M 603 4863 
L 1178 4863 
L 1178 4134 
L 603 4134 
L 603 4863 
z
" transform="scale(0.015625)"/>
      <path id="DejaVuSans-48" d="M 628 4666 
L 1259 4666 
L 1259 2753 
L 3553 2753 
L 3553 4666 
L 4184 4666 
L 4184 0 
L 3553 0 
L 3553 2222 
L 1259 2222 
L 1259 0 
L 628 0 
L 628 4666 
z
" transform="scale(0.015625)"/>
     </defs>
     <use xlink:href="#DejaVuSans-4d"/>
     <use xlink:href="#DejaVuSans-65" x="86.279297"/>
     <use xlink:href="#DejaVuSans-61" x="147.802734"/>
     <use xlink:href="#DejaVuSans-6e" x="209.082031"/>
     <use xlink:href="#DejaVuSans-20" x="272.460938"/>
     <use xlink:href="#DejaVuSans-68" x="304.248047"/>
     <use xlink:href="#DejaVuSans-79" x="367.626953"/>
     <use xlink:href="#DejaVuSans-64" x="426.806641"/>
     <use xlink:href="#DejaVuSans-72" x="490.283203"/>
     <use xlink:href="#DejaVuSans-61" x="531.396484"/>
     <use xlink:href="#DejaVuSans-75" x="592.675781"/>
     <use xlink:href="#DejaVuSans-6c" x="656.054688"/>
     <use xlink:href="#DejaVuSans-69" x="683.837891"/>
     <use xlink:href="#DejaVuSans-63" x="711.621094"/>
     <use xlink:href="#DejaVuSans-20" x="766.601562"/>
     <use xlink:href="#DejaVuSans-63" x="798.388672"/>
     <use xlink:href="#DejaVuSans-6f" x="853.369141"/>
     <use xlink:href="#DejaVuSans-6e" x="914.550781"/>
     <use xlink:href="#DejaVuSans-64" x="977.929688"/>
     <use xlink:href="#DejaVuSans-75" x="1041.40625"/>
     <use xlink:href="#DejaVuSans-63" x="1104.785156"/>
     <use xlink:href="#DejaVuSans-74" x="1159.765625"/>
     <use xlink:href="#DejaVuSans-69" x="1198.974609"/>
     <use xlink:href="#DejaVuSans-76" x="1226.757812"/>
     <use xlink:href="#DejaVuSans-69" x="1285.9375"/>
     <use xlink:href="#DejaVuSans-74" x="1313.720703"/>
     <use xlink:href="#DejaVuSans-79" x="1352.929688"/>
     <use xlink:href="#DejaVuSans-20" x="1412.109375"/>
     <use xlink:href="#DejaVuSans-69" x="1443.896484"/>
     <use xlink:href="#DejaVuSans-6e" x="1471.679688"/>
     <use xlink:href="#DejaVuSans-20" x="1535.058594"/>
     <use xlink:href="#DejaVuSans-63" x="1566.845703"/>
     <use xlink:href="#DejaVuSans-61" x="1621.826172"/>
     <use xlink:href="#DejaVuSans-74" x="1683.105469"/>
     <use xlink:href="#DejaVuSans-63" x="1722.314453"/>
     <use xlink:href="#DejaVuSans-68" x="1777.294922"/>
     <use xlink:href="#DejaVuSans-6d" x="1840.673828"/>
     <use xlink:href="#DejaVuSans-65" x="1938.085938"/>
     <use xlink:href="#DejaVuSans-6e" x="1999.609375"/>
     <use xlink:href="#DejaVuSans-74" x="2062.988281"/>
     <use xlink:href="#DejaVuSans-20" x="2102.197266"/>
     <use xlink:href="#DejaVuSans-2d" x="2133.984375"/>
     <use xlink:href="#DejaVuSans-2d" x="2170.068359"/>
     <use xlink:href="#DejaVuSans-20" x="2206.152344"/>
     <use xlink:href="#DejaVuSans-48" x="2237.939453"/>
     <use xlink:href="#DejaVuSans-79" x="2313.134766"/>
     <use xlink:href="#DejaVuSans-64" x="2372.314453"/>
     <use xlink:href="#DejaVuSans-72" x="2435.791016"/>
     <use xlink:href="#DejaVuSans-6c" x="2476.904297"/>
     <use xlink:href="#DejaVuSans-43" x="2504.6875"/>
     <use xlink:href="#DejaVuSans-6f" x="2574.511719"/>
     <use xlink:href="#DejaVuSans-6e" x="2635.693359"/>
     <use xlink:href="#DejaVuSans-64" x="2699.072266"/>
     <use xlink:href="#DejaVuSans-43" x="2762.548828"/>
     <use xlink:href="#DejaVuSans-61" x="2832.373047"/>
     <use xlink:href="#DejaVuSans-74" x="2893.652344"/>
    </g>
   </g>
   <g id="text_23">
    <!-- Mean imperviousness of anthropogenic surfaces within catchment - PctImp -->
    <g transform="translate(76.559223 169.923521)scale(0.0579 -0.0579)">
     <defs>
      <path id="DejaVuSans-70" d="M 1159 525 
L 1159 -1331 
L 581 -1331 
L 581 3500 
L 1159 3500 
L 1159 2969 
Q 1341 3281 1617 3432 
Q 1894 3584 2278 3584 
Q 2916 3584 3314 3078 
Q 3713 2572 3713 1747 
Q 3713 922 3314 415 
Q 2916 -91 2278 -91 
Q 1894 -91 1617 61 
Q 1341 213 1159 525 
z
M 3116 1747 
Q 3116 2381 2855 2742 
Q 2594 3103 2138 3103 
Q 1681 3103 1420 2742 
Q 1159 2381 1159 1747 
Q 1159 1113 1420 752 
Q 1681 391 2138 391 
Q 2594 391 2855 752 
Q 3116 1113 3116 1747 
z
" transform="scale(0.015625)"/>
      <path id="DejaVuSans-67" d="M 2906 1791 
Q 2906 2416 2648 2759 
Q 2391 3103 1925 3103 
Q 1463 3103 1205 2759 
Q 947 2416 947 1791 
Q 947 1169 1205 825 
Q 1463 481 1925 481 
Q 2391 481 2648 825 
Q 2906 1169 2906 1791 
z
M 3481 434 
Q 3481 -459 3084 -895 
Q 2688 -1331 1869 -1331 
Q 1566 -1331 1297 -1286 
Q 1028 -1241 775 -1147 
L 775 -588 
Q 1028 -725 1275 -790 
Q 1522 -856 1778 -856 
Q 2344 -856 2625 -561 
Q 2906 -266 2906 331 
L 2906 616 
Q 2728 306 2450 153 
Q 2172 0 1784 0 
Q 1141 0 747 490 
Q 353 981 353 1791 
Q 353 2603 747 3093 
Q 1141 3584 1784 3584 
Q 2172 3584 2450 3431 
Q 2728 3278 2906 2969 
L 2906 3500 
L 3481 3500 
L 3481 434 
z
" transform="scale(0.015625)"/>
      <path id="DejaVuSans-77" d="M 269 3500 
L 844 3500 
L 1563 769 
L 2278 3500 
L 2956 3500 
L 3675 769 
L 4391 3500 
L 4966 3500 
L 4050 0 
L 3372 0 
L 2619 2869 
L 1863 0 
L 1184 0 
L 269 3500 
z
" transform="scale(0.015625)"/>
      <path id="DejaVuSans-49" d="M 628 4666 
L 1259 4666 
L 1259 0 
L 628 0 
L 628 4666 
z
" transform="scale(0.015625)"/>
     </defs>
     <use xlink:href="#DejaVuSans-4d"/>
     <use xlink:href="#DejaVuSans-65" x="86.279297"/>
     <use xlink:href="#DejaVuSans-61" x="147.802734"/>
     <use xlink:href="#DejaVuSans-6e" x="209.082031"/>
     <use xlink:href="#DejaVuSans-20" x="272.460938"/>
     <use xlink:href="#DejaVuSans-69" x="304.248047"/>
     <use xlink:href="#DejaVuSans-6d" x="332.03125"/>
     <use xlink:href="#DejaVuSans-70" x="429.443359"/>
     <use xlink:href="#DejaVuSans-65" x="492.919922"/>
     <use xlink:href="#DejaVuSans-72" x="554.443359"/>
     <use xlink:href="#DejaVuSans-76" x="595.556641"/>
     <use xlink:href="#DejaVuSans-69" x="654.736328"/>
     <use xlink:href="#DejaVuSans-6f" x="682.519531"/>
     <use xlink:href="#DejaVuSans-75" x="743.701172"/>
     <use xlink:href="#DejaVuSans-73" x="807.080078"/>
     <use xlink:href="#DejaVuSans-6e" x="859.179688"/>
     <use xlink:href="#DejaVuSans-65" x="922.558594"/>
     <use xlink:href="#DejaVuSans-73" x="984.082031"/>
     <use xlink:href="#DejaVuSans-73" x="1036.181641"/>
     <use xlink:href="#DejaVuSans-20" x="1088.28125"/>
     <use xlink:href="#DejaVuSans-6f" x="1120.068359"/>
     <use xlink:href="#DejaVuSans-66" x="1181.25"/>
     <use xlink:href="#DejaVuSans-20" x="1216.455078"/>
     <use xlink:href="#DejaVuSans-61" x="1248.242188"/>
     <use xlink:href="#DejaVuSans-6e" x="1309.521484"/>
     <use xlink:href="#DejaVuSans-74" x="1372.900391"/>
     <use xlink:href="#DejaVuSans-68" x="1412.109375"/>
     <use xlink:href="#DejaVuSans-72" x="1475.488281"/>
     <use xlink:href="#DejaVuSans-6f" x="1514.351562"/>
     <use xlink:href="#DejaVuSans-70" x="1575.533203"/>
     <use xlink:href="#DejaVuSans-6f" x="1639.009766"/>
     <use xlink:href="#DejaVuSans-67" x="1700.191406"/>
     <use xlink:href="#DejaVuSans-65" x="1763.667969"/>
     <use xlink:href="#DejaVuSans-6e" x="1825.191406"/>
     <use xlink:href="#DejaVuSans-69" x="1888.570312"/>
     <use xlink:href="#DejaVuSans-63" x="1916.353516"/>
     <use xlink:href="#DejaVuSans-20" x="1971.333984"/>
     <use xlink:href="#DejaVuSans-73" x="2003.121094"/>
     <use xlink:href="#DejaVuSans-75" x="2055.220703"/>
     <use xlink:href="#DejaVuSans-72" x="2118.599609"/>
     <use xlink:href="#DejaVuSans-66" x="2159.712891"/>
     <use xlink:href="#DejaVuSans-61" x="2194.917969"/>
     <use xlink:href="#DejaVuSans-63" x="2256.197266"/>
     <use xlink:href="#DejaVuSans-65" x="2311.177734"/>
     <use xlink:href="#DejaVuSans-73" x="2372.701172"/>
     <use xlink:href="#DejaVuSans-20" x="2424.800781"/>
     <use xlink:href="#DejaVuSans-77" x="2456.587891"/>
     <use xlink:href="#DejaVuSans-69" x="2538.375"/>
     <use xlink:href="#DejaVuSans-74" x="2566.158203"/>
     <use xlink:href="#DejaVuSans-68" x="2605.367188"/>
     <use xlink:href="#DejaVuSans-69" x="2668.746094"/>
     <use xlink:href="#DejaVuSans-6e" x="2696.529297"/>
     <use xlink:href="#DejaVuSans-20" x="2759.908203"/>
     <use xlink:href="#DejaVuSans-63" x="2791.695312"/>
     <use xlink:href="#DejaVuSans-61" x="2846.675781"/>
     <use xlink:href="#DejaVuSans-74" x="2907.955078"/>
     <use xlink:href="#DejaVuSans-63" x="2947.164062"/>
     <use xlink:href="#DejaVuSans-68" x="3002.144531"/>
     <use xlink:href="#DejaVuSans-6d" x="3065.523438"/>
     <use xlink:href="#DejaVuSans-65" x="3162.935547"/>
     <use xlink:href="#DejaVuSans-6e" x="3224.458984"/>
     <use xlink:href="#DejaVuSans-74" x="3287.837891"/>
     <use xlink:href="#DejaVuSans-20" x="3327.046875"/>
     <use xlink:href="#DejaVuSans-2d" x="3358.833984"/>
     <use xlink:href="#DejaVuSans-20" x="3394.917969"/>
     <use xlink:href="#DejaVuSans-50" x="3426.705078"/>
     <use xlink:href="#DejaVuSans-63" x="3487.007812"/>
     <use xlink:href="#DejaVuSans-74" x="3541.988281"/>
     <use xlink:href="#DejaVuSans-49" x="3581.197266"/>
     <use xlink:href="#DejaVuSans-6d" x="3610.689453"/>
     <use xlink:href="#DejaVuSans-70" x="3708.101562"/>
    </g>
   </g>
  </g>
 </g>
 <defs>
  <clipPath id="pf9d671a0ab">
   <rect x="46.55" y="10.8" width="302.65" height="307.24"/>
  </clipPath>
 </defs>
</svg>
